<?xml version="1.0" encoding="UTF-8" standalone="no"?>
<svg
   xmlns:dc="http://purl.org/dc/elements/1.1/"
   xmlns:cc="http://creativecommons.org/ns#"
   xmlns:rdf="http://www.w3.org/1999/02/22-rdf-syntax-ns#"
   xmlns:svg="http://www.w3.org/2000/svg"
   xmlns="http://www.w3.org/2000/svg"
   xmlns:sodipodi="http://sodipodi.sourceforge.net/DTD/sodipodi-0.dtd"
   xmlns:inkscape="http://www.inkscape.org/namespaces/inkscape"
   id="svg8"
   viewBox="0 0 100.0 100.0"
   version="1.1"
   sodipodi:docname="1ktwitter.svg"
   inkscape:version="0.92.4 (5da689c313, 2019-01-14)"
   width="100.0mm"
   height="100.0mm">
  <metadata
     id="metadata890">
    <rdf:RDF>
      <cc:Work
         rdf:about="">
        <dc:format>image/svg+xml</dc:format>
        <dc:type
           rdf:resource="http://purl.org/dc/dcmitype/StillImage" />
        <dc:title>1ktwitter-closer</dc:title>
      </cc:Work>
    </rdf:RDF>
  </metadata>
  <sodipodi:namedview
     pagecolor="#ffffff"
     bordercolor="#666666"
     borderopacity="1"
     objecttolerance="10"
     gridtolerance="10"
     guidetolerance="10"
     inkscape:pageopacity="0"
     inkscape:pageshadow="2"
     inkscape:window-width="1920"
     inkscape:window-height="1017"
     id="namedview888"
     showgrid="true"
     inkscape:zoom="4"
     inkscape:cx="219.76511"
     inkscape:cy="200.32996"
     inkscape:window-x="1672"
     inkscape:window-y="-8"
     inkscape:window-maximized="1"
     inkscape:current-layer="g1496"
     borderlayer="true"
     inkscape:document-units="mm">
    <inkscape:grid
       spacingx="2.54"
       spacingy="2.54"
       empspacing="1"
       type="xygrid"
       units="mm"
       id="grid1476" />
  </sodipodi:namedview>
  <defs
     id="defs869">
    <inkscape:path-effect
       effect="bspline"
       id="path-effect2143"
       is_visible="true"
       weight="33.333333"
       steps="2"
       helper_size="0"
       apply_no_weight="true"
       apply_with_weight="true"
       only_selected="false" />
    <style
       id="style867">.cls-1{fill:#010101;}.cls-2{font-size:10px;font-family:PressStart2P-Regular, &quot;Press Start 2P&quot;;}.cls-3{fill:none;}.cls-3,.cls-4{stroke:#000;stroke-miterlimit:10;stroke-width:3px;}</style>
    <inkscape:path-effect
       effect="bspline"
       id="path-effect2057"
       is_visible="true"
       weight="33.333333"
       steps="2"
       helper_size="0"
       apply_no_weight="true"
       apply_with_weight="true"
       only_selected="false" />
  </defs>
  <title
     id="title871">1ktwitter-closer</title>
  <path
     d="M52.29,93.47h0Z"
     transform="translate(-14.89 -10.61)"
     id="path881" />
  <path
     class="cls-3"
     d="M52.29,93.47h0Z"
     transform="translate(-14.89 -10.61)"
     id="path883" />
  <g
     id="g1492"
     sodipodi:insensitive="true"
     inkscape:groupmode="layer"
     inkscape:label="[fixed] BG"
     style="display:none">
    <rect
       id="rect1490"
       style="fill:#ffffff;fill-opacity:1;stroke:none"
       height="100"
       width="100"
       y="0"
       x="0" />
  </g>
  <g
     id="g1494"
     inkscape:groupmode="layer"
     inkscape:label="Edge.Cuts"
     style="display:inline">
    <path
       sodipodi:nodetypes="ccccccccscccccccccccccccccscscccccccccccc"
       inkscape:connector-curvature="0"
       class="cls-1"
       d="m 82.920418,31.898896 -0.03812,-0.08276 -0.04956,-0.06957 -0.06203,-0.05622 -0.07552,-0.04271 -0.09002,-0.02904 -0.10556,-0.0152 -0.261813,0.01175 -0.336228,0.06905 -0.418827,0.127652 -0.509612,0.187554 -0.608583,0.24876 -0.527292,0.224421 -0.533153,0.20982 -0.538712,0.195107 -0.543968,0.180277 -0.171866,0.03231 -0.11562,0.0059 -0.03527,-0.01056 -0.01946,-0.0215 -0.0031,-0.03387 0.01389,-0.04768 0.08102,-0.142565 0.155866,-0.215119 0.554881,-0.694035 0.30976,-0.395105 0.291599,-0.39788 0.27239,-0.398221 0.252136,-0.396129 0.230835,-0.391601 0.208487,-0.384641 0.185093,-0.375246 0.160653,-0.363417 0.135166,-0.349154 0.108633,-0.332458 0.08105,-0.313327 0.05243,-0.291763 0.02275,-0.267764 -0.008,-0.241331 -0.03973,-0.212465 -0.07254,-0.181165 -0.132002,-0.198375 -0.07492,-0.07321 -0.08412,-0.05534 -0.09578,-0.03704 -0.10989,-0.01833 -0.126447,7.98e-4 -0.145454,0.02035 -0.357725,0.101017 -0.463145,0.184237 -0.58816,0.270805 -0.732772,0.360722 -0.781317,0.368257 -0.870427,0.378116 -0.910239,0.369559 -0.900751,0.342584 -0.841964,0.297191 -0.733878,0.233381 -0.576492,0.151153 -0.21382,0.03899 -0.155987,0.01152 -0.09562,-0.02015 -0.139526,-0.05773 -0.383977,-0.211832 -0.479227,-0.313035 -0.520898,-0.381496 -0.52739,-0.384829 -0.534344,-0.360676 -0.54118,-0.336429 -0.5479,-0.312089 -0.554505,-0.287657 -0.560993,-0.263131 -0.567365,-0.238513 -0.57362,-0.213801 -0.579759,-0.188996 -0.585782,-0.164099 -0.591689,-0.139107 -0.597479,-0.114024 -0.603153,-0.08885 -0.608711,-0.06358 -0.614152,-0.03822 -0.619478,-0.01276 -0.802463,0.0098 -0.711863,0.03308 -0.649728,0.06173 -0.616055,0.09578 -0.610847,0.135216 -0.634101,0.180051 -0.685818,0.230281 -0.766,0.285905 -0.540525,0.218197 -0.524246,0.232449 -0.508012,0.246754 -0.491825,0.26111 -0.475682,0.275518 -0.459585,0.289978 -0.443534,0.304489 -0.427528,0.319053 -0.411567,0.333669 -0.395653,0.348336 -0.379784,0.363055 -0.36396,0.377825 -0.348183,0.392649 -0.332449,0.407523 -0.316762,0.422449 -0.301122,0.437428 -0.285525,0.452458 -0.269974,0.467539 -0.25447,0.482674 -0.23901,0.497859 -0.223597,0.513096 -0.208229,0.528386 -0.192905,0.543727 -0.177629,0.55912 -0.162397,0.574565 -0.147211,0.590061 -0.13207,0.60561 -0.116975,0.62121 -0.101926,0.636862 -0.08692,0.652566 -0.07196,0.668322 -0.05705,0.68413 -0.127,1.7145 -0.8255,-0.09525 -1.496188,-0.18263 L 42.505396,41.788484 41.364722,41.580832 40.260324,41.324346 39.097883,40.994811 37.78308,40.56801 36.221594,40.019728 34.319105,39.32575 33.276449,38.920556 32.269194,38.497573 31.294976,38.055072 30.35143,37.591323 29.436193,37.1046 28.5469,36.593173 l -0.865714,-0.53786 -0.844497,-0.566021 -0.825646,-0.595911 -0.809159,-0.627529 -0.795035,-0.660875 -0.783277,-0.695952 -0.773881,-0.732755 -0.766852,-0.771287 -0.762184,-0.811549 -0.759883,-0.853538 -0.802101,-0.895511 -0.339643,-0.344809 -0.3047,-0.274254 -0.274252,-0.202259 -0.2483,-0.128822 -0.115823,-0.03642 -0.111021,-0.01752 -0.106781,0.0016 -0.103103,0.02082 -0.09999,0.04026 -0.09743,0.05988 -0.09544,0.07968 -0.09401,0.09966 -0.185979,0.259992 -0.187001,0.34208 -0.192521,0.42561 -0.202535,0.510581 -0.453099,1.281844 -0.206406,0.613575 -0.158967,0.51479 -0.117667,0.463073 -0.08251,0.458421 -0.05349,0.500838 -0.0306,0.590321 -0.01712,1.637357 0.006,1.610651 0.02326,0.584564 0.0428,0.490306 0.06686,0.435735 0.09545,0.420853 0.128561,0.445657 0.166202,0.51015 0.24369,0.662963 0.273636,0.649945 0.303028,0.635947 0.331865,0.620965 0.360148,0.605001 0.387875,0.588053 0.415049,0.570124 0.441667,0.551211 0.30426,0.382674 0.183152,0.279611 0.04459,0.101506 0.01243,0.07616 -0.02036,0.05095 -0.05378,0.02588 -0.08782,9.54e-4 -0.122493,-0.02384 -0.351513,-0.121481 -0.497737,-0.218963 -0.648984,-0.31533 -0.387368,-0.187849 -0.34744,-0.151851 -0.308884,-0.114458 -0.271701,-0.07567 -0.235888,-0.03549 -0.201449,0.0061 -0.168381,0.04907 -0.136686,0.09344 -0.106362,0.139201 -0.07741,0.186361 -0.04983,0.234916 -0.02362,0.284866 0.0012,0.336212 0.02468,0.388953 0.114257,0.94171 0.158317,0.936051 0.195904,0.89838 0.234615,0.862474 0.27445,0.828337 0.315408,0.795967 0.357491,0.765364 0.400698,0.736529 0.445028,0.709461 0.490483,0.684159 0.537062,0.660627 0.584764,0.63886 0.633591,0.618861 0.683541,0.60063 0.734615,0.584166 0.786814,0.569469 0.840136,0.55654 0.09212,0.06954 0.04654,0.05515 -0.0044,0.04275 -0.0608,0.03233 -0.122566,0.0239 -0.189725,0.01745 -0.602506,0.02348 -0.600273,0.0196 -0.23242,0.02645 -0.195213,0.03928 -0.163959,0.05342 -0.138658,0.06886 -0.119311,0.08561 -0.105916,0.103653 -0.109234,0.126318 -0.07705,0.116272 -0.04394,0.122969 -0.0099,0.14641 0.02508,0.186593 0.06099,0.24352 0.233409,0.724793 0.268286,0.721849 0.31605,0.700462 0.362839,0.678154 0.408649,0.654922 0.453484,0.630769 0.497342,0.605693 0.540223,0.579695 0.582127,0.552774 0.623055,0.52493 0.663006,0.496165 0.70198,0.466477 0.739979,0.435866 0.776999,0.404333 0.813043,0.371878 0.848111,0.3385 0.882202,0.3042 1.019969,0.361156 0.310554,0.131465 0.08458,0.04694 0.02952,0.03194 -0.02252,0.04644 -0.06535,0.06665 -0.246,0.186386 -0.377713,0.244678 -0.48301,0.287961 -1.176238,0.645749 -0.640395,0.327773 -0.640023,0.31103 -0.581024,0.250004 -0.637424,0.243144 -0.687343,0.235005 -0.730782,0.225587 -0.767741,0.21489 -0.79822,0.202914 -0.822219,0.189659 -0.839737,0.175125 -0.850775,0.159312 -0.855332,0.14222 -0.853411,0.123849 -0.845008,0.104199 -0.830125,0.08327 -0.808762,0.06106 -0.780919,0.03758 -0.746595,0.01281 -0.930672,0.01513 -0.335111,0.02254 -0.266154,0.03575 -0.210592,0.05138 -0.168424,0.06942 -0.13965,0.08989 -0.124272,0.112768 -0.126588,0.127058 -0.109142,0.141432 -0.0905,0.154031 -0.07065,0.164854 0.01162,0.08862 0.03523,0.09348 0.05936,0.09873 0.08404,0.104385 0.244233,0.227304 0.349343,0.254651 0.458732,0.28516 0.572399,0.318833 0.690345,0.355668 0.812571,0.395665 0.78361,0.361372 0.789842,0.346176 0.79585,0.330913 0.801636,0.315585 0.807197,0.300188 0.812534,0.284727 0.817649,0.269197 0.822539,0.253602 0.827205,0.237939 0.831648,0.22221 0.835868,0.206415 0.839863,0.190552 0.843635,0.174624 0.847183,0.158627 0.850507,0.142566 0.853609,0.126437 0.469657,0.04969 0.561071,0.04197 1.345313,0.06114 1.557765,0.03138 1.668085,0.0024 1.676269,-0.02592 1.582322,-0.05346 1.386241,-0.08025 0.587674,-0.04994 0.500353,-0.05636 1.43292,-0.206694 1.420712,-0.259369 1.407145,-0.311435 1.39222,-0.362892 1.375936,-0.413739 1.358295,-0.463977 1.339294,-0.513605 1.318935,-0.562624 1.297218,-0.611033 1.274142,-0.658834 1.249707,-0.706024 1.223915,-0.752605 1.196763,-0.798576 1.168254,-0.843939 1.138385,-0.888692 1.107159,-0.932835 0.83654,-0.734769 0.813734,-0.755207 0.790677,-0.775097 0.767367,-0.794438 0.743805,-0.81323 0.719992,-0.831475 0.695926,-0.849171 0.67161,-0.866318 0.64704,-0.882918 0.622219,-0.898968 0.597146,-0.91447 0.571821,-0.929425 0.546245,-0.94383 0.520415,-0.957687 0.494335,-0.970996 0.468003,-0.983757 0.441418,-0.995969 0.414581,-1.007632 0.387494,-1.018747 0.360153,-1.029315 0.332561,-1.039332 0.304717,-1.048803 0.276621,-1.057725 0.248273,-1.066098 0.219673,-1.073922 0.190822,-1.0812 0.161718,-1.087927 0.132362,-1.094107 0.102755,-1.099739 0.0729,-1.104821 0.04279,-1.109356 0.01242,-1.113342 v -1.508125 l 1.36525,-1.016 0.656298,-0.525607 0.634527,-0.550226 0.612094,-0.574145 0.589,-0.597369 0.565244,-0.619895 0.540827,-0.641722 0.51575,-0.662853 0.49001,-0.683287 0.320073,-0.469806 0.249195,-0.392942 0.183337,-0.330249 0.122504,-0.281724 0.06669,-0.24737 0.01591,-0.227186 -0.02986,-0.221169 -0.0706,-0.229325 5e-6,2e-5"
       id="path1627"
       style="fill:none;stroke:#000000;stroke-width:0.26458332;stroke-opacity:1" />
  </g>
  <g
     id="g1496"
     inkscape:groupmode="layer"
     inkscape:label="B.Cu"
     style="display:inline">
    <path
       style="display:inline;fill:#000000;fill-opacity:1;stroke:#000000;stroke-width:0.26458332;stroke-opacity:1"
       d="m 60.398438,27.205078 c -8.404238,0.0452 -12.976722,8.645533 -12.380685,16.190614 -0.598425,2.196091 -4.924001,0.06552 -7.103691,0.133605 -8.406084,-2.007763 -16.675605,-5.913184 -22.160156,-12.808594 -2.453099,5.223492 -0.09333,10.69399 2.933594,14.9375 0.831479,4.247591 -5.696877,0.331277 -3.435547,3.898438 0.337719,4.702452 6.232392,6.015055 7.300781,9.695312 -0.01896,2.338432 -4.463515,1.283196 -1.05664,4.134766 2.191372,3.873854 7.353262,3.378202 9.966797,6.546875 -3.091051,5.264572 -10.373725,5.895559 -15.886719,6.78125 17.021782,8.003428 39.692035,2.245279 49.542969,-14.316406 4.416667,-6.862391 6.342423,-15.120856 5.974609,-23.234376 0.98507,-0.790707 5.721096,-4.015483 4.3125,-4.107421 -4.115423,0.258426 -2.005049,-4.419339 -0.427734,-5.660157 -3.102304,1.562939 -7.074383,3.214184 -9.748047,-0.04883 -2.300335,-1.527298 -5.072138,-2.294852 -7.832031,-2.142578 z"
       id="path846"
       inkscape:connector-curvature="0" />
    <path
       sodipodi:nodetypes="cscsccscscsscccccsccsccccscscccscscscs"
       style="display:inline;fill:#ffffff;stroke:#000000;stroke-width:0.116;stroke-miterlimit:4;stroke-dasharray:none;stroke-opacity:1"
       d="m 62.425249,34.636263 c -0.03103,-0.03943 -0.03209,-0.05825 -0.03209,-0.557654 v -0.516838 h -0.495144 c -0.48441,0 -0.49552,-6.73e-4 -0.51226,-0.03198 -0.0126,-0.02382 -0.01232,-0.03771 0.0014,-0.05422 0.01534,-0.01835 0.102005,-0.02218 0.512256,-0.02218 h 0.493794 v -0.512202 c 0,-0.57654 0.0044,-0.602187 0.104607,-0.602869 0.01917,-1.29e-4 0.480981,0.222822 1.026189,0.495456 0.54521,0.272634 0.994508,0.495692 0.99844,0.495692 0.0038,0 0.0093,-0.213183 0.01178,-0.473722 0.0044,-0.448233 0.006,-0.474905 0.03459,-0.495692 0.04201,-0.0307 0.1074,-0.02738 0.138508,0.0071 0.02328,0.02574 0.02656,0.08536 0.02952,0.553781 l 0.0033,0.524807 0.495689,0.0041 c 0.437528,0.0036 0.497896,0.0068 0.514455,0.02925 0.01314,0.01753 0.01397,0.03409 0.0036,0.05392 -0.01424,0.02684 -0.04721,0.02889 -0.514455,0.03272 l -0.499134,0.0041 -0.0033,0.524806 c -0.003,0.468415 -0.006,0.527923 -0.02952,0.553781 -0.03848,0.04253 -0.105812,0.037 -0.144231,-0.01178 -0.03088,-0.03918 -0.03214,-0.05887 -0.03214,-0.49979 v -0.459008 l -0.995256,0.499027 c -0.547393,0.274463 -1.013921,0.499383 -1.036734,0.499821 -0.02711,5.26e-4 -0.05269,-0.01342 -0.07358,-0.04001 z M 63.5,33.960001 c 0.476715,-0.24032 0.868838,-0.443993 0.871385,-0.452598 0.0025,-0.0085 -0.39272,-0.214306 -0.878371,-0.457105 l -0.883003,-0.441466 v 0.89471 c 0,0.492091 0.0052,0.894418 0.0115,0.894065 0.0063,-3.62e-4 0.401653,-0.197274 0.87837,-0.437606 z"
       id="path921"
       inkscape:connector-curvature="0" />
  </g>
  <g
     id="g1498"
     inkscape:groupmode="layer"
     inkscape:label="B.Mask"
     style="display:none">
    <path
       d="m 23.66937,46.194965 c 0.0177,-0.01702 0.03218,-0.152097 0.03218,-0.300191 0,-0.21402 0.01412,-0.264038 0.06882,-0.243866 0.04014,0.0148 0.101709,-0.02287 0.147725,-0.09037 0.115688,-0.169716 0.212777,-0.189047 0.26656,-0.05306 0.07191,0.181826 0.166296,0.135514 0.261883,-0.128504 0.114947,-0.317477 0.405731,-0.7309 0.514096,-0.7309 0.05206,0 0.243387,-0.209017 0.499115,-0.545275 0.228075,-0.2999 0.493714,-0.635781 0.590297,-0.746388 l 0.175604,-0.201113 -0.02789,-0.413771 c -0.02725,-0.40433 -0.02545,-0.413771 0.07908,-0.413771 0.07231,0 0.123272,-0.04135 0.15729,-0.127617 0.03381,-0.08575 0.247128,-0.259992 0.650249,-0.531121 1.279877,-0.860823 1.375267,-0.93329 1.579536,-1.199952 0.314761,-0.411001 0.413395,-0.660392 0.380899,-0.963048 -0.05171,-0.481626 -0.328323,-0.625384 -1.215624,-0.631735 -0.54098,-0.0039 -0.651728,-0.02836 -0.651728,-0.144127 0,-0.07374 -0.14364,-0.15884 -0.319966,-0.18957 -0.06511,-0.01135 -0.230081,0.01125 -0.366597,0.05022 -0.337028,0.09621 -0.653372,0.08957 -0.858274,-0.018 -0.432977,-0.227333 -0.480122,-0.239689 -0.630125,-0.16512 -0.07669,0.03812 -0.163671,0.11283 -0.193271,0.166019 -0.03403,0.06113 -0.0834,0.08716 -0.134191,0.07075 -0.653191,-0.211033 -0.937266,-0.254264 -1.565204,-0.238196 -0.92695,0.02372 -1.48674,0.153054 -1.84671,0.426635 -0.32819,0.249448 -0.44072,0.577091 -0.30306,0.882329 0.1121,0.24855 0.51592,0.780439 0.69875,0.920383 0.68174,0.521767 0.99665,0.67791 1.427199,0.70761 0.299116,0.02064 0.325864,0.03108 0.325864,0.127199 0,0.05759 -0.07527,0.206189 -0.167277,0.33021 -0.092,0.124024 -0.232344,0.330993 -0.311864,0.45993 -0.07952,0.128937 -0.242402,0.301961 -0.361982,0.384506 -0.25959,0.179201 -0.33431,0.273884 -0.14179,0.179694 0.0759,-0.03716 0.18694,-0.08206 0.24669,-0.09977 0.10259,-0.03042 0.10838,-0.01981 0.1044,0.191354 -0.002,0.122956 -0.0305,0.401067 -0.0626,0.618016 -0.047,0.317463 -0.0461,0.434596 0.005,0.600122 0.0346,0.113117 0.0769,0.410696 0.094,0.66129 0.0171,0.250595 0.04518,0.455624 0.06243,0.455624 0.01725,0 0.05743,-0.02506 0.0893,-0.05569 0.04506,-0.04331 0.05842,-0.0098 0.06011,0.150821 0.0028,0.265357 0.07045,0.404243 0.324688,0.666627 0.205264,0.211845 0.255577,0.240718 0.316827,0.18184 z m -0.318925,-0.338389 c -0.231424,-0.247433 -0.305633,-0.478218 -0.24829,-0.772101 0.03398,-0.174096 -0.005,-0.201142 -0.110655,-0.07674 -0.06073,0.07152 -0.06601,0.03968 -0.04425,-0.266836 0.02217,-0.312271 0.01794,-0.336127 -0.0411,-0.232032 -0.06167,0.108713 -0.06565,0.0989 -0.06329,-0.155882 0.0016,-0.172443 -0.01997,-0.285254 -0.05896,-0.308428 -0.0761,-0.04519 -0.0275,-0.541823 0.07635,-0.780743 0.07968,-0.18332 0.09087,-0.351311 0.02061,-0.309574 -0.02915,0.01732 -0.04827,-0.04592 -0.04827,-0.159681 0,-0.147109 0.0185,-0.189135 0.08448,-0.19192 0.109262,-0.0046 0.184837,-0.01899 0.552852,-0.1053 0.167232,-0.03922 0.346336,-0.07776 0.398007,-0.08565 0.05168,-0.0079 0.166266,-0.08096 0.254627,-0.162379 0.195578,-0.180216 0.315982,-0.221489 0.447972,-0.15359 0.134129,0.069 0.285433,0.01674 0.338265,-0.116851 0.03509,-0.08871 0.07482,-0.10734 0.214256,-0.100444 0.09415,0.0047 0.17129,0.02413 0.171395,0.04327 1.07e-4,0.01914 0.0491,0.03316 0.108839,0.03114 0.05974,-0.002 0.08147,-0.0142 0.04828,-0.02707 -0.03319,-0.01287 -0.06034,-0.05522 -0.06034,-0.09411 0,-0.04624 -0.02718,-0.06068 -0.07853,-0.04174 -0.04319,0.01593 -0.106433,0.0067 -0.140531,-0.02049 -0.04311,-0.03439 -0.07153,-0.03464 -0.09328,-8.08e-4 -0.0413,0.06423 -0.233445,0.06233 -0.301379,-0.003 -0.06094,-0.05858 -0.175046,-0.01134 -0.132491,0.05485 0.01528,0.02376 0.06994,0.0432 0.121478,0.0432 0.117782,0 0.121489,0.07525 0.0066,0.134348 -0.05322,0.02738 -0.114237,0.02829 -0.156898,0.0023 -0.121446,-0.07386 -0.274933,-0.04769 -0.423081,0.07214 -0.07889,0.06381 -0.164787,0.116016 -0.190902,0.116016 -0.02611,0 -0.0754,0.03236 -0.109547,0.07191 -0.08243,0.09547 -0.428255,0.07258 -0.496988,-0.0329 -0.03869,-0.05936 -0.0215,-0.113158 0.07498,-0.234759 0.121056,-0.15256 0.555236,-0.407534 0.69397,-0.407534 0.03738,0 0.06796,-0.01765 0.06796,-0.03923 0,-0.05324 -0.38639,0.04486 -0.533331,0.135398 -0.06512,0.04013 -0.140778,0.08551 -0.168122,0.10084 -0.03286,0.01842 -0.04659,-0.115366 -0.0405,-0.394483 0.0075,-0.345684 0.02312,-0.424314 0.08577,-0.43316 0.05828,-0.0082 0.06958,0.01589 0.04733,0.101088 -0.04733,0.18126 0.01673,0.32757 0.170188,0.388667 0.265549,0.105737 0.45959,-0.04889 0.447551,-0.356662 -0.0033,-0.08368 0.01511,-0.15214 0.04086,-0.15214 0.02574,0 0.04828,-0.03655 0.05007,-0.08121 0.0026,-0.06466 0.01394,-0.05993 0.05565,0.0232 0.02881,0.05743 0.09293,0.104415 0.142481,0.104415 0.072,0 0.08401,0.02331 0.0598,0.116016 -0.04927,0.188685 0.01434,0.331167 0.176706,0.395817 0.20027,0.07974 0.4956,0.01299 0.519376,-0.117378 0.01683,-0.09231 0.01653,-0.09231 -0.05514,-0.0011 -0.06665,0.08487 -0.07031,0.07615 -0.04883,-0.116016 0.03515,-0.314345 -0.04521,-0.388334 -0.408069,-0.375746 -0.259364,0.009 -0.296023,-8.71e-4 -0.324536,-0.08719 -0.04017,-0.12165 0.04654,-0.226387 0.257644,-0.311209 0.113156,-0.04547 0.17915,-0.05035 0.221678,-0.01642 0.03331,0.02658 0.07486,0.03458 0.09233,0.01779 0.01747,-0.01679 0.03177,0.0043 0.03177,0.04681 0,0.06842 0.15993,0.100243 0.368739,0.07338 0.01694,-0.0022 0.04835,0.02332 0.06979,0.05666 0.02144,0.03334 0.0532,0.04696 0.07058,0.03026 0.06231,-0.0599 -0.03522,-0.129628 -0.221317,-0.158232 -0.104183,-0.01601 -0.21421,-0.05784 -0.244518,-0.09293 -0.121759,-0.141029 -0.618041,-0.03004 -0.692598,0.154896 -0.02976,0.07381 -0.03969,0.07504 -0.09033,0.01119 -0.15195,-0.191586 -0.527915,-0.310183 -0.572812,-0.180695 -0.0094,0.02706 -0.08723,0.05113 -0.172995,0.05347 -0.08576,0.0023 -0.155932,0.02197 -0.155932,0.04361 0,0.02164 -0.04888,0.03963 -0.108621,0.03998 -0.202519,0.0012 -0.304683,0.05095 -0.362554,0.176634 -0.07073,0.153605 -0.01794,0.394512 0.07441,0.339549 0.04354,-0.02592 0.04905,-0.07009 0.0186,-0.149196 -0.03402,-0.08839 -0.02246,-0.129716 0.05415,-0.193587 0.05357,-0.04467 0.14296,-0.08439 0.198642,-0.08828 0.05568,-0.0039 0.125445,-0.0094 0.155041,-0.0123 0.02959,-0.0029 0.08905,-0.03335 0.132134,-0.06772 0.04576,-0.03651 0.127112,-0.05072 0.195654,-0.03418 0.07155,0.01726 0.124818,0.0067 0.136537,-0.02711 0.03053,-0.08804 0.374985,0.138339 0.374985,0.246432 0,0.04977 -0.02863,0.101046 -0.06363,0.113954 -0.0549,0.02025 -0.646478,0.05903 -0.990326,0.06491 -0.0685,0.0012 -0.104236,0.02456 -0.09128,0.05973 0.01171,0.03179 0.07671,0.05413 0.144444,0.04964 0.09509,-0.0063 0.130173,0.01874 0.153971,0.109891 0.01695,0.06493 0.02116,0.127344 0.0093,0.1387 -0.01181,0.01135 -0.15904,-0.0033 -0.327162,-0.03264 -0.927308,-0.161642 -2.041178,-1.113973 -2.104688,-1.79941 -0.0173,-0.186959 -0.002,-0.236658 0.10728,-0.347308 0.20343,-0.206044 0.45615,-0.343392 0.84481,-0.459133 0.32124,-0.09567 0.45736,-0.107729 1.206906,-0.106953 0.799604,8.4e-4 0.866783,0.008 1.254833,0.133196 0.708558,0.228682 1.27342,0.581544 2.00512,1.252566 0.311427,0.285602 0.413833,0.353065 0.536333,0.353311 0.141711,2.72e-4 0.153172,-0.01234 0.178879,-0.196922 0.0151,-0.108475 0.04155,-0.396615 0.05877,-0.640306 l 0.03131,-0.443079 0.610512,0.0046 c 0.911786,0.0068 1.151205,0.144797 1.107998,0.638508 -0.03703,0.423095 -0.531702,1.044722 -1.111121,1.396294 -0.302043,0.183276 -0.35219,0.212266 -0.424302,0.245374 -0.03983,0.01828 -0.08328,0.04569 -0.09655,0.0609 -0.01328,0.01521 -0.08305,0.06369 -0.155057,0.107713 l -0.130923,0.08005 -0.0501,-0.173937 c -0.08117,-0.281788 -0.112176,-0.306615 -0.345416,-0.276553 -0.225193,0.02903 -0.641786,-0.105931 -0.751464,-0.243459 -0.04346,-0.0545 -0.0707,-0.0587 -0.11407,-0.01763 -0.07977,0.07556 -0.01978,0.146774 0.161468,0.191672 0.106262,0.02633 0.159342,0.07004 0.169948,0.139955 0.0085,0.05592 -0.0064,0.101671 -0.03317,0.101671 -0.02887,0 -0.0371,0.06808 -0.02028,0.167744 0.02624,0.155447 0.02071,0.165424 -0.07545,0.136092 -0.07605,-0.0232 -0.103768,-0.01223 -0.103768,0.04108 0,0.04 -0.03259,0.07274 -0.07241,0.07274 -0.05034,0 -0.07241,0.04868 -0.07241,0.159682 0,0.08782 -0.02178,0.172631 -0.04841,0.188438 -0.03219,0.01912 -0.03162,0.05891 0.0017,0.118756 0.07942,0.142644 0.118765,0.106076 0.123655,-0.114914 0.0045,-0.203405 0.117929,-0.385071 0.207285,-0.331994 0.05299,0.03148 0.101981,-0.08025 0.101981,-0.232597 0,-0.06172 0.02444,-0.112221 0.05431,-0.112221 0.03416,0 0.04394,-0.04984 0.02636,-0.134315 -0.0242,-0.116291 -0.01529,-0.131132 0.06638,-0.110603 0.112386,0.02825 0.122336,0.118394 0.02191,0.198517 -0.03983,0.03177 -0.07241,0.11709 -0.07241,0.189585 0,0.07249 -0.04345,0.237775 -0.09655,0.367292 -0.05382,0.131263 -0.09402,0.332255 -0.09084,0.454173 0.0049,0.189381 0.01016,0.20004 0.03886,0.07949 0.02554,-0.107251 0.04167,-0.05064 0.07028,0.246519 0.03076,0.319464 0.02372,0.405432 -0.04098,0.500347 -0.04296,0.06303 -0.09864,0.102411 -0.123718,0.08751 -0.02508,-0.0149 -0.03273,0.0051 -0.01701,0.04453 0.01703,0.04266 -0.0037,0.08353 -0.05116,0.10105 -0.04387,0.01618 -0.105862,0.08816 -0.137768,0.159957 -0.07882,0.177374 -0.778106,1.027741 -0.798247,0.97072 -0.02236,-0.06332 -0.104597,-0.05729 -0.104597,0.0077 0,0.02928 -0.07664,0.143135 -0.17031,0.253016 -0.09367,0.109885 -0.220682,0.328601 -0.282249,0.486049 -0.07968,0.203738 -0.121039,0.263487 -0.143486,0.207248 -0.05929,-0.148515 -0.0331,-0.265343 0.06501,-0.289996 0.06248,-0.01571 0.09655,-0.0633 0.09655,-0.134875 0,-0.160464 -0.05372,-0.13334 -0.217243,0.10966 -0.174956,0.259992 -0.25176,0.292737 -0.278946,0.118934 -0.01731,-0.110691 -0.02148,-0.104674 -0.02762,0.03986 -0.004,0.09363 -0.02067,0.203869 -0.03708,0.244997 -0.02681,0.06715 -0.03624,0.06636 -0.09261,-0.0077 -0.09514,-0.12507 -0.143067,-0.03486 -0.143067,0.269273 0,0.151009 -0.01428,0.274566 -0.03173,0.274566 -0.01745,0 -0.128585,-0.10355 -0.246963,-0.230117 z m 0.466634,-0.817826 c 0.01612,-0.04037 0.02861,-0.108241 0.02777,-0.15082 -0.0013,-0.06678 -0.01127,-0.06504 -0.07241,0.01266 -0.07913,0.100566 -0.0937,0.211555 -0.02777,0.211555 0.02371,0 0.0563,-0.03303 0.07241,-0.0734 z m -0.453464,-0.474925 c 0,-0.10041 0.01269,-0.253045 0.0282,-0.339187 0.02228,-0.123705 0.01659,-0.141992 -0.02707,-0.08701 -0.04333,0.05457 -0.04832,0.03452 -0.02312,-0.09281 0.02462,-0.124357 0.01875,-0.150139 -0.02502,-0.110034 -0.07471,0.06846 -0.132325,0.460845 -0.06149,0.418774 0.034,-0.0202 0.04266,0.02965 0.02597,0.149298 -0.01498,0.107338 -0.0034,0.192485 0.02873,0.211584 0.03606,0.02142 0.05379,-0.02823 0.05379,-0.150603 z m 1.253763,-0.258919 c 0.0331,-0.113647 0.0505,-0.234323 0.03867,-0.26817 -0.01183,-0.03384 -0.04923,0.04923 -0.0831,0.184595 -0.07546,0.301555 -0.03902,0.370077 0.04443,0.08357 z m 0.792408,-0.771085 c 0.04699,-0.102381 0.102305,-0.176126 0.122921,-0.163872 0.06715,0.0399 0.148309,-0.206059 0.141706,-0.429462 l -0.0065,-0.21824 -0.03299,0.229204 c -0.01814,0.12606 -0.05915,0.237586 -0.09112,0.247824 -0.05871,0.01881 -0.164531,0.190614 -0.249075,0.404374 -0.0756,0.191136 0.0226,0.131524 0.115007,-0.06982 z m -2.38967,-0.19044 c 0.0031,-0.04122 0.04943,-0.128516 0.103001,-0.193978 0.05357,-0.06547 0.07734,-0.130953 0.05281,-0.145528 -0.02453,-0.01457 -0.03235,-0.0715 -0.01738,-0.126516 0.01864,-0.06853 0.0096,-0.08957 -0.02867,-0.06683 -0.03073,0.01826 -0.05588,0.08555 -0.05588,0.149529 0,0.06398 -0.0231,0.157811 -0.05133,0.208525 -0.02823,0.05071 -0.04161,0.127643 -0.02974,0.170978 0.01868,0.06815 0.02235,0.06867 0.02719,0.0038 z m 2.853121,-0.586344 c -5.6e-4,-0.09945 -0.01107,-0.112251 -0.04754,-0.05801 -0.06104,0.0908 -0.06104,0.185626 0,0.185626 0.02655,0 0.04794,-0.05743 0.04754,-0.127618 z m -1.254879,0.08524 c 0.164652,-0.02068 0.221165,-0.04921 0.234879,-0.118569 0.01504,-0.07602 0.0061,-0.08177 -0.05347,-0.03427 -0.04424,0.03529 -0.189107,0.05244 -0.379707,0.04493 -0.248185,-0.0098 -0.319588,-0.03021 -0.366808,-0.104953 -0.05816,-0.09206 -0.05865,-0.09202 -0.06034,0.0038 -0.0029,0.162698 0.269622,0.253799 0.625447,0.209104 z m 0.410785,-0.355023 c 0.106208,-0.03769 0.26395,-0.100526 0.35053,-0.139629 0.08659,-0.0391 0.18173,-0.05666 0.211435,-0.03901 0.03261,0.01938 0.04488,0.0065 0.03098,-0.03238 -0.01751,-0.04902 -0.108664,-0.06107 -0.380401,-0.0503 -0.196559,0.0078 -0.50945,0.01823 -0.695313,0.02321 -0.36898,0.0099 -0.572465,0.10921 -0.469048,0.228986 0.07601,0.08804 0.71227,0.09415 0.95181,0.0091 z m -0.410347,0.0067 c 0,-0.01067 -0.0138,-0.05397 -0.03066,-0.09622 -0.02535,-0.06351 -0.003,-0.07421 0.129042,-0.0618 0.175891,0.01653 0.246993,0.110679 0.109468,0.144949 -0.122411,0.0305 -0.207844,0.03588 -0.207844,0.01308 z m -0.45194,-0.09661 c 0.01528,-0.03829 0.05805,-0.06961 0.09504,-0.06961 0.03699,0 0.06725,0.03132 0.06725,0.06961 0,0.0383 -0.04274,0.06961 -0.09504,0.06961 -0.06464,0 -0.08615,-0.02226 -0.06725,-0.06961 z m 1.444211,-0.352094 c 0.01784,-0.02775 0.0083,-0.07369 -0.02129,-0.102094 -0.03945,-0.03792 -0.05373,-0.02452 -0.05373,0.05045 0,0.112048 0.02508,0.129314 0.07501,0.05164 z m -0.211072,-0.465238 c 0.03347,-0.01988 0.04682,-0.04963 0.02968,-0.06611 -0.03879,-0.03729 -0.231545,0.01825 -0.231545,0.06672 0,0.04614 0.123827,0.04577 0.20187,-6.22e-4 z M 24.37743,41.424261 c 0,-0.0414 -0.02832,-0.05771 -0.07214,-0.04154 -0.03968,0.01464 -0.06012,0.0453 -0.04543,0.06815 0.04213,0.06552 0.117565,0.04845 0.117565,-0.02661 z m 1.253928,-0.441571 c 0.0624,-0.03707 0.06239,-0.04484 -1.07e-4,-0.06448 -0.03909,-0.01228 -0.136235,-0.01817 -0.215885,-0.01309 -0.07966,0.0051 -0.171984,-0.0094 -0.205174,-0.03226 -0.03751,-0.02579 -0.06034,-0.02282 -0.06034,0.0079 0,0.02714 0.02114,0.06191 0.04697,0.07726 0.08679,0.05156 0.362916,0.06727 0.434546,0.02472 z m 0.11389,-0.170892 c 0.06555,-0.06301 0.0337,-0.198736 -0.04023,-0.171472 -0.03983,0.01469 -0.07241,0.06624 -0.07241,0.11456 0,0.08816 0.05253,0.114695 0.112645,0.05691 z m -3.466534,-0.868292 c 0.0803,-0.0797 0.20999,-0.191905 0.28808,-0.249333 0.12423,-0.09136 0.12967,-0.104414 0.0436,-0.104414 -0.10084,0 -0.55015,0.378371 -0.55015,0.46328 0,0.07635 0.0629,0.04482 0.21851,-0.109537 z m -0.1823,-0.07789 c 0.15732,-0.141724 0.19885,-0.22945 0.10862,-0.22945 -0.0265,0 -0.0483,0.02332 -0.0483,0.05182 0,0.03025 -0.0502,0.04259 -0.12069,0.02964 -0.0664,-0.0122 -0.1207,-0.0042 -0.1207,0.01779 0,0.02198 0.0217,0.03997 0.0483,0.03997 0.0266,0 0.0483,0.02332 0.0483,0.05182 0,0.02946 -0.0429,0.04104 -0.0994,0.02684 -0.0727,-0.01828 -0.0954,-0.0052 -0.0845,0.04875 0.0247,0.122417 0.10325,0.111535 0.26833,-0.03718 z m 0.784488,2.643712 c 0,-0.02775 0.10798,-0.208567 0.239963,-0.401821 0.249482,-0.365305 0.348373,-0.380851 0.222493,-0.03498 -0.04944,0.135843 -0.05337,0.202129 -0.01466,0.247172 0.06389,0.07432 -0.02909,0.145484 -0.19149,0.146571 -0.05817,4.05e-4 -0.119198,0.02159 -0.135609,0.04712 -0.03984,0.06196 -0.12069,0.05924 -0.12069,-0.0041 z m 3.225904,-0.40433 c 0.0085,-0.05871 0.05694,-0.194442 0.107561,-0.301641 0.05063,-0.107194 0.09252,-0.250899 0.09311,-0.319363 0.001,-0.120614 0.148285,-0.260426 0.346367,-0.328861 0.127093,-0.04391 0.238258,0.06991 0.26659,0.272956 0.02542,0.182174 0.01908,0.192528 -0.218405,0.356531 -0.134521,0.0929 -0.279338,0.233526 -0.321821,0.312489 -0.0565,0.105023 -0.105659,0.139693 -0.183072,0.129103 -0.07961,-0.01089 -0.101989,-0.04093 -0.09032,-0.121221 z m 0.391852,-0.26105 c 0.03248,-0.03762 0.052,-0.13294 0.0434,-0.21183 -0.01616,-0.148095 0.06824,-0.242923 0.179632,-0.201825 0.03291,0.01214 0.07418,-2.3e-4 0.09171,-0.0275 0.05033,-0.07828 -0.203288,-0.05922 -0.337601,0.02538 -0.133823,0.08429 -0.155404,0.157086 -0.04658,0.157086 0.08554,0 0.0922,0.06338 0.02023,0.192644 -0.06419,0.115288 -0.03136,0.159348 0.0492,0.06604 z m -1.831477,-0.495692 c 0,-0.02279 0.0313,-0.04144 0.06957,-0.04144 0.09136,0 0.126602,-0.05937 0.07909,-0.133262 -0.02982,-0.04638 -0.05529,-0.04267 -0.117504,0.01713 -0.09597,0.09225 -0.110056,-0.0041 -0.01755,-0.119975 0.08921,-0.111768 0.189831,-0.129111 0.336394,-0.05798 0.142888,0.06935 0.181262,0.244416 0.07241,0.330355 -0.119238,0.09414 -0.422417,0.09784 -0.422417,0.0052 z m -0.842767,0.0082 c -0.01528,-0.02376 -0.0066,-0.05575 0.01918,-0.0711 0.06485,-0.03853 0.0077,-0.164148 -0.07468,-0.164148 -0.03699,0 -0.06896,0.0261 -0.07106,0.05801 -0.0029,0.04364 -0.01007,0.04297 -0.02909,-0.0027 -0.01391,-0.03338 0.01168,-0.09995 0.05685,-0.147934 0.06681,-0.07096 0.106011,-0.07851 0.210122,-0.04046 0.0704,0.02573 0.13807,0.0425 0.150382,0.03726 0.01231,-0.0052 0.0439,0.02326 0.07018,0.06333 0.07065,0.107671 -0.05645,0.310922 -0.194432,0.310922 -0.06033,0 -0.122183,-0.01944 -0.137457,-0.0432 z m 2.709802,-1.448299 c -0.494725,-0.473301 -0.917549,-0.791083 -1.352517,-1.016531 l -0.378606,-0.196227 0.123043,-0.109672 c 0.16263,-0.144955 0.285357,-0.138336 0.571333,0.03081 0.305,0.180405 0.5629,0.213165 0.93876,0.119253 0.606047,-0.151415 0.693035,-0.08456 0.693035,0.532687 0,0.220285 -0.01396,0.528887 -0.03102,0.68577 -0.04164,0.382968 -0.122455,0.37637 -0.564031,-0.0461 z m -4.449852,3.13794 c 0.18889,-0.156506 0.20061,-0.205754 0.0278,-0.116849 -0.0707,0.03637 -0.27925,0.284544 -0.2341,0.278584 0.007,-9.65e-4 0.10008,-0.07374 0.20629,-0.161726 z"
       id="path12"
       inkscape:connector-curvature="0"
       style="display:inline;stroke:#000000;stroke-width:0.1;stroke-miterlimit:4;stroke-dasharray:none;stroke-opacity:1" />
    <path
       inkscape:connector-curvature="0"
       id="path2852"
       d="m 27.164091,57.360275 c 0.0047,-0.0016 0.01264,-0.0016 0.01743,0 0.0047,0.0023 9.35e-4,0.0039 -0.0087,0.0039 -0.0096,0 -0.01351,-0.0016 -0.0087,-0.0039 z m 0.658753,-1.56e-4 c 0.0068,-0.0016 0.01619,-0.0016 0.02091,3.11e-4 0.0048,0.0016 -7.79e-4,0.0031 -0.01233,0.0031 -0.01149,-1.4e-4 -0.01536,-0.0016 -0.0086,-0.0031 z m -0.738772,-0.007 c 0.0068,-0.0016 0.01619,-0.0016 0.02091,3.12e-4 0.0047,0.0016 -7.79e-4,0.0031 -0.01233,0.0031 -0.01149,-1.4e-4 -0.01536,-0.0016 -0.0086,-0.0039 z m 0.822408,0 c 0.0068,-0.0016 0.01619,-0.0016 0.02091,3.12e-4 0.0048,0.0016 -7.78e-4,0.0031 -0.01233,0.0031 -0.01149,-1.4e-4 -0.01536,-0.0016 -0.0086,-0.0039 z m -0.88875,-0.007 c 0.0047,-0.0016 0.01264,-0.0016 0.01742,0 0.0047,0.0016 9.34e-4,0.0039 -0.0087,0.0039 -0.0096,0 -0.01351,-0.0016 -0.0087,-0.0039 z m 0.05958,-0.0099 c -0.14356,-0.01479 -0.235138,-0.0285 -0.374955,-0.05614 -0.102509,-0.02024 -0.34067,-0.07882 -0.412946,-0.101571 l -0.03659,-0.01152 v -0.554835 c 0,-0.604186 4.73e-4,-0.596797 -0.03971,-0.670564 -0.01008,-0.01853 -0.03507,-0.04952 -0.05551,-0.06883 -0.14441,-0.13657 -0.374215,-0.09247 -0.46355,0.08896 l -0.02319,0.04711 -0.0019,0.459986 c -0.0011,0.252997 -0.0045,0.462555 -0.0076,0.465677 -0.01143,0.01145 -0.390026,-0.189026 -0.568915,-0.301209 -0.03451,-0.02165 -0.09852,-0.05956 -0.14227,-0.08432 -0.08897,-0.0503 -0.143457,-0.0952 -0.160172,-0.131914 -0.0099,-0.02172 -0.01165,-0.09135 -0.01511,-0.592608 l -0.0039,-0.568019 -0.02499,-0.118482 c -0.05376,-0.254897 -0.112066,-0.427954 -0.214507,-0.636655 -0.162371,-0.330797 -0.323546,-0.542309 -0.784161,-1.029064 -0.247373,-0.261406 -0.363113,-0.398747 -0.45794,-0.543383 -0.129639,-0.197746 -0.204574,-0.392565 -0.229226,-0.595964 -0.01426,-0.117751 0.0067,-0.40074 0.04649,-0.626665 0.174745,-0.992826 0.810394,-1.900417 1.747732,-2.495439 0.216977,-0.137738 0.563534,-0.320394 0.58076,-0.306099 0.0048,0.0039 0.03292,0.04695 0.06241,0.09551 0.200969,0.330688 0.477532,0.74468 0.720064,1.077875 0.555082,0.762596 1.216199,1.497871 1.876221,2.086671 l 0.09509,0.08482 -0.0036,0.08514 c -0.0069,0.161384 0.02184,0.381578 0.07185,0.551021 0.07909,0.268017 0.210852,0.496363 0.396224,0.686666 0.195377,0.200572 0.409109,0.320877 0.660342,0.371705 0.109404,0.02211 0.289526,0.02211 0.393028,-7e-5 0.175955,-0.03769 0.345651,-0.11814 0.467621,-0.221712 0.01978,-0.01682 0.03948,-0.03052 0.04377,-0.03052 0.0043,0 0.06126,0.02951 0.126587,0.06564 0.06533,0.03605 0.178131,0.09639 0.250686,0.134016 0.07256,0.03761 0.131917,0.07124 0.131917,0.07467 0,0.0031 -0.01533,0.02702 -0.03407,0.0524 -0.09037,0.122422 -0.201615,0.311814 -0.261575,0.445347 -0.08945,0.199195 -0.144952,0.391413 -0.183599,0.635783 l -0.01818,0.114994 -0.0039,0.588933 c -0.0035,0.519908 -0.0052,0.591782 -0.01509,0.613319 -0.01515,0.03309 -0.06271,0.07537 -0.125146,0.111273 -0.04929,0.02834 -0.113148,0.06657 -0.253979,0.152158 -0.176377,0.107146 -0.481484,0.264972 -0.491972,0.254484 -0.0033,-0.0031 -0.0069,-0.21296 -0.0079,-0.465958 l -0.0019,-0.459985 -0.02319,-0.04711 c -0.117554,-0.23874 -0.44278,-0.220645 -0.542862,0.03021 -0.01146,0.02873 -0.0127,0.07568 -0.01591,0.605556 l -0.0035,0.57442 -0.107116,0.03005 c -0.257061,0.07226 -0.570027,0.127608 -0.809379,0.143228 l -0.03136,0.0023 -0.0035,-0.446048 c -0.0034,-0.442155 -0.0037,-0.446391 -0.01912,-0.484387 -0.02263,-0.05552 -0.06201,-0.103837 -0.111925,-0.137388 -0.05081,-0.03418 -0.07778,-0.04337 -0.1428,-0.04874 -0.06083,-0.0047 -0.123533,0.01137 -0.178026,0.04656 -0.04896,0.03161 -0.07831,0.06587 -0.107768,0.125654 l -0.02232,0.04532 -0.002,0.445994 c -0.0011,0.245297 -0.0043,0.447886 -0.007,0.450191 -0.0027,0.0023 -0.05888,-0.0016 -0.124816,-0.0082 z m 0.496131,-2.526124 c 0.05981,-0.01557 0.110824,-0.04757 0.176807,-0.11093 0.146331,-0.140487 0.217185,-0.27986 0.207672,-0.408519 -0.0035,-0.0475 -0.01908,-0.09217 -0.157207,-0.450837 -0.08432,-0.218948 -0.16102,-0.413183 -0.170447,-0.431636 -0.03021,-0.0591 -0.08599,-0.09975 -0.136922,-0.09975 -0.0323,0 -0.07312,0.02414 -0.09971,0.05894 -0.0151,0.01978 -0.0431,0.08152 -0.07663,0.169046 -0.02907,0.07584 -0.100052,0.260207 -0.15775,0.409702 -0.0577,0.149495 -0.108495,0.290028 -0.112878,0.312297 -0.02578,0.130979 0.03328,0.267705 0.178367,0.412933 0.127925,0.128052 0.231492,0.169257 0.348704,0.138727 z m -0.09529,-0.008 c 0.0051,-0.0023 0.01105,-0.0016 0.01336,4.75e-4 0.0023,0.0023 -0.0018,0.0039 -0.0091,0.0039 -0.0081,-3.12e-4 -0.0098,-0.0016 -0.0042,-0.0039 z m 0.04138,1.32e-4 c 0.0047,-0.0016 0.01264,-0.0016 0.01742,0 0.0048,0.0016 9.34e-4,0.0039 -0.0087,0.0039 -0.0096,0 -0.01351,-0.0016 -0.0087,-0.0039 z m -0.333686,-0.188792 c -0.0087,-0.01106 -0.0084,-0.01129 0.0026,-0.0023 0.0067,0.0055 0.01219,0.01075 0.01219,0.01223 0,0.0055 -0.0057,0.0023 -0.01483,-0.0096 z M 27.054869,54.3567 c 3.09e-4,-0.0081 0.0019,-0.0097 0.0042,-0.0039 0.002,0.0047 0.0018,0.01106 -4.75e-4,0.01339 -0.0023,0.0023 -0.004,-0.0016 -0.0037,-0.0092 z m 0.885681,-0.0099 c 0,-0.0096 0.0016,-0.01347 0.0035,-0.0087 0.0019,0.0047 0.0019,0.01261 0,0.01744 -0.0019,0.0047 -0.0035,7.79e-4 -0.0035,-0.0087 z M 27.054869,54.287 c 3.09e-4,-0.0081 0.0019,-0.0097 0.0042,-0.0039 0.002,0.0055 0.0018,0.01106 -4.75e-4,0.01339 -0.0023,0.0023 -0.004,-0.0016 -0.0037,-0.0092 z M 27.94,54.28 c 3.09e-4,-0.0081 0.002,-0.0097 0.0042,-0.0039 0.002,0.0047 0.0018,0.01106 -4.74e-4,0.01339 -0.0023,0.0023 -0.004,-0.0016 -0.0037,-0.0092 z m -0.878162,-0.03488 c 3.09e-4,-0.0081 0.002,-0.0097 0.0042,-0.0039 0.002,0.0047 0.0018,0.01106 -4.74e-4,0.01339 -0.0023,0.0023 -0.004,-0.0016 -0.0037,-0.0092 z m 0.340957,-0.869314 c 0,-0.0016 0.01019,-0.01137 0.02265,-0.02266 l 0.02265,-0.02048 -0.02047,0.02266 c -0.01908,0.0211 -0.02483,0.02585 -0.02483,0.02048 z m 0.103236,-0.05139 c 0.0051,-0.0023 0.01105,-0.0016 0.01336,4.75e-4 0.0023,0.0023 -0.0018,0.0039 -0.0091,0.0039 -0.0081,-3.04e-4 -0.0098,-0.0016 -0.0042,-0.0039 z m -1.815166,0.61838 c 0.390985,-0.07771 0.737591,-0.363289 0.94356,-0.777398 0.264199,-0.531182 0.237266,-1.191741 -0.06737,-1.652427 -0.231938,-0.350737 -0.583641,-0.540721 -0.968674,-0.523241 -0.160993,0.007 -0.286323,0.03963 -0.43629,0.112566 -0.151025,0.07342 -0.25432,0.149643 -0.381721,0.281619 -0.172195,0.178382 -0.29675,0.389676 -0.377057,0.639636 -0.09793,0.304815 -0.111472,0.661711 -0.0361,0.951568 0.02833,0.108944 0.05882,0.192973 0.105208,0.289888 0.186096,0.38882 0.509622,0.639489 0.891793,0.690963 0.07821,0.01051 0.240278,0.0039 0.326661,-0.01316 z m -0.258708,0.0016 c 0.01054,-0.0016 0.02779,-0.0016 0.03833,0 0.01054,0.0016 0.0019,0.0031 -0.01917,0.0031 -0.02108,0 -0.0297,-0.0016 -0.01916,-0.0031 z m 0.08363,0 c 0.01054,-0.0016 0.02779,-0.0016 0.03833,0 0.01054,0.0016 0.0019,0.0031 -0.01916,0.0031 -0.02109,0 -0.0297,-0.0016 -0.01916,-0.0031 z m -0.15638,-0.007 c 0.0051,-0.0023 0.01105,-0.0016 0.01336,4.75e-4 0.0023,0.0023 -0.0018,0.0039 -0.0091,0.0039 -0.0081,-3.04e-4 -0.0098,-0.0016 -0.0042,-0.0039 z m 0.257874,0 c 0.0051,-0.0023 0.01105,-0.0016 0.01336,4.75e-4 0.0023,0.0023 -0.0018,0.0039 -0.0091,0.0039 -0.0081,-3.04e-4 -0.0098,-0.0016 -0.0042,-0.0039 z m -0.30666,-0.007 c 0.0051,-0.0023 0.01103,-0.0016 0.01336,4.75e-4 0.0023,0.0023 -0.0018,0.0039 -0.0091,0.0039 -0.0081,-3.04e-4 -0.0098,-0.0023 -0.0042,-0.0039 z m 0.348477,0 c 0.0051,-0.0023 0.01105,-0.0016 0.01336,4.75e-4 0.0023,0.0023 -0.0018,0.0039 -0.0091,0.0039 -0.0081,-3.04e-4 -0.0098,-0.0023 -0.0042,-0.0039 z m -0.383325,-0.007 c 0.0051,-0.0023 0.01105,-0.0016 0.01336,4.74e-4 0.0023,0.0023 -0.0018,0.0039 -0.0091,0.0039 -0.0081,-3.04e-4 -0.0098,-0.0016 -0.0042,-0.0039 z m 0.956134,-0.262707 c 0,-0.0016 0.0055,-0.007 0.01219,-0.01222 0.01105,-0.0086 0.01131,-0.0084 0.0026,0.0023 -0.0091,0.0116 -0.01482,0.01534 -0.01482,0.0096 z m -1.548127,-0.09306 c -0.0087,-0.01106 -0.0084,-0.01129 0.0026,-0.0023 0.0116,0.0091 0.0153,0.01479 0.0096,0.01479 -0.0014,0 -0.0069,-0.0055 -0.01219,-0.01222 z m -0.319159,-0.660947 c 3.17e-4,-0.0081 0.002,-0.0097 0.0042,-0.0039 0.002,0.0054 0.0018,0.01106 -4.77e-4,0.01339 -0.0023,0.0023 -0.004,-0.0016 -0.0037,-0.0092 z m -0.01394,-0.07669 c 3.17e-4,-0.0081 0.0019,-0.0097 0.0042,-0.0039 0.002,0.0047 0.0018,0.01106 -4.76e-4,0.01339 -0.0023,0.0023 -0.004,-0.0016 -0.0037,-0.0091 z m -0.007,-0.04882 c 3.17e-4,-0.0081 0.002,-0.0097 0.0042,-0.0039 0.002,0.0047 0.0018,0.01106 -4.77e-4,0.01339 -0.0023,0.0023 -0.004,-0.0016 -0.0037,-0.0092 z m 2.418431,-0.04882 c 3.1e-4,-0.0081 0.002,-0.0097 0.0042,-0.0039 0.002,0.0047 0.0018,0.01106 -4.74e-4,0.01339 -0.0023,0.0023 -0.004,-0.0016 -0.0037,-0.0092 z m -2.424591,-0.02032 c 1.34e-4,-0.01152 0.0017,-0.01534 0.0035,-0.0086 0.0018,0.007 0.0016,0.0162 -3.17e-4,0.02087 -0.0019,0.0047 -0.0033,-7.79e-4 -0.0032,-0.01238 z m 2.431562,-0.01456 c 3.09e-4,-0.0081 0.002,-0.0097 0.0042,-0.0039 0.002,0.0047 0.0018,0.01106 -4.74e-4,0.01339 -0.0023,0.0023 -0.004,-0.0016 -0.0037,-0.0092 z m 0.007,-0.04181 c 3.09e-4,-0.0081 0.002,-0.0097 0.0042,-0.0039 0.002,0.0055 0.0018,0.01106 -4.74e-4,0.01339 -0.0023,0.0023 -0.004,-0.0016 -0.0037,-0.0092 z m 0.0075,-0.04469 c 0,-0.0096 0.0016,-0.01355 0.0035,-0.0087 0.0019,0.0047 0.0019,0.01261 0,0.01744 -0.0019,0.0047 -0.0035,7.79e-4 -0.0035,-0.0087 z m -2.452148,-0.04181 c 0,-0.02492 0.0012,-0.03512 0.0028,-0.02266 0.0016,0.01246 0.0016,0.03286 0,0.04532 -0.0016,0.01246 -0.0028,0.0023 -0.0028,-0.02266 z m 2.459118,-0.02087 c 0,-0.0096 0.0016,-0.01347 0.0035,-0.0087 0.0019,0.0047 0.0019,0.01261 0,0.01744 -0.0019,0.0047 -0.0035,7.79e-4 -0.0035,-0.0087 z m 0.008,-0.111506 c 0,-0.0211 0.0012,-0.02974 0.0029,-0.01915 0.0016,0.01051 0.0016,0.0278 0,0.03831 -0.0016,0.01051 -0.0029,0.0016 -0.0029,-0.01915 z m -2.460721,-0.01394 c 0,-0.01339 0.0014,-0.01892 0.0032,-0.01222 0.0018,0.007 0.0018,0.01767 0,0.02437 -0.0018,0.007 -0.0032,0.0016 -0.0032,-0.01222 z m 0.0065,-0.06969 c 0,-0.0096 0.0016,-0.01347 0.0035,-0.0087 0.0019,0.0047 0.0019,0.01261 0,0.01744 -0.0019,0.0047 -0.0035,7.79e-4 -0.0035,-0.0087 z m 2.454268,-0.02788 c 0,-0.0211 0.0012,-0.02974 0.0029,-0.01915 0.0016,0.01051 0.0016,0.0278 0,0.03831 -0.0016,0.01051 -0.0029,0.0016 -0.0029,-0.01915 z m -2.447849,-0.01799 c 3.17e-4,-0.0081 0.002,-0.0097 0.0042,-0.0039 0.002,0.0054 0.0018,0.01106 -4.76e-4,0.01339 -0.0023,0.0023 -0.004,-0.0016 -0.0037,-0.0092 z m 2.440149,-0.09002 c 1.35e-4,-0.01152 0.0017,-0.01534 0.0035,-0.0086 0.0018,0.007 0.0016,0.0162 -3.09e-4,0.02087 -0.0019,0.0047 -0.0033,-7.78e-4 -0.0032,-0.0123 z m -0.0078,-0.0633 c 3.09e-4,-0.0081 0.002,-0.0097 0.0042,-0.0039 0.002,0.0047 0.0018,0.01106 -4.74e-4,0.01339 -0.0023,0.0023 -0.004,-0.0016 -0.0037,-0.0092 z m -0.007,-0.04882 c 3.09e-4,-0.0081 0.002,-0.0097 0.0042,-0.0039 0.002,0.0047 0.0018,0.01106 -4.74e-4,0.01339 -0.0023,0.0023 -0.004,-0.0016 -0.0037,-0.0092 z m -0.007,-0.03488 c 3.09e-4,-0.0081 0.002,-0.0097 0.0042,-0.0039 0.002,0.0055 0.0018,0.01106 -4.74e-4,0.01339 -0.0023,0.0023 -0.004,-0.0016 -0.0037,-0.0092 z m -2.077472,-0.570052 c 0,-0.0016 0.0054,-0.007 0.01219,-0.01222 0.01105,-0.0086 0.01131,-0.0084 0.0026,0.0023 -0.0091,0.0116 -0.01483,0.01534 -0.01483,0.0096 z m 0.03484,-0.04181 c 0,-0.0016 0.0054,-0.007 0.01219,-0.01222 0.01105,-0.0086 0.01131,-0.0084 0.0026,0.0023 -0.0091,0.0116 -0.01482,0.01534 -0.01482,0.0096 z m 1.662049,-0.138501 -0.0486,-0.05053 0.05053,0.04859 c 0.02779,0.02671 0.05053,0.04944 0.05053,0.05053 0,0.0055 -0.0073,-0.0016 -0.05246,-0.04859 z m -1.508719,-0.01479 c 0,-0.0016 0.0054,-0.007 0.01219,-0.01223 0.01105,-0.0086 0.01131,-0.0084 0.0026,0.0023 -0.0091,0.0116 -0.01482,0.01526 -0.01482,0.0096 z m 0.577165,-0.287888 c 0.0051,-0.0023 0.01105,-0.0016 0.01336,4.75e-4 0.0023,0.0023 -0.0018,0.0039 -0.0091,0.0039 -0.0081,-3.12e-4 -0.0098,-0.0016 -0.0042,-0.0039 z m 0.362418,0 c 0.0051,-0.0023 0.01103,-0.0016 0.01336,4.75e-4 0.0023,0.0023 -0.0018,0.0039 -0.0091,0.0039 -0.0081,-3.12e-4 -0.0098,-0.0016 -0.0042,-0.0039 z m -0.3206,-0.007 c 0.0051,-0.0023 0.01105,-0.0016 0.01336,4.75e-4 0.0023,0.0023 -0.0018,0.0039 -0.0091,0.0039 -0.0081,-3.11e-4 -0.0098,-0.0016 -0.0042,-0.0039 z m 0.278781,0 c 0.0051,-0.0023 0.01105,-0.0016 0.01336,4.75e-4 0.0023,0.0023 -0.0018,0.0039 -0.0091,0.0039 -0.0081,-3.11e-4 -0.0098,-0.0016 -0.0042,-0.0039 z m -0.219844,-0.007 c 0.0068,-0.0016 0.01619,-0.0016 0.02091,3.12e-4 0.0047,0.0016 -7.78e-4,0.0031 -0.01233,0.0031 -0.01149,-1.4e-4 -0.01536,-0.0016 -0.0086,-0.0039 z m 0.15333,0 c 0.0068,-0.0016 0.01619,-0.0016 0.02091,3.12e-4 0.0047,0.0016 -7.78e-4,0.0031 -0.01233,0.0031 -0.01151,-1.4e-4 -0.01536,-0.0016 -0.0086,-0.0039 z m 2.261487,6.342501 c 0.0047,-0.0016 0.01264,-0.0016 0.01743,0 0.0047,0.0016 9.34e-4,0.0039 -0.0087,0.0039 -0.0096,0 -0.01351,-0.0016 -0.0087,-0.0039 z m -1.010149,-0.007 c 0.0051,-0.0023 0.01105,-0.0016 0.01336,4.75e-4 0.0023,0.0023 -0.0018,0.0039 -0.0091,0.0039 -0.0081,-3.12e-4 -0.0098,-0.0023 -0.0042,-0.0039 z m 1.073309,0 c 0.0051,-0.0023 0.01105,-0.0016 0.01336,4.75e-4 0.0023,0.0023 -0.0018,0.0039 -0.0091,0.0039 -0.0081,-3.12e-4 -0.0098,-0.0023 -0.0042,-0.0039 z m -1.122097,-0.007 c 0.0051,-0.0023 0.01105,-0.0016 0.01336,4.75e-4 0.0023,0.0023 -0.0018,0.0039 -0.0091,0.0039 -0.0081,-3.11e-4 -0.0098,-0.0023 -0.0042,-0.0039 z m 1.170883,0 c 0.0051,-0.0023 0.01105,-0.0016 0.01336,4.75e-4 0.0023,0.0023 -0.0018,0.0039 -0.0091,0.0039 -0.0081,-3.11e-4 -0.0098,-0.0023 -0.0042,-0.0039 z m -1.220105,-0.007 c 0.0048,-0.0016 0.01264,-0.0016 0.01743,0 0.0048,0.0016 9.34e-4,0.0039 -0.0087,0.0039 -0.0096,0 -0.01351,-0.0016 -0.0087,-0.0039 z m 1.268893,-1.33e-4 c 0.0051,-0.0023 0.01105,-0.0016 0.01336,4.75e-4 0.0023,0.0023 -0.0018,0.0039 -0.0091,0.0039 -0.0081,-3.11e-4 -0.0098,-0.0016 -0.0042,-0.0039 z m -1.310274,-0.007 c 0.0051,-0.0023 0.01103,-0.0016 0.01336,4.75e-4 0.0023,0.0023 -0.0018,0.0039 -0.0091,0.0039 -0.0081,-3.12e-4 -0.0098,-0.0023 -0.0042,-0.0039 z m 1.352091,0 c 0.0051,-0.0023 0.01105,-0.0016 0.01336,4.75e-4 0.0023,0.0023 -0.0018,0.0039 -0.0091,0.0039 -0.0081,-3.12e-4 -0.0098,-0.0023 -0.0042,-0.0039 z m -1.39391,-0.007 c 0.0051,-0.0023 0.01105,-0.0016 0.01336,4.75e-4 0.0023,0.0023 -0.0018,0.0039 -0.0091,0.0039 -0.0081,-3.11e-4 -0.0098,-0.0016 -0.0042,-0.0039 z m 1.435727,0 c 0.0051,-0.0023 0.01105,-0.0016 0.01336,4.75e-4 0.0023,0.0023 -0.0018,0.0039 -0.0091,0.0039 -0.0081,-3.11e-4 -0.0098,-0.0016 -0.0042,-0.0039 z m -1.470574,-0.007 c 0.0051,-0.0023 0.01105,-0.0016 0.01336,4.74e-4 0.0023,0.0023 -0.0018,0.0039 -0.0091,0.0039 -0.0081,-3.12e-4 -0.0098,-0.0023 -0.0042,-0.0039 z m 1.54724,-0.007 c 0.0051,-0.0023 0.01105,-0.0016 0.01336,4.75e-4 0.0023,0.0023 -0.0018,0.0039 -0.0091,0.0039 -0.0081,-3.11e-4 -0.0098,-0.0016 -0.0042,-0.0039 z m -1.623905,-0.007 c 0.0051,-0.0023 0.01105,-0.0016 0.01336,4.75e-4 0.0023,0.0023 -0.0018,0.0039 -0.0091,0.0039 -0.0081,-3.11e-4 -0.0098,-0.0023 -0.0042,-0.0039 z m 1.658751,0 c 0.0051,-0.0023 0.01105,-0.0016 0.01336,4.75e-4 0.0023,0.0023 -0.0018,0.0039 -0.0091,0.0039 -0.0081,-3.11e-4 -0.0098,-0.0023 -0.0042,-0.0039 z m 0.03485,-0.007 c 0.0051,-0.0023 0.01105,-0.0016 0.01336,4.75e-4 0.0023,0.0023 -0.0018,0.0039 -0.0091,0.0039 -0.0081,-3.12e-4 -0.0098,-0.0016 -0.0042,-0.0039 z m -1.819051,-0.02087 c 0.0051,-0.0023 0.01105,-0.0016 0.01336,4.75e-4 0.0023,0.0023 -0.0018,0.0039 -0.0091,0.0039 -0.0081,-3.12e-4 -0.0098,-0.0023 -0.0042,-0.0039 z m -0.309,-0.650382 c 0,-0.308575 7.79e-4,-0.434813 0.0019,-0.280529 0.0011,0.154291 0.0011,0.406767 0,0.56105 -0.0011,0.154292 -0.0019,0.02803 -0.0019,-0.280521 z m 2.529944,0 c 0,-0.308575 7.79e-4,-0.434813 0.0019,-0.280529 0.0011,0.154291 0.0011,0.406767 0,0.56105 -0.0011,0.154292 -0.0019,0.02803 -0.0019,-0.280521 z m -3.104769,0.345747 c 0,-0.0016 0.0048,-0.0047 0.01082,-0.007 0.0062,-0.0023 0.009,-0.0016 0.0065,0.0031 -0.0041,0.0062 -0.01737,0.0098 -0.01737,0.0039 z m 1.561728,-0.468286 c 3.09e-4,-0.0081 0.0019,-0.0097 0.0042,-0.0039 0.002,0.0055 0.0018,0.01106 -4.74e-4,0.01339 -0.0023,0.0023 -0.004,-0.0016 -0.0037,-0.0092 z m 0.550594,0 c 3.09e-4,-0.0081 0.002,-0.0097 0.0042,-0.0039 0.002,0.0055 0.0018,0.01106 -4.74e-4,0.01339 -0.0023,0.0023 -0.004,-0.0016 -0.0037,-0.0092 z m -2.963496,-0.01511 c -0.0087,-0.01106 -0.0084,-0.01129 0.0026,-0.0023 0.0116,0.0091 0.0153,0.01479 0.0096,0.01479 -0.0014,0 -0.0069,-0.0055 -0.01219,-0.01223 z m 5.367439,0.0096 c 0,-0.0016 0.0054,-0.007 0.01219,-0.01223 0.01105,-0.0086 0.01131,-0.0084 0.0026,0.0023 -0.0091,0.0116 -0.01483,0.01534 -0.01483,0.0096 z m -2.899331,-0.13242 c 0,-0.0016 0.0055,-0.007 0.01219,-0.01223 0.01105,-0.0086 0.01131,-0.0084 0.0026,0.0023 -0.0091,0.0116 -0.01482,0.01526 -0.01482,0.0096 z m 0.431223,-0.0096 c -0.0087,-0.01106 -0.0084,-0.01129 0.0026,-0.0023 0.0116,0.0091 0.0153,0.01479 0.0096,0.01479 -0.0014,0 -0.0069,-0.0055 -0.01219,-0.01222 z m -0.396376,-0.02531 c 0,-0.0016 0.0055,-0.007 0.01219,-0.01223 0.01105,-0.0086 0.01131,-0.0084 0.0026,0.0023 -0.0091,0.0116 -0.01483,0.01534 -0.01483,0.0096 z m 0.361528,-0.0096 c -0.0087,-0.01106 -0.0084,-0.01129 0.0026,-0.0023 0.0067,0.0055 0.01219,0.01075 0.01219,0.01222 0,0.0054 -0.0058,0.0023 -0.01482,-0.0096 z m -0.216473,-0.06229 c 0.0051,-0.0023 0.01105,-0.0016 0.01336,4.67e-4 0.0023,0.0023 -0.0018,0.0039 -0.0091,0.0039 -0.0081,-3.03e-4 -0.0098,-0.0016 -0.0042,-0.0039 z m 0.07666,0 c 0.0051,-0.0023 0.01103,-0.0016 0.01336,4.67e-4 0.0023,0.0023 -0.0018,0.0039 -0.0091,0.0039 -0.0081,-3.03e-4 -0.0098,-0.0016 -0.0042,-0.0039 z m -1.852042,-0.20839 c 3.08e-4,-0.0081 0.002,-0.0098 0.0042,-0.0039 0.002,0.0047 0.0018,0.01106 -4.74e-4,0.01339 -0.0023,0.0023 -0.004,-0.0016 -0.0037,-0.0092 z m 3.631132,0 c 3.09e-4,-0.0081 0.0019,-0.0098 0.0042,-0.0039 0.002,0.0047 0.0018,0.01106 -4.74e-4,0.01339 -0.0023,0.0023 -0.004,-0.0016 -0.0037,-0.0092 z m -3.555018,-0.145781 c 0.009,-0.0096 0.01794,-0.01744 0.01985,-0.01744 0.0019,0 -0.0039,0.0079 -0.01289,0.01744 -0.009,0.0096 -0.01794,0.01744 -0.01985,0.01744 -0.0019,0 0.0039,-0.0079 0.01289,-0.01744 z m 3.47388,-0.0055 -0.02047,-0.02266 0.02265,0.02048 c 0.01246,0.01129 0.02265,0.02141 0.02265,0.02266 0,0.0055 -0.0058,6.39e-4 -0.02483,-0.02048 z m -3.217313,-0.07272 c 0.0051,-0.0023 0.01105,-0.0016 0.01336,4.75e-4 0.0023,0.0023 -0.0018,0.0039 -0.0091,0.0039 -0.0081,-3.11e-4 -0.0098,-0.0023 -0.0042,-0.0039 z m 2.962056,0 c 0.0051,-0.0023 0.01105,-0.0016 0.01336,4.75e-4 0.0023,0.0023 -0.0018,0.0039 -0.0091,0.0039 -0.0081,-3.11e-4 -0.0098,-0.0023 -0.0042,-0.0039 z m -3.032107,-0.007 c 0.0087,-0.0016 0.02122,-0.0016 0.02788,1.32e-4 0.0067,0.0016 -4.75e-4,0.0031 -0.01576,0.0031 -0.01533,-7e-5 -0.02079,-0.0016 -0.01211,-0.0031 z m 3.087508,0 c 0.0087,-0.0016 0.02122,-0.0016 0.02788,1.32e-4 0.0067,0.0016 -4.74e-4,0.0031 -0.01576,0.0031 -0.01533,-7e-5 -0.02079,-0.0016 -0.01211,-0.0031 z m 1.209152,-0.500365 c 6.6e-5,-0.01534 0.0014,-0.02079 0.0032,-0.01207 0.0016,0.0086 0.0016,0.02118 -1.35e-4,0.02787 -0.0017,0.007 -0.0031,-4.75e-4 -0.003,-0.01573 z m -5.486241,0.0062 c 3.17e-4,-0.0081 0.002,-0.0097 0.0042,-0.0039 0.002,0.0047 0.0018,0.01106 -4.77e-4,0.01339 -0.0023,0.0023 -0.004,-0.0016 -0.0037,-0.0092 z m -0.007,-0.04882 c 3.16e-4,-0.0081 0.0019,-0.0097 0.0042,-0.0039 0.002,0.0055 0.0018,0.01106 -4.76e-4,0.01339 -0.0023,0.0023 -0.004,-0.0016 -0.0037,-0.0092 z m 5.500036,-0.04469 c 0,-0.01339 0.0014,-0.01892 0.0032,-0.01223 0.0018,0.007 0.0018,0.01768 0,0.02437 -0.0018,0.007 -0.0032,0.0016 -0.0032,-0.01222 z m -5.513975,-0.03893 c 3.17e-4,-0.0081 0.0019,-0.0097 0.0042,-0.0039 0.002,0.0055 0.0018,0.01106 -4.76e-4,0.01339 -0.0023,0.0023 -0.004,-0.0016 -0.0037,-0.0091 z m 5.519878,-0.02788 c 3.09e-4,-0.0081 0.002,-0.0097 0.0042,-0.0039 0.002,0.0047 0.0018,0.01106 -4.74e-4,0.01339 -0.0023,0.0023 -0.004,-0.0016 -0.0037,-0.0091 z m 0.007,-0.04882 c 3.09e-4,-0.0081 0.002,-0.0097 0.0042,-0.0039 0.002,0.0047 0.0018,0.01106 -4.74e-4,0.01339 -0.0023,0.0023 -0.004,-0.0016 -0.0037,-0.0092 z m 0.0076,-0.04469 c 0,-0.0096 0.0016,-0.01347 0.0035,-0.0087 0.0019,0.0047 0.0019,0.01261 0,0.01744 -0.0019,0.0047 -0.0035,7.79e-4 -0.0035,-0.0087 z m 0.01339,-0.08073 c 3.09e-4,-0.0081 0.002,-0.0097 0.0042,-0.0039 0.002,0.0055 0.0018,0.01106 -4.74e-4,0.01339 -0.0023,0.0023 -0.004,-0.0016 -0.0037,-0.0091 z m -0.835154,-1.032419 c 0.01054,-0.0016 0.02779,-0.0016 0.03833,0 0.01054,0.0016 0.0019,0.0031 -0.01917,0.0031 -0.02108,0 -0.0297,-0.0016 -0.01916,-0.0031 z m 0.08364,0 c 0.01054,-0.0016 0.02779,-0.0016 0.03833,0 0.01054,0.0016 0.0019,0.0031 -0.01916,0.0031 -0.02108,0 -0.02971,-0.0016 -0.01917,-0.0031 z m -0.156378,-0.007 c 0.0051,-0.0023 0.01103,-0.0016 0.01336,4.75e-4 0.0023,0.0023 -0.0018,0.0039 -0.0091,0.0039 -0.0081,-3.11e-4 -0.0098,-0.0016 -0.0042,-0.0039 z m 0.257872,0 c 0.0051,-0.0023 0.01105,-0.0016 0.01336,4.75e-4 0.0023,0.0023 -0.0018,0.0039 -0.0091,0.0039 -0.0081,-3.11e-4 -0.0098,-0.0016 -0.0042,-0.0039 z m -0.299691,-0.007 c 0.0051,-0.0023 0.01105,-0.0016 0.01336,4.75e-4 0.0023,0.0023 -0.0018,0.0039 -0.0091,0.0039 -0.0081,-3.12e-4 -0.0098,-0.0023 -0.0042,-0.0039 z m 0.348478,0 c 0.0051,-0.0023 0.01105,-0.0016 0.01336,4.75e-4 0.0023,0.0023 -0.0018,0.0039 -0.0091,0.0039 -0.0081,-3.12e-4 -0.0098,-0.0023 -0.0042,-0.0039 z m 0.03485,-0.007 c 0.0051,-0.0023 0.01103,-0.0016 0.01336,4.75e-4 0.0023,0.0023 -0.0018,0.0039 -0.0091,0.0039 -0.0081,-3.11e-4 -0.0098,-0.0016 -0.0042,-0.0039 z m -5.658855,-0.09107 c -0.0087,-0.01106 -0.0084,-0.01129 0.0026,-0.0023 0.0067,0.0055 0.01219,0.01075 0.01219,0.01222 0,0.0055 -0.0058,0.0023 -0.01483,-0.0096 z m -0.04879,-0.05575 c -0.0087,-0.01106 -0.0084,-0.01129 0.0026,-0.0023 0.0116,0.0091 0.0153,0.01479 0.0096,0.01479 -0.0014,0 -0.0069,-0.0055 -0.01219,-0.01223 z m -0.06598,-0.07319 -0.01327,-0.01565 0.01568,0.01331 c 0.0086,0.007 0.01568,0.0144 0.01568,0.01565 0,0.0054 -0.0056,0.0016 -0.01809,-0.01331 z m 4.812245,-0.05224 c -0.0087,-0.01106 -0.0084,-0.01129 0.0026,-0.0023 0.0067,0.0055 0.01219,0.01074 0.01219,0.01222 0,0.0055 -0.0058,0.0023 -0.01483,-0.0096 z m -4.909595,-0.05225 -0.02047,-0.02266 0.02265,0.02048 c 0.02112,0.01908 0.02585,0.02484 0.02047,0.02484 -0.0012,0 -0.0114,-0.0102 -0.02265,-0.02266 z m 7.280127,-0.07763 c 0,-0.0016 0.0063,-0.0039 0.01395,-0.0062 0.0077,-0.0023 0.01219,-7.78e-4 0.01004,0.0023 -0.0037,0.0062 -0.02399,0.0092 -0.02399,0.0039 z m -0.170753,-0.103953 c -0.220648,-0.113033 -0.393779,-0.207043 -0.393779,-0.213817 0,-0.0031 0.01075,-0.03519 0.0239,-0.07148 0.179259,-0.495218 0.107439,-1.085124 -0.186064,-1.528206 -0.11691,-0.176489 -0.284718,-0.342429 -0.447809,-0.442824 -0.175153,-0.107816 -0.356837,-0.163768 -0.557419,-0.171671 -0.196808,-0.0078 -0.37961,0.03691 -0.548954,0.134071 -0.170449,0.09781 -0.340428,0.268282 -0.442545,0.443837 -0.01728,0.02974 -0.03395,0.05404 -0.03703,0.05404 -0.0176,0 -0.506578,-0.484302 -0.689765,-0.683177 -0.378724,-0.41115 -0.736073,-0.852807 -1.079767,-1.334508 -0.179784,-0.25197 -0.599589,-0.89279 -0.599589,-0.915253 0,-0.007 0.214537,-0.06813 0.344992,-0.09817 0.396971,-0.09136 0.73515,-0.128955 1.160429,-0.128987 0.372218,-2.3e-5 0.654305,0.02655 0.996645,0.09401 1.550459,0.305406 2.800307,1.3121 3.259119,2.625072 0.11257,0.322146 0.17253,0.642377 0.187619,1.002061 0.0044,0.105028 0.0036,0.116318 -0.01401,0.194149 -0.02657,0.117486 -0.04713,0.175695 -0.101316,0.28675 -0.07084,0.145189 -0.157785,0.269683 -0.305818,0.437873 -0.105826,0.120234 -0.376778,0.398186 -0.390121,0.400195 -0.0063,7.79e-4 -0.08671,-0.03683 -0.17871,-0.08396 z m -7.234826,0.04913 -0.02047,-0.02266 0.02265,0.02048 c 0.02112,0.01908 0.02585,0.02484 0.02047,0.02484 -0.0012,0 -0.0114,-0.0102 -0.02265,-0.02266 z m 7.510123,-0.0366 c 0.02082,-0.0211 0.03942,-0.03831 0.04134,-0.03831 0.0019,0 -0.01355,0.01729 -0.03437,0.03831 -0.02082,0.0211 -0.03942,0.03831 -0.04134,0.03831 -0.0019,0 0.01355,-0.01729 0.03437,-0.03831 z m -7.61489,-0.0749 -0.01327,-0.01565 0.01568,0.01331 c 0.01474,0.01246 0.01886,0.01806 0.01328,0.01806 -0.0012,0 -0.0084,-0.007 -0.01568,-0.01565 z m -0.07666,-0.08363 -0.01328,-0.01565 0.01568,0.01332 c 0.01474,0.01246 0.01885,0.01806 0.01328,0.01806 -0.0012,0 -0.0084,-0.007 -0.01568,-0.01565 z m 7.890186,-0.04703 c 0.0069,-0.0078 0.01419,-0.01394 0.0161,-0.01394 0.0019,0 -0.0022,0.0062 -0.0091,0.01394 -0.0069,0.0078 -0.01419,0.01394 -0.0161,0.01394 -0.0019,0 0.0022,-0.0062 0.0091,-0.01394 z m -7.942685,-0.01223 c -0.0087,-0.01106 -0.0084,-0.01129 0.0026,-0.0023 0.0067,0.0055 0.01219,0.01075 0.01219,0.01222 0,0.0055 -0.0058,0.0023 -0.01483,-0.0096 z m 7.054619,-0.01277 c 3.09e-4,-0.0081 0.0019,-0.0097 0.0042,-0.0039 0.002,0.0047 0.0018,0.01106 -4.75e-4,0.01339 -0.0023,0.0023 -0.004,-0.0016 -0.0037,-0.0091 z m -7.096436,-0.03605 c -0.0087,-0.01106 -0.0084,-0.01129 0.0026,-0.0023 0.0067,0.0055 0.01219,0.01075 0.01219,0.01222 0,0.0055 -0.0058,0.0023 -0.01482,-0.0096 z m 8.061168,-0.02266 c 0.0069,-0.0078 0.01419,-0.01394 0.0161,-0.01394 0.0019,0 -0.0022,0.0062 -0.0091,0.01394 -0.0069,0.0078 -0.01419,0.01394 -0.0161,0.01394 -0.0019,0 0.0022,-0.0062 0.0091,-0.01394 z m 0.08712,-0.100208 c 0,-0.0016 0.0055,-0.007 0.01219,-0.01223 0.01106,-0.0086 0.0113,-0.0084 0.0026,0.0023 -0.0091,0.0116 -0.01483,0.01534 -0.01483,0.0096 z m -0.961248,-0.140822 c 3.09e-4,-0.0081 0.002,-0.0097 0.0042,-0.0039 0.002,0.0047 0.0018,0.01106 -4.74e-4,0.01339 -0.0023,0.0023 -0.004,-0.0016 -0.0037,-0.0092 z m 0.01394,-0.07669 c 3.09e-4,-0.0081 0.002,-0.0097 0.0042,-0.0039 0.002,0.0055 0.0018,0.01106 -4.74e-4,0.01339 -0.0023,0.0023 -0.004,-0.0016 -0.0037,-0.0092 z m 0.0075,-0.0517 c 0,-0.0096 0.0016,-0.01347 0.0035,-0.0087 0.0019,0.0047 0.0019,0.01261 0,0.01744 -0.0019,0.0047 -0.0035,7.79e-4 -0.0035,-0.0087 z m -2.418884,-0.03854 c 3.08e-4,-0.0081 0.002,-0.0097 0.0042,-0.0039 0.002,0.0047 0.0018,0.01106 -4.75e-4,0.01339 -0.0023,0.0023 -0.004,-0.0016 -0.0037,-0.0092 z m 2.426469,-0.03076 c 0,-0.01339 0.0014,-0.01892 0.0032,-0.01222 0.0018,0.007 0.0018,0.01767 0,0.02437 -0.0018,0.007 -0.0032,0.0016 -0.0032,-0.01222 z m -2.433438,-0.0039 c 3.09e-4,-0.0081 0.0019,-0.0097 0.0042,-0.0039 0.002,0.0054 0.0018,0.01106 -4.74e-4,0.01339 -0.0023,0.0023 -0.004,-0.0016 -0.0037,-0.0092 z m -0.007,-0.04181 c 3.08e-4,-0.0081 0.002,-0.0097 0.0042,-0.0039 0.002,0.0054 0.0018,0.01106 -4.74e-4,0.01339 -0.0023,0.0023 -0.004,-0.0016 -0.0037,-0.0091 z m -0.0064,-0.04469 c 0,-0.0096 0.0016,-0.01347 0.0035,-0.0087 0.0019,0.0047 0.0019,0.01261 0,0.01744 -0.0019,0.0047 -0.0035,7.79e-4 -0.0035,-0.0087 z m -0.0067,-0.06618 c 1.34e-4,-0.01152 0.0017,-0.01534 0.0035,-0.0086 0.0018,0.007 0.0016,0.0162 -3.09e-4,0.02087 -0.0019,0.0047 -0.0033,-7.78e-4 -0.0032,-0.0123 z m -0.0063,-0.104545 c 6.7e-5,-0.01915 0.0014,-0.02616 0.003,-0.01557 0.0016,0.01059 0.0016,0.02624 -1.37e-4,0.03488 -0.0016,0.0086 -0.003,-9.4e-5 -0.0029,-0.01923 z m 2.459873,-0.01744 c 0,-0.01339 0.0014,-0.01892 0.0032,-0.01223 0.0018,0.007 0.0018,0.01767 0,0.02437 -0.0018,0.007 -0.0032,0.0016 -0.0032,-0.01222 z m -7.611809,-0.04586 c 3.17e-4,-0.0081 0.002,-0.0097 0.0042,-0.0039 0.002,0.0047 0.0018,0.01106 -4.75e-4,0.01339 -0.0023,0.0023 -0.004,-0.0016 -0.0037,-0.0091 z m 7.603773,-0.02094 c 3.09e-4,-0.0081 0.002,-0.0097 0.0042,-0.0039 0.002,0.0047 0.0018,0.01106 -4.74e-4,0.01339 -0.0023,0.0023 -0.004,-0.0016 -0.0037,-0.0092 z m -2.451741,-0.03075 c 0,-0.0211 0.0012,-0.02974 0.0029,-0.01915 0.0016,0.01051 0.0016,0.0278 0,0.03831 -0.0016,0.01051 -0.0029,0.0016 -0.0029,-0.01915 z m -5.158451,0.007 c 0,-0.0096 0.0016,-0.01347 0.0035,-0.0087 0.0019,0.0047 0.0019,0.01261 0,0.01744 -0.0019,0.0047 -0.0035,7.78e-4 -0.0035,-0.0087 z m 8.913498,-0.01106 c 3.29e-4,-0.0081 0.002,-0.0097 0.0042,-0.0039 0.002,0.0047 0.0018,0.01106 -5.56e-4,0.01339 -0.0023,0.0023 -0.004,-0.0016 -0.0037,-0.0091 z m -1.310275,-0.01394 c 3.09e-4,-0.0081 0.002,-0.0097 0.0042,-0.0039 0.002,0.0047 0.0018,0.01106 -4.74e-4,0.01339 -0.0023,0.0023 -0.004,-0.0016 -0.0037,-0.0092 z m -2.496536,-0.112674 c -0.0087,-0.01106 -0.0084,-0.01129 0.0026,-0.0023 0.0067,0.0055 0.01219,0.01075 0.01219,0.01223 0,0.0055 -0.0058,0.0023 -0.01483,-0.0096 z m 3.808254,-0.06097 c 8e-5,-0.01915 0.0014,-0.02616 0.003,-0.01557 0.0016,0.01059 0.0016,0.02624 -1.08e-4,0.0348 -0.0016,0.0086 -0.003,-9.3e-5 -0.0029,-0.01923 z m -8.914281,-0.007 c 6.6e-5,-0.01534 0.0014,-0.02079 0.0032,-0.01207 0.0016,0.0086 0.0016,0.02118 -1.35e-4,0.02788 -0.0017,0.007 -0.0031,-4.75e-4 -0.003,-0.01573 z m 5.040046,0.0087 -0.01327,-0.01565 0.01567,0.01331 c 0.01474,0.01246 0.01885,0.01806 0.01328,0.01806 -0.0012,0 -0.0084,-0.007 -0.01568,-0.01565 z m -0.07304,-0.06618 -0.0169,-0.01915 0.01917,0.0169 c 0.01054,0.0093 0.01916,0.01791 0.01916,0.01915 0,0.0055 -0.0056,7.78e-4 -0.02144,-0.0169 z m -4.960032,-0.05404 c 6.8e-5,-0.01534 0.0014,-0.02079 0.0032,-0.01207 0.0016,0.0086 0.0016,0.02126 -1.35e-4,0.02787 -0.0017,0.007 -0.0031,-4.75e-4 -0.003,-0.01573 z m 8.900109,0 c 8.1e-5,-0.01534 0.0015,-0.02079 0.0032,-0.01207 0.0016,0.0086 0.0016,0.02126 -1.34e-4,0.02787 -0.0017,0.007 -0.0031,-4.75e-4 -0.003,-0.01573 z m -4.030682,-0.02959 -0.0169,-0.01915 0.01916,0.0169 c 0.01054,0.0093 0.01916,0.01791 0.01916,0.01915 0,0.0055 -0.0056,7.78e-4 -0.02144,-0.0169 z m -4.862906,-0.04711 c 1.35e-4,-0.01152 0.0017,-0.01534 0.0035,-0.0086 0.0018,0.007 0.0016,0.0162 -3.17e-4,0.02094 -0.0019,0.0047 -0.0033,-7.78e-4 -0.0032,-0.0123 z m 8.886171,0 c 1.34e-4,-0.01152 0.0017,-0.01534 0.0035,-0.0086 0.0018,0.007 0.0016,0.0162 -2.67e-4,0.02094 -0.0019,0.0047 -0.0033,-7.78e-4 -0.0032,-0.0123 z m -8.880009,-0.0633 c 3.17e-4,-0.0081 0.0019,-0.0097 0.0042,-0.0039 0.002,0.0047 0.0018,0.01106 -4.76e-4,0.01339 -0.0023,0.0023 -0.004,-0.0016 -0.0037,-0.0092 z m 4.720989,-0.01861 -0.02755,-0.02959 0.02962,0.02756 c 0.01629,0.01518 0.02962,0.0285 0.02962,0.02959 0,0.0055 -0.0061,0 -0.03169,-0.02756 z m 4.151241,0.01861 c 3.3e-4,-0.0081 0.002,-0.0097 0.0042,-0.0039 0.002,0.0047 0.0018,0.01106 -5.56e-4,0.01339 -0.0023,0.0023 -0.004,-0.0016 -0.0037,-0.0092 z m -8.865261,-0.04882 c 3.17e-4,-0.0081 0.0019,-0.0097 0.0042,-0.0039 0.002,0.0047 0.0018,0.01106 -4.75e-4,0.01339 -0.0023,0.0023 -0.004,-0.0016 -0.0037,-0.0092 z m 8.858292,0 c 3.29e-4,-0.0081 0.002,-0.0097 0.0042,-0.0039 0.002,0.0047 0.0018,0.01106 -5.56e-4,0.01339 -0.0023,0.0023 -0.004,-0.0016 -0.0037,-0.0092 z m -8.851322,-0.04882 c 3.17e-4,-0.0081 0.0019,-0.0097 0.0042,-0.0039 0.002,0.0055 0.0018,0.01106 -4.76e-4,0.01339 -0.0023,0.0023 -0.004,-0.0016 -0.0037,-0.0092 z m 8.844352,0 c 3.3e-4,-0.0081 0.002,-0.0097 0.0042,-0.0039 0.002,0.0055 0.0018,0.01106 -5.56e-4,0.01339 -0.0023,0.0023 -0.004,-0.0016 -0.0037,-0.0092 z m -0.0069,-0.04181 c 3.29e-4,-0.0081 0.002,-0.0097 0.0042,-0.0039 0.002,0.0055 0.0018,0.01106 -5.57e-4,0.01339 -0.0023,0.0023 -0.004,-0.0016 -0.0037,-0.0092 z m -8.823445,-0.04181 c 3.18e-4,-0.0081 0.0019,-0.0097 0.0042,-0.0039 0.002,0.0047 0.0018,0.01106 -4.75e-4,0.01339 -0.0023,0.0023 -0.004,-0.0016 -0.0037,-0.0091 z m 8.816474,0 c 3.31e-4,-0.0081 0.002,-0.0097 0.0042,-0.0039 0.002,0.0047 0.0018,0.01106 -5.56e-4,0.01339 -0.0023,0.0023 -0.004,-0.0016 -0.0037,-0.0091 z m -0.0069,-0.0348 c 3.29e-4,-0.0081 0.002,-0.0097 0.0042,-0.0039 0.002,0.0047 0.0018,0.01106 -5.56e-4,0.01339 -0.0023,0.0023 -0.004,-0.0016 -0.0037,-0.0092 z m -3.569485,-0.04298 -0.0169,-0.01915 0.01916,0.0169 c 0.01054,0.0093 0.01916,0.01791 0.01916,0.01916 0,0.0054 -0.0056,7.78e-4 -0.02144,-0.0169 z m 3.555546,-0.02671 c 3.29e-4,-0.0081 0.002,-0.0097 0.0042,-0.0039 0.002,0.0054 0.0018,0.01106 -5.56e-4,0.01339 -0.0023,0.0023 -0.004,-0.0016 -0.0037,-0.0092 z m -8.767765,-0.0348 c 3.17e-4,-0.0081 0.0019,-0.0097 0.0042,-0.0039 0.002,0.0055 0.0018,0.01106 -4.76e-4,0.01339 -0.0023,0.0023 -0.004,-0.0016 -0.0037,-0.0092 z m 5.107598,-0.03605 -0.0169,-0.01915 0.01916,0.0169 c 0.01054,0.0093 0.01917,0.01791 0.01917,0.01915 0,0.0055 -0.0056,7.79e-4 -0.02144,-0.0169 z m -0.811752,-0.03138 -0.02755,-0.02959 0.02962,0.02756 c 0.02755,0.02562 0.03283,0.03169 0.02755,0.03169 -0.0011,0 -0.01447,-0.01331 -0.02962,-0.02959 z m 2.846499,-0.03831 c -0.0087,-0.01106 -0.0084,-0.01129 0.0026,-0.0023 0.0067,0.0055 0.01219,0.01075 0.01219,0.01222 0,0.0055 -0.0058,0.0023 -0.01483,-0.0096 z m -2.972061,-0.09409 -0.02047,-0.02266 0.02265,0.02048 c 0.02112,0.01908 0.02586,0.02484 0.02047,0.02484 -0.0012,0 -0.0114,-0.0102 -0.02265,-0.02266 z m 0.697248,-0.06969 -0.06258,-0.06447 0.06447,0.0626 c 0.05988,0.05816 0.06764,0.06634 0.06258,0.06634 -0.0011,0 -0.03005,-0.02904 -0.06447,-0.06447 z m 2.121482,0.01043 c -0.0087,-0.01106 -0.0084,-0.01129 0.0026,-0.0023 0.0067,0.0055 0.01219,0.01075 0.01219,0.01223 0,0.0055 -0.0058,0.0023 -0.01483,-0.0096 z m -2.902589,-0.03138 -0.01328,-0.01565 0.01568,0.01331 c 0.01474,0.01246 0.01885,0.01806 0.01327,0.01806 -0.0012,0 -0.0084,-0.007 -0.01568,-0.01565 z m -0.07341,-0.08015 c -0.0087,-0.01106 -0.0084,-0.01129 0.0026,-0.0023 0.0067,0.0054 0.01219,0.01075 0.01219,0.01222 0,0.0055 -0.0058,0.0023 -0.01483,-0.0096 z m -0.05901,-0.06618 -0.01328,-0.01565 0.01568,0.01324 c 0.01474,0.01246 0.01886,0.01806 0.01327,0.01806 -0.0012,0 -0.0084,-0.007 -0.01568,-0.01565 z m -0.0525,-0.05925 c -0.0087,-0.01106 -0.0084,-0.01129 0.0026,-0.0023 0.0067,0.0055 0.01219,0.01075 0.01219,0.01222 0,0.0055 -0.0058,0.0023 -0.01483,-0.0096 z m 0.735738,-0.01043 -0.02047,-0.02266 0.02265,0.02048 c 0.02112,0.01908 0.02585,0.02484 0.02047,0.02484 -0.0012,0 -0.0114,-0.0102 -0.02265,-0.02266 z m 1.77985,-0.03091 c 0.0051,-0.0023 0.01105,-0.0016 0.01336,4.75e-4 0.0023,0.0023 -0.0018,0.0039 -0.0091,0.0039 -0.0081,-3.03e-4 -0.0098,-0.0016 -0.0042,-0.0039 z m -2.564374,-0.0144 c -0.0087,-0.01106 -0.0084,-0.01129 0.0026,-0.0023 0.0067,0.0054 0.01219,0.01075 0.01219,0.01222 0,0.0055 -0.0058,0.0023 -0.01483,-0.0096 z m 2.243776,0.0078 c 0.0051,-0.0023 0.01105,-0.0016 0.01336,4.75e-4 0.0023,0.0023 -0.0018,0.0039 -0.0091,0.0039 -0.0081,-3.04e-4 -0.0098,-0.0016 -0.0042,-0.0039 z m 0.278781,0 c 0.0051,-0.0023 0.01105,-0.0016 0.01336,4.75e-4 0.0023,0.0023 -0.0018,0.0039 -0.0091,0.0039 -0.0081,-3.04e-4 -0.0098,-0.0016 -0.0042,-0.0039 z m -0.223461,-0.007 c 0.0047,-0.0016 0.01264,-0.0016 0.01743,0 0.0047,0.0016 9.34e-4,0.0039 -0.0087,0.0039 -0.0096,0 -0.01351,-0.0016 -0.0087,-0.0039 z m 0.156947,-1.55e-4 c 0.0068,-0.0016 0.01619,-0.0016 0.02091,3.11e-4 0.0048,0.0016 -7.78e-4,0.0031 -0.01233,0.0031 -0.01149,-1.41e-4 -0.01536,-0.0016 -0.0086,-0.0039 z m -2.49786,-0.04921 c -0.0087,-0.01106 -0.0084,-0.01129 0.0026,-0.0023 0.0067,0.0054 0.01219,0.01075 0.01219,0.01222 0,0.0055 -0.0058,0.0023 -0.01483,-0.0096 z m 0.728544,-0.01043 -0.01327,-0.01565 0.01568,0.01331 c 0.01474,0.01246 0.01885,0.01806 0.01328,0.01806 -0.0012,0 -0.0084,-0.007 -0.01568,-0.01565 z m -0.770362,-0.03831 c -0.0087,-0.01106 -0.0084,-0.01129 0.0026,-0.0023 0.0116,0.0091 0.0153,0.01479 0.0096,0.01479 -0.0014,0 -0.0069,-0.0054 -0.01219,-0.01222 z m 0.693696,-0.04532 -0.01327,-0.01565 0.01568,0.01331 c 0.01474,0.01246 0.01886,0.01806 0.01328,0.01806 -0.0012,0 -0.0084,-0.007 -0.01567,-0.01565 z m -0.770361,-0.04532 c -0.0087,-0.01106 -0.0084,-0.01129 0.0026,-0.0023 0.0067,0.0054 0.01219,0.01075 0.01219,0.01222 0,0.0055 -0.0058,0.0023 -0.01482,-0.0096 z m 0.710894,-0.02095 c -0.0087,-0.01106 -0.0084,-0.01129 0.0026,-0.0023 0.0116,0.0091 0.0153,0.01479 0.0096,0.01479 -0.0014,0 -0.0069,-0.0054 -0.01219,-0.01222 z m -0.05901,-0.06618 -0.01327,-0.01565 0.01568,0.01331 c 0.01474,0.01246 0.01885,0.01806 0.01327,0.01806 -0.0012,0 -0.0084,-0.007 -0.01568,-0.01565 z m -0.0525,-0.05925 c -0.0087,-0.01106 -0.0084,-0.01129 0.0026,-0.0023 0.0116,0.0091 0.0153,0.01479 0.0096,0.01479 -0.0014,0 -0.0069,-0.0054 -0.01219,-0.01222 z m -0.04182,-0.04882 c -0.0087,-0.01106 -0.0084,-0.01129 0.0026,-0.0023 0.0116,0.0091 0.0153,0.01479 0.0096,0.01479 -0.0014,0 -0.0069,-0.0055 -0.01219,-0.01222 z m -0.04182,-0.04882 c -0.0087,-0.01106 -0.0084,-0.01129 0.0026,-0.0023 0.0067,0.0055 0.01219,0.01075 0.01219,0.01222 0,0.0055 -0.0058,0.0023 -0.01483,-0.0096 z m -0.04182,-0.04882 c -0.0087,-0.01106 -0.0084,-0.01129 0.0026,-0.0023 0.0116,0.0091 0.0153,0.01479 0.0096,0.01479 -0.0014,0 -0.0069,-0.0055 -0.01219,-0.01223 z m -0.104543,-0.125452 c -0.0087,-0.01106 -0.0084,-0.01129 0.0026,-0.0023 0.0067,0.0054 0.01219,0.01075 0.01219,0.01222 0,0.0055 -0.0058,0.0023 -0.01482,-0.0096 z m -3.281767,-0.380729 c 0,-0.0016 0.0055,-0.007 0.01219,-0.01223 0.01105,-0.0086 0.01131,-0.0084 0.0026,0.0023 -0.0091,0.0116 -0.01482,0.01534 -0.01482,0.0096 z m 7.191681,-0.0096 c -0.0087,-0.01106 -0.0084,-0.01129 0.0026,-0.0023 0.0067,0.0054 0.01219,0.01075 0.01219,0.01222 0,0.0055 -0.0058,0.0023 -0.01483,-0.0096 z m -7.142895,-0.04617 c 0,-0.0016 0.0055,-0.007 0.01219,-0.01222 0.01105,-0.0086 0.01131,-0.0084 0.0026,0.0023 -0.0091,0.0116 -0.01482,0.01526 -0.01482,0.0096 z m 7.094108,-0.0096 c -0.0087,-0.01106 -0.0084,-0.01129 0.0026,-0.0023 0.0067,0.0055 0.01219,0.01075 0.01219,0.01222 0,0.0054 -0.0058,0.0023 -0.01483,-0.0096 z m -7.017442,-0.0749 c 0.009,-0.0096 0.01794,-0.01744 0.01985,-0.01744 0.0019,0 -0.0039,0.0079 -0.01289,0.01744 -0.009,0.0096 -0.01794,0.01744 -0.01985,0.01744 -0.0019,0 0.0039,-0.0079 0.01289,-0.01744 z m 6.948109,-0.0016 -0.0169,-0.01915 0.01917,0.0169 c 0.01791,0.01581 0.02236,0.02141 0.0169,0.02141 -0.0012,0 -0.0099,-0.0086 -0.01916,-0.01915 z m -6.752962,-0.193402 c 0.009,-0.0096 0.01794,-0.01744 0.01985,-0.01744 0.0019,0 -0.0039,0.0079 -0.01289,0.01744 -0.009,0.0096 -0.01794,0.01744 -0.01985,0.01744 -0.0019,0 0.0039,-0.0079 0.01289,-0.01744 z m 6.557814,-0.0016 -0.0169,-0.01915 0.01916,0.0169 c 0.01792,0.01581 0.02236,0.02141 0.0169,0.02141 -0.0012,0 -0.0099,-0.0086 -0.01917,-0.01915 z m -6.484632,-0.06447 c 0.0069,-0.0078 0.01419,-0.01394 0.01609,-0.01394 0.0019,0 -0.0022,0.0062 -0.0091,0.01394 -0.0069,0.0078 -0.01419,0.01394 -0.0161,0.01394 -0.0019,0 0.0022,-0.0062 0.0091,-0.01394 z m 6.407607,-0.0054 c -0.0087,-0.01106 -0.0084,-0.01129 0.0026,-0.0023 0.0116,0.0091 0.0153,0.01479 0.0096,0.01479 -0.0014,0 -0.0069,-0.0054 -0.01219,-0.01222 z m -0.05576,-0.04882 c -0.0087,-0.01106 -0.0084,-0.01129 0.0026,-0.0023 0.0116,0.0091 0.0153,0.01479 0.0096,0.01479 -0.0014,0 -0.0069,-0.0054 -0.01219,-0.01222 z m -5.19928,-0.669077 c -0.0087,-0.01106 -0.0084,-0.01129 0.0026,-0.0023 0.0116,0.0091 0.0153,0.01479 0.0096,0.01479 -0.0014,0 -0.0069,-0.0055 -0.01219,-0.01222 z m 0.535685,-0.218667 c 0.0047,-0.0047 0.01035,-0.007 0.01249,-0.0047 0.0021,0.0023 -0.0017,0.0062 -0.0086,0.0086 -0.0099,0.0039 -0.01073,0.0031 -0.0039,-0.0039 z m 0.362969,-0.10147 c 0.0051,-0.0023 0.01105,-0.0016 0.01336,4.75e-4 0.0023,0.0023 -0.0018,0.0039 -0.0091,0.0039 -0.0081,-3.12e-4 -0.0098,-0.0023 -0.0042,-0.0039 z m 2.306919,0 c 0.0051,-0.0023 0.01105,-0.0016 0.01336,4.75e-4 0.0023,0.0023 -0.0018,0.0039 -0.0091,0.0039 -0.0081,-3.12e-4 -0.0098,-0.0023 -0.0042,-0.0039 z m -2.104804,-0.04181 c 0.0051,-0.0023 0.01105,-0.0016 0.01336,4.75e-4 0.0023,0.0023 -0.0018,0.0039 -0.0091,0.0039 -0.0081,-3.12e-4 -0.0098,-0.0016 -0.0042,-0.0039 z m 1.902687,0 c 0.0051,-0.0023 0.01105,-0.0016 0.01336,4.75e-4 0.0023,0.0023 -0.0018,0.0039 -0.0091,0.0039 -0.0081,-3.12e-4 -0.0098,-0.0016 -0.0042,-0.0039 z m -1.867838,-0.007 c 0.0051,-0.0023 0.01105,-0.0016 0.01336,4.75e-4 0.0023,0.0023 -0.0018,0.0039 -0.0091,0.0039 -0.0081,-3.11e-4 -0.0098,-0.0016 -0.0042,-0.0039 z m 1.832991,0 c 0.0051,-0.0023 0.01103,-0.0016 0.01336,4.75e-4 0.0023,0.0023 -0.0018,0.0039 -0.0091,0.0039 -0.0081,-3.11e-4 -0.0098,-0.0016 -0.0042,-0.0039 z m -1.791174,-0.007 c 0.0051,-0.0023 0.01105,-0.0016 0.01336,4.75e-4 0.0023,0.0023 -0.0018,0.0039 -0.0091,0.0039 -0.0081,-3.12e-4 -0.0098,-0.0016 -0.0042,-0.0039 z m 1.749355,0 c 0.0051,-0.0023 0.01105,-0.0016 0.01336,4.75e-4 0.0023,0.0023 -0.0018,0.0039 -0.0091,0.0039 -0.0081,-3.12e-4 -0.0098,-0.0016 -0.0042,-0.0039 z m -1.707537,-0.007 c 0.0051,-0.0023 0.01105,-0.0016 0.01336,4.75e-4 0.0023,0.0023 -0.0018,0.0039 -0.0091,0.0039 -0.0081,-3.11e-4 -0.0098,-0.0016 -0.0042,-0.0039 z m 1.66572,0 c 0.0051,-0.0023 0.01105,-0.0016 0.01336,4.75e-4 0.0023,0.0023 -0.0018,0.0039 -0.0091,0.0039 -0.0081,-3.11e-4 -0.0098,-0.0016 -0.0042,-0.0039 z m -1.623904,-0.007 c 0.0051,-0.0023 0.01105,-0.0016 0.01336,4.74e-4 0.0023,0.0023 -0.0018,0.0039 -0.0091,0.0039 -0.0081,-3.12e-4 -0.0098,-0.0016 -0.0042,-0.0039 z m 1.582087,0 c 0.0051,-0.0023 0.01105,-0.0016 0.01336,4.74e-4 0.0023,0.0023 -0.0018,0.0039 -0.0091,0.0039 -0.0081,-3.12e-4 -0.0098,-0.0016 -0.0042,-0.0039 z m -1.533299,-0.007 c 0.0051,-0.0023 0.01103,-0.0016 0.01336,4.75e-4 0.0023,0.0023 -0.0018,0.0039 -0.0091,0.0039 -0.0081,-3.11e-4 -0.0098,-0.0016 -0.0042,-0.0039 z m 1.484513,0 c 0.0051,-0.0023 0.01103,-0.0016 0.01336,4.75e-4 0.0023,0.0023 -0.0018,0.0039 -0.0091,0.0039 -0.0081,-3.11e-4 -0.0098,-0.0016 -0.0042,-0.0039 z m -1.443132,-0.007 c 0.0048,-0.0016 0.01264,-0.0016 0.01743,0 0.0047,0.0023 9.34e-4,0.0039 -0.0087,0.0039 -0.0096,0 -0.01351,-0.0016 -0.0087,-0.0039 z m 1.393908,0 c 0.0048,-0.0016 0.01264,-0.0016 0.01743,0 0.0047,0.0023 9.34e-4,0.0039 -0.0087,0.0039 -0.0096,0 -0.01351,-0.0016 -0.0087,-0.0039 z m -1.338152,-0.007 c 0.0047,-0.0016 0.01264,-0.0016 0.01743,0 0.0047,0.0016 9.34e-4,0.0039 -0.0087,0.0039 -0.0096,0 -0.01351,-0.0016 -0.0087,-0.0039 z m 1.279043,-1.56e-4 c 0.0068,-0.0016 0.01619,-0.0016 0.02091,3.19e-4 0.0047,0.0016 -7.79e-4,0.0031 -0.01233,0.0031 -0.01149,-1.33e-4 -0.01536,-0.0016 -0.0086,-0.0039 z m -1.216318,-0.007 c 0.0047,-0.0016 0.01264,-0.0016 0.01743,0 0.0047,0.0016 9.34e-4,0.0039 -0.0087,0.0039 -0.0096,0 -0.01351,-0.0016 -0.0087,-0.0039 z m 1.156946,0 c 0.0048,-0.0016 0.01264,-0.0016 0.01743,0 0.0047,0.0016 9.34e-4,0.0039 -0.0087,0.0039 -0.0096,0 -0.01351,-0.0016 -0.0087,-0.0039 z m -1.094219,-0.007 c 0.0048,-0.0016 0.01264,-0.0016 0.01743,0 0.0047,0.0016 9.34e-4,0.0039 -0.0087,0.0039 -0.0096,0 -0.01351,-0.0016 -0.0087,-0.0039 z m 1.031493,0 c 0.0047,-0.0016 0.01264,-0.0016 0.01742,0 0.0048,0.0016 9.34e-4,0.0039 -0.0087,0.0039 -0.0096,0 -0.01351,-0.0016 -0.0087,-0.0039 z m -0.958313,-0.007 c 0.0067,-0.0016 0.01769,-0.0016 0.02439,0 0.0067,0.0016 0.0012,0.0031 -0.01219,0.0031 -0.01341,0 -0.0189,-0.0016 -0.01219,-0.0031 z m 0.878162,0 c 0.0067,-0.0016 0.01768,-0.0016 0.02439,0 0.0067,0.0016 0.0012,0.0031 -0.01219,0.0031 -0.01341,0 -0.0189,-0.0016 -0.01219,-0.0031 z m -0.784073,-0.007 c 0.0086,-0.0016 0.02274,-0.0016 0.03136,0 0.0086,0.0016 0.0016,0.0031 -0.01568,0.0031 -0.01725,0 -0.02431,-0.0016 -0.01568,-0.0031 z m 0.683016,0 c 0.0086,-0.0016 0.02274,-0.0016 0.03136,0 0.0086,0.0016 0.0016,0.0031 -0.01568,0.0031 -0.01725,0 -0.02431,-0.0016 -0.01567,-0.0031 z m -0.540044,-0.007 c 0.01059,-0.0016 0.02628,-0.0016 0.03484,1.09e-4 0.0086,0.0016 -1.33e-4,0.0031 -0.01926,0.0031 -0.01917,-5.5e-5 -0.02618,-0.0016 -0.01558,-0.0031 z m 0.393808,-5.4e-5 c 0.01252,-0.0016 0.03135,-0.0016 0.04182,7.8e-5 0.01048,0.0016 1.59e-4,0.0031 -0.02278,0.0031 -0.023,-4.7e-5 -0.03157,-0.0016 -0.01904,-0.0031 z"
       style="display:inline;fill:#000000;stroke-width:0.00696955" />
    <path
       inkscape:connector-curvature="0"
       id="path857"
       d="m 62.425249,34.636263 c -0.03103,-0.03943 -0.03209,-0.05825 -0.03209,-0.557654 v -0.516838 h -0.495144 c -0.48441,0 -0.49552,-6.73e-4 -0.51226,-0.03198 -0.0126,-0.02382 -0.01232,-0.03771 0.0014,-0.05422 0.01534,-0.01835 0.102005,-0.02218 0.512256,-0.02218 h 0.493794 v -0.512202 c 0,-0.57654 0.0044,-0.602187 0.104607,-0.602869 0.01917,-1.29e-4 0.480981,0.222822 1.026189,0.495456 0.54521,0.272634 0.994508,0.495692 0.99844,0.495692 0.0038,0 0.0093,-0.213183 0.01178,-0.473722 0.0044,-0.448233 0.006,-0.474905 0.03459,-0.495692 0.04201,-0.0307 0.1074,-0.02738 0.138508,0.0071 0.02328,0.02574 0.02656,0.08536 0.02952,0.553781 l 0.0033,0.524807 0.495689,0.0041 c 0.437528,0.0036 0.497896,0.0068 0.514455,0.02925 0.01314,0.01753 0.01397,0.03409 0.0036,0.05392 -0.01424,0.02684 -0.04721,0.02889 -0.514455,0.03272 l -0.499134,0.0041 -0.0033,0.524806 c -0.003,0.468415 -0.006,0.527923 -0.02952,0.553781 -0.03848,0.04253 -0.105812,0.037 -0.144231,-0.01178 -0.03088,-0.03918 -0.03214,-0.05887 -0.03214,-0.49979 v -0.459008 l -0.995256,0.499027 c -0.547393,0.274463 -1.013921,0.499383 -1.036734,0.499821 -0.02711,5.26e-4 -0.05269,-0.01342 -0.07358,-0.04001 z M 63.5,33.960001 c 0.476715,-0.24032 0.868838,-0.443993 0.871385,-0.452598 0.0025,-0.0085 -0.39272,-0.214306 -0.878371,-0.457105 l -0.883003,-0.441466 v 0.89471 c 0,0.492091 0.0052,0.894418 0.0115,0.894065 0.0063,-3.62e-4 0.401653,-0.197274 0.87837,-0.437606 z"
       style="display:inline;fill:#000000;stroke:#000000;stroke-width:0.116;stroke-miterlimit:4;stroke-dasharray:none;stroke-opacity:1"
       sodipodi:nodetypes="cscsccscscsscccccsccsccccscscccscscscs" />
  </g>
  <g
     id="g1500"
     inkscape:groupmode="layer"
     inkscape:label="B.Silk-disabled"
     style="display:none" />
  <g
     id="g1502"
     inkscape:groupmode="layer"
     inkscape:label="F.Cu"
     style="display:none">
    <text
       style="font-size:2.64583325px;font-family:PressStart2P-Regular, 'Press Start 2P';display:inline;stroke-width:0.26458332"
       id="text2118"
       class="cls-2"
       x="31.234062"
       y="52.213608">@BadgePirates<tspan
   style="stroke-width:0.26458332"
   id="tspan2114"
   y="55.388603"
   x="27.265312">1,000th Follower</tspan>
<tspan
   style="stroke-width:0.26458332"
   id="tspan2116"
   xml:space="preserve"
   y="58.563606"
   x="31.234062"> @attiliofram</tspan></text>
    <path
       id="path2141"
       style="fill:#000000;fill-opacity:1;stroke:#000000;stroke-width:0.26458332px;stroke-linecap:butt;stroke-linejoin:miter;stroke-opacity:1"
       inkscape:original-d="m 66.521713,64.944262 c -0.128358,0.161488 -0.257085,0.323371 -0.385869,0.485259 -0.292062,0.36222 -0.584541,0.724895 -0.876979,1.087453 -0.467456,0.53177 -0.935408,1.064064 -1.403165,1.596102 -0.535665,0.543462 -1.072031,1.087625 -1.607794,1.631177 -0.336883,0.317397 -0.674317,0.635328 -1.011446,0.952984 -0.331039,0.292061 -0.662689,0.584692 -0.99391,0.876978 -0.274042,0.226295 -0.548847,0.453263 -0.822923,0.679674 -0.160277,0.128583 -0.321091,0.258337 -0.481624,0.386541 -0.172402,0.130648 -0.345387,0.2618 -0.518004,0.392739 -0.162621,0.121005 -0.325879,0.242552 -0.488653,0.363802 -0.129958,0.09344 -0.260483,0.18736 -0.390674,0.28112 -0.130648,0.09207 -0.261874,0.184617 -0.392739,0.276987 -0.127204,0.08724 -0.255003,0.174967 -0.382408,0.262517 -0.118245,0.0776 -0.23709,0.155667 -0.355534,0.233577 -0.108598,0.07208 -0.217696,0.14458 -0.326593,0.21704 -0.145119,0.09069 -0.290865,0.181862 -0.43615,0.272852 -0.124447,0.07622 -0.249526,0.152924 -0.374137,0.229444 -0.105844,0.06312 -0.212267,0.126699 -0.318328,0.190169 -0.105844,0.06106 -0.212095,0.122468 -0.318325,0.183968 -0.231934,0.130648 -0.464625,0.261839 -0.696598,0.392742 -0.149254,0.08035 -0.299138,0.161165 -0.448553,0.241845 -0.12858,0.06657 -0.257757,0.133574 -0.386538,0.200504 -0.123759,0.06175 -0.24792,0.123826 -0.37207,0.186036 -0.287057,0.136851 -0.574818,0.274175 -0.861965,0.411343 -0.207817,0.09206 -0.416095,0.184477 -0.62425,0.276987 -0.343308,0.144925 -0.687189,0.290248 -1.030716,0.435575 -0.354426,0.134205 -0.709547,0.268838 -1.064067,0.403408 -0.260879,0.09913 -0.522026,0.198515 -0.783434,0.298175 1.721957,-2.688305 3.386802,-5.287593 5.079791,-7.930968 4.410319,-1.9167 8.82129,-3.833534 13.231513,-5.749893 -0.05236,0.07769 -0.105068,0.155783 -0.157858,0.233863 z"
       d="m 66.483883,64.985933 c -0.09056,0.119791 -0.219288,0.281674 -0.42971,0.543728 -0.210422,0.262055 -0.502902,0.624729 -0.882842,1.071898 -0.379941,0.447168 -0.847892,0.979463 -1.349596,1.517219 -0.501703,0.537757 -1.038067,1.081922 -1.474386,1.512401 -0.436319,0.430478 -0.773753,0.748409 -1.107833,1.053273 -0.334079,0.304864 -0.665729,0.597495 -0.968358,0.85679 -0.302629,0.259294 -0.577433,0.486262 -0.794608,0.663762 -0.217175,0.1775 -0.378325,0.306835 -0.544622,0.436475 -0.166297,0.129639 -0.339281,0.260792 -0.5069,0.386765 -0.167618,0.125973 -0.330877,0.247519 -0.477241,0.354867 -0.146364,0.107349 -0.276887,0.201271 -0.407308,0.294185 -0.130421,0.09291 -0.261646,0.185462 -0.390678,0.27527 -0.129033,0.08981 -0.25683,0.177539 -0.379656,0.260113 -0.122826,0.08258 -0.241666,0.16065 -0.355188,0.235642 -0.113523,0.07499 -0.22262,0.147495 -0.349627,0.229072 -0.127008,0.08158 -0.272752,0.172753 -0.407618,0.256358 -0.134867,0.08361 -0.259945,0.16031 -0.375171,0.230135 -0.115225,0.06982 -0.221649,0.133401 -0.327602,0.195667 -0.105952,0.06227 -0.212205,0.123672 -0.381285,0.21975 -0.16908,0.09608 -0.401771,0.227269 -0.592384,0.332899 -0.190613,0.10563 -0.340498,0.186443 -0.479494,0.260072 -0.138997,0.07363 -0.268173,0.140634 -0.394444,0.204975 -0.12627,0.06434 -0.250429,0.126421 -0.456033,0.225953 -0.205604,0.09953 -0.493365,0.236857 -0.740845,0.351478 -0.247481,0.114621 -0.45576,0.207037 -0.731491,0.325758 -0.275731,0.118721 -0.619613,0.264043 -0.96859,0.403815 -0.348976,0.139773 -0.704097,0.274406 -1.011798,0.391254 -0.3077,0.116848 -0.568844,0.21624 0.161369,-1.078178 0.730212,-1.294417 2.395058,-3.893705 5.446773,-6.173658 3.051715,-2.279953 7.462686,-4.196787 9.641562,-5.116203 2.178876,-0.919417 2.126165,-0.841326 2.035604,-0.721535 z"
       inkscape:path-effect="#path-effect2143"
       inkscape:connector-curvature="0"
       sodipodi:nodetypes="cccccccccccccccccccccccccccccccc" />
  </g>
  <g
     id="g1504"
     inkscape:groupmode="layer"
     inkscape:label="F.Mask"
     style="display:none">
    <text
       y="52.213608"
       x="31.234062"
       class="cls-2"
       id="text879-3"
       style="font-size:2.64583325px;font-family:PressStart2P-Regular, 'Press Start 2P';display:inline;stroke-width:0.26458332">@BadgePirates<tspan
   x="27.265312"
   y="55.388603"
   id="tspan875-0"
   style="stroke-width:0.26458332">1,000th Follower</tspan>
<tspan
   x="31.234062"
   y="58.563606"
   xml:space="preserve"
   id="tspan877-6"
   style="stroke-width:0.26458332"> @attiliofram</tspan></text>
    <path
       sodipodi:nodetypes="cscsccscscsscccccsccsccccscscccscscscs"
       style="display:inline;fill:#000000;stroke:#000000;stroke-width:0.116;stroke-miterlimit:4;stroke-dasharray:none;stroke-opacity:1"
       d="m 62.425249,34.636263 c -0.03103,-0.03943 -0.03209,-0.05825 -0.03209,-0.557654 v -0.516838 h -0.495144 c -0.48441,0 -0.49552,-6.73e-4 -0.51226,-0.03198 -0.0126,-0.02382 -0.01232,-0.03771 0.0014,-0.05422 0.01534,-0.01835 0.102005,-0.02218 0.512256,-0.02218 h 0.493794 v -0.512202 c 0,-0.57654 0.0044,-0.602187 0.104607,-0.602869 0.01917,-1.29e-4 0.480981,0.222822 1.026189,0.495456 0.54521,0.272634 0.994508,0.495692 0.99844,0.495692 0.0038,0 0.0093,-0.213183 0.01178,-0.473722 0.0044,-0.448233 0.006,-0.474905 0.03459,-0.495692 0.04201,-0.0307 0.1074,-0.02738 0.138508,0.0071 0.02328,0.02574 0.02656,0.08536 0.02952,0.553781 l 0.0033,0.524807 0.495689,0.0041 c 0.437528,0.0036 0.497896,0.0068 0.514455,0.02925 0.01314,0.01753 0.01397,0.03409 0.0036,0.05392 -0.01424,0.02684 -0.04721,0.02889 -0.514455,0.03272 l -0.499134,0.0041 -0.0033,0.524806 c -0.003,0.468415 -0.006,0.527923 -0.02952,0.553781 -0.03848,0.04253 -0.105812,0.037 -0.144231,-0.01178 -0.03088,-0.03918 -0.03214,-0.05887 -0.03214,-0.49979 v -0.459008 l -0.995256,0.499027 c -0.547393,0.274463 -1.013921,0.499383 -1.036734,0.499821 -0.02711,5.26e-4 -0.05269,-0.01342 -0.07358,-0.04001 z M 63.5,33.960001 c 0.476715,-0.24032 0.868838,-0.443993 0.871385,-0.452598 0.0025,-0.0085 -0.39272,-0.214306 -0.878371,-0.457105 l -0.883003,-0.441466 v 0.89471 c 0,0.492091 0.0052,0.894418 0.0115,0.894065 0.0063,-3.62e-4 0.401653,-0.197274 0.87837,-0.437606 z"
       id="path2947"
       inkscape:connector-curvature="0" />
  </g>
  <g
     id="g1506"
     inkscape:groupmode="layer"
     inkscape:label="F.Silk"
     style="display:none">
    <path
       style="fill:#010101;stroke-width:0.99999994"
       d="m 231.11914,95.222656 c -8.64,0 -12.47922,0.720391 -20.69922,3.900391 -22.12,8.510003 -33.70898,26.180083 -35.70898,54.080073 l -0.48047,6.48047 -3.12109,-0.36132 c -16.53,-1.92 -20.18844,-2.87946 -41.39844,-10.68946 -21.39,-8 -36.690002,-18.59047 -52.000002,-36.23047 -9,-10.38 -10.191876,-10.0789 -15.171876,4.6211 -2.34,6.84 -2.519531,7.79859 -2.519531,18.05859 -0.06002,10 0.119999,11.4 2,17 2.303312,6.74412 5.836198,13.00403 10.419922,18.46094 3.66,4.38 2.640313,4.56039 -4.679687,0.90039 -8.22,-4.14 -9.780703,-2.70008 -8.220704,7.91992 2.820001,19.26 11.519999,32.15977 29,43.25977 1.140001,0.78 0.660313,0.9 -3.179687,1 -3.54,0 -4.858906,0.36 -5.878906,1.5 -1.26,1.38 -1.261153,1.67883 0.298828,6.29883 4.92,14.75999 17.700312,26.21999 35.820313,32 3,0.99999 5.46094,1.92015 5.46094,2.16015 0,0.72 -7.44078,5 -13.80078,8 -11.100004,5.1 -32.340003,9.30078 -47.000004,9.30078 -5.7,0 -7.000702,0.24 -8.220704,1.5 -0.679868,0.60109 -1.195993,1.36566 -1.5,2.22071 0,1.74 3.721016,4.19844 12.541016,8.39843 15.731278,7.43706 32.503888,12.43467 49.740232,14.82032 8.46,1.08 33.71985,0.90124 42.83985,-0.29883 28.99796,-3.63143 56.24656,-15.85714 78.24023,-35.10156 34.1814,-29.20285 53.81388,-71.94112 53.69922,-116.89844 v -5.70117 l 5.16016,-3.83985 c 6.72215,-5.17106 12.59363,-11.36231 17.40039,-18.34961 3.6,-5.17 4.14023,-6.67031 3.24023,-9.07031 -0.66,-1.8 -3.00016,-1.49969 -9.66016,1.32031 -2.64193,1.16754 -5.34561,2.18962 -8.09961,3.06055 -2,0.42 -1.91976,0.24023 1.74024,-4.25977 6.42,-7.92 10.0793,-16.67999 8.2793,-20 -1.26,-2.339996 -2.82,-2.000384 -11,2.09961 -7.26,3.6 -20.1011,8.3393 -22.6211,8.2793 -0.72,0 -3.47914,-1.6807 -6.11914,-3.7207 -10.56,-8.000001 -22.26078,-12.119144 -34.80078,-12.119144 z m -6.06055,6.759764 c 1.8539,0.01 3.73778,0.0718 5.65235,0.16016 6.48,-0.06 9.17992,0.30076 13.91992,1.80078 2.54174,0.7311 4.99459,1.73704 7.31836,3 1.5,1.08 1.44125,1.13859 -0.71875,3.05859 -4.07147,3.32928 -8.54714,6.13126 -13.32031,8.33985 -5.82,2.94 -5.25675,3.67971 -10.85743,3.75781 -9.34004,-0.52575 -37.35156,0.85234 -37.35156,-3.34766 10.83617,-14.32251 22.38012,-16.83789 35.35742,-16.76953 z m 31.31836,7.94336 c 1.43321,-0.0164 3.34024,1.43242 7.80274,5.10742 l 4.62109,3.71875 4.75977,-1.11914 c 2.58,-0.66 8.09968,-2.40039 12.17968,-3.90039 11.52,-4.14 10.55891,-4.00063 8.87891,-1.14062 -0.78,1.32 -4.85859,5.76179 -9.05859,9.84179 -8,7.68 -9.36133,10.25891 -6.36133,11.87891 1.32,0.66 10.20109,-0.71945 18.12109,-2.93945 0.90935,-0.30558 1.86108,-0.46799 2.82031,-0.48047 0.57,0.53 -13.20062,13.07023 -16.14062,14.74023 -1.74,1 -3.35906,2.51938 -3.53906,3.35938 -0.17998,0.84 -0.42016,7.79992 -0.66016,15.41992 -0.24,11.1 -0.72125,15.7207 -2.28125,23.2207 -6.36,30.06 -20.45976,55.19992 -43.25976,76.91992 -22.8,21.72 -48.05977,33.79009 -79.25977,38.08008 -7.74,1.08 -32.09977,1.50072 -38.75977,0.72071 -8.48183,-1.06825 -16.881831,-2.71196 -25.140621,-4.91993 -8.4,-2.33998 -23.579998,-8.00008 -23,-8.58007 2.908078,-0.65841 5.853834,-1.14071 8.820313,-1.44141 23.279998,-3.06 44.580308,-11.94 53.820308,-22.5 2.22,-2.46 2.33891,-2.88031 1.37891,-4.32031 -0.8366,-0.998 -1.97118,-1.69942 -3.23828,-2 -1.2,-0.29998 -4.86156,-1.07938 -8.10156,-1.85938 -8.16,-1.8 -18.17946,-6.99937 -23.939456,-12.35937 -4.32,-4 -10.620391,-13.08125 -9.900391,-14.28125 0.180019,-0.29998 3.121016,-0.72 6.541016,-1 7.860001,-0.54 13.858981,-2.27977 14.458981,-4.25977 0.78,-2.52 -0.78,-4.14016 -5,-5.16015 -3.46274,-1.01704 -6.834542,-2.32001 -10.080075,-3.89844 -13.5,-6.42 -24.05875,-20.40024 -26.21875,-34.74024 -0.48,-3.36 -0.421563,-3.54086 0.898437,-2.88086 2.34,1.26 12.001797,3.17969 15.841797,3.17969 4.08,0 5.458438,-0.99875 5.398438,-3.71875 0,-1.38 -1.079844,-2.75992 -3.839844,-4.91992 -13.38,-10.56 -20.820156,-27.99969 -18.660156,-43.67969 0.9,-6.36 2.940703,-14.46039 3.720703,-14.40039 0.24,0 4.859219,4.25906 10.199219,9.53906 11.16,10.86 18.660312,16.50032 29.820311,22.32032 8.1,4.26 30.65977,12.83992 40.25977,15.41992 6.42,1.68 27.60039,4.20101 29.40039,3.54101 1,-0.36 0.20054,-2.93195 0.56054,-11.75195 -0.84455,-12.05281 2.15898,-23.28976 6.27149,-30.36133 1.99996,-2.03157 2.15108,-2.09648 4.51562,-1.25586 20.17228,2.32151 20.61049,2.08741 35.17578,2.04688 3.53366,-0.32784 4.58688,-0.10615 4.77735,1.64062 1.14,6.72 2.7,8.28125 8,8.28125 7.8,0 11.45883,-4.62015 12.29883,-15.66015 0.42,-5.28 0.72008,-6.24 2.58008,-8 0.9675,-0.9 1.65765,-1.43742 2.51757,-1.44727 z m -20.16406,12.29688 c 0.0725,-4.9e-4 1.81633,0.84262 3.87695,1.87304 2.06064,1.03043 3.76053,1.87305 3.77539,1.87305 0.0144,0 0.0336,-0.80435 0.043,-1.78906 0.0166,-1.69411 0.0228,-1.79448 0.13086,-1.87305 0.15878,-0.11603 0.40587,-0.10493 0.52344,0.0254 0.088,0.0973 0.10014,0.32334 0.11133,2.09375 l 0.0137,1.98242 1.87305,0.0156 c 1.65365,0.0136 1.88272,0.0265 1.94531,0.11133 0.0497,0.0662 0.0529,0.12817 0.0137,0.20312 -0.0538,0.10144 -0.17935,0.11053 -1.94531,0.125 l -1.88672,0.0156 -0.0117,1.98242 c -0.0113,1.77039 -0.0224,1.99602 -0.11133,2.09375 -0.14543,0.16074 -0.39971,0.13944 -0.54492,-0.0449 -0.11671,-0.14809 -0.12305,-0.22221 -0.12305,-1.88868 v -1.73437 l -3.76171,1.88477 c -2.06889,1.03734 -3.83175,1.88701 -3.91797,1.88867 -0.10247,0.002 -0.19839,-0.0499 -0.27735,-0.15039 l -0.002,-0.002 c -0.11728,-0.14902 -0.12109,-0.21991 -0.12109,-2.10742 v -1.95312 h -1.8711 c -1.83084,0 -1.87228,-0.003 -1.93554,-0.1211 -0.0476,-0.09 -0.048,-0.14268 0.004,-0.20508 0.058,-0.0694 0.38695,-0.084 1.9375,-0.084 h 1.86524 v -1.93555 c 0,-2.17905 0.0178,-2.27672 0.39648,-2.27929 z m 0.42383,1.02343 v 3.38086 c 0,1.85987 0.0192,3.38024 0.043,3.37891 0.0238,-0.001 1.51854,-0.744 3.32031,-1.65234 1.80176,-0.9083 3.28334,-1.67842 3.29297,-1.71094 0.009,-0.0321 -1.48478,-0.81085 -3.32031,-1.72852 z"
       transform="scale(0.26458333)"
       id="path873-7"
       inkscape:connector-curvature="0" />
    <path
       inkscape:connector-curvature="0"
       d="M 23.283335,47.123021 Z"
       id="path881-9"
       style="stroke-width:0.26458332" />
    <path
       inkscape:connector-curvature="0"
       class="cls-3"
       d="M 23.283335,47.123021 Z"
       id="path883-1"
       style="fill:none;stroke:#000000;stroke-width:0.79374999px;stroke-miterlimit:10" />
    <line
       class="cls-4"
       x1="28.045835"
       y1="59.725128"
       x2="70.344772"
       y2="59.725128"
       id="line885-9"
       style="stroke:#000000;stroke-width:0.79374999px;stroke-miterlimit:10" />
    <line
       class="cls-4"
       x1="22.40539"
       y1="47.481857"
       x2="74.326538"
       y2="47.481857"
       id="line885-3-3"
       style="stroke:#000000;stroke-width:0.87940955px;stroke-miterlimit:10" />
  </g>
  <g
     id="g1508"
     inkscape:groupmode="layer"
     inkscape:label="Drill"
     style="display:inline" />
</svg>
