G04 #@! TF.GenerationSoftware,KiCad,Pcbnew,(5.1.2)-1*
G04 #@! TF.CreationDate,2019-07-16T22:45:59-05:00*
G04 #@! TF.ProjectId,1ktwitter,316b7477-6974-4746-9572-2e6b69636164,rev?*
G04 #@! TF.SameCoordinates,Original*
G04 #@! TF.FileFunction,Soldermask,Top*
G04 #@! TF.FilePolarity,Negative*
%FSLAX46Y46*%
G04 Gerber Fmt 4.6, Leading zero omitted, Abs format (unit mm)*
G04 Created by KiCad (PCBNEW (5.1.2)-1) date 2019-07-16 22:45:59*
%MOMM*%
%LPD*%
G04 APERTURE LIST*
%ADD10C,0.010000*%
%ADD11C,2.127200*%
%ADD12O,2.127200X2.127200*%
%ADD13R,2.127200X2.127200*%
G04 APERTURE END LIST*
D10*
G36*
X-14135100Y-8229600D02*
G01*
X-15786100Y-8229600D01*
X-15786100Y-7899400D01*
X-14135100Y-7899400D01*
X-14135100Y-8229600D01*
X-14135100Y-8229600D01*
G37*
X-14135100Y-8229600D02*
X-15786100Y-8229600D01*
X-15786100Y-7899400D01*
X-14135100Y-7899400D01*
X-14135100Y-8229600D01*
G36*
X-15786100Y-7899400D02*
G01*
X-16116300Y-7899400D01*
X-16116300Y-6248400D01*
X-15786100Y-6248400D01*
X-15786100Y-7899400D01*
X-15786100Y-7899400D01*
G37*
X-15786100Y-7899400D02*
X-16116300Y-7899400D01*
X-16116300Y-6248400D01*
X-15786100Y-6248400D01*
X-15786100Y-7899400D01*
G36*
X-13804900Y-7569200D02*
G01*
X-15455900Y-7569200D01*
X-15455900Y-6908800D01*
X-15125700Y-6908800D01*
X-15125700Y-7239000D01*
X-14795500Y-7239000D01*
X-14795500Y-6908800D01*
X-15125700Y-6908800D01*
X-15455900Y-6908800D01*
X-15455900Y-6578600D01*
X-14465300Y-6578600D01*
X-14465300Y-7239000D01*
X-14135100Y-7239000D01*
X-14135100Y-6248400D01*
X-13804900Y-6248400D01*
X-13804900Y-7569200D01*
X-13804900Y-7569200D01*
G37*
X-13804900Y-7569200D02*
X-15455900Y-7569200D01*
X-15455900Y-6908800D01*
X-15125700Y-6908800D01*
X-15125700Y-7239000D01*
X-14795500Y-7239000D01*
X-14795500Y-6908800D01*
X-15125700Y-6908800D01*
X-15455900Y-6908800D01*
X-15455900Y-6578600D01*
X-14465300Y-6578600D01*
X-14465300Y-7239000D01*
X-14135100Y-7239000D01*
X-14135100Y-6248400D01*
X-13804900Y-6248400D01*
X-13804900Y-7569200D01*
G36*
X-14135100Y-6248400D02*
G01*
X-15786100Y-6248400D01*
X-15786100Y-5918200D01*
X-14135100Y-5918200D01*
X-14135100Y-6248400D01*
X-14135100Y-6248400D01*
G37*
X-14135100Y-6248400D02*
X-15786100Y-6248400D01*
X-15786100Y-5918200D01*
X-14135100Y-5918200D01*
X-14135100Y-6248400D01*
G36*
X-11493500Y-6908800D02*
G01*
X-11163300Y-6908800D01*
X-11163300Y-8229600D01*
X-13144500Y-8229600D01*
X-13144500Y-7899400D01*
X-13474700Y-7899400D01*
X-13474700Y-7569200D01*
X-13144500Y-7569200D01*
X-12814300Y-7569200D01*
X-12814300Y-7899400D01*
X-11823700Y-7899400D01*
X-11823700Y-7569200D01*
X-12814300Y-7569200D01*
X-13144500Y-7569200D01*
X-13144500Y-7239000D01*
X-11823700Y-7239000D01*
X-11823700Y-6908800D01*
X-13144500Y-6908800D01*
X-13144500Y-6578600D01*
X-11493500Y-6578600D01*
X-11493500Y-6908800D01*
X-11493500Y-6908800D01*
G37*
X-11493500Y-6908800D02*
X-11163300Y-6908800D01*
X-11163300Y-8229600D01*
X-13144500Y-8229600D01*
X-13144500Y-7899400D01*
X-13474700Y-7899400D01*
X-13474700Y-7569200D01*
X-13144500Y-7569200D01*
X-12814300Y-7569200D01*
X-12814300Y-7899400D01*
X-11823700Y-7899400D01*
X-11823700Y-7569200D01*
X-12814300Y-7569200D01*
X-13144500Y-7569200D01*
X-13144500Y-7239000D01*
X-11823700Y-7239000D01*
X-11823700Y-6908800D01*
X-13144500Y-6908800D01*
X-13144500Y-6578600D01*
X-11493500Y-6578600D01*
X-11493500Y-6908800D01*
G36*
X-9169400Y-6578600D02*
G01*
X-8509000Y-6578600D01*
X-8509000Y-6908800D01*
X-9169400Y-6908800D01*
X-9169400Y-8229600D01*
X-9842500Y-8229600D01*
X-9842500Y-6908800D01*
X-10502900Y-6908800D01*
X-10502900Y-6578600D01*
X-9842500Y-6578600D01*
X-9842500Y-5918200D01*
X-9169400Y-5918200D01*
X-9169400Y-6578600D01*
X-9169400Y-6578600D01*
G37*
X-9169400Y-6578600D02*
X-8509000Y-6578600D01*
X-8509000Y-6908800D01*
X-9169400Y-6908800D01*
X-9169400Y-8229600D01*
X-9842500Y-8229600D01*
X-9842500Y-6908800D01*
X-10502900Y-6908800D01*
X-10502900Y-6578600D01*
X-9842500Y-6578600D01*
X-9842500Y-5918200D01*
X-9169400Y-5918200D01*
X-9169400Y-6578600D01*
G36*
X-6527800Y-6578600D02*
G01*
X-5867400Y-6578600D01*
X-5867400Y-6908800D01*
X-6527800Y-6908800D01*
X-6527800Y-8229600D01*
X-7188200Y-8229600D01*
X-7188200Y-6908800D01*
X-7848600Y-6908800D01*
X-7848600Y-6578600D01*
X-7188200Y-6578600D01*
X-7188200Y-5918200D01*
X-6527800Y-5918200D01*
X-6527800Y-6578600D01*
X-6527800Y-6578600D01*
G37*
X-6527800Y-6578600D02*
X-5867400Y-6578600D01*
X-5867400Y-6908800D01*
X-6527800Y-6908800D01*
X-6527800Y-8229600D01*
X-7188200Y-8229600D01*
X-7188200Y-6908800D01*
X-7848600Y-6908800D01*
X-7848600Y-6578600D01*
X-7188200Y-6578600D01*
X-7188200Y-5918200D01*
X-6527800Y-5918200D01*
X-6527800Y-6578600D01*
G36*
X-3886200Y-7899400D02*
G01*
X-3225800Y-7899400D01*
X-3225800Y-8229600D01*
X-5207000Y-8229600D01*
X-5207000Y-7899400D01*
X-4546600Y-7899400D01*
X-4546600Y-6908800D01*
X-4876800Y-6908800D01*
X-4876800Y-6578600D01*
X-3886200Y-6578600D01*
X-3886200Y-7899400D01*
X-3886200Y-7899400D01*
G37*
X-3886200Y-7899400D02*
X-3225800Y-7899400D01*
X-3225800Y-8229600D01*
X-5207000Y-8229600D01*
X-5207000Y-7899400D01*
X-4546600Y-7899400D01*
X-4546600Y-6908800D01*
X-4876800Y-6908800D01*
X-4876800Y-6578600D01*
X-3886200Y-6578600D01*
X-3886200Y-7899400D01*
G36*
X-1231900Y-7899400D02*
G01*
X-571500Y-7899400D01*
X-571500Y-8229600D01*
X-2566159Y-8229600D01*
X-2562605Y-8067675D01*
X-2559050Y-7905750D01*
X-2232025Y-7902360D01*
X-1905000Y-7898971D01*
X-1905000Y-6248400D01*
X-2235200Y-6248400D01*
X-2235200Y-5918200D01*
X-1231900Y-5918200D01*
X-1231900Y-7899400D01*
X-1231900Y-7899400D01*
G37*
X-1231900Y-7899400D02*
X-571500Y-7899400D01*
X-571500Y-8229600D01*
X-2566159Y-8229600D01*
X-2562605Y-8067675D01*
X-2559050Y-7905750D01*
X-2232025Y-7902360D01*
X-1905000Y-7898971D01*
X-1905000Y-6248400D01*
X-2235200Y-6248400D01*
X-2235200Y-5918200D01*
X-1231900Y-5918200D01*
X-1231900Y-7899400D01*
G36*
X1409700Y-7899400D02*
G01*
X2070100Y-7899400D01*
X2070100Y-8229600D01*
X88900Y-8229600D01*
X88900Y-7899400D01*
X749300Y-7899400D01*
X749300Y-6908800D01*
X419100Y-6908800D01*
X419100Y-6578600D01*
X1409700Y-6578600D01*
X1409700Y-7899400D01*
X1409700Y-7899400D01*
G37*
X1409700Y-7899400D02*
X2070100Y-7899400D01*
X2070100Y-8229600D01*
X88900Y-8229600D01*
X88900Y-7899400D01*
X749300Y-7899400D01*
X749300Y-6908800D01*
X419100Y-6908800D01*
X419100Y-6578600D01*
X1409700Y-6578600D01*
X1409700Y-7899400D01*
G36*
X4381500Y-6908800D02*
G01*
X4711700Y-6908800D01*
X4711700Y-7899400D01*
X4381500Y-7899400D01*
X4381500Y-8229600D01*
X2730500Y-8229600D01*
X2730500Y-7899400D01*
X2400300Y-7899400D01*
X2400300Y-6908800D01*
X2730500Y-6908800D01*
X3060700Y-6908800D01*
X3060700Y-7899400D01*
X4051300Y-7899400D01*
X4051300Y-6908800D01*
X3060700Y-6908800D01*
X2730500Y-6908800D01*
X2730500Y-6578600D01*
X4381500Y-6578600D01*
X4381500Y-6908800D01*
X4381500Y-6908800D01*
G37*
X4381500Y-6908800D02*
X4711700Y-6908800D01*
X4711700Y-7899400D01*
X4381500Y-7899400D01*
X4381500Y-8229600D01*
X2730500Y-8229600D01*
X2730500Y-7899400D01*
X2400300Y-7899400D01*
X2400300Y-6908800D01*
X2730500Y-6908800D01*
X3060700Y-6908800D01*
X3060700Y-7899400D01*
X4051300Y-7899400D01*
X4051300Y-6908800D01*
X3060700Y-6908800D01*
X2730500Y-6908800D01*
X2730500Y-6578600D01*
X4381500Y-6578600D01*
X4381500Y-6908800D01*
G36*
X7366000Y-6248400D02*
G01*
X6705600Y-6248400D01*
X6705600Y-6578600D01*
X7366000Y-6578600D01*
X7366000Y-6908800D01*
X6705600Y-6908800D01*
X6705600Y-8229600D01*
X6032500Y-8229600D01*
X6032500Y-6908800D01*
X5372100Y-6908800D01*
X5372100Y-6578600D01*
X6032500Y-6578600D01*
X6032500Y-6248400D01*
X6375400Y-6248400D01*
X6375400Y-5918200D01*
X7366000Y-5918200D01*
X7366000Y-6248400D01*
X7366000Y-6248400D01*
G37*
X7366000Y-6248400D02*
X6705600Y-6248400D01*
X6705600Y-6578600D01*
X7366000Y-6578600D01*
X7366000Y-6908800D01*
X6705600Y-6908800D01*
X6705600Y-8229600D01*
X6032500Y-8229600D01*
X6032500Y-6908800D01*
X5372100Y-6908800D01*
X5372100Y-6578600D01*
X6032500Y-6578600D01*
X6032500Y-6248400D01*
X6375400Y-6248400D01*
X6375400Y-5918200D01*
X7366000Y-5918200D01*
X7366000Y-6248400D01*
G36*
X8686800Y-6908800D02*
G01*
X9017000Y-6908800D01*
X9017000Y-7239000D01*
X8686800Y-7239000D01*
X8686800Y-8229600D01*
X8026400Y-8229600D01*
X8026400Y-6578600D01*
X8686800Y-6578600D01*
X8686800Y-6908800D01*
X8686800Y-6908800D01*
G37*
X8686800Y-6908800D02*
X9017000Y-6908800D01*
X9017000Y-7239000D01*
X8686800Y-7239000D01*
X8686800Y-8229600D01*
X8026400Y-8229600D01*
X8026400Y-6578600D01*
X8686800Y-6578600D01*
X8686800Y-6908800D01*
G36*
X10007600Y-6908800D02*
G01*
X9017000Y-6908800D01*
X9017000Y-6578600D01*
X10007600Y-6578600D01*
X10007600Y-6908800D01*
X10007600Y-6908800D01*
G37*
X10007600Y-6908800D02*
X9017000Y-6908800D01*
X9017000Y-6578600D01*
X10007600Y-6578600D01*
X10007600Y-6908800D01*
G36*
X12319000Y-6908800D02*
G01*
X12649200Y-6908800D01*
X12649200Y-8229600D01*
X10668000Y-8229600D01*
X10668000Y-7899400D01*
X10337800Y-7899400D01*
X10337800Y-7569200D01*
X10668000Y-7569200D01*
X10998200Y-7569200D01*
X10998200Y-7899400D01*
X11988800Y-7899400D01*
X11988800Y-7569200D01*
X10998200Y-7569200D01*
X10668000Y-7569200D01*
X10668000Y-7239000D01*
X11988800Y-7239000D01*
X11988800Y-6908800D01*
X10668000Y-6908800D01*
X10668000Y-6578600D01*
X12319000Y-6578600D01*
X12319000Y-6908800D01*
X12319000Y-6908800D01*
G37*
X12319000Y-6908800D02*
X12649200Y-6908800D01*
X12649200Y-8229600D01*
X10668000Y-8229600D01*
X10668000Y-7899400D01*
X10337800Y-7899400D01*
X10337800Y-7569200D01*
X10668000Y-7569200D01*
X10998200Y-7569200D01*
X10998200Y-7899400D01*
X11988800Y-7899400D01*
X11988800Y-7569200D01*
X10998200Y-7569200D01*
X10668000Y-7569200D01*
X10668000Y-7239000D01*
X11988800Y-7239000D01*
X11988800Y-6908800D01*
X10668000Y-6908800D01*
X10668000Y-6578600D01*
X12319000Y-6578600D01*
X12319000Y-6908800D01*
G36*
X14973300Y-6908800D02*
G01*
X15303500Y-6908800D01*
X15303500Y-8229600D01*
X14643100Y-8229600D01*
X14643100Y-6908800D01*
X14312900Y-6908800D01*
X14312900Y-8229600D01*
X13639800Y-8229600D01*
X13639800Y-6908800D01*
X13309600Y-6908800D01*
X13309600Y-8229600D01*
X12979400Y-8229600D01*
X12979400Y-6578600D01*
X14973300Y-6578600D01*
X14973300Y-6908800D01*
X14973300Y-6908800D01*
G37*
X14973300Y-6908800D02*
X15303500Y-6908800D01*
X15303500Y-8229600D01*
X14643100Y-8229600D01*
X14643100Y-6908800D01*
X14312900Y-6908800D01*
X14312900Y-8229600D01*
X13639800Y-8229600D01*
X13639800Y-6908800D01*
X13309600Y-6908800D01*
X13309600Y-8229600D01*
X12979400Y-8229600D01*
X12979400Y-6578600D01*
X14973300Y-6578600D01*
X14973300Y-6908800D01*
G36*
X-3886200Y-6248400D02*
G01*
X-4546600Y-6248400D01*
X-4546600Y-5918200D01*
X-3886200Y-5918200D01*
X-3886200Y-6248400D01*
X-3886200Y-6248400D01*
G37*
X-3886200Y-6248400D02*
X-4546600Y-6248400D01*
X-4546600Y-5918200D01*
X-3886200Y-5918200D01*
X-3886200Y-6248400D01*
G36*
X1409700Y-6248400D02*
G01*
X749300Y-6248400D01*
X749300Y-5918200D01*
X1409700Y-5918200D01*
X1409700Y-6248400D01*
X1409700Y-6248400D01*
G37*
X1409700Y-6248400D02*
X749300Y-6248400D01*
X749300Y-5918200D01*
X1409700Y-5918200D01*
X1409700Y-6248400D01*
G36*
X-18770600Y-5053841D02*
G01*
X-18932525Y-5057395D01*
X-19094450Y-5060950D01*
X-19098005Y-5222875D01*
X-19101559Y-5384800D01*
X-19761200Y-5384800D01*
X-19761200Y-5054600D01*
X-19431000Y-5054600D01*
X-19431000Y-4394200D01*
X-18770600Y-4394200D01*
X-18770600Y-5053841D01*
X-18770600Y-5053841D01*
G37*
X-18770600Y-5053841D02*
X-18932525Y-5057395D01*
X-19094450Y-5060950D01*
X-19098005Y-5222875D01*
X-19101559Y-5384800D01*
X-19761200Y-5384800D01*
X-19761200Y-5054600D01*
X-19431000Y-5054600D01*
X-19431000Y-4394200D01*
X-18770600Y-4394200D01*
X-18770600Y-5053841D01*
G36*
X-21082000Y-4724400D02*
G01*
X-20421600Y-4724400D01*
X-20421600Y-5054600D01*
X-22402800Y-5054600D01*
X-22402800Y-4724400D01*
X-21742400Y-4724400D01*
X-21742400Y-3403600D01*
X-22072600Y-3403600D01*
X-22072600Y-3073400D01*
X-21742400Y-3073400D01*
X-21742400Y-2743200D01*
X-21082000Y-2743200D01*
X-21082000Y-4724400D01*
X-21082000Y-4724400D01*
G37*
X-21082000Y-4724400D02*
X-20421600Y-4724400D01*
X-20421600Y-5054600D01*
X-22402800Y-5054600D01*
X-22402800Y-4724400D01*
X-21742400Y-4724400D01*
X-21742400Y-3403600D01*
X-22072600Y-3403600D01*
X-22072600Y-3073400D01*
X-21742400Y-3073400D01*
X-21742400Y-2743200D01*
X-21082000Y-2743200D01*
X-21082000Y-4724400D01*
G36*
X-15786100Y-3073400D02*
G01*
X-15455900Y-3073400D01*
X-15455900Y-3403600D01*
X-15125700Y-3403600D01*
X-15125700Y-4394200D01*
X-15455900Y-4394200D01*
X-15455900Y-4724400D01*
X-15786100Y-4724400D01*
X-15786100Y-5054600D01*
X-16775942Y-5054600D01*
X-16783050Y-4730750D01*
X-16944599Y-4727198D01*
X-17106147Y-4723646D01*
X-17109699Y-4562098D01*
X-17113250Y-4400550D01*
X-17275175Y-4396995D01*
X-17437100Y-4393441D01*
X-17437100Y-3403600D01*
X-17106900Y-3403600D01*
X-17106900Y-3073400D01*
X-16776700Y-3073400D01*
X-16776700Y-4394200D01*
X-16446500Y-4394200D01*
X-16446500Y-4724400D01*
X-15786100Y-4724400D01*
X-15786100Y-3403600D01*
X-16116300Y-3403600D01*
X-16116300Y-3073400D01*
X-16776700Y-3073400D01*
X-16776700Y-2743200D01*
X-15786100Y-2743200D01*
X-15786100Y-3073400D01*
X-15786100Y-3073400D01*
G37*
X-15786100Y-3073400D02*
X-15455900Y-3073400D01*
X-15455900Y-3403600D01*
X-15125700Y-3403600D01*
X-15125700Y-4394200D01*
X-15455900Y-4394200D01*
X-15455900Y-4724400D01*
X-15786100Y-4724400D01*
X-15786100Y-5054600D01*
X-16775942Y-5054600D01*
X-16783050Y-4730750D01*
X-16944599Y-4727198D01*
X-17106147Y-4723646D01*
X-17109699Y-4562098D01*
X-17113250Y-4400550D01*
X-17275175Y-4396995D01*
X-17437100Y-4393441D01*
X-17437100Y-3403600D01*
X-17106900Y-3403600D01*
X-17106900Y-3073400D01*
X-16776700Y-3073400D01*
X-16776700Y-4394200D01*
X-16446500Y-4394200D01*
X-16446500Y-4724400D01*
X-15786100Y-4724400D01*
X-15786100Y-3403600D01*
X-16116300Y-3403600D01*
X-16116300Y-3073400D01*
X-16776700Y-3073400D01*
X-16776700Y-2743200D01*
X-15786100Y-2743200D01*
X-15786100Y-3073400D01*
G36*
X-13144500Y-3073400D02*
G01*
X-12814300Y-3073400D01*
X-12814300Y-3403600D01*
X-12484100Y-3403600D01*
X-12484100Y-4394200D01*
X-12814300Y-4394200D01*
X-12814300Y-4724400D01*
X-13144500Y-4724400D01*
X-13144500Y-5054600D01*
X-14135100Y-5054600D01*
X-14135100Y-4724400D01*
X-14465300Y-4724400D01*
X-14465300Y-4394200D01*
X-14795500Y-4394200D01*
X-14795500Y-3403600D01*
X-14465300Y-3403600D01*
X-14465300Y-3073400D01*
X-14135100Y-3073400D01*
X-14135100Y-4394200D01*
X-13804900Y-4394200D01*
X-13804900Y-4724400D01*
X-13144500Y-4724400D01*
X-13144500Y-3403600D01*
X-13474700Y-3403600D01*
X-13474700Y-3073400D01*
X-14135100Y-3073400D01*
X-14135100Y-2743200D01*
X-13144500Y-2743200D01*
X-13144500Y-3073400D01*
X-13144500Y-3073400D01*
G37*
X-13144500Y-3073400D02*
X-12814300Y-3073400D01*
X-12814300Y-3403600D01*
X-12484100Y-3403600D01*
X-12484100Y-4394200D01*
X-12814300Y-4394200D01*
X-12814300Y-4724400D01*
X-13144500Y-4724400D01*
X-13144500Y-5054600D01*
X-14135100Y-5054600D01*
X-14135100Y-4724400D01*
X-14465300Y-4724400D01*
X-14465300Y-4394200D01*
X-14795500Y-4394200D01*
X-14795500Y-3403600D01*
X-14465300Y-3403600D01*
X-14465300Y-3073400D01*
X-14135100Y-3073400D01*
X-14135100Y-4394200D01*
X-13804900Y-4394200D01*
X-13804900Y-4724400D01*
X-13144500Y-4724400D01*
X-13144500Y-3403600D01*
X-13474700Y-3403600D01*
X-13474700Y-3073400D01*
X-14135100Y-3073400D01*
X-14135100Y-2743200D01*
X-13144500Y-2743200D01*
X-13144500Y-3073400D01*
G36*
X-10502900Y-3073400D02*
G01*
X-10172700Y-3073400D01*
X-10172700Y-3403600D01*
X-9842500Y-3403600D01*
X-9842500Y-4393441D01*
X-10004425Y-4396995D01*
X-10166350Y-4400550D01*
X-10169905Y-4562475D01*
X-10173459Y-4724400D01*
X-10502900Y-4724400D01*
X-10502900Y-5054600D01*
X-11493500Y-5054600D01*
X-11493500Y-4724400D01*
X-11823700Y-4724400D01*
X-11823700Y-4394200D01*
X-12153900Y-4394200D01*
X-12153900Y-3403600D01*
X-11823700Y-3403600D01*
X-11823700Y-3073400D01*
X-11493500Y-3073400D01*
X-11493500Y-4394200D01*
X-11163300Y-4394200D01*
X-11163300Y-4724400D01*
X-10502900Y-4724400D01*
X-10502900Y-3403600D01*
X-10833100Y-3403600D01*
X-10833100Y-3073400D01*
X-11493500Y-3073400D01*
X-11493500Y-2743200D01*
X-10502900Y-2743200D01*
X-10502900Y-3073400D01*
X-10502900Y-3073400D01*
G37*
X-10502900Y-3073400D02*
X-10172700Y-3073400D01*
X-10172700Y-3403600D01*
X-9842500Y-3403600D01*
X-9842500Y-4393441D01*
X-10004425Y-4396995D01*
X-10166350Y-4400550D01*
X-10169905Y-4562475D01*
X-10173459Y-4724400D01*
X-10502900Y-4724400D01*
X-10502900Y-5054600D01*
X-11493500Y-5054600D01*
X-11493500Y-4724400D01*
X-11823700Y-4724400D01*
X-11823700Y-4394200D01*
X-12153900Y-4394200D01*
X-12153900Y-3403600D01*
X-11823700Y-3403600D01*
X-11823700Y-3073400D01*
X-11493500Y-3073400D01*
X-11493500Y-4394200D01*
X-11163300Y-4394200D01*
X-11163300Y-4724400D01*
X-10502900Y-4724400D01*
X-10502900Y-3403600D01*
X-10833100Y-3403600D01*
X-10833100Y-3073400D01*
X-11493500Y-3073400D01*
X-11493500Y-2743200D01*
X-10502900Y-2743200D01*
X-10502900Y-3073400D01*
G36*
X-7848600Y-3403600D02*
G01*
X-7188200Y-3403600D01*
X-7188200Y-3733800D01*
X-7848600Y-3733800D01*
X-7848600Y-5054600D01*
X-8509000Y-5054600D01*
X-8509000Y-3733800D01*
X-9169400Y-3733800D01*
X-9169400Y-3403600D01*
X-8509000Y-3403600D01*
X-8509000Y-2743200D01*
X-7848600Y-2743200D01*
X-7848600Y-3403600D01*
X-7848600Y-3403600D01*
G37*
X-7848600Y-3403600D02*
X-7188200Y-3403600D01*
X-7188200Y-3733800D01*
X-7848600Y-3733800D01*
X-7848600Y-5054600D01*
X-8509000Y-5054600D01*
X-8509000Y-3733800D01*
X-9169400Y-3733800D01*
X-9169400Y-3403600D01*
X-8509000Y-3403600D01*
X-8509000Y-2743200D01*
X-7848600Y-2743200D01*
X-7848600Y-3403600D01*
G36*
X-6197600Y-3403600D02*
G01*
X-4876800Y-3403600D01*
X-4876800Y-3733800D01*
X-4546600Y-3733800D01*
X-4546600Y-5054600D01*
X-5207000Y-5054600D01*
X-5207000Y-3733800D01*
X-6197600Y-3733800D01*
X-6197600Y-5054600D01*
X-6858000Y-5054600D01*
X-6858000Y-2743200D01*
X-6197600Y-2743200D01*
X-6197600Y-3403600D01*
X-6197600Y-3403600D01*
G37*
X-6197600Y-3403600D02*
X-4876800Y-3403600D01*
X-4876800Y-3733800D01*
X-4546600Y-3733800D01*
X-4546600Y-5054600D01*
X-5207000Y-5054600D01*
X-5207000Y-3733800D01*
X-6197600Y-3733800D01*
X-6197600Y-5054600D01*
X-6858000Y-5054600D01*
X-6858000Y-2743200D01*
X-6197600Y-2743200D01*
X-6197600Y-3403600D01*
G36*
X749300Y-3073400D02*
G01*
X-901700Y-3073400D01*
X-901700Y-3733800D01*
X419100Y-3733800D01*
X419100Y-4064000D01*
X-901700Y-4064000D01*
X-901700Y-5054600D01*
X-1562100Y-5054600D01*
X-1562100Y-2743200D01*
X749300Y-2743200D01*
X749300Y-3073400D01*
X749300Y-3073400D01*
G37*
X749300Y-3073400D02*
X-901700Y-3073400D01*
X-901700Y-3733800D01*
X419100Y-3733800D01*
X419100Y-4064000D01*
X-901700Y-4064000D01*
X-901700Y-5054600D01*
X-1562100Y-5054600D01*
X-1562100Y-2743200D01*
X749300Y-2743200D01*
X749300Y-3073400D01*
G36*
X3060700Y-3733800D02*
G01*
X3390900Y-3733800D01*
X3390900Y-4724400D01*
X3060700Y-4724400D01*
X3060700Y-5054600D01*
X1409700Y-5054600D01*
X1409700Y-4724400D01*
X1079500Y-4724400D01*
X1079500Y-3733800D01*
X1409700Y-3733800D01*
X1739900Y-3733800D01*
X1739900Y-4724400D01*
X2730500Y-4724400D01*
X2730500Y-3733800D01*
X1739900Y-3733800D01*
X1409700Y-3733800D01*
X1409700Y-3403600D01*
X3060700Y-3403600D01*
X3060700Y-3733800D01*
X3060700Y-3733800D01*
G37*
X3060700Y-3733800D02*
X3390900Y-3733800D01*
X3390900Y-4724400D01*
X3060700Y-4724400D01*
X3060700Y-5054600D01*
X1409700Y-5054600D01*
X1409700Y-4724400D01*
X1079500Y-4724400D01*
X1079500Y-3733800D01*
X1409700Y-3733800D01*
X1739900Y-3733800D01*
X1739900Y-4724400D01*
X2730500Y-4724400D01*
X2730500Y-3733800D01*
X1739900Y-3733800D01*
X1409700Y-3733800D01*
X1409700Y-3403600D01*
X3060700Y-3403600D01*
X3060700Y-3733800D01*
G36*
X5372100Y-4724400D02*
G01*
X6032500Y-4724400D01*
X6032500Y-5054600D01*
X4051300Y-5054600D01*
X4051300Y-4724400D01*
X4711700Y-4724400D01*
X4711700Y-3073400D01*
X4381500Y-3073400D01*
X4381500Y-2743200D01*
X5372100Y-2743200D01*
X5372100Y-4724400D01*
X5372100Y-4724400D01*
G37*
X5372100Y-4724400D02*
X6032500Y-4724400D01*
X6032500Y-5054600D01*
X4051300Y-5054600D01*
X4051300Y-4724400D01*
X4711700Y-4724400D01*
X4711700Y-3073400D01*
X4381500Y-3073400D01*
X4381500Y-2743200D01*
X5372100Y-2743200D01*
X5372100Y-4724400D01*
G36*
X8026400Y-4724400D02*
G01*
X8686800Y-4724400D01*
X8686800Y-5054600D01*
X6705600Y-5054600D01*
X6705600Y-4724400D01*
X7366000Y-4724400D01*
X7366000Y-3073400D01*
X7035800Y-3073400D01*
X7035800Y-2743200D01*
X8026400Y-2743200D01*
X8026400Y-4724400D01*
X8026400Y-4724400D01*
G37*
X8026400Y-4724400D02*
X8686800Y-4724400D01*
X8686800Y-5054600D01*
X6705600Y-5054600D01*
X6705600Y-4724400D01*
X7366000Y-4724400D01*
X7366000Y-3073400D01*
X7035800Y-3073400D01*
X7035800Y-2743200D01*
X8026400Y-2743200D01*
X8026400Y-4724400D01*
G36*
X10998200Y-3733800D02*
G01*
X11328400Y-3733800D01*
X11328400Y-4724400D01*
X10998200Y-4724400D01*
X10998200Y-5054600D01*
X9347200Y-5054600D01*
X9347200Y-4724400D01*
X9017000Y-4724400D01*
X9017000Y-3733800D01*
X9347200Y-3733800D01*
X9677400Y-3733800D01*
X9677400Y-4724400D01*
X10668000Y-4724400D01*
X10668000Y-3733800D01*
X9677400Y-3733800D01*
X9347200Y-3733800D01*
X9347200Y-3403600D01*
X10998200Y-3403600D01*
X10998200Y-3733800D01*
X10998200Y-3733800D01*
G37*
X10998200Y-3733800D02*
X11328400Y-3733800D01*
X11328400Y-4724400D01*
X10998200Y-4724400D01*
X10998200Y-5054600D01*
X9347200Y-5054600D01*
X9347200Y-4724400D01*
X9017000Y-4724400D01*
X9017000Y-3733800D01*
X9347200Y-3733800D01*
X9677400Y-3733800D01*
X9677400Y-4724400D01*
X10668000Y-4724400D01*
X10668000Y-3733800D01*
X9677400Y-3733800D01*
X9347200Y-3733800D01*
X9347200Y-3403600D01*
X10998200Y-3403600D01*
X10998200Y-3733800D01*
G36*
X13970000Y-4723641D02*
G01*
X13808075Y-4727195D01*
X13646150Y-4730750D01*
X13642595Y-4892675D01*
X13639041Y-5054600D01*
X12979400Y-5054600D01*
X12979400Y-4724400D01*
X13309600Y-4724400D01*
X13309600Y-3403600D01*
X13970000Y-3403600D01*
X13970000Y-4723641D01*
X13970000Y-4723641D01*
G37*
X13970000Y-4723641D02*
X13808075Y-4727195D01*
X13646150Y-4730750D01*
X13642595Y-4892675D01*
X13639041Y-5054600D01*
X12979400Y-5054600D01*
X12979400Y-4724400D01*
X13309600Y-4724400D01*
X13309600Y-3403600D01*
X13970000Y-3403600D01*
X13970000Y-4723641D01*
G36*
X12319000Y-4724400D02*
G01*
X12649200Y-4724400D01*
X12649200Y-5054600D01*
X11988800Y-5054600D01*
X11988800Y-4724400D01*
X11658600Y-4724400D01*
X11658600Y-3403600D01*
X12319000Y-3403600D01*
X12319000Y-4724400D01*
X12319000Y-4724400D01*
G37*
X12319000Y-4724400D02*
X12649200Y-4724400D01*
X12649200Y-5054600D01*
X11988800Y-5054600D01*
X11988800Y-4724400D01*
X11658600Y-4724400D01*
X11658600Y-3403600D01*
X12319000Y-3403600D01*
X12319000Y-4724400D01*
G36*
X12979400Y-4724400D02*
G01*
X12649200Y-4724400D01*
X12649200Y-3403600D01*
X12979400Y-3403600D01*
X12979400Y-4724400D01*
X12979400Y-4724400D01*
G37*
X12979400Y-4724400D02*
X12649200Y-4724400D01*
X12649200Y-3403600D01*
X12979400Y-3403600D01*
X12979400Y-4724400D01*
G36*
X16294100Y-3733800D02*
G01*
X16624300Y-3733800D01*
X16624300Y-4394200D01*
X14973300Y-4394200D01*
X14973300Y-4724400D01*
X16294100Y-4724400D01*
X16294100Y-5054600D01*
X14643858Y-5054600D01*
X14636750Y-4730750D01*
X14474825Y-4727195D01*
X14312900Y-4723641D01*
X14312900Y-3733800D01*
X14643100Y-3733800D01*
X14973300Y-3733800D01*
X14973300Y-4064000D01*
X15963900Y-4064000D01*
X15963900Y-3733800D01*
X14973300Y-3733800D01*
X14643100Y-3733800D01*
X14643100Y-3403600D01*
X16294100Y-3403600D01*
X16294100Y-3733800D01*
X16294100Y-3733800D01*
G37*
X16294100Y-3733800D02*
X16624300Y-3733800D01*
X16624300Y-4394200D01*
X14973300Y-4394200D01*
X14973300Y-4724400D01*
X16294100Y-4724400D01*
X16294100Y-5054600D01*
X14643858Y-5054600D01*
X14636750Y-4730750D01*
X14474825Y-4727195D01*
X14312900Y-4723641D01*
X14312900Y-3733800D01*
X14643100Y-3733800D01*
X14973300Y-3733800D01*
X14973300Y-4064000D01*
X15963900Y-4064000D01*
X15963900Y-3733800D01*
X14973300Y-3733800D01*
X14643100Y-3733800D01*
X14643100Y-3403600D01*
X16294100Y-3403600D01*
X16294100Y-3733800D01*
G36*
X17945100Y-3733800D02*
G01*
X18275300Y-3733800D01*
X18275300Y-4064000D01*
X17945100Y-4064000D01*
X17945100Y-5054600D01*
X17284700Y-5054600D01*
X17284700Y-3403600D01*
X17945100Y-3403600D01*
X17945100Y-3733800D01*
X17945100Y-3733800D01*
G37*
X17945100Y-3733800D02*
X18275300Y-3733800D01*
X18275300Y-4064000D01*
X17945100Y-4064000D01*
X17945100Y-5054600D01*
X17284700Y-5054600D01*
X17284700Y-3403600D01*
X17945100Y-3403600D01*
X17945100Y-3733800D01*
G36*
X19265900Y-3733800D02*
G01*
X18275300Y-3733800D01*
X18275300Y-3403600D01*
X19265900Y-3403600D01*
X19265900Y-3733800D01*
X19265900Y-3733800D01*
G37*
X19265900Y-3733800D02*
X18275300Y-3733800D01*
X18275300Y-3403600D01*
X19265900Y-3403600D01*
X19265900Y-3733800D01*
G36*
X-5867400Y-1879600D02*
G01*
X-6197600Y-1879600D01*
X-6197600Y-2209800D01*
X-7848600Y-2209800D01*
X-7848600Y-1879600D01*
X-6527800Y-1879600D01*
X-6527800Y-1549400D01*
X-7848600Y-1549400D01*
X-7848600Y-1219200D01*
X-8178800Y-1219200D01*
X-8178800Y-558800D01*
X-7848600Y-558800D01*
X-7518400Y-558800D01*
X-7518400Y-1219200D01*
X-6527800Y-1219200D01*
X-6527800Y-558800D01*
X-7518400Y-558800D01*
X-7848600Y-558800D01*
X-7848600Y-228600D01*
X-5867400Y-228600D01*
X-5867400Y-1879600D01*
X-5867400Y-1879600D01*
G37*
X-5867400Y-1879600D02*
X-6197600Y-1879600D01*
X-6197600Y-2209800D01*
X-7848600Y-2209800D01*
X-7848600Y-1879600D01*
X-6527800Y-1879600D01*
X-6527800Y-1549400D01*
X-7848600Y-1549400D01*
X-7848600Y-1219200D01*
X-8178800Y-1219200D01*
X-8178800Y-558800D01*
X-7848600Y-558800D01*
X-7518400Y-558800D01*
X-7518400Y-1219200D01*
X-6527800Y-1219200D01*
X-6527800Y-558800D01*
X-7518400Y-558800D01*
X-7848600Y-558800D01*
X-7848600Y-228600D01*
X-5867400Y-228600D01*
X-5867400Y-1879600D01*
G36*
X-18440400Y-1549216D02*
G01*
X-16783050Y-1555750D01*
X-16775942Y-1879600D01*
X-18440400Y-1879600D01*
X-18440400Y-1549400D01*
X-18770600Y-1549400D01*
X-18770600Y101600D01*
X-18440400Y101600D01*
X-18440400Y-1549216D01*
X-18440400Y-1549216D01*
G37*
X-18440400Y-1549216D02*
X-16783050Y-1555750D01*
X-16775942Y-1879600D01*
X-18440400Y-1879600D01*
X-18440400Y-1549400D01*
X-18770600Y-1549400D01*
X-18770600Y101600D01*
X-18440400Y101600D01*
X-18440400Y-1549216D01*
G36*
X-16446500Y-1219200D02*
G01*
X-18110200Y-1219200D01*
X-18110200Y-889000D01*
X-17780759Y-889000D01*
X-17436342Y-889000D01*
X-17443450Y-565150D01*
X-17773650Y-565150D01*
X-17777205Y-727075D01*
X-17780759Y-889000D01*
X-18110200Y-889000D01*
X-18110200Y-228600D01*
X-17106900Y-228600D01*
X-17106900Y-889000D01*
X-16776700Y-889000D01*
X-16776700Y101600D01*
X-16446500Y101600D01*
X-16446500Y-1219200D01*
X-16446500Y-1219200D01*
G37*
X-16446500Y-1219200D02*
X-18110200Y-1219200D01*
X-18110200Y-889000D01*
X-17780759Y-889000D01*
X-17436342Y-889000D01*
X-17443450Y-565150D01*
X-17773650Y-565150D01*
X-17777205Y-727075D01*
X-17780759Y-889000D01*
X-18110200Y-889000D01*
X-18110200Y-228600D01*
X-17106900Y-228600D01*
X-17106900Y-889000D01*
X-16776700Y-889000D01*
X-16776700Y101600D01*
X-16446500Y101600D01*
X-16446500Y-1219200D01*
G36*
X-16776700Y101600D02*
G01*
X-18440400Y101600D01*
X-18440400Y431800D01*
X-16776700Y431800D01*
X-16776700Y101600D01*
X-16776700Y101600D01*
G37*
X-16776700Y101600D02*
X-18440400Y101600D01*
X-18440400Y431800D01*
X-16776700Y431800D01*
X-16776700Y101600D01*
G36*
X-14135100Y101600D02*
G01*
X-13804900Y101600D01*
X-13804900Y-558800D01*
X-14135100Y-558800D01*
X-14135100Y-889000D01*
X-13804900Y-889000D01*
X-13804900Y-1549400D01*
X-14135100Y-1549400D01*
X-14135100Y-1879600D01*
X-16116300Y-1879600D01*
X-16116300Y-889000D01*
X-15455900Y-889000D01*
X-15455900Y-1549400D01*
X-14465300Y-1549400D01*
X-14465300Y-889000D01*
X-15455900Y-889000D01*
X-16116300Y-889000D01*
X-16116300Y101600D01*
X-15455900Y101600D01*
X-15455900Y-558800D01*
X-14465300Y-558800D01*
X-14465300Y101600D01*
X-15455900Y101600D01*
X-16116300Y101600D01*
X-16116300Y431800D01*
X-14135100Y431800D01*
X-14135100Y101600D01*
X-14135100Y101600D01*
G37*
X-14135100Y101600D02*
X-13804900Y101600D01*
X-13804900Y-558800D01*
X-14135100Y-558800D01*
X-14135100Y-889000D01*
X-13804900Y-889000D01*
X-13804900Y-1549400D01*
X-14135100Y-1549400D01*
X-14135100Y-1879600D01*
X-16116300Y-1879600D01*
X-16116300Y-889000D01*
X-15455900Y-889000D01*
X-15455900Y-1549400D01*
X-14465300Y-1549400D01*
X-14465300Y-889000D01*
X-15455900Y-889000D01*
X-16116300Y-889000D01*
X-16116300Y101600D01*
X-15455900Y101600D01*
X-15455900Y-558800D01*
X-14465300Y-558800D01*
X-14465300Y101600D01*
X-15455900Y101600D01*
X-16116300Y101600D01*
X-16116300Y431800D01*
X-14135100Y431800D01*
X-14135100Y101600D01*
G36*
X-11493500Y-558800D02*
G01*
X-11163300Y-558800D01*
X-11163300Y-1879600D01*
X-13144500Y-1879600D01*
X-13144500Y-1549400D01*
X-13474700Y-1549400D01*
X-13474700Y-1219200D01*
X-13144500Y-1219200D01*
X-12814300Y-1219200D01*
X-12814300Y-1549400D01*
X-11823700Y-1549400D01*
X-11823700Y-1219200D01*
X-12814300Y-1219200D01*
X-13144500Y-1219200D01*
X-13144500Y-889000D01*
X-11823700Y-889000D01*
X-11823700Y-558800D01*
X-13144500Y-558800D01*
X-13144500Y-228600D01*
X-11493500Y-228600D01*
X-11493500Y-558800D01*
X-11493500Y-558800D01*
G37*
X-11493500Y-558800D02*
X-11163300Y-558800D01*
X-11163300Y-1879600D01*
X-13144500Y-1879600D01*
X-13144500Y-1549400D01*
X-13474700Y-1549400D01*
X-13474700Y-1219200D01*
X-13144500Y-1219200D01*
X-12814300Y-1219200D01*
X-12814300Y-1549400D01*
X-11823700Y-1549400D01*
X-11823700Y-1219200D01*
X-12814300Y-1219200D01*
X-13144500Y-1219200D01*
X-13144500Y-889000D01*
X-11823700Y-889000D01*
X-11823700Y-558800D01*
X-13144500Y-558800D01*
X-13144500Y-228600D01*
X-11493500Y-228600D01*
X-11493500Y-558800D01*
G36*
X-8509000Y-1879600D02*
G01*
X-10502900Y-1879600D01*
X-10502900Y-1549400D01*
X-10172999Y-1549400D01*
X-9169400Y-1549400D01*
X-9169400Y-558505D01*
X-9667875Y-561827D01*
X-10166350Y-565150D01*
X-10169675Y-1057275D01*
X-10172999Y-1549400D01*
X-10502900Y-1549400D01*
X-10833100Y-1549400D01*
X-10833100Y-558800D01*
X-10502900Y-558800D01*
X-10502900Y-228600D01*
X-9169400Y-228600D01*
X-9169400Y431800D01*
X-8509000Y431800D01*
X-8509000Y-1879600D01*
X-8509000Y-1879600D01*
G37*
X-8509000Y-1879600D02*
X-10502900Y-1879600D01*
X-10502900Y-1549400D01*
X-10172999Y-1549400D01*
X-9169400Y-1549400D01*
X-9169400Y-558505D01*
X-9667875Y-561827D01*
X-10166350Y-565150D01*
X-10169675Y-1057275D01*
X-10172999Y-1549400D01*
X-10502900Y-1549400D01*
X-10833100Y-1549400D01*
X-10833100Y-558800D01*
X-10502900Y-558800D01*
X-10502900Y-228600D01*
X-9169400Y-228600D01*
X-9169400Y431800D01*
X-8509000Y431800D01*
X-8509000Y-1879600D01*
G36*
X-3556000Y-558800D02*
G01*
X-3225800Y-558800D01*
X-3225800Y-1219200D01*
X-4876800Y-1219200D01*
X-4876800Y-1549400D01*
X-3556000Y-1549400D01*
X-3556000Y-1879600D01*
X-5207000Y-1879600D01*
X-5207000Y-1549400D01*
X-5537200Y-1549400D01*
X-5537200Y-558800D01*
X-5207000Y-558800D01*
X-4876800Y-558800D01*
X-4876800Y-889000D01*
X-3886200Y-889000D01*
X-3886200Y-558800D01*
X-4876800Y-558800D01*
X-5207000Y-558800D01*
X-5207000Y-228600D01*
X-3556000Y-228600D01*
X-3556000Y-558800D01*
X-3556000Y-558800D01*
G37*
X-3556000Y-558800D02*
X-3225800Y-558800D01*
X-3225800Y-1219200D01*
X-4876800Y-1219200D01*
X-4876800Y-1549400D01*
X-3556000Y-1549400D01*
X-3556000Y-1879600D01*
X-5207000Y-1879600D01*
X-5207000Y-1549400D01*
X-5537200Y-1549400D01*
X-5537200Y-558800D01*
X-5207000Y-558800D01*
X-4876800Y-558800D01*
X-4876800Y-889000D01*
X-3886200Y-889000D01*
X-3886200Y-558800D01*
X-4876800Y-558800D01*
X-5207000Y-558800D01*
X-5207000Y-228600D01*
X-3556000Y-228600D01*
X-3556000Y-558800D01*
G36*
X-901700Y101600D02*
G01*
X-571500Y101600D01*
X-571500Y-889000D01*
X-901700Y-889000D01*
X-901700Y-1218973D01*
X-1565275Y-1222261D01*
X-2228850Y-1225550D01*
X-2232240Y-1552575D01*
X-2235629Y-1879600D01*
X-2895600Y-1879600D01*
X-2895600Y101600D01*
X-2235200Y101600D01*
X-2235200Y-889000D01*
X-1231900Y-889000D01*
X-1231900Y101600D01*
X-2235200Y101600D01*
X-2895600Y101600D01*
X-2895600Y431800D01*
X-901700Y431800D01*
X-901700Y101600D01*
X-901700Y101600D01*
G37*
X-901700Y101600D02*
X-571500Y101600D01*
X-571500Y-889000D01*
X-901700Y-889000D01*
X-901700Y-1218973D01*
X-1565275Y-1222261D01*
X-2228850Y-1225550D01*
X-2232240Y-1552575D01*
X-2235629Y-1879600D01*
X-2895600Y-1879600D01*
X-2895600Y101600D01*
X-2235200Y101600D01*
X-2235200Y-889000D01*
X-1231900Y-889000D01*
X-1231900Y101600D01*
X-2235200Y101600D01*
X-2895600Y101600D01*
X-2895600Y431800D01*
X-901700Y431800D01*
X-901700Y101600D01*
G36*
X1409700Y-1549400D02*
G01*
X2070100Y-1549400D01*
X2070100Y-1879600D01*
X88900Y-1879600D01*
X88900Y-1549400D01*
X749300Y-1549400D01*
X749300Y-558800D01*
X419100Y-558800D01*
X419100Y-228600D01*
X1409700Y-228600D01*
X1409700Y-1549400D01*
X1409700Y-1549400D01*
G37*
X1409700Y-1549400D02*
X2070100Y-1549400D01*
X2070100Y-1879600D01*
X88900Y-1879600D01*
X88900Y-1549400D01*
X749300Y-1549400D01*
X749300Y-558800D01*
X419100Y-558800D01*
X419100Y-228600D01*
X1409700Y-228600D01*
X1409700Y-1549400D01*
G36*
X3390900Y-558800D02*
G01*
X3721100Y-558800D01*
X3721100Y-889000D01*
X3390900Y-889000D01*
X3390900Y-1879600D01*
X2730500Y-1879600D01*
X2730500Y-228600D01*
X3390900Y-228600D01*
X3390900Y-558800D01*
X3390900Y-558800D01*
G37*
X3390900Y-558800D02*
X3721100Y-558800D01*
X3721100Y-889000D01*
X3390900Y-889000D01*
X3390900Y-1879600D01*
X2730500Y-1879600D01*
X2730500Y-228600D01*
X3390900Y-228600D01*
X3390900Y-558800D01*
G36*
X4711700Y-558800D02*
G01*
X3721100Y-558800D01*
X3721100Y-228600D01*
X4711700Y-228600D01*
X4711700Y-558800D01*
X4711700Y-558800D01*
G37*
X4711700Y-558800D02*
X3721100Y-558800D01*
X3721100Y-228600D01*
X4711700Y-228600D01*
X4711700Y-558800D01*
G36*
X7035800Y-558800D02*
G01*
X7366000Y-558800D01*
X7366000Y-1879600D01*
X5372100Y-1879600D01*
X5372100Y-1549400D01*
X5701541Y-1549400D01*
X6706358Y-1549400D01*
X6699250Y-1225550D01*
X5708650Y-1225550D01*
X5705095Y-1387475D01*
X5701541Y-1549400D01*
X5372100Y-1549400D01*
X5041900Y-1549400D01*
X5041900Y-1219200D01*
X5372100Y-1219200D01*
X5372100Y-889000D01*
X6705600Y-889000D01*
X6705600Y-558800D01*
X5372100Y-558800D01*
X5372100Y-228600D01*
X7035800Y-228600D01*
X7035800Y-558800D01*
X7035800Y-558800D01*
G37*
X7035800Y-558800D02*
X7366000Y-558800D01*
X7366000Y-1879600D01*
X5372100Y-1879600D01*
X5372100Y-1549400D01*
X5701541Y-1549400D01*
X6706358Y-1549400D01*
X6699250Y-1225550D01*
X5708650Y-1225550D01*
X5705095Y-1387475D01*
X5701541Y-1549400D01*
X5372100Y-1549400D01*
X5041900Y-1549400D01*
X5041900Y-1219200D01*
X5372100Y-1219200D01*
X5372100Y-889000D01*
X6705600Y-889000D01*
X6705600Y-558800D01*
X5372100Y-558800D01*
X5372100Y-228600D01*
X7035800Y-228600D01*
X7035800Y-558800D01*
G36*
X9347200Y-228600D02*
G01*
X10007600Y-228600D01*
X10007600Y-558800D01*
X9347200Y-558800D01*
X9347200Y-1879600D01*
X8686800Y-1879600D01*
X8686800Y-558800D01*
X8026400Y-558800D01*
X8026400Y-228600D01*
X8686800Y-228600D01*
X8686800Y431800D01*
X9347200Y431800D01*
X9347200Y-228600D01*
X9347200Y-228600D01*
G37*
X9347200Y-228600D02*
X10007600Y-228600D01*
X10007600Y-558800D01*
X9347200Y-558800D01*
X9347200Y-1879600D01*
X8686800Y-1879600D01*
X8686800Y-558800D01*
X8026400Y-558800D01*
X8026400Y-228600D01*
X8686800Y-228600D01*
X8686800Y431800D01*
X9347200Y431800D01*
X9347200Y-228600D01*
G36*
X12319000Y-558800D02*
G01*
X12649200Y-558800D01*
X12649200Y-1219200D01*
X10998200Y-1219200D01*
X10998200Y-1549400D01*
X12319000Y-1549400D01*
X12319000Y-1879600D01*
X10668000Y-1879600D01*
X10668000Y-1549400D01*
X10337800Y-1549400D01*
X10337800Y-558800D01*
X10668000Y-558800D01*
X10998200Y-558800D01*
X10998200Y-889000D01*
X11988800Y-889000D01*
X11988800Y-558800D01*
X10998200Y-558800D01*
X10668000Y-558800D01*
X10668000Y-228600D01*
X12319000Y-228600D01*
X12319000Y-558800D01*
X12319000Y-558800D01*
G37*
X12319000Y-558800D02*
X12649200Y-558800D01*
X12649200Y-1219200D01*
X10998200Y-1219200D01*
X10998200Y-1549400D01*
X12319000Y-1549400D01*
X12319000Y-1879600D01*
X10668000Y-1879600D01*
X10668000Y-1549400D01*
X10337800Y-1549400D01*
X10337800Y-558800D01*
X10668000Y-558800D01*
X10998200Y-558800D01*
X10998200Y-889000D01*
X11988800Y-889000D01*
X11988800Y-558800D01*
X10998200Y-558800D01*
X10668000Y-558800D01*
X10668000Y-228600D01*
X12319000Y-228600D01*
X12319000Y-558800D01*
G36*
X14973300Y-558800D02*
G01*
X13639800Y-558800D01*
X13639800Y-889000D01*
X14973300Y-889000D01*
X14973300Y-1219200D01*
X15303500Y-1219200D01*
X15303500Y-1549400D01*
X14973300Y-1549400D01*
X14973300Y-1879600D01*
X12978641Y-1879600D01*
X12982195Y-1717675D01*
X12985750Y-1555750D01*
X13814803Y-1552482D01*
X14643857Y-1549215D01*
X14640303Y-1387382D01*
X14636750Y-1225550D01*
X13973175Y-1222261D01*
X13309600Y-1218973D01*
X13309600Y-889000D01*
X12979400Y-889000D01*
X12979400Y-558800D01*
X13309600Y-558800D01*
X13309600Y-228600D01*
X14973300Y-228600D01*
X14973300Y-558800D01*
X14973300Y-558800D01*
G37*
X14973300Y-558800D02*
X13639800Y-558800D01*
X13639800Y-889000D01*
X14973300Y-889000D01*
X14973300Y-1219200D01*
X15303500Y-1219200D01*
X15303500Y-1549400D01*
X14973300Y-1549400D01*
X14973300Y-1879600D01*
X12978641Y-1879600D01*
X12982195Y-1717675D01*
X12985750Y-1555750D01*
X13814803Y-1552482D01*
X14643857Y-1549215D01*
X14640303Y-1387382D01*
X14636750Y-1225550D01*
X13973175Y-1222261D01*
X13309600Y-1218973D01*
X13309600Y-889000D01*
X12979400Y-889000D01*
X12979400Y-558800D01*
X13309600Y-558800D01*
X13309600Y-228600D01*
X14973300Y-228600D01*
X14973300Y-558800D01*
G36*
X1409700Y101600D02*
G01*
X749300Y101600D01*
X749300Y431800D01*
X1409700Y431800D01*
X1409700Y101600D01*
X1409700Y101600D01*
G37*
X1409700Y101600D02*
X749300Y101600D01*
X749300Y431800D01*
X1409700Y431800D01*
X1409700Y101600D01*
G36*
X12496578Y17714554D02*
G01*
X12518815Y17708341D01*
X12549616Y17697305D01*
X12590165Y17680887D01*
X12641645Y17658528D01*
X12705239Y17629670D01*
X12782132Y17593755D01*
X12873507Y17550225D01*
X12980546Y17498522D01*
X13104435Y17438086D01*
X13246355Y17368360D01*
X13407492Y17288786D01*
X13589027Y17198804D01*
X13773150Y17107308D01*
X13895843Y17046422D01*
X14011698Y16989207D01*
X14118732Y16936624D01*
X14214968Y16889630D01*
X14298426Y16849185D01*
X14367125Y16816250D01*
X14419086Y16791782D01*
X14452331Y16776740D01*
X14464878Y16772086D01*
X14464904Y16772105D01*
X14466538Y16785764D01*
X14468440Y16821815D01*
X14470517Y16877251D01*
X14472675Y16949066D01*
X14474821Y17034255D01*
X14476861Y17129811D01*
X14478150Y17199638D01*
X14480739Y17329549D01*
X14483629Y17435431D01*
X14486890Y17518656D01*
X14490592Y17580593D01*
X14494804Y17622613D01*
X14499598Y17646086D01*
X14501147Y17649694D01*
X14535036Y17686922D01*
X14582875Y17709374D01*
X14637282Y17716064D01*
X14690874Y17706003D01*
X14733473Y17680783D01*
X14753441Y17660937D01*
X14766321Y17640226D01*
X14774561Y17611686D01*
X14780608Y17568352D01*
X14783674Y17537908D01*
X14786253Y17498221D01*
X14788644Y17437281D01*
X14790761Y17359237D01*
X14792513Y17268237D01*
X14793813Y17168428D01*
X14794571Y17063959D01*
X14794700Y17023077D01*
X14795500Y16615403D01*
X15249627Y16608606D01*
X15380284Y16606484D01*
X15487913Y16604166D01*
X15574884Y16601302D01*
X15643569Y16597543D01*
X15696338Y16592540D01*
X15735562Y16585945D01*
X15763613Y16577407D01*
X15782861Y16566579D01*
X15795677Y16553110D01*
X15804433Y16536652D01*
X15808324Y16526350D01*
X15813567Y16477905D01*
X15797184Y16435118D01*
X15762352Y16404539D01*
X15746017Y16397815D01*
X15723279Y16394377D01*
X15678187Y16390782D01*
X15613785Y16387164D01*
X15533117Y16383660D01*
X15439228Y16380405D01*
X15335162Y16377536D01*
X15249525Y16375665D01*
X14795500Y16366858D01*
X14794815Y15952654D01*
X14794292Y15810428D01*
X14793114Y15691362D01*
X14791099Y15593220D01*
X14788065Y15513765D01*
X14783830Y15450762D01*
X14778213Y15401974D01*
X14771031Y15365167D01*
X14762102Y15338104D01*
X14751245Y15318548D01*
X14742399Y15308127D01*
X14695966Y15277781D01*
X14643063Y15268221D01*
X14589757Y15278145D01*
X14542117Y15306252D01*
X14506213Y15351239D01*
X14502067Y15359687D01*
X14495470Y15376155D01*
X14490221Y15395281D01*
X14486165Y15420011D01*
X14483148Y15453291D01*
X14481016Y15498069D01*
X14479615Y15557290D01*
X14478792Y15633902D01*
X14478391Y15730851D01*
X14478278Y15814675D01*
X14477795Y15939073D01*
X14476547Y16041512D01*
X14474557Y16121277D01*
X14471849Y16177652D01*
X14468446Y16209922D01*
X14465256Y16217900D01*
X14451972Y16212363D01*
X14417921Y16196383D01*
X14365038Y16170911D01*
X14295256Y16136899D01*
X14210512Y16095296D01*
X14112739Y16047053D01*
X14003872Y15993122D01*
X13885846Y15934452D01*
X13760595Y15871995D01*
X13719131Y15851277D01*
X13517720Y15750729D01*
X13337907Y15661272D01*
X13178679Y15582420D01*
X13039027Y15513690D01*
X12917937Y15454598D01*
X12814399Y15404660D01*
X12727400Y15363390D01*
X12655929Y15330307D01*
X12598975Y15304924D01*
X12555525Y15286758D01*
X12524567Y15275325D01*
X12505091Y15270141D01*
X12504664Y15270075D01*
X12454386Y15275185D01*
X12424391Y15289632D01*
X12403984Y15302842D01*
X12387128Y15316185D01*
X12373455Y15332111D01*
X12362597Y15353068D01*
X12354187Y15381506D01*
X12347855Y15419873D01*
X12343234Y15470618D01*
X12339957Y15536191D01*
X12337654Y15619041D01*
X12335957Y15721615D01*
X12334500Y15846365D01*
X12334029Y15890875D01*
X12328854Y16383000D01*
X11879019Y16383000D01*
X11750419Y16383130D01*
X11644782Y16383744D01*
X11559670Y16385180D01*
X11492648Y16387777D01*
X11441278Y16391871D01*
X11403122Y16397803D01*
X11375745Y16405908D01*
X11356710Y16416526D01*
X11343579Y16429994D01*
X11333915Y16446651D01*
X11328325Y16459381D01*
X11318071Y16491757D01*
X11321317Y16516716D01*
X11329696Y16533785D01*
X11339516Y16550022D01*
X11350639Y16563291D01*
X11365566Y16573891D01*
X11386796Y16582125D01*
X11416831Y16588291D01*
X11458173Y16592692D01*
X11513322Y16595628D01*
X11584778Y16597399D01*
X11675044Y16598306D01*
X11786619Y16598650D01*
X11869728Y16598713D01*
X12328507Y16598900D01*
X12334224Y17014825D01*
X12661916Y17014825D01*
X12662136Y16924584D01*
X12662754Y16823056D01*
X12663722Y16712928D01*
X12664993Y16596888D01*
X12666521Y16477623D01*
X12668258Y16357820D01*
X12670157Y16240166D01*
X12672171Y16127348D01*
X12674253Y16022054D01*
X12676356Y15926970D01*
X12678431Y15844783D01*
X12680434Y15778181D01*
X12682315Y15729851D01*
X12684028Y15702480D01*
X12685033Y15697200D01*
X12697166Y15702783D01*
X12730018Y15718884D01*
X12781654Y15744533D01*
X12850138Y15778758D01*
X12933537Y15820589D01*
X13029914Y15869056D01*
X13137337Y15923188D01*
X13253870Y15982013D01*
X13377577Y16044561D01*
X13403692Y16057778D01*
X13530846Y16122195D01*
X13652892Y16184131D01*
X13767665Y16242481D01*
X13873001Y16296138D01*
X13966734Y16343997D01*
X14046699Y16384952D01*
X14110730Y16417898D01*
X14156663Y16441729D01*
X14182332Y16455339D01*
X14183857Y16456182D01*
X14251665Y16494009D01*
X14145757Y16551603D01*
X14109479Y16570828D01*
X14055480Y16598756D01*
X13986084Y16634227D01*
X13903613Y16676084D01*
X13810393Y16723168D01*
X13767110Y16744950D01*
X14503400Y16744950D01*
X14509750Y16738600D01*
X14516100Y16744950D01*
X14509750Y16751300D01*
X14503400Y16744950D01*
X13767110Y16744950D01*
X13708747Y16774320D01*
X13600999Y16828382D01*
X13489473Y16884197D01*
X13376492Y16940605D01*
X13264380Y16996448D01*
X13155461Y17050568D01*
X13052060Y17101807D01*
X12956499Y17149006D01*
X12871103Y17191007D01*
X12798195Y17226651D01*
X12740100Y17254781D01*
X12699141Y17274237D01*
X12677642Y17283862D01*
X12675044Y17284700D01*
X12670066Y17272083D01*
X12666251Y17234510D01*
X12663619Y17172398D01*
X12662190Y17086168D01*
X12661916Y17014825D01*
X12334224Y17014825D01*
X12335185Y17084675D01*
X12337464Y17222784D01*
X12340231Y17342664D01*
X12343430Y17442955D01*
X12347010Y17522297D01*
X12350915Y17579330D01*
X12355092Y17612694D01*
X12356269Y17617498D01*
X12383372Y17669027D01*
X12425509Y17703210D01*
X12478122Y17716450D01*
X12481721Y17716500D01*
X12496578Y17714554D01*
X12496578Y17714554D01*
G37*
X12496578Y17714554D02*
X12518815Y17708341D01*
X12549616Y17697305D01*
X12590165Y17680887D01*
X12641645Y17658528D01*
X12705239Y17629670D01*
X12782132Y17593755D01*
X12873507Y17550225D01*
X12980546Y17498522D01*
X13104435Y17438086D01*
X13246355Y17368360D01*
X13407492Y17288786D01*
X13589027Y17198804D01*
X13773150Y17107308D01*
X13895843Y17046422D01*
X14011698Y16989207D01*
X14118732Y16936624D01*
X14214968Y16889630D01*
X14298426Y16849185D01*
X14367125Y16816250D01*
X14419086Y16791782D01*
X14452331Y16776740D01*
X14464878Y16772086D01*
X14464904Y16772105D01*
X14466538Y16785764D01*
X14468440Y16821815D01*
X14470517Y16877251D01*
X14472675Y16949066D01*
X14474821Y17034255D01*
X14476861Y17129811D01*
X14478150Y17199638D01*
X14480739Y17329549D01*
X14483629Y17435431D01*
X14486890Y17518656D01*
X14490592Y17580593D01*
X14494804Y17622613D01*
X14499598Y17646086D01*
X14501147Y17649694D01*
X14535036Y17686922D01*
X14582875Y17709374D01*
X14637282Y17716064D01*
X14690874Y17706003D01*
X14733473Y17680783D01*
X14753441Y17660937D01*
X14766321Y17640226D01*
X14774561Y17611686D01*
X14780608Y17568352D01*
X14783674Y17537908D01*
X14786253Y17498221D01*
X14788644Y17437281D01*
X14790761Y17359237D01*
X14792513Y17268237D01*
X14793813Y17168428D01*
X14794571Y17063959D01*
X14794700Y17023077D01*
X14795500Y16615403D01*
X15249627Y16608606D01*
X15380284Y16606484D01*
X15487913Y16604166D01*
X15574884Y16601302D01*
X15643569Y16597543D01*
X15696338Y16592540D01*
X15735562Y16585945D01*
X15763613Y16577407D01*
X15782861Y16566579D01*
X15795677Y16553110D01*
X15804433Y16536652D01*
X15808324Y16526350D01*
X15813567Y16477905D01*
X15797184Y16435118D01*
X15762352Y16404539D01*
X15746017Y16397815D01*
X15723279Y16394377D01*
X15678187Y16390782D01*
X15613785Y16387164D01*
X15533117Y16383660D01*
X15439228Y16380405D01*
X15335162Y16377536D01*
X15249525Y16375665D01*
X14795500Y16366858D01*
X14794815Y15952654D01*
X14794292Y15810428D01*
X14793114Y15691362D01*
X14791099Y15593220D01*
X14788065Y15513765D01*
X14783830Y15450762D01*
X14778213Y15401974D01*
X14771031Y15365167D01*
X14762102Y15338104D01*
X14751245Y15318548D01*
X14742399Y15308127D01*
X14695966Y15277781D01*
X14643063Y15268221D01*
X14589757Y15278145D01*
X14542117Y15306252D01*
X14506213Y15351239D01*
X14502067Y15359687D01*
X14495470Y15376155D01*
X14490221Y15395281D01*
X14486165Y15420011D01*
X14483148Y15453291D01*
X14481016Y15498069D01*
X14479615Y15557290D01*
X14478792Y15633902D01*
X14478391Y15730851D01*
X14478278Y15814675D01*
X14477795Y15939073D01*
X14476547Y16041512D01*
X14474557Y16121277D01*
X14471849Y16177652D01*
X14468446Y16209922D01*
X14465256Y16217900D01*
X14451972Y16212363D01*
X14417921Y16196383D01*
X14365038Y16170911D01*
X14295256Y16136899D01*
X14210512Y16095296D01*
X14112739Y16047053D01*
X14003872Y15993122D01*
X13885846Y15934452D01*
X13760595Y15871995D01*
X13719131Y15851277D01*
X13517720Y15750729D01*
X13337907Y15661272D01*
X13178679Y15582420D01*
X13039027Y15513690D01*
X12917937Y15454598D01*
X12814399Y15404660D01*
X12727400Y15363390D01*
X12655929Y15330307D01*
X12598975Y15304924D01*
X12555525Y15286758D01*
X12524567Y15275325D01*
X12505091Y15270141D01*
X12504664Y15270075D01*
X12454386Y15275185D01*
X12424391Y15289632D01*
X12403984Y15302842D01*
X12387128Y15316185D01*
X12373455Y15332111D01*
X12362597Y15353068D01*
X12354187Y15381506D01*
X12347855Y15419873D01*
X12343234Y15470618D01*
X12339957Y15536191D01*
X12337654Y15619041D01*
X12335957Y15721615D01*
X12334500Y15846365D01*
X12334029Y15890875D01*
X12328854Y16383000D01*
X11879019Y16383000D01*
X11750419Y16383130D01*
X11644782Y16383744D01*
X11559670Y16385180D01*
X11492648Y16387777D01*
X11441278Y16391871D01*
X11403122Y16397803D01*
X11375745Y16405908D01*
X11356710Y16416526D01*
X11343579Y16429994D01*
X11333915Y16446651D01*
X11328325Y16459381D01*
X11318071Y16491757D01*
X11321317Y16516716D01*
X11329696Y16533785D01*
X11339516Y16550022D01*
X11350639Y16563291D01*
X11365566Y16573891D01*
X11386796Y16582125D01*
X11416831Y16588291D01*
X11458173Y16592692D01*
X11513322Y16595628D01*
X11584778Y16597399D01*
X11675044Y16598306D01*
X11786619Y16598650D01*
X11869728Y16598713D01*
X12328507Y16598900D01*
X12334224Y17014825D01*
X12661916Y17014825D01*
X12662136Y16924584D01*
X12662754Y16823056D01*
X12663722Y16712928D01*
X12664993Y16596888D01*
X12666521Y16477623D01*
X12668258Y16357820D01*
X12670157Y16240166D01*
X12672171Y16127348D01*
X12674253Y16022054D01*
X12676356Y15926970D01*
X12678431Y15844783D01*
X12680434Y15778181D01*
X12682315Y15729851D01*
X12684028Y15702480D01*
X12685033Y15697200D01*
X12697166Y15702783D01*
X12730018Y15718884D01*
X12781654Y15744533D01*
X12850138Y15778758D01*
X12933537Y15820589D01*
X13029914Y15869056D01*
X13137337Y15923188D01*
X13253870Y15982013D01*
X13377577Y16044561D01*
X13403692Y16057778D01*
X13530846Y16122195D01*
X13652892Y16184131D01*
X13767665Y16242481D01*
X13873001Y16296138D01*
X13966734Y16343997D01*
X14046699Y16384952D01*
X14110730Y16417898D01*
X14156663Y16441729D01*
X14182332Y16455339D01*
X14183857Y16456182D01*
X14251665Y16494009D01*
X14145757Y16551603D01*
X14109479Y16570828D01*
X14055480Y16598756D01*
X13986084Y16634227D01*
X13903613Y16676084D01*
X13810393Y16723168D01*
X13767110Y16744950D01*
X14503400Y16744950D01*
X14509750Y16738600D01*
X14516100Y16744950D01*
X14509750Y16751300D01*
X14503400Y16744950D01*
X13767110Y16744950D01*
X13708747Y16774320D01*
X13600999Y16828382D01*
X13489473Y16884197D01*
X13376492Y16940605D01*
X13264380Y16996448D01*
X13155461Y17050568D01*
X13052060Y17101807D01*
X12956499Y17149006D01*
X12871103Y17191007D01*
X12798195Y17226651D01*
X12740100Y17254781D01*
X12699141Y17274237D01*
X12677642Y17283862D01*
X12675044Y17284700D01*
X12670066Y17272083D01*
X12666251Y17234510D01*
X12663619Y17172398D01*
X12662190Y17086168D01*
X12661916Y17014825D01*
X12334224Y17014825D01*
X12335185Y17084675D01*
X12337464Y17222784D01*
X12340231Y17342664D01*
X12343430Y17442955D01*
X12347010Y17522297D01*
X12350915Y17579330D01*
X12355092Y17612694D01*
X12356269Y17617498D01*
X12383372Y17669027D01*
X12425509Y17703210D01*
X12478122Y17716450D01*
X12481721Y17716500D01*
X12496578Y17714554D01*
D11*
X-5604200Y-21183280D03*
X-5604200Y-23723280D03*
D12*
X-8144200Y-21183280D03*
X-8144200Y-23723280D03*
X-10684200Y-21183280D03*
D13*
X-10684200Y-23723280D03*
M02*
