G04 #@! TF.GenerationSoftware,KiCad,Pcbnew,(5.1.2)-1*
G04 #@! TF.CreationDate,2019-07-16T22:45:59-05:00*
G04 #@! TF.ProjectId,1ktwitter,316b7477-6974-4746-9572-2e6b69636164,rev?*
G04 #@! TF.SameCoordinates,Original*
G04 #@! TF.FileFunction,Copper,L2,Bot*
G04 #@! TF.FilePolarity,Positive*
%FSLAX46Y46*%
G04 Gerber Fmt 4.6, Leading zero omitted, Abs format (unit mm)*
G04 Created by KiCad (PCBNEW (5.1.2)-1) date 2019-07-16 22:45:59*
%MOMM*%
%LPD*%
G04 APERTURE LIST*
%ADD10C,0.010000*%
%ADD11C,1.727200*%
%ADD12O,1.727200X1.727200*%
%ADD13R,1.727200X1.727200*%
%ADD14R,8.000000X5.560000*%
%ADD15R,2.600000X5.560000*%
%ADD16C,0.100000*%
%ADD17C,1.250000*%
%ADD18C,0.250000*%
G04 APERTURE END LIST*
D10*
G36*
X-28965583Y3336716D02*
G01*
X-28943655Y3306541D01*
X-28913537Y3262041D01*
X-28877738Y3206902D01*
X-28848641Y3160733D01*
X-28512980Y2643756D01*
X-28162373Y2147250D01*
X-27796711Y1671068D01*
X-27415885Y1215065D01*
X-27278791Y1059979D01*
X-27204116Y978343D01*
X-27115751Y884396D01*
X-27017290Y781755D01*
X-26912322Y674042D01*
X-26804439Y564876D01*
X-26697234Y457876D01*
X-26594296Y356663D01*
X-26499218Y264856D01*
X-26415591Y186075D01*
X-26373622Y147662D01*
X-26223294Y12024D01*
X-26219674Y-143213D01*
X-26203680Y-350668D01*
X-26166153Y-550699D01*
X-26108046Y-741444D01*
X-26030312Y-921043D01*
X-25933904Y-1087635D01*
X-25819775Y-1239358D01*
X-25688879Y-1374352D01*
X-25542169Y-1490756D01*
X-25522666Y-1503973D01*
X-25374243Y-1589794D01*
X-25223792Y-1650683D01*
X-25069696Y-1687106D01*
X-24910340Y-1699527D01*
X-24848208Y-1698058D01*
X-24690158Y-1679666D01*
X-24544129Y-1640192D01*
X-24406073Y-1578228D01*
X-24285088Y-1501918D01*
X-24243372Y-1472408D01*
X-24209961Y-1449563D01*
X-24189800Y-1436725D01*
X-24186293Y-1435100D01*
X-24173306Y-1440878D01*
X-24142054Y-1456779D01*
X-24096511Y-1480655D01*
X-24040649Y-1510356D01*
X-23978443Y-1543734D01*
X-23913865Y-1578640D01*
X-23850890Y-1612924D01*
X-23793490Y-1644437D01*
X-23745640Y-1671031D01*
X-23711312Y-1690557D01*
X-23694480Y-1700866D01*
X-23693658Y-1701533D01*
X-23696090Y-1715540D01*
X-23710631Y-1746057D01*
X-23734937Y-1788705D01*
X-23766668Y-1839102D01*
X-23769566Y-1843502D01*
X-23894375Y-2051368D01*
X-23995984Y-2263331D01*
X-24076474Y-2484335D01*
X-24137595Y-2717800D01*
X-24145362Y-2754111D01*
X-24151891Y-2786912D01*
X-24157319Y-2818802D01*
X-24161785Y-2852385D01*
X-24165425Y-2890260D01*
X-24168378Y-2935029D01*
X-24170780Y-2989295D01*
X-24172770Y-3055657D01*
X-24174484Y-3136719D01*
X-24176062Y-3235080D01*
X-24177639Y-3353343D01*
X-24179353Y-3494108D01*
X-24179562Y-3511550D01*
X-24181283Y-3657653D01*
X-24182829Y-3780555D01*
X-24184451Y-3882451D01*
X-24186401Y-3965536D01*
X-24188932Y-4032005D01*
X-24192295Y-4084054D01*
X-24196743Y-4123876D01*
X-24202528Y-4153668D01*
X-24209902Y-4175624D01*
X-24219116Y-4191940D01*
X-24230424Y-4204811D01*
X-24244078Y-4216431D01*
X-24260328Y-4228996D01*
X-24262124Y-4230404D01*
X-24293605Y-4252644D01*
X-24341717Y-4283407D01*
X-24403267Y-4320907D01*
X-24475058Y-4363358D01*
X-24553896Y-4408975D01*
X-24636584Y-4455972D01*
X-24719927Y-4502564D01*
X-24800731Y-4546963D01*
X-24875799Y-4587386D01*
X-24941937Y-4622046D01*
X-24995948Y-4649157D01*
X-25034638Y-4666933D01*
X-25054812Y-4673590D01*
X-25055177Y-4673600D01*
X-25058908Y-4661037D01*
X-25062283Y-4623896D01*
X-25065274Y-4562997D01*
X-25067850Y-4479157D01*
X-25069982Y-4373198D01*
X-25071640Y-4245939D01*
X-25072013Y-4206875D01*
X-25073119Y-4085717D01*
X-25074188Y-3987291D01*
X-25075395Y-3908928D01*
X-25076914Y-3847960D01*
X-25078920Y-3801720D01*
X-25081586Y-3767540D01*
X-25085088Y-3742752D01*
X-25089599Y-3724687D01*
X-25095295Y-3710679D01*
X-25102349Y-3698059D01*
X-25105626Y-3692743D01*
X-25152487Y-3633606D01*
X-25210761Y-3584289D01*
X-25272617Y-3550964D01*
X-25294356Y-3544044D01*
X-25374145Y-3536347D01*
X-25452140Y-3551452D01*
X-25523322Y-3586968D01*
X-25582671Y-3640503D01*
X-25620603Y-3699518D01*
X-25651945Y-3765550D01*
X-25657357Y-4334026D01*
X-25658640Y-4451773D01*
X-25660149Y-4561611D01*
X-25661825Y-4660953D01*
X-25663610Y-4747212D01*
X-25665447Y-4817803D01*
X-25667278Y-4870139D01*
X-25669043Y-4901632D01*
X-25670308Y-4910041D01*
X-25687617Y-4918190D01*
X-25725122Y-4930488D01*
X-25778198Y-4945705D01*
X-25842217Y-4962616D01*
X-25912550Y-4979992D01*
X-25984572Y-4996608D01*
X-26046388Y-5009771D01*
X-26154091Y-5029986D01*
X-26273839Y-5049741D01*
X-26394606Y-5067356D01*
X-26505366Y-5081153D01*
X-26537817Y-5084580D01*
X-26602484Y-5091027D01*
X-26610842Y-4785007D01*
X-26613293Y-4688910D01*
X-26615459Y-4591741D01*
X-26617231Y-4499517D01*
X-26618495Y-4418255D01*
X-26619141Y-4353974D01*
X-26619200Y-4334487D01*
X-26621087Y-4254179D01*
X-26627964Y-4193120D01*
X-26641655Y-4145355D01*
X-26663984Y-4104932D01*
X-26696774Y-4065897D01*
X-26703649Y-4058840D01*
X-26767970Y-4010533D01*
X-26840959Y-3983339D01*
X-26917918Y-3976773D01*
X-26994153Y-3990348D01*
X-27064968Y-4023578D01*
X-27125665Y-4075976D01*
X-27147885Y-4104869D01*
X-27187619Y-4163856D01*
X-27197033Y-4621928D01*
X-27206446Y-5080000D01*
X-27271598Y-5079941D01*
X-27352000Y-5075809D01*
X-27453306Y-5063907D01*
X-27572425Y-5044789D01*
X-27706264Y-5019011D01*
X-27851732Y-4987127D01*
X-28005736Y-4949693D01*
X-28025250Y-4944698D01*
X-28154949Y-4911315D01*
X-28158600Y-4325732D01*
X-28159446Y-4184662D01*
X-28160282Y-4066620D01*
X-28161420Y-3969234D01*
X-28163175Y-3890134D01*
X-28165859Y-3826949D01*
X-28169785Y-3777310D01*
X-28175268Y-3738845D01*
X-28182620Y-3709183D01*
X-28192155Y-3685955D01*
X-28204187Y-3666789D01*
X-28219027Y-3649315D01*
X-28236991Y-3631162D01*
X-28252419Y-3615957D01*
X-28316222Y-3569037D01*
X-28388971Y-3543034D01*
X-28465726Y-3537594D01*
X-28541547Y-3552364D01*
X-28611495Y-3586993D01*
X-28670631Y-3641127D01*
X-28674603Y-3646105D01*
X-28691280Y-3667799D01*
X-28704854Y-3687683D01*
X-28715646Y-3708533D01*
X-28723974Y-3733127D01*
X-28730158Y-3764239D01*
X-28734517Y-3804646D01*
X-28737369Y-3857125D01*
X-28739035Y-3924450D01*
X-28739832Y-4009398D01*
X-28740082Y-4114746D01*
X-28740100Y-4215769D01*
X-28740326Y-4344037D01*
X-28741037Y-4448566D01*
X-28742289Y-4531015D01*
X-28744134Y-4593039D01*
X-28746626Y-4636297D01*
X-28749820Y-4662446D01*
X-28753768Y-4673144D01*
X-28754923Y-4673600D01*
X-28777474Y-4667157D01*
X-28818399Y-4649042D01*
X-28874553Y-4621077D01*
X-28942791Y-4585083D01*
X-29019966Y-4542881D01*
X-29102934Y-4496293D01*
X-29188549Y-4447140D01*
X-29273666Y-4397244D01*
X-29355139Y-4348425D01*
X-29429822Y-4302506D01*
X-29494571Y-4261307D01*
X-29546240Y-4226649D01*
X-29581683Y-4200355D01*
X-29596411Y-4186341D01*
X-29602528Y-4177395D01*
X-29607654Y-4166855D01*
X-29611910Y-4152457D01*
X-29615412Y-4131937D01*
X-29618282Y-4103032D01*
X-29620636Y-4063479D01*
X-29622595Y-4011013D01*
X-29624277Y-3943373D01*
X-29625800Y-3858294D01*
X-29627285Y-3753512D01*
X-29628849Y-3626765D01*
X-29629727Y-3551918D01*
X-29636704Y-2952750D01*
X-29688703Y-2755900D01*
X-29734101Y-2597950D01*
X-29783409Y-2455801D01*
X-29840267Y-2319854D01*
X-29903177Y-2190454D01*
X-29946874Y-2107963D01*
X-29966074Y-2074129D01*
X-27362931Y-2074129D01*
X-27360346Y-2115910D01*
X-27350917Y-2155426D01*
X-27335162Y-2196193D01*
X-27328998Y-2209800D01*
X-27288278Y-2280779D01*
X-27232455Y-2355399D01*
X-27168681Y-2425057D01*
X-27104107Y-2481150D01*
X-27102336Y-2482457D01*
X-27024115Y-2530496D01*
X-26949954Y-2555100D01*
X-26875609Y-2556837D01*
X-26796838Y-2536275D01*
X-26773341Y-2526569D01*
X-26723365Y-2496191D01*
X-26667179Y-2448704D01*
X-26609996Y-2389689D01*
X-26557030Y-2324724D01*
X-26513491Y-2259387D01*
X-26499345Y-2233324D01*
X-26469005Y-2160940D01*
X-26454719Y-2092840D01*
X-26456314Y-2022185D01*
X-26473619Y-1942138D01*
X-26490649Y-1889101D01*
X-26507866Y-1841260D01*
X-26531678Y-1777210D01*
X-26560480Y-1701078D01*
X-26592665Y-1616991D01*
X-26626628Y-1529077D01*
X-26660763Y-1441461D01*
X-26693464Y-1358273D01*
X-26723125Y-1283638D01*
X-26748141Y-1221684D01*
X-26766905Y-1176538D01*
X-26775332Y-1157422D01*
X-26810353Y-1103773D01*
X-26854011Y-1069656D01*
X-26902257Y-1056376D01*
X-26951039Y-1065238D01*
X-26987592Y-1089025D01*
X-27000650Y-1102968D01*
X-27014679Y-1122868D01*
X-27030560Y-1150764D01*
X-27049173Y-1188695D01*
X-27071399Y-1238701D01*
X-27098119Y-1302822D01*
X-27130214Y-1383096D01*
X-27168566Y-1481564D01*
X-27214055Y-1600263D01*
X-27255036Y-1708150D01*
X-27294452Y-1814012D01*
X-27324432Y-1900025D01*
X-27345492Y-1969703D01*
X-27358152Y-2026566D01*
X-27362931Y-2074129D01*
X-29966074Y-2074129D01*
X-29990636Y-2030848D01*
X-30036380Y-1956608D01*
X-30086025Y-1882741D01*
X-30141488Y-1806744D01*
X-30204686Y-1726115D01*
X-30277537Y-1638352D01*
X-30361959Y-1540954D01*
X-30459869Y-1431417D01*
X-30573186Y-1307241D01*
X-30614208Y-1262710D01*
X-30684420Y-1186323D01*
X-30753437Y-1110662D01*
X-30818114Y-1039216D01*
X-30875304Y-975479D01*
X-30921863Y-922939D01*
X-30954646Y-885090D01*
X-30957497Y-881710D01*
X-31077102Y-725843D01*
X-31176301Y-567898D01*
X-31254067Y-409978D01*
X-31291403Y-304800D01*
X-30079623Y-304800D01*
X-30078605Y-413326D01*
X-30074575Y-503313D01*
X-30066595Y-581533D01*
X-30053730Y-654762D01*
X-30035042Y-729773D01*
X-30009596Y-813342D01*
X-30009137Y-814761D01*
X-29940870Y-989660D01*
X-29855078Y-1148452D01*
X-29752883Y-1290036D01*
X-29635408Y-1413314D01*
X-29503773Y-1517187D01*
X-29359102Y-1600556D01*
X-29202516Y-1662321D01*
X-29121100Y-1684527D01*
X-29061231Y-1693404D01*
X-28984075Y-1697399D01*
X-28897210Y-1696815D01*
X-28808214Y-1691955D01*
X-28724664Y-1683125D01*
X-28654140Y-1670626D01*
X-28632150Y-1664925D01*
X-28493956Y-1613758D01*
X-28355135Y-1542384D01*
X-28222144Y-1454990D01*
X-28101436Y-1355763D01*
X-28010010Y-1261407D01*
X-27882618Y-1094239D01*
X-27778702Y-917431D01*
X-27698232Y-730900D01*
X-27641176Y-534562D01*
X-27607505Y-328332D01*
X-27597149Y-125488D01*
X-27605476Y62756D01*
X-27631306Y236517D01*
X-27675749Y400712D01*
X-27739912Y560258D01*
X-27761968Y605570D01*
X-27852971Y760729D01*
X-27958040Y895874D01*
X-28075359Y1010686D01*
X-28203112Y1104844D01*
X-28339483Y1178026D01*
X-28482658Y1229914D01*
X-28630821Y1260185D01*
X-28782157Y1268521D01*
X-28934850Y1254599D01*
X-29087085Y1218100D01*
X-29237046Y1158704D01*
X-29382918Y1076089D01*
X-29522886Y969936D01*
X-29572254Y925161D01*
X-29707252Y780252D01*
X-29822161Y620842D01*
X-29917377Y446207D01*
X-29993294Y255624D01*
X-30050106Y49283D01*
X-30061652Y-7406D01*
X-30069817Y-60617D01*
X-30075145Y-116892D01*
X-30078181Y-182771D01*
X-30079472Y-264796D01*
X-30079623Y-304800D01*
X-31291403Y-304800D01*
X-31309370Y-254186D01*
X-31341183Y-102624D01*
X-31342140Y-95179D01*
X-31348231Y-5344D01*
X-31347270Y103674D01*
X-31339773Y226813D01*
X-31326256Y359009D01*
X-31307235Y495198D01*
X-31283225Y630318D01*
X-31255313Y756983D01*
X-31173730Y1037163D01*
X-31068332Y1310257D01*
X-30940018Y1575026D01*
X-30789692Y1830235D01*
X-30618253Y2074645D01*
X-30426604Y2307020D01*
X-30215646Y2526122D01*
X-29986280Y2730715D01*
X-29739407Y2919561D01*
X-29620802Y3000417D01*
X-29541477Y3051224D01*
X-29457346Y3102818D01*
X-29371441Y3153558D01*
X-29286791Y3201805D01*
X-29206426Y3245920D01*
X-29133376Y3284263D01*
X-29070671Y3315194D01*
X-29021340Y3337075D01*
X-28988414Y3348265D01*
X-28976810Y3348883D01*
X-28965583Y3336716D01*
X-28965583Y3336716D01*
G37*
X-28965583Y3336716D02*
X-28943655Y3306541D01*
X-28913537Y3262041D01*
X-28877738Y3206902D01*
X-28848641Y3160733D01*
X-28512980Y2643756D01*
X-28162373Y2147250D01*
X-27796711Y1671068D01*
X-27415885Y1215065D01*
X-27278791Y1059979D01*
X-27204116Y978343D01*
X-27115751Y884396D01*
X-27017290Y781755D01*
X-26912322Y674042D01*
X-26804439Y564876D01*
X-26697234Y457876D01*
X-26594296Y356663D01*
X-26499218Y264856D01*
X-26415591Y186075D01*
X-26373622Y147662D01*
X-26223294Y12024D01*
X-26219674Y-143213D01*
X-26203680Y-350668D01*
X-26166153Y-550699D01*
X-26108046Y-741444D01*
X-26030312Y-921043D01*
X-25933904Y-1087635D01*
X-25819775Y-1239358D01*
X-25688879Y-1374352D01*
X-25542169Y-1490756D01*
X-25522666Y-1503973D01*
X-25374243Y-1589794D01*
X-25223792Y-1650683D01*
X-25069696Y-1687106D01*
X-24910340Y-1699527D01*
X-24848208Y-1698058D01*
X-24690158Y-1679666D01*
X-24544129Y-1640192D01*
X-24406073Y-1578228D01*
X-24285088Y-1501918D01*
X-24243372Y-1472408D01*
X-24209961Y-1449563D01*
X-24189800Y-1436725D01*
X-24186293Y-1435100D01*
X-24173306Y-1440878D01*
X-24142054Y-1456779D01*
X-24096511Y-1480655D01*
X-24040649Y-1510356D01*
X-23978443Y-1543734D01*
X-23913865Y-1578640D01*
X-23850890Y-1612924D01*
X-23793490Y-1644437D01*
X-23745640Y-1671031D01*
X-23711312Y-1690557D01*
X-23694480Y-1700866D01*
X-23693658Y-1701533D01*
X-23696090Y-1715540D01*
X-23710631Y-1746057D01*
X-23734937Y-1788705D01*
X-23766668Y-1839102D01*
X-23769566Y-1843502D01*
X-23894375Y-2051368D01*
X-23995984Y-2263331D01*
X-24076474Y-2484335D01*
X-24137595Y-2717800D01*
X-24145362Y-2754111D01*
X-24151891Y-2786912D01*
X-24157319Y-2818802D01*
X-24161785Y-2852385D01*
X-24165425Y-2890260D01*
X-24168378Y-2935029D01*
X-24170780Y-2989295D01*
X-24172770Y-3055657D01*
X-24174484Y-3136719D01*
X-24176062Y-3235080D01*
X-24177639Y-3353343D01*
X-24179353Y-3494108D01*
X-24179562Y-3511550D01*
X-24181283Y-3657653D01*
X-24182829Y-3780555D01*
X-24184451Y-3882451D01*
X-24186401Y-3965536D01*
X-24188932Y-4032005D01*
X-24192295Y-4084054D01*
X-24196743Y-4123876D01*
X-24202528Y-4153668D01*
X-24209902Y-4175624D01*
X-24219116Y-4191940D01*
X-24230424Y-4204811D01*
X-24244078Y-4216431D01*
X-24260328Y-4228996D01*
X-24262124Y-4230404D01*
X-24293605Y-4252644D01*
X-24341717Y-4283407D01*
X-24403267Y-4320907D01*
X-24475058Y-4363358D01*
X-24553896Y-4408975D01*
X-24636584Y-4455972D01*
X-24719927Y-4502564D01*
X-24800731Y-4546963D01*
X-24875799Y-4587386D01*
X-24941937Y-4622046D01*
X-24995948Y-4649157D01*
X-25034638Y-4666933D01*
X-25054812Y-4673590D01*
X-25055177Y-4673600D01*
X-25058908Y-4661037D01*
X-25062283Y-4623896D01*
X-25065274Y-4562997D01*
X-25067850Y-4479157D01*
X-25069982Y-4373198D01*
X-25071640Y-4245939D01*
X-25072013Y-4206875D01*
X-25073119Y-4085717D01*
X-25074188Y-3987291D01*
X-25075395Y-3908928D01*
X-25076914Y-3847960D01*
X-25078920Y-3801720D01*
X-25081586Y-3767540D01*
X-25085088Y-3742752D01*
X-25089599Y-3724687D01*
X-25095295Y-3710679D01*
X-25102349Y-3698059D01*
X-25105626Y-3692743D01*
X-25152487Y-3633606D01*
X-25210761Y-3584289D01*
X-25272617Y-3550964D01*
X-25294356Y-3544044D01*
X-25374145Y-3536347D01*
X-25452140Y-3551452D01*
X-25523322Y-3586968D01*
X-25582671Y-3640503D01*
X-25620603Y-3699518D01*
X-25651945Y-3765550D01*
X-25657357Y-4334026D01*
X-25658640Y-4451773D01*
X-25660149Y-4561611D01*
X-25661825Y-4660953D01*
X-25663610Y-4747212D01*
X-25665447Y-4817803D01*
X-25667278Y-4870139D01*
X-25669043Y-4901632D01*
X-25670308Y-4910041D01*
X-25687617Y-4918190D01*
X-25725122Y-4930488D01*
X-25778198Y-4945705D01*
X-25842217Y-4962616D01*
X-25912550Y-4979992D01*
X-25984572Y-4996608D01*
X-26046388Y-5009771D01*
X-26154091Y-5029986D01*
X-26273839Y-5049741D01*
X-26394606Y-5067356D01*
X-26505366Y-5081153D01*
X-26537817Y-5084580D01*
X-26602484Y-5091027D01*
X-26610842Y-4785007D01*
X-26613293Y-4688910D01*
X-26615459Y-4591741D01*
X-26617231Y-4499517D01*
X-26618495Y-4418255D01*
X-26619141Y-4353974D01*
X-26619200Y-4334487D01*
X-26621087Y-4254179D01*
X-26627964Y-4193120D01*
X-26641655Y-4145355D01*
X-26663984Y-4104932D01*
X-26696774Y-4065897D01*
X-26703649Y-4058840D01*
X-26767970Y-4010533D01*
X-26840959Y-3983339D01*
X-26917918Y-3976773D01*
X-26994153Y-3990348D01*
X-27064968Y-4023578D01*
X-27125665Y-4075976D01*
X-27147885Y-4104869D01*
X-27187619Y-4163856D01*
X-27197033Y-4621928D01*
X-27206446Y-5080000D01*
X-27271598Y-5079941D01*
X-27352000Y-5075809D01*
X-27453306Y-5063907D01*
X-27572425Y-5044789D01*
X-27706264Y-5019011D01*
X-27851732Y-4987127D01*
X-28005736Y-4949693D01*
X-28025250Y-4944698D01*
X-28154949Y-4911315D01*
X-28158600Y-4325732D01*
X-28159446Y-4184662D01*
X-28160282Y-4066620D01*
X-28161420Y-3969234D01*
X-28163175Y-3890134D01*
X-28165859Y-3826949D01*
X-28169785Y-3777310D01*
X-28175268Y-3738845D01*
X-28182620Y-3709183D01*
X-28192155Y-3685955D01*
X-28204187Y-3666789D01*
X-28219027Y-3649315D01*
X-28236991Y-3631162D01*
X-28252419Y-3615957D01*
X-28316222Y-3569037D01*
X-28388971Y-3543034D01*
X-28465726Y-3537594D01*
X-28541547Y-3552364D01*
X-28611495Y-3586993D01*
X-28670631Y-3641127D01*
X-28674603Y-3646105D01*
X-28691280Y-3667799D01*
X-28704854Y-3687683D01*
X-28715646Y-3708533D01*
X-28723974Y-3733127D01*
X-28730158Y-3764239D01*
X-28734517Y-3804646D01*
X-28737369Y-3857125D01*
X-28739035Y-3924450D01*
X-28739832Y-4009398D01*
X-28740082Y-4114746D01*
X-28740100Y-4215769D01*
X-28740326Y-4344037D01*
X-28741037Y-4448566D01*
X-28742289Y-4531015D01*
X-28744134Y-4593039D01*
X-28746626Y-4636297D01*
X-28749820Y-4662446D01*
X-28753768Y-4673144D01*
X-28754923Y-4673600D01*
X-28777474Y-4667157D01*
X-28818399Y-4649042D01*
X-28874553Y-4621077D01*
X-28942791Y-4585083D01*
X-29019966Y-4542881D01*
X-29102934Y-4496293D01*
X-29188549Y-4447140D01*
X-29273666Y-4397244D01*
X-29355139Y-4348425D01*
X-29429822Y-4302506D01*
X-29494571Y-4261307D01*
X-29546240Y-4226649D01*
X-29581683Y-4200355D01*
X-29596411Y-4186341D01*
X-29602528Y-4177395D01*
X-29607654Y-4166855D01*
X-29611910Y-4152457D01*
X-29615412Y-4131937D01*
X-29618282Y-4103032D01*
X-29620636Y-4063479D01*
X-29622595Y-4011013D01*
X-29624277Y-3943373D01*
X-29625800Y-3858294D01*
X-29627285Y-3753512D01*
X-29628849Y-3626765D01*
X-29629727Y-3551918D01*
X-29636704Y-2952750D01*
X-29688703Y-2755900D01*
X-29734101Y-2597950D01*
X-29783409Y-2455801D01*
X-29840267Y-2319854D01*
X-29903177Y-2190454D01*
X-29946874Y-2107963D01*
X-29966074Y-2074129D01*
X-27362931Y-2074129D01*
X-27360346Y-2115910D01*
X-27350917Y-2155426D01*
X-27335162Y-2196193D01*
X-27328998Y-2209800D01*
X-27288278Y-2280779D01*
X-27232455Y-2355399D01*
X-27168681Y-2425057D01*
X-27104107Y-2481150D01*
X-27102336Y-2482457D01*
X-27024115Y-2530496D01*
X-26949954Y-2555100D01*
X-26875609Y-2556837D01*
X-26796838Y-2536275D01*
X-26773341Y-2526569D01*
X-26723365Y-2496191D01*
X-26667179Y-2448704D01*
X-26609996Y-2389689D01*
X-26557030Y-2324724D01*
X-26513491Y-2259387D01*
X-26499345Y-2233324D01*
X-26469005Y-2160940D01*
X-26454719Y-2092840D01*
X-26456314Y-2022185D01*
X-26473619Y-1942138D01*
X-26490649Y-1889101D01*
X-26507866Y-1841260D01*
X-26531678Y-1777210D01*
X-26560480Y-1701078D01*
X-26592665Y-1616991D01*
X-26626628Y-1529077D01*
X-26660763Y-1441461D01*
X-26693464Y-1358273D01*
X-26723125Y-1283638D01*
X-26748141Y-1221684D01*
X-26766905Y-1176538D01*
X-26775332Y-1157422D01*
X-26810353Y-1103773D01*
X-26854011Y-1069656D01*
X-26902257Y-1056376D01*
X-26951039Y-1065238D01*
X-26987592Y-1089025D01*
X-27000650Y-1102968D01*
X-27014679Y-1122868D01*
X-27030560Y-1150764D01*
X-27049173Y-1188695D01*
X-27071399Y-1238701D01*
X-27098119Y-1302822D01*
X-27130214Y-1383096D01*
X-27168566Y-1481564D01*
X-27214055Y-1600263D01*
X-27255036Y-1708150D01*
X-27294452Y-1814012D01*
X-27324432Y-1900025D01*
X-27345492Y-1969703D01*
X-27358152Y-2026566D01*
X-27362931Y-2074129D01*
X-29966074Y-2074129D01*
X-29990636Y-2030848D01*
X-30036380Y-1956608D01*
X-30086025Y-1882741D01*
X-30141488Y-1806744D01*
X-30204686Y-1726115D01*
X-30277537Y-1638352D01*
X-30361959Y-1540954D01*
X-30459869Y-1431417D01*
X-30573186Y-1307241D01*
X-30614208Y-1262710D01*
X-30684420Y-1186323D01*
X-30753437Y-1110662D01*
X-30818114Y-1039216D01*
X-30875304Y-975479D01*
X-30921863Y-922939D01*
X-30954646Y-885090D01*
X-30957497Y-881710D01*
X-31077102Y-725843D01*
X-31176301Y-567898D01*
X-31254067Y-409978D01*
X-31291403Y-304800D01*
X-30079623Y-304800D01*
X-30078605Y-413326D01*
X-30074575Y-503313D01*
X-30066595Y-581533D01*
X-30053730Y-654762D01*
X-30035042Y-729773D01*
X-30009596Y-813342D01*
X-30009137Y-814761D01*
X-29940870Y-989660D01*
X-29855078Y-1148452D01*
X-29752883Y-1290036D01*
X-29635408Y-1413314D01*
X-29503773Y-1517187D01*
X-29359102Y-1600556D01*
X-29202516Y-1662321D01*
X-29121100Y-1684527D01*
X-29061231Y-1693404D01*
X-28984075Y-1697399D01*
X-28897210Y-1696815D01*
X-28808214Y-1691955D01*
X-28724664Y-1683125D01*
X-28654140Y-1670626D01*
X-28632150Y-1664925D01*
X-28493956Y-1613758D01*
X-28355135Y-1542384D01*
X-28222144Y-1454990D01*
X-28101436Y-1355763D01*
X-28010010Y-1261407D01*
X-27882618Y-1094239D01*
X-27778702Y-917431D01*
X-27698232Y-730900D01*
X-27641176Y-534562D01*
X-27607505Y-328332D01*
X-27597149Y-125488D01*
X-27605476Y62756D01*
X-27631306Y236517D01*
X-27675749Y400712D01*
X-27739912Y560258D01*
X-27761968Y605570D01*
X-27852971Y760729D01*
X-27958040Y895874D01*
X-28075359Y1010686D01*
X-28203112Y1104844D01*
X-28339483Y1178026D01*
X-28482658Y1229914D01*
X-28630821Y1260185D01*
X-28782157Y1268521D01*
X-28934850Y1254599D01*
X-29087085Y1218100D01*
X-29237046Y1158704D01*
X-29382918Y1076089D01*
X-29522886Y969936D01*
X-29572254Y925161D01*
X-29707252Y780252D01*
X-29822161Y620842D01*
X-29917377Y446207D01*
X-29993294Y255624D01*
X-30050106Y49283D01*
X-30061652Y-7406D01*
X-30069817Y-60617D01*
X-30075145Y-116892D01*
X-30078181Y-182771D01*
X-30079472Y-264796D01*
X-30079623Y-304800D01*
X-31291403Y-304800D01*
X-31309370Y-254186D01*
X-31341183Y-102624D01*
X-31342140Y-95179D01*
X-31348231Y-5344D01*
X-31347270Y103674D01*
X-31339773Y226813D01*
X-31326256Y359009D01*
X-31307235Y495198D01*
X-31283225Y630318D01*
X-31255313Y756983D01*
X-31173730Y1037163D01*
X-31068332Y1310257D01*
X-30940018Y1575026D01*
X-30789692Y1830235D01*
X-30618253Y2074645D01*
X-30426604Y2307020D01*
X-30215646Y2526122D01*
X-29986280Y2730715D01*
X-29739407Y2919561D01*
X-29620802Y3000417D01*
X-29541477Y3051224D01*
X-29457346Y3102818D01*
X-29371441Y3153558D01*
X-29286791Y3201805D01*
X-29206426Y3245920D01*
X-29133376Y3284263D01*
X-29070671Y3315194D01*
X-29021340Y3337075D01*
X-28988414Y3348265D01*
X-28976810Y3348883D01*
X-28965583Y3336716D01*
G36*
X-23266400Y-1263650D02*
G01*
X-23272750Y-1270000D01*
X-23279100Y-1263650D01*
X-23272750Y-1257300D01*
X-23266400Y-1263650D01*
X-23266400Y-1263650D01*
G37*
X-23266400Y-1263650D02*
X-23272750Y-1270000D01*
X-23279100Y-1263650D01*
X-23272750Y-1257300D01*
X-23266400Y-1263650D01*
G36*
X-26752645Y3794382D02*
G01*
X-26632839Y3791385D01*
X-26530968Y3785864D01*
X-26530300Y3785814D01*
X-26175352Y3747156D01*
X-25829035Y3685587D01*
X-25492226Y3601426D01*
X-25165805Y3494991D01*
X-24850649Y3366603D01*
X-24547634Y3216580D01*
X-24257640Y3045243D01*
X-23995272Y2863221D01*
X-23746554Y2662763D01*
X-23518225Y2448965D01*
X-23310785Y2222556D01*
X-23124735Y1984266D01*
X-22960574Y1734826D01*
X-22818804Y1474965D01*
X-22699924Y1205412D01*
X-22604436Y926899D01*
X-22563073Y774241D01*
X-22528706Y624284D01*
X-22503507Y487684D01*
X-22486100Y354692D01*
X-22475110Y215556D01*
X-22470871Y120650D01*
X-22468482Y42799D01*
X-22467727Y-15604D01*
X-22469097Y-60486D01*
X-22473083Y-97774D01*
X-22480175Y-133395D01*
X-22490864Y-173274D01*
X-22496926Y-194013D01*
X-22556967Y-354961D01*
X-22642314Y-517343D01*
X-22752920Y-681079D01*
X-22870474Y-825500D01*
X-22905138Y-864026D01*
X-22949050Y-911395D01*
X-22999254Y-964570D01*
X-23052791Y-1020518D01*
X-23106706Y-1076200D01*
X-23158041Y-1128581D01*
X-23203839Y-1174627D01*
X-23241143Y-1211299D01*
X-23266996Y-1235564D01*
X-23278442Y-1244384D01*
X-23278473Y-1244384D01*
X-23291278Y-1238699D01*
X-23323256Y-1222902D01*
X-23371088Y-1198678D01*
X-23431455Y-1167714D01*
X-23501038Y-1131697D01*
X-23534630Y-1114209D01*
X-23609117Y-1075150D01*
X-23677469Y-1038912D01*
X-23735943Y-1007511D01*
X-23780795Y-982963D01*
X-23808282Y-967286D01*
X-23813470Y-964022D01*
X-23843130Y-943795D01*
X-23808599Y-830672D01*
X-23757139Y-623347D01*
X-23730558Y-418820D01*
X-23728801Y-215065D01*
X-23751810Y-10052D01*
X-23781603Y131224D01*
X-23840874Y320896D01*
X-23920737Y500179D01*
X-24019625Y666790D01*
X-24135971Y818451D01*
X-24268208Y952879D01*
X-24414771Y1067794D01*
X-24433762Y1080504D01*
X-24575870Y1159993D01*
X-24725778Y1217970D01*
X-24880433Y1254138D01*
X-25036785Y1268201D01*
X-25191780Y1259860D01*
X-25342366Y1228819D01*
X-25471135Y1181441D01*
X-25593350Y1114349D01*
X-25713380Y1026280D01*
X-25826362Y921511D01*
X-25927434Y804325D01*
X-25974986Y737933D01*
X-26046068Y631315D01*
X-26340234Y922083D01*
X-26625422Y1212441D01*
X-26897834Y1507547D01*
X-27159995Y1810562D01*
X-27414427Y2124649D01*
X-27663655Y2452968D01*
X-27910201Y2798683D01*
X-28156589Y3164955D01*
X-28269214Y3339093D01*
X-28320004Y3420028D01*
X-28358908Y3485216D01*
X-28385185Y3533324D01*
X-28398099Y3563021D01*
X-28398562Y3572419D01*
X-28376562Y3584320D01*
X-28332823Y3599511D01*
X-28270684Y3617268D01*
X-28193487Y3636871D01*
X-28104571Y3657596D01*
X-28007279Y3678721D01*
X-27904950Y3699523D01*
X-27800926Y3719281D01*
X-27698547Y3737271D01*
X-27601155Y3752772D01*
X-27512090Y3765061D01*
X-27501850Y3766318D01*
X-27404281Y3775857D01*
X-27287549Y3783616D01*
X-27157836Y3789473D01*
X-27021326Y3793302D01*
X-26884201Y3794980D01*
X-26752645Y3794382D01*
X-26752645Y3794382D01*
G37*
X-26752645Y3794382D02*
X-26632839Y3791385D01*
X-26530968Y3785864D01*
X-26530300Y3785814D01*
X-26175352Y3747156D01*
X-25829035Y3685587D01*
X-25492226Y3601426D01*
X-25165805Y3494991D01*
X-24850649Y3366603D01*
X-24547634Y3216580D01*
X-24257640Y3045243D01*
X-23995272Y2863221D01*
X-23746554Y2662763D01*
X-23518225Y2448965D01*
X-23310785Y2222556D01*
X-23124735Y1984266D01*
X-22960574Y1734826D01*
X-22818804Y1474965D01*
X-22699924Y1205412D01*
X-22604436Y926899D01*
X-22563073Y774241D01*
X-22528706Y624284D01*
X-22503507Y487684D01*
X-22486100Y354692D01*
X-22475110Y215556D01*
X-22470871Y120650D01*
X-22468482Y42799D01*
X-22467727Y-15604D01*
X-22469097Y-60486D01*
X-22473083Y-97774D01*
X-22480175Y-133395D01*
X-22490864Y-173274D01*
X-22496926Y-194013D01*
X-22556967Y-354961D01*
X-22642314Y-517343D01*
X-22752920Y-681079D01*
X-22870474Y-825500D01*
X-22905138Y-864026D01*
X-22949050Y-911395D01*
X-22999254Y-964570D01*
X-23052791Y-1020518D01*
X-23106706Y-1076200D01*
X-23158041Y-1128581D01*
X-23203839Y-1174627D01*
X-23241143Y-1211299D01*
X-23266996Y-1235564D01*
X-23278442Y-1244384D01*
X-23278473Y-1244384D01*
X-23291278Y-1238699D01*
X-23323256Y-1222902D01*
X-23371088Y-1198678D01*
X-23431455Y-1167714D01*
X-23501038Y-1131697D01*
X-23534630Y-1114209D01*
X-23609117Y-1075150D01*
X-23677469Y-1038912D01*
X-23735943Y-1007511D01*
X-23780795Y-982963D01*
X-23808282Y-967286D01*
X-23813470Y-964022D01*
X-23843130Y-943795D01*
X-23808599Y-830672D01*
X-23757139Y-623347D01*
X-23730558Y-418820D01*
X-23728801Y-215065D01*
X-23751810Y-10052D01*
X-23781603Y131224D01*
X-23840874Y320896D01*
X-23920737Y500179D01*
X-24019625Y666790D01*
X-24135971Y818451D01*
X-24268208Y952879D01*
X-24414771Y1067794D01*
X-24433762Y1080504D01*
X-24575870Y1159993D01*
X-24725778Y1217970D01*
X-24880433Y1254138D01*
X-25036785Y1268201D01*
X-25191780Y1259860D01*
X-25342366Y1228819D01*
X-25471135Y1181441D01*
X-25593350Y1114349D01*
X-25713380Y1026280D01*
X-25826362Y921511D01*
X-25927434Y804325D01*
X-25974986Y737933D01*
X-26046068Y631315D01*
X-26340234Y922083D01*
X-26625422Y1212441D01*
X-26897834Y1507547D01*
X-27159995Y1810562D01*
X-27414427Y2124649D01*
X-27663655Y2452968D01*
X-27910201Y2798683D01*
X-28156589Y3164955D01*
X-28269214Y3339093D01*
X-28320004Y3420028D01*
X-28358908Y3485216D01*
X-28385185Y3533324D01*
X-28398099Y3563021D01*
X-28398562Y3572419D01*
X-28376562Y3584320D01*
X-28332823Y3599511D01*
X-28270684Y3617268D01*
X-28193487Y3636871D01*
X-28104571Y3657596D01*
X-28007279Y3678721D01*
X-27904950Y3699523D01*
X-27800926Y3719281D01*
X-27698547Y3737271D01*
X-27601155Y3752772D01*
X-27512090Y3765061D01*
X-27501850Y3766318D01*
X-27404281Y3775857D01*
X-27287549Y3783616D01*
X-27157836Y3789473D01*
X-27021326Y3793302D01*
X-26884201Y3794980D01*
X-26752645Y3794382D01*
G36*
X-26340700Y14062154D02*
G01*
X-26289990Y14049652D01*
X-26227585Y14027920D01*
X-26150561Y13995996D01*
X-26055993Y13952920D01*
X-25996900Y13924828D01*
X-25898422Y13878258D01*
X-25817323Y13842363D01*
X-25748542Y13815927D01*
X-25687012Y13797737D01*
X-25627671Y13786577D01*
X-25565453Y13781232D01*
X-25495294Y13780487D01*
X-25412131Y13783127D01*
X-25407183Y13783342D01*
X-25321279Y13788674D01*
X-25244102Y13797502D01*
X-25165350Y13811382D01*
X-25074720Y13831870D01*
X-25057100Y13836194D01*
X-24921320Y13866503D01*
X-24806000Y13884951D01*
X-24709238Y13891724D01*
X-24629135Y13887010D01*
X-24598721Y13881355D01*
X-24521386Y13858090D01*
X-24449490Y13826629D01*
X-24386964Y13789651D01*
X-24337741Y13749837D01*
X-24305751Y13709867D01*
X-24294906Y13674284D01*
X-24289906Y13642964D01*
X-24273189Y13619411D01*
X-24241436Y13601881D01*
X-24191331Y13588630D01*
X-24119554Y13577916D01*
X-24109160Y13576699D01*
X-24053641Y13571898D01*
X-23981349Y13567886D01*
X-23900903Y13565032D01*
X-23820926Y13563708D01*
X-23806150Y13563660D01*
X-23688699Y13562168D01*
X-23564846Y13558114D01*
X-23440496Y13551866D01*
X-23321549Y13543791D01*
X-23213911Y13534258D01*
X-23123483Y13523633D01*
X-23094420Y13519315D01*
X-22941303Y13487595D01*
X-22810265Y13444424D01*
X-22700172Y13388661D01*
X-22609889Y13319164D01*
X-22538281Y13234789D01*
X-22484213Y13134397D01*
X-22446551Y13016843D01*
X-22424159Y12880987D01*
X-22420596Y12841174D01*
X-22419574Y12720316D01*
X-22435387Y12598948D01*
X-22468878Y12474943D01*
X-22520890Y12346176D01*
X-22592269Y12210518D01*
X-22683856Y12065842D01*
X-22782783Y11928129D01*
X-22822988Y11875648D01*
X-22862413Y11826508D01*
X-22902498Y11779573D01*
X-22944686Y11733704D01*
X-22990417Y11687765D01*
X-23041134Y11640620D01*
X-23098278Y11591131D01*
X-23163290Y11538162D01*
X-23237612Y11480575D01*
X-23322686Y11417234D01*
X-23419953Y11347002D01*
X-23530855Y11268742D01*
X-23656833Y11181318D01*
X-23799330Y11083591D01*
X-23959785Y10974426D01*
X-24139642Y10852685D01*
X-24187150Y10820595D01*
X-24340012Y10716977D01*
X-24473049Y10625826D01*
X-24587823Y10545903D01*
X-24685894Y10475970D01*
X-24768824Y10414789D01*
X-24838173Y10361122D01*
X-24895503Y10313731D01*
X-24942373Y10271376D01*
X-24980346Y10232821D01*
X-25010982Y10196826D01*
X-25035843Y10162153D01*
X-25053131Y10133630D01*
X-25091879Y10075554D01*
X-25133744Y10038022D01*
X-25185005Y10016375D01*
X-25220509Y10009403D01*
X-25279350Y10001036D01*
X-25282386Y9931293D01*
X-25282353Y9899287D01*
X-25280649Y9846337D01*
X-25277490Y9776830D01*
X-25273089Y9695152D01*
X-25267661Y9605690D01*
X-25263153Y9537700D01*
X-25240885Y9213850D01*
X-25376965Y9055100D01*
X-25432253Y8989632D01*
X-25496791Y8911380D01*
X-25571474Y8819222D01*
X-25657197Y8712035D01*
X-25754854Y8588695D01*
X-25865339Y8448079D01*
X-25989549Y8289064D01*
X-26085800Y8165356D01*
X-26168616Y8061217D01*
X-26247889Y7966255D01*
X-26321873Y7882303D01*
X-26388818Y7811195D01*
X-26446978Y7754763D01*
X-26494604Y7714842D01*
X-26529947Y7693265D01*
X-26538598Y7690487D01*
X-26579812Y7671366D01*
X-26628584Y7631354D01*
X-26683020Y7573136D01*
X-26741229Y7499398D01*
X-26801319Y7412827D01*
X-26861399Y7316107D01*
X-26919576Y7211926D01*
X-26973958Y7102968D01*
X-27011218Y7019492D01*
X-27038639Y6956391D01*
X-27066098Y6896219D01*
X-27090348Y6845914D01*
X-27107692Y6813188D01*
X-27150046Y6757923D01*
X-27196359Y6727177D01*
X-27244271Y6720868D01*
X-27291424Y6738912D01*
X-27335456Y6781226D01*
X-27361484Y6822077D01*
X-27382929Y6861040D01*
X-27401044Y6892002D01*
X-27409773Y6905291D01*
X-27430124Y6913168D01*
X-27460641Y6899777D01*
X-27499613Y6866303D01*
X-27545333Y6813932D01*
X-27549918Y6808078D01*
X-27608617Y6741651D01*
X-27662882Y6699540D01*
X-27713472Y6681199D01*
X-27727275Y6680248D01*
X-27762200Y6680200D01*
X-27762277Y6562725D01*
X-27763323Y6493323D01*
X-27766018Y6417437D01*
X-27769816Y6349796D01*
X-27770509Y6340475D01*
X-27774057Y6289008D01*
X-27774364Y6257815D01*
X-27770701Y6241893D01*
X-27762340Y6236243D01*
X-27755242Y6235700D01*
X-27744366Y6232496D01*
X-27748830Y6220404D01*
X-27770294Y6195709D01*
X-27775584Y6190167D01*
X-27819555Y6150516D01*
X-27862631Y6122222D01*
X-27898358Y6109351D01*
X-27904445Y6108990D01*
X-27926117Y6114286D01*
X-27958492Y6126984D01*
X-27965400Y6130141D01*
X-27993832Y6148951D01*
X-28035260Y6183507D01*
X-28086188Y6230238D01*
X-28143118Y6285572D01*
X-28202556Y6345939D01*
X-28261003Y6407768D01*
X-28314962Y6467487D01*
X-28360939Y6521526D01*
X-28395435Y6566313D01*
X-28402332Y6576363D01*
X-28460826Y6677134D01*
X-28500651Y6777333D01*
X-28524436Y6885179D01*
X-28533963Y6988175D01*
X-28537284Y7043554D01*
X-28541231Y7088059D01*
X-28545262Y7116531D01*
X-28548224Y7124297D01*
X-28563256Y7117133D01*
X-28580603Y7105247D01*
X-28612447Y7090196D01*
X-28634285Y7086600D01*
X-28652506Y7088937D01*
X-28668050Y7097428D01*
X-28681430Y7114300D01*
X-28693162Y7141777D01*
X-28703759Y7182083D01*
X-28713736Y7237445D01*
X-28723608Y7310087D01*
X-28733890Y7402233D01*
X-28745095Y7516109D01*
X-28752761Y7598925D01*
X-28766909Y7745479D01*
X-28780927Y7871354D01*
X-28795502Y7981257D01*
X-28811319Y8079896D01*
X-28829062Y8171979D01*
X-28849211Y8261350D01*
X-28863425Y8328423D01*
X-28872989Y8394925D01*
X-28877703Y8462627D01*
X-28714834Y8462627D01*
X-28713500Y8428296D01*
X-28709331Y8404147D01*
X-28701748Y8385115D01*
X-28690172Y8366135D01*
X-28685936Y8359843D01*
X-28656837Y8302026D01*
X-28637577Y8227677D01*
X-28627589Y8133982D01*
X-28625800Y8061335D01*
X-28625089Y8005856D01*
X-28622641Y7972610D01*
X-28617982Y7958463D01*
X-28610639Y7960282D01*
X-28610560Y7960361D01*
X-28585801Y7973084D01*
X-28568650Y7975600D01*
X-28539506Y7968723D01*
X-28526741Y7960361D01*
X-28519021Y7938723D01*
X-28514440Y7893370D01*
X-28513015Y7825793D01*
X-28514762Y7737486D01*
X-28519700Y7629941D01*
X-28522371Y7585062D01*
X-28525278Y7531092D01*
X-28526675Y7488042D01*
X-28526447Y7461204D01*
X-28525201Y7454887D01*
X-28512651Y7462315D01*
X-28499801Y7472961D01*
X-28459618Y7496699D01*
X-28419124Y7499451D01*
X-28385601Y7481401D01*
X-28369854Y7457692D01*
X-28361197Y7422928D01*
X-28359473Y7373623D01*
X-28364527Y7306291D01*
X-28374365Y7229991D01*
X-28382224Y7099582D01*
X-28366672Y6974607D01*
X-28327118Y6852616D01*
X-28262973Y6731158D01*
X-28248714Y6709080D01*
X-28224005Y6675459D01*
X-28189366Y6633124D01*
X-28148175Y6585676D01*
X-28103808Y6536712D01*
X-28059643Y6489831D01*
X-28019057Y6448632D01*
X-27985427Y6416715D01*
X-27962131Y6397677D01*
X-27953183Y6394152D01*
X-27949551Y6408181D01*
X-27945606Y6443157D01*
X-27941708Y6494638D01*
X-27938217Y6558178D01*
X-27936462Y6600394D01*
X-27932095Y6694177D01*
X-27926223Y6766371D01*
X-27918029Y6820776D01*
X-27906695Y6861195D01*
X-27891404Y6891428D01*
X-27871339Y6915276D01*
X-27868098Y6918325D01*
X-27834056Y6941353D01*
X-27801045Y6943336D01*
X-27763675Y6923790D01*
X-27743166Y6907110D01*
X-27715523Y6885075D01*
X-27696168Y6873767D01*
X-27691559Y6873608D01*
X-27688054Y6888001D01*
X-27683165Y6922529D01*
X-27677542Y6972008D01*
X-27671868Y7030873D01*
X-27669533Y7054850D01*
X-27227516Y7054850D01*
X-27226621Y6991350D01*
X-27190236Y7067550D01*
X-27171471Y7108992D01*
X-27158112Y7142569D01*
X-27153226Y7160072D01*
X-27157383Y7169882D01*
X-27175062Y7164467D01*
X-27181175Y7161346D01*
X-27207585Y7144068D01*
X-27221785Y7122477D01*
X-27227167Y7088782D01*
X-27227516Y7054850D01*
X-27669533Y7054850D01*
X-27664277Y7108803D01*
X-27656742Y7164821D01*
X-27648137Y7202389D01*
X-27637337Y7224967D01*
X-27623215Y7236017D01*
X-27604645Y7238999D01*
X-27604170Y7239000D01*
X-27578170Y7233049D01*
X-27559890Y7212512D01*
X-27546860Y7173361D01*
X-27539739Y7134069D01*
X-27532513Y7097413D01*
X-27524410Y7072662D01*
X-27520715Y7067436D01*
X-27506715Y7071800D01*
X-27481436Y7095791D01*
X-27444406Y7139965D01*
X-27395156Y7204878D01*
X-27343511Y7276521D01*
X-27285545Y7355941D01*
X-27238169Y7415242D01*
X-27199444Y7456403D01*
X-27167428Y7481397D01*
X-27140183Y7492203D01*
X-27130952Y7493000D01*
X-27093363Y7483732D01*
X-27063975Y7460451D01*
X-27051072Y7429942D01*
X-27051000Y7427532D01*
X-27048275Y7409104D01*
X-27039046Y7407941D01*
X-27021739Y7425431D01*
X-26994776Y7462963D01*
X-26972859Y7496377D01*
X-26936786Y7549745D01*
X-26892293Y7611689D01*
X-26847270Y7671312D01*
X-26833426Y7688892D01*
X-26793364Y7742139D01*
X-26754792Y7798642D01*
X-26723929Y7849105D01*
X-26714717Y7866351D01*
X-26682992Y7920972D01*
X-26651730Y7953226D01*
X-26616889Y7965744D01*
X-26574425Y7961155D01*
X-26570597Y7960133D01*
X-26544931Y7954263D01*
X-26525950Y7956265D01*
X-26506566Y7969569D01*
X-26479690Y7997607D01*
X-26469351Y8009131D01*
X-26382664Y8107897D01*
X-26293941Y8212280D01*
X-26205484Y8319326D01*
X-26119595Y8426082D01*
X-26038576Y8529595D01*
X-25964730Y8626911D01*
X-25900358Y8715076D01*
X-25847763Y8791138D01*
X-25809246Y8852142D01*
X-25801240Y8866228D01*
X-25761085Y8931152D01*
X-25718408Y8986209D01*
X-25677175Y9026898D01*
X-25641351Y9048719D01*
X-25640124Y9049124D01*
X-25622599Y9058654D01*
X-25617041Y9077280D01*
X-25619424Y9106307D01*
X-25617856Y9156028D01*
X-25599316Y9190466D01*
X-25565729Y9206647D01*
X-25553894Y9207500D01*
X-25514310Y9219538D01*
X-25477993Y9253013D01*
X-25447679Y9303966D01*
X-25426103Y9368442D01*
X-25419885Y9401420D01*
X-25418032Y9434019D01*
X-25418349Y9485615D01*
X-25420477Y9549931D01*
X-25424058Y9620689D01*
X-25428734Y9691611D01*
X-25434145Y9756422D01*
X-25439934Y9808842D01*
X-25444863Y9838877D01*
X-25456306Y9859381D01*
X-25468998Y9860120D01*
X-25490031Y9863283D01*
X-25513319Y9879619D01*
X-25525116Y9894007D01*
X-25532795Y9912457D01*
X-25537213Y9940328D01*
X-25539228Y9982978D01*
X-25539700Y10044298D01*
X-25534288Y10172960D01*
X-25521546Y10263273D01*
X-25360186Y10263273D01*
X-25358764Y10234353D01*
X-25357345Y10229946D01*
X-25340265Y10216440D01*
X-25309258Y10211069D01*
X-25274560Y10214132D01*
X-25246404Y10225927D01*
X-25245445Y10226675D01*
X-25227909Y10245663D01*
X-25203212Y10278112D01*
X-25183998Y10306050D01*
X-25155386Y10347306D01*
X-25126842Y10384891D01*
X-25112086Y10402303D01*
X-25081912Y10435055D01*
X-25113956Y10449656D01*
X-25138964Y10473934D01*
X-25146016Y10515080D01*
X-25136385Y10565545D01*
X-24944112Y10565545D01*
X-24803544Y10668805D01*
X-24750954Y10708435D01*
X-24705396Y10744636D01*
X-24671086Y10773921D01*
X-24652242Y10792801D01*
X-24650488Y10795398D01*
X-24641901Y10826283D01*
X-24638308Y10869717D01*
X-24640092Y10913268D01*
X-24645974Y10940701D01*
X-24653753Y10952580D01*
X-24666610Y10948327D01*
X-24685176Y10932214D01*
X-24706928Y10915655D01*
X-24732376Y10907274D01*
X-24770122Y10905009D01*
X-24796424Y10905529D01*
X-24849259Y10904560D01*
X-24885302Y10895059D01*
X-24907832Y10873161D01*
X-24920125Y10835001D01*
X-24925459Y10776715D01*
X-24926250Y10752415D01*
X-24928419Y10697547D01*
X-24931825Y10647255D01*
X-24935792Y10611159D01*
X-24936451Y10607248D01*
X-24944112Y10565545D01*
X-25136385Y10565545D01*
X-25135147Y10572029D01*
X-25107890Y10640566D01*
X-25088940Y10681961D01*
X-25075299Y10714305D01*
X-25069810Y10730847D01*
X-25069800Y10731096D01*
X-25080597Y10738818D01*
X-25106592Y10749091D01*
X-25138196Y10758931D01*
X-25165821Y10765349D01*
X-25179861Y10765374D01*
X-25185299Y10752967D01*
X-25197276Y10722408D01*
X-25213577Y10679388D01*
X-25220337Y10661247D01*
X-25243326Y10600189D01*
X-25270689Y10528829D01*
X-25297330Y10460434D01*
X-25303124Y10445750D01*
X-25333066Y10366182D01*
X-25351853Y10306286D01*
X-25360186Y10263273D01*
X-25521546Y10263273D01*
X-25516956Y10295803D01*
X-25486060Y10421760D01*
X-25449988Y10532135D01*
X-25430409Y10587434D01*
X-25414428Y10633359D01*
X-25403731Y10665005D01*
X-25400000Y10677406D01*
X-25408655Y10673989D01*
X-25429946Y10658943D01*
X-25434584Y10655340D01*
X-25470880Y10635707D01*
X-25509391Y10635683D01*
X-25550484Y10631543D01*
X-25586172Y10603132D01*
X-25616162Y10551060D01*
X-25640165Y10475937D01*
X-25657889Y10378370D01*
X-25665446Y10308654D01*
X-25673925Y10230795D01*
X-25684861Y10175139D01*
X-25699715Y10138512D01*
X-25719947Y10117736D01*
X-25747019Y10109635D01*
X-25757148Y10109200D01*
X-25797119Y10120803D01*
X-25836746Y10152276D01*
X-25870542Y10198614D01*
X-25882647Y10223612D01*
X-25898273Y10250612D01*
X-25915369Y10255591D01*
X-25919341Y10254217D01*
X-25962296Y10245537D01*
X-25995425Y10260228D01*
X-26018578Y10298175D01*
X-26028687Y10338016D01*
X-26036910Y10386689D01*
X-26119796Y10386211D01*
X-26170965Y10387886D01*
X-26206356Y10395112D01*
X-26235371Y10410115D01*
X-26242665Y10415293D01*
X-26266999Y10430262D01*
X-26295586Y10439964D01*
X-26335295Y10445926D01*
X-26392996Y10449675D01*
X-26398444Y10449919D01*
X-26450593Y10452258D01*
X-26486603Y10451569D01*
X-26512238Y10444445D01*
X-26533261Y10427479D01*
X-26555436Y10397265D01*
X-26584527Y10350397D01*
X-26594600Y10333982D01*
X-26629634Y10287751D01*
X-26672914Y10255205D01*
X-26698704Y10242031D01*
X-26770482Y10217655D01*
X-26843114Y10212858D01*
X-26922651Y10227666D01*
X-26968815Y10243148D01*
X-27030593Y10262945D01*
X-27075861Y10269082D01*
X-27094152Y10267186D01*
X-27137075Y10253115D01*
X-27187123Y10229616D01*
X-27234670Y10201884D01*
X-27270091Y10175115D01*
X-27276146Y10168932D01*
X-27290459Y10151292D01*
X-27285836Y10147296D01*
X-27263164Y10152132D01*
X-27225418Y10158517D01*
X-27165756Y10165105D01*
X-27087657Y10171750D01*
X-26994603Y10178304D01*
X-26890075Y10184623D01*
X-26777553Y10190560D01*
X-26660517Y10195969D01*
X-26542449Y10200704D01*
X-26426830Y10204619D01*
X-26317139Y10207568D01*
X-26216859Y10209404D01*
X-26129469Y10209982D01*
X-26058450Y10209156D01*
X-26007284Y10206779D01*
X-25993594Y10205417D01*
X-25926304Y10189402D01*
X-25877911Y10161444D01*
X-25850355Y10123034D01*
X-25844500Y10090577D01*
X-25848229Y10057794D01*
X-25862377Y10037486D01*
X-25891387Y10027066D01*
X-25939702Y10023947D01*
X-25958800Y10024052D01*
X-26000636Y10023166D01*
X-26038235Y10017857D01*
X-26079146Y10006188D01*
X-26130918Y9986224D01*
X-26168350Y9970318D01*
X-26296223Y9916829D01*
X-26408016Y9874812D01*
X-26509619Y9842994D01*
X-26606924Y9820101D01*
X-26705821Y9804859D01*
X-26812201Y9795995D01*
X-26931955Y9792237D01*
X-26993850Y9791871D01*
X-27123986Y9793725D01*
X-27231140Y9799606D01*
X-27317485Y9810038D01*
X-27385198Y9825542D01*
X-27436453Y9846643D01*
X-27473424Y9873861D01*
X-27498286Y9907720D01*
X-27501296Y9913811D01*
X-27516171Y9944995D01*
X-27526135Y9964588D01*
X-27527776Y9967262D01*
X-27540063Y9964835D01*
X-27565694Y9953514D01*
X-27570397Y9951125D01*
X-27600362Y9939482D01*
X-27647158Y9925583D01*
X-27702630Y9911753D01*
X-27727152Y9906400D01*
X-27775497Y9896095D01*
X-27842858Y9881395D01*
X-27923491Y9863572D01*
X-28011652Y9843898D01*
X-28101596Y9823644D01*
X-28124150Y9818534D01*
X-28212738Y9798894D01*
X-28300240Y9780324D01*
X-28381138Y9763934D01*
X-28449908Y9750835D01*
X-28501031Y9742137D01*
X-28511479Y9740634D01*
X-28560507Y9733782D01*
X-28598599Y9727963D01*
X-28619795Y9724109D01*
X-28622197Y9723337D01*
X-28625069Y9710288D01*
X-28629583Y9679478D01*
X-28633362Y9649273D01*
X-28637265Y9573305D01*
X-28628625Y9518949D01*
X-28607493Y9486434D01*
X-28597440Y9480382D01*
X-28567614Y9460389D01*
X-28549152Y9430280D01*
X-28542113Y9387781D01*
X-28546556Y9330618D01*
X-28562541Y9256518D01*
X-28590128Y9163205D01*
X-28607055Y9112250D01*
X-28642545Y9003595D01*
X-28668896Y8910415D01*
X-28687600Y8825118D01*
X-28700152Y8740111D01*
X-28708042Y8647802D01*
X-28711308Y8582093D01*
X-28713911Y8512204D01*
X-28714834Y8462627D01*
X-28877703Y8462627D01*
X-28877855Y8464798D01*
X-28877971Y8541980D01*
X-28873289Y8630412D01*
X-28863759Y8734033D01*
X-28849332Y8856785D01*
X-28840906Y8921750D01*
X-28828689Y9020766D01*
X-28817290Y9125961D01*
X-28807415Y9229811D01*
X-28799771Y9324790D01*
X-28795068Y9403372D01*
X-28794637Y9413875D01*
X-28792022Y9489663D01*
X-28790947Y9543678D01*
X-28791646Y9579514D01*
X-28794351Y9600765D01*
X-28799294Y9611023D01*
X-28806707Y9613883D01*
X-28807584Y9613900D01*
X-28835640Y9608153D01*
X-28884569Y9591337D01*
X-28952703Y9564090D01*
X-29038375Y9527051D01*
X-29062120Y9516434D01*
X-29122893Y9491454D01*
X-29166734Y9479291D01*
X-29197910Y9478772D01*
X-29198645Y9478914D01*
X-29224481Y9480614D01*
X-29235399Y9474445D01*
X-29235400Y9474325D01*
X-29244979Y9455253D01*
X-29271223Y9424257D01*
X-29310394Y9384542D01*
X-29358756Y9339311D01*
X-29412571Y9291770D01*
X-29468102Y9245124D01*
X-29521611Y9202577D01*
X-29569360Y9167335D01*
X-29607613Y9142601D01*
X-29632632Y9131580D01*
X-29635440Y9131300D01*
X-29670663Y9141872D01*
X-29690091Y9170764D01*
X-29692600Y9190158D01*
X-29684443Y9213386D01*
X-29662489Y9250019D01*
X-29630519Y9295123D01*
X-29592311Y9343767D01*
X-29551646Y9391016D01*
X-29512303Y9431939D01*
X-29495420Y9447516D01*
X-29450496Y9481211D01*
X-29399474Y9510865D01*
X-29349156Y9533347D01*
X-29306347Y9545525D01*
X-29282029Y9545732D01*
X-29258374Y9546520D01*
X-29234285Y9564382D01*
X-29219271Y9581792D01*
X-29196351Y9605346D01*
X-29157768Y9639538D01*
X-29108484Y9680176D01*
X-29053457Y9723071D01*
X-29040519Y9732809D01*
X-28924457Y9824451D01*
X-28851079Y9891189D01*
X-28575000Y9891189D01*
X-28567366Y9892565D01*
X-28548614Y9908214D01*
X-28544873Y9911883D01*
X-28511952Y9935595D01*
X-28470952Y9954045D01*
X-28465498Y9955685D01*
X-28420192Y9965004D01*
X-28375571Y9969444D01*
X-28371800Y9969500D01*
X-28329388Y9973000D01*
X-28324362Y9974000D01*
X-27303099Y9974000D01*
X-27297547Y9970685D01*
X-27280595Y9972302D01*
X-27254930Y9980859D01*
X-27246498Y9989739D01*
X-26873200Y9989739D01*
X-26869381Y9956483D01*
X-26854683Y9938819D01*
X-26824251Y9933748D01*
X-26787030Y9936538D01*
X-26744491Y9943026D01*
X-26710620Y9950822D01*
X-26698178Y9955499D01*
X-26690527Y9964334D01*
X-26703835Y9973250D01*
X-26722081Y9979453D01*
X-26779435Y9994297D01*
X-26826652Y10001432D01*
X-26859324Y10000557D01*
X-26873038Y9991372D01*
X-26873200Y9989739D01*
X-27246498Y9989739D01*
X-27244612Y9991725D01*
X-27246090Y10005873D01*
X-27262665Y10003598D01*
X-27286698Y9988177D01*
X-27303099Y9974000D01*
X-28324362Y9974000D01*
X-28285386Y9981754D01*
X-28248374Y9993518D01*
X-28226936Y10006050D01*
X-28225682Y10007712D01*
X-28226846Y10025525D01*
X-28239761Y10052255D01*
X-28240494Y10053387D01*
X-28257836Y10101968D01*
X-28258705Y10169058D01*
X-28247973Y10227611D01*
X-28084540Y10227611D01*
X-28082079Y10191851D01*
X-28057851Y10164984D01*
X-28030852Y10150989D01*
X-27967434Y10131237D01*
X-27894985Y10119263D01*
X-27821292Y10115388D01*
X-27754138Y10119933D01*
X-27701310Y10133220D01*
X-27692973Y10137044D01*
X-27666791Y10154436D01*
X-27635196Y10180488D01*
X-27628803Y10186384D01*
X-27591797Y10213732D01*
X-27546590Y10237480D01*
X-27534082Y10242381D01*
X-27495603Y10259971D01*
X-27447137Y10287645D01*
X-27398594Y10319702D01*
X-27394429Y10322703D01*
X-27329467Y10368878D01*
X-27278305Y10402287D01*
X-27235035Y10426188D01*
X-27193748Y10443837D01*
X-27148534Y10458489D01*
X-27147497Y10458789D01*
X-27068855Y10473281D01*
X-26993087Y10468509D01*
X-26912040Y10443797D01*
X-26898500Y10438146D01*
X-26839544Y10420081D01*
X-26789606Y10422524D01*
X-26742479Y10445658D01*
X-26728678Y10457116D01*
X-26732368Y10463890D01*
X-26756961Y10469562D01*
X-26766845Y10471239D01*
X-26840900Y10489613D01*
X-26891798Y10516638D01*
X-26920521Y10553050D01*
X-26928234Y10592670D01*
X-26916768Y10636848D01*
X-26884445Y10669664D01*
X-26834379Y10688153D01*
X-26826577Y10689371D01*
X-26792039Y10690537D01*
X-26757397Y10682324D01*
X-26713483Y10662268D01*
X-26700888Y10655603D01*
X-26626205Y10625492D01*
X-26558913Y10619590D01*
X-26498701Y10637902D01*
X-26466813Y10659691D01*
X-26432375Y10684106D01*
X-26401774Y10691527D01*
X-26366185Y10682414D01*
X-26333948Y10666642D01*
X-26296898Y10650451D01*
X-26260120Y10644941D01*
X-26213486Y10647852D01*
X-26153854Y10648770D01*
X-26112956Y10634681D01*
X-26087975Y10604026D01*
X-26078700Y10573216D01*
X-26062499Y10527026D01*
X-26036518Y10500638D01*
X-26003550Y10496324D01*
X-25989884Y10500893D01*
X-25959306Y10508942D01*
X-25928215Y10500305D01*
X-25921624Y10497028D01*
X-25893878Y10478026D01*
X-25878188Y10458920D01*
X-25866614Y10439904D01*
X-25856292Y10445836D01*
X-25847405Y10476284D01*
X-25840137Y10530819D01*
X-25838254Y10552387D01*
X-25828542Y10631107D01*
X-25812757Y10687957D01*
X-25789391Y10726054D01*
X-25756940Y10748515D01*
X-25740850Y10753878D01*
X-25708342Y10768780D01*
X-25691489Y10797176D01*
X-25689221Y10805101D01*
X-25667248Y10850101D01*
X-25630341Y10874716D01*
X-25579210Y10878572D01*
X-25557131Y10874731D01*
X-25499897Y10861635D01*
X-25506759Y10907693D01*
X-25514495Y10961632D01*
X-25146000Y10961632D01*
X-25136219Y10961343D01*
X-25110533Y10972373D01*
X-25074436Y10992349D01*
X-25073229Y10993074D01*
X-25026462Y11018620D01*
X-24979690Y11040005D01*
X-24950099Y11050455D01*
X-24903738Y11061437D01*
X-24853608Y11071007D01*
X-24807360Y11077967D01*
X-24772645Y11081119D01*
X-24759061Y11080352D01*
X-24737691Y11074956D01*
X-24710507Y11068739D01*
X-24675063Y11060956D01*
X-24694378Y11098307D01*
X-24723155Y11138746D01*
X-24760092Y11170550D01*
X-24797293Y11187458D01*
X-24808346Y11188700D01*
X-24844652Y11181214D01*
X-24894048Y11161145D01*
X-24950037Y11132080D01*
X-25006118Y11097605D01*
X-25055795Y11061306D01*
X-25082709Y11037301D01*
X-25114116Y11004252D01*
X-25136764Y10977287D01*
X-25145977Y10961998D01*
X-25146000Y10961632D01*
X-25514495Y10961632D01*
X-25516436Y10975162D01*
X-25521959Y11023099D01*
X-25523404Y11057015D01*
X-25520851Y11082423D01*
X-25514376Y11104835D01*
X-25509705Y11116611D01*
X-25494318Y11146171D01*
X-25480020Y11162296D01*
X-25476849Y11163300D01*
X-25466465Y11173788D01*
X-25464195Y11194773D01*
X-25276992Y11194773D01*
X-25276559Y11191875D01*
X-25268247Y11148514D01*
X-25259489Y11128713D01*
X-25247663Y11130727D01*
X-25230143Y11152811D01*
X-25226374Y11158490D01*
X-25212431Y11182532D01*
X-25213659Y11196432D01*
X-25228508Y11209290D01*
X-25258516Y11225545D01*
X-25274801Y11220661D01*
X-25276992Y11194773D01*
X-25464195Y11194773D01*
X-25463716Y11199200D01*
X-25467927Y11230456D01*
X-25478422Y11258479D01*
X-25484579Y11267142D01*
X-25506915Y11282171D01*
X-25545737Y11299689D01*
X-25592885Y11316043D01*
X-25595704Y11316879D01*
X-25649689Y11334903D01*
X-25702153Y11355975D01*
X-25739000Y11374072D01*
X-25792249Y11404820D01*
X-25837946Y11373809D01*
X-25885864Y11350600D01*
X-25944767Y11335353D01*
X-25955046Y11333877D01*
X-26009048Y11330617D01*
X-26077484Y11331298D01*
X-26149782Y11335396D01*
X-26215371Y11342386D01*
X-26250900Y11348557D01*
X-26282650Y11355529D01*
X-26282650Y11104400D01*
X-26248744Y11117200D01*
X-26211287Y11123206D01*
X-26187541Y11107911D01*
X-26177641Y11071483D01*
X-26179270Y11031345D01*
X-26186089Y10992137D01*
X-26195051Y10963181D01*
X-26199763Y10955358D01*
X-26212317Y10936236D01*
X-26201730Y10927324D01*
X-26168174Y10928753D01*
X-26165175Y10929211D01*
X-26116194Y10930141D01*
X-26073943Y10918873D01*
X-26045596Y10897947D01*
X-26038821Y10884437D01*
X-26024495Y10865424D01*
X-25991279Y10856507D01*
X-25986090Y10856015D01*
X-25939782Y10852150D01*
X-26028666Y10800058D01*
X-26099134Y10761190D01*
X-26155814Y10736139D01*
X-26204653Y10722734D01*
X-26251083Y10718800D01*
X-26297609Y10727240D01*
X-26336283Y10749319D01*
X-26360438Y10780182D01*
X-26365200Y10801955D01*
X-26367738Y10822140D01*
X-26380353Y10827645D01*
X-26406475Y10823258D01*
X-26437086Y10819303D01*
X-26485121Y10816301D01*
X-26542611Y10814665D01*
X-26574750Y10814496D01*
X-26638116Y10815658D01*
X-26684233Y10819523D01*
X-26721217Y10827450D01*
X-26757183Y10840797D01*
X-26772180Y10847530D01*
X-26855812Y10895533D01*
X-26917606Y10952874D01*
X-26960174Y11022010D01*
X-26961930Y11026019D01*
X-26976392Y11064045D01*
X-26984167Y11099640D01*
X-26986434Y11141998D01*
X-26984372Y11200312D01*
X-26984349Y11200737D01*
X-26980594Y11252929D01*
X-26976933Y11286934D01*
X-26791477Y11286934D01*
X-26788994Y11282644D01*
X-26772973Y11286262D01*
X-26724831Y11287782D01*
X-26684855Y11265378D01*
X-26657455Y11227103D01*
X-26636237Y11166629D01*
X-26638686Y11115120D01*
X-26664707Y11072895D01*
X-26712905Y11040870D01*
X-26730893Y11031966D01*
X-26734767Y11026919D01*
X-26721487Y11025064D01*
X-26688013Y11025741D01*
X-26650950Y11027364D01*
X-26577681Y11034290D01*
X-26522026Y11048201D01*
X-26495800Y11059638D01*
X-26460697Y11081343D01*
X-26434870Y11103825D01*
X-26429125Y11111707D01*
X-26415929Y11160767D01*
X-26424520Y11211712D01*
X-26451917Y11260788D01*
X-26495141Y11304243D01*
X-26551212Y11338325D01*
X-26617149Y11359279D01*
X-26627053Y11360960D01*
X-26690141Y11358597D01*
X-26746565Y11331940D01*
X-26775974Y11305184D01*
X-26791477Y11286934D01*
X-26976933Y11286934D01*
X-26975862Y11296871D01*
X-26970999Y11325202D01*
X-26969522Y11329841D01*
X-26968847Y11344001D01*
X-26985255Y11353076D01*
X-27011876Y11358514D01*
X-27061372Y11375355D01*
X-27107376Y11405624D01*
X-27135013Y11428787D01*
X-27152432Y11436871D01*
X-27168374Y11431700D01*
X-27183020Y11421402D01*
X-27204549Y11401951D01*
X-27218114Y11378149D01*
X-27225459Y11343929D01*
X-27228329Y11293227D01*
X-27228627Y11262857D01*
X-27232693Y11203217D01*
X-27242971Y11139678D01*
X-27252321Y11102692D01*
X-27275842Y11027120D01*
X-27228335Y11045781D01*
X-27193168Y11056922D01*
X-27166882Y11055895D01*
X-27144785Y11047167D01*
X-27109485Y11018687D01*
X-27092484Y10980338D01*
X-27092231Y10938095D01*
X-27107176Y10897934D01*
X-27135766Y10865832D01*
X-27176451Y10847766D01*
X-27197050Y10845800D01*
X-27227972Y10842770D01*
X-27240315Y10831411D01*
X-27241500Y10821956D01*
X-27246601Y10799688D01*
X-27264434Y10781587D01*
X-27298794Y10765400D01*
X-27353476Y10748876D01*
X-27373202Y10743819D01*
X-27463035Y10715111D01*
X-27559546Y10673381D01*
X-27658629Y10621404D01*
X-27756175Y10561952D01*
X-27848076Y10497802D01*
X-27930225Y10431726D01*
X-27998513Y10366499D01*
X-28048832Y10304895D01*
X-28066238Y10275796D01*
X-28084540Y10227611D01*
X-28247973Y10227611D01*
X-28243158Y10253881D01*
X-28220080Y10330658D01*
X-28199600Y10391689D01*
X-28187464Y10431677D01*
X-28183324Y10453445D01*
X-28186833Y10459815D01*
X-28197643Y10453611D01*
X-28205815Y10446552D01*
X-28225473Y10424585D01*
X-28255033Y10386254D01*
X-28292115Y10335138D01*
X-28334341Y10274816D01*
X-28379331Y10208867D01*
X-28424706Y10140870D01*
X-28468088Y10074403D01*
X-28507096Y10013045D01*
X-28539353Y9960375D01*
X-28562479Y9919971D01*
X-28574094Y9895413D01*
X-28575000Y9891189D01*
X-28851079Y9891189D01*
X-28826089Y9913917D01*
X-28739232Y10007692D01*
X-28657701Y10112260D01*
X-28602867Y10191750D01*
X-28553582Y10265405D01*
X-28496061Y10350159D01*
X-28436838Y10436446D01*
X-28382451Y10514703D01*
X-28372903Y10528300D01*
X-28306931Y10624958D01*
X-28251279Y10712431D01*
X-28207209Y10788458D01*
X-28184646Y10833494D01*
X-27976386Y10833494D01*
X-27975627Y10772991D01*
X-27974060Y10725796D01*
X-27971653Y10696471D01*
X-27969634Y10689167D01*
X-27962343Y10683296D01*
X-27952897Y10682913D01*
X-27936143Y10690066D01*
X-27906926Y10706805D01*
X-27871812Y10728049D01*
X-27820976Y10755900D01*
X-27758413Y10785857D01*
X-27696505Y10812041D01*
X-27688292Y10815185D01*
X-27582634Y10854972D01*
X-27636953Y10863658D01*
X-27724667Y10888197D01*
X-27757790Y10905706D01*
X-27387525Y10905706D01*
X-27384884Y10899945D01*
X-27362851Y10898133D01*
X-27352597Y10898587D01*
X-27321482Y10902567D01*
X-27308788Y10912740D01*
X-27307534Y10935074D01*
X-27307675Y10936994D01*
X-27310357Y10972196D01*
X-27342604Y10944113D01*
X-27368627Y10921653D01*
X-27387106Y10906048D01*
X-27387525Y10905706D01*
X-27757790Y10905706D01*
X-27804927Y10930622D01*
X-27872328Y10987144D01*
X-27921465Y11053974D01*
X-27928536Y11068050D01*
X-27945929Y11126096D01*
X-27954097Y11203723D01*
X-27954420Y11214100D01*
X-27956697Y11309350D01*
X-27965821Y11220450D01*
X-27969219Y11175923D01*
X-27972005Y11117326D01*
X-27974148Y11049221D01*
X-27975614Y10976172D01*
X-27976371Y10902742D01*
X-27976386Y10833494D01*
X-28184646Y10833494D01*
X-28175986Y10850779D01*
X-28158872Y10897134D01*
X-28155900Y10916648D01*
X-28159285Y10935627D01*
X-28171632Y10950254D01*
X-28196227Y10961564D01*
X-28236360Y10970590D01*
X-28295318Y10978367D01*
X-28376010Y10985898D01*
X-28523943Y11001262D01*
X-28653422Y11021841D01*
X-28771161Y11049404D01*
X-28883871Y11085722D01*
X-28998263Y11132562D01*
X-29081657Y11171929D01*
X-29167685Y11217621D01*
X-29266106Y11275380D01*
X-29372927Y11342407D01*
X-29484156Y11415901D01*
X-29595803Y11493063D01*
X-29703876Y11571094D01*
X-29804384Y11647194D01*
X-29893335Y11718563D01*
X-29966739Y11782402D01*
X-30005792Y11820140D01*
X-30086757Y11907921D01*
X-30170665Y12007156D01*
X-30254968Y12114165D01*
X-30337113Y12225265D01*
X-30414552Y12336776D01*
X-30484734Y12445016D01*
X-30545108Y12546304D01*
X-30593124Y12636960D01*
X-30626232Y12713301D01*
X-30628023Y12718290D01*
X-30657900Y12839255D01*
X-30663318Y12960905D01*
X-30651707Y13038110D01*
X-30457588Y13038110D01*
X-30456694Y12967792D01*
X-30449223Y12892744D01*
X-30435261Y12819544D01*
X-30435198Y12819291D01*
X-30391339Y12686167D01*
X-30324937Y12548165D01*
X-30237938Y12407161D01*
X-30132286Y12265027D01*
X-30009925Y12123638D01*
X-29872801Y11984868D01*
X-29722858Y11850590D01*
X-29562040Y11722679D01*
X-29392292Y11603008D01*
X-29215558Y11493451D01*
X-29033784Y11395883D01*
X-28888424Y11328738D01*
X-28744042Y11271514D01*
X-28602568Y11225640D01*
X-28456351Y11189110D01*
X-28297743Y11159917D01*
X-28182795Y11143726D01*
X-28114440Y11135055D01*
X-28123410Y11184103D01*
X-28136787Y11237067D01*
X-28156667Y11269316D01*
X-28188261Y11285500D01*
X-28236781Y11290272D01*
X-28242408Y11290300D01*
X-28321258Y11299400D01*
X-28365869Y11315914D01*
X-28393208Y11327715D01*
X-27740209Y11327715D01*
X-27736770Y11317208D01*
X-27714597Y11305946D01*
X-27700162Y11300173D01*
X-27651835Y11270213D01*
X-27617841Y11227370D01*
X-27600444Y11177691D01*
X-27601907Y11127225D01*
X-27620438Y11087174D01*
X-27637112Y11062657D01*
X-27638564Y11050924D01*
X-27625610Y11045057D01*
X-27625406Y11045003D01*
X-27559002Y11038634D01*
X-27499575Y11054973D01*
X-27482794Y11064875D01*
X-27441607Y11103265D01*
X-27412033Y11150939D01*
X-27396288Y11201375D01*
X-27396586Y11248051D01*
X-27410179Y11278719D01*
X-27427903Y11289846D01*
X-27463748Y11304933D01*
X-27511169Y11321888D01*
X-27563617Y11338614D01*
X-27614548Y11353019D01*
X-27657415Y11363008D01*
X-27684599Y11366500D01*
X-27710568Y11357598D01*
X-27728648Y11343092D01*
X-27740209Y11327715D01*
X-28393208Y11327715D01*
X-28400254Y11330756D01*
X-28417826Y11330905D01*
X-28421231Y11326160D01*
X-28444471Y11291022D01*
X-28482728Y11264017D01*
X-28525640Y11252268D01*
X-28528844Y11252200D01*
X-28575678Y11263796D01*
X-28612608Y11297499D01*
X-28637247Y11348509D01*
X-27951698Y11348509D01*
X-27949363Y11332037D01*
X-27945028Y11331840D01*
X-27941996Y11348838D01*
X-27944025Y11356182D01*
X-27949664Y11360992D01*
X-27951698Y11348509D01*
X-28637247Y11348509D01*
X-28638780Y11351682D01*
X-28653338Y11424717D01*
X-28656072Y11494187D01*
X-28651207Y11533077D01*
X-28444935Y11533077D01*
X-28442954Y11489631D01*
X-28434164Y11442780D01*
X-28397750Y11469702D01*
X-28383480Y11478868D01*
X-28366206Y11485978D01*
X-28342253Y11491488D01*
X-28307951Y11495854D01*
X-28259625Y11499530D01*
X-28193603Y11502971D01*
X-28106211Y11506632D01*
X-28096693Y11507007D01*
X-27949320Y11513375D01*
X-27812129Y11520455D01*
X-27687143Y11528080D01*
X-27576386Y11536082D01*
X-27481883Y11544293D01*
X-27405656Y11552546D01*
X-27349729Y11560672D01*
X-27316127Y11568505D01*
X-27308175Y11572383D01*
X-27296333Y11594021D01*
X-27292300Y11620781D01*
X-27300717Y11644995D01*
X-27023392Y11644995D01*
X-27021704Y11630019D01*
X-27013950Y11594030D01*
X-27003252Y11568384D01*
X-27000569Y11564988D01*
X-26981221Y11558899D01*
X-26937006Y11554153D01*
X-26868422Y11550782D01*
X-26775968Y11548819D01*
X-26755092Y11548603D01*
X-26678277Y11547253D01*
X-26607884Y11544771D01*
X-26548825Y11541429D01*
X-26506007Y11537494D01*
X-26485850Y11533819D01*
X-26452416Y11523467D01*
X-26432179Y11523115D01*
X-26414150Y11534998D01*
X-26396811Y11551944D01*
X-26378337Y11569020D01*
X-26361633Y11576995D01*
X-26339862Y11575906D01*
X-26306186Y11565790D01*
X-26269888Y11552627D01*
X-26230442Y11543217D01*
X-26170698Y11535726D01*
X-26095719Y11530720D01*
X-26063352Y11529560D01*
X-25997886Y11528107D01*
X-25954073Y11528289D01*
X-25928194Y11530478D01*
X-25916534Y11535046D01*
X-25915376Y11542365D01*
X-25916126Y11544300D01*
X-25924008Y11570414D01*
X-25930099Y11602263D01*
X-25936917Y11629168D01*
X-25951874Y11637487D01*
X-25970513Y11636054D01*
X-25998343Y11637709D01*
X-26025808Y11654443D01*
X-26046992Y11675031D01*
X-26088585Y11719127D01*
X-26243348Y11724279D01*
X-26331389Y11729560D01*
X-26397584Y11739465D01*
X-26445241Y11755084D01*
X-26477665Y11777508D01*
X-26498165Y11807825D01*
X-26498387Y11808320D01*
X-26513847Y11830028D01*
X-26526622Y11836400D01*
X-26546523Y11841640D01*
X-26579649Y11854982D01*
X-26599948Y11864398D01*
X-26637597Y11880811D01*
X-26666555Y11885837D01*
X-26700111Y11880821D01*
X-26717763Y11876313D01*
X-26792409Y11850734D01*
X-26866392Y11815556D01*
X-26931728Y11775146D01*
X-26980436Y11733871D01*
X-26982777Y11731327D01*
X-27009770Y11698791D01*
X-27022012Y11673387D01*
X-27023392Y11644995D01*
X-27300717Y11644995D01*
X-27302693Y11650678D01*
X-27330825Y11688360D01*
X-27372127Y11729469D01*
X-27422029Y11769648D01*
X-27475962Y11804537D01*
X-27496329Y11815385D01*
X-27561623Y11847922D01*
X-27598174Y11820899D01*
X-27618148Y11808013D01*
X-27639839Y11799945D01*
X-27668837Y11796052D01*
X-27710729Y11795693D01*
X-27771102Y11798224D01*
X-27787600Y11799115D01*
X-27825595Y11799593D01*
X-27857934Y11794578D01*
X-27893030Y11781618D01*
X-27939297Y11758260D01*
X-27952700Y11750997D01*
X-28007160Y11723144D01*
X-28052383Y11705967D01*
X-28100164Y11695904D01*
X-28154467Y11690037D01*
X-28222028Y11681813D01*
X-28275930Y11668283D01*
X-28327819Y11646342D01*
X-28338239Y11641056D01*
X-28395453Y11606385D01*
X-28430149Y11571650D01*
X-28444935Y11533077D01*
X-28651207Y11533077D01*
X-28643459Y11595007D01*
X-28609093Y11682856D01*
X-28552810Y11758150D01*
X-28549124Y11761886D01*
X-28504526Y11800123D01*
X-28455080Y11828123D01*
X-28395207Y11847925D01*
X-28319329Y11861564D01*
X-28258121Y11868149D01*
X-28200870Y11875314D01*
X-28161532Y11886083D01*
X-28132658Y11902643D01*
X-28128077Y11906341D01*
X-28082884Y11930981D01*
X-28019507Y11944068D01*
X-27949867Y11952136D01*
X-27900184Y11959693D01*
X-27865096Y11968237D01*
X-27839237Y11979268D01*
X-27817246Y11994284D01*
X-27806108Y12003680D01*
X-27754076Y12039651D01*
X-27697810Y12057034D01*
X-27630662Y12057346D01*
X-27594009Y12052127D01*
X-27522423Y12033097D01*
X-27441937Y12001483D01*
X-27360809Y11961407D01*
X-27287301Y11916995D01*
X-27229670Y11872371D01*
X-27224772Y11867740D01*
X-27191901Y11836733D01*
X-27171686Y11821439D01*
X-27158931Y11819503D01*
X-27148440Y11828571D01*
X-27145801Y11831965D01*
X-27131623Y11853735D01*
X-27127604Y11863894D01*
X-27116336Y11879932D01*
X-27087107Y11903171D01*
X-27045147Y11930448D01*
X-26995683Y11958599D01*
X-26943946Y11984463D01*
X-26895165Y12004877D01*
X-26893481Y12005488D01*
X-26806289Y12030753D01*
X-26716229Y12045952D01*
X-26628011Y12051237D01*
X-26546350Y12046760D01*
X-26475958Y12032675D01*
X-26421548Y12009133D01*
X-26397539Y11989450D01*
X-26360852Y11962173D01*
X-26302444Y11935661D01*
X-26225984Y11911334D01*
X-26149300Y11893385D01*
X-26052418Y11869124D01*
X-25978938Y11839826D01*
X-25927235Y11804780D01*
X-25913509Y11790464D01*
X-25893721Y11770041D01*
X-25876435Y11767002D01*
X-25850009Y11778715D01*
X-25806314Y11795557D01*
X-25771128Y11792299D01*
X-25735952Y11767707D01*
X-25729224Y11761177D01*
X-25701006Y11723365D01*
X-25692128Y11681609D01*
X-25692100Y11678627D01*
X-25688101Y11645268D01*
X-25675320Y11633328D01*
X-25673185Y11633200D01*
X-25655038Y11625122D01*
X-25624787Y11603826D01*
X-25588618Y11573717D01*
X-25584516Y11570032D01*
X-25486010Y11496496D01*
X-25369314Y11436114D01*
X-25238699Y11390182D01*
X-25098436Y11359998D01*
X-24952798Y11346857D01*
X-24853786Y11348265D01*
X-24766684Y11350603D01*
X-24697832Y11344567D01*
X-24643682Y11327444D01*
X-24600690Y11296519D01*
X-24565309Y11249080D01*
X-24533994Y11182412D01*
X-24503198Y11093802D01*
X-24497534Y11075631D01*
X-24479530Y11020261D01*
X-24463047Y10975118D01*
X-24449963Y10945007D01*
X-24442399Y10934700D01*
X-24426073Y10940994D01*
X-24395732Y10957311D01*
X-24366062Y10975113D01*
X-24319420Y11005868D01*
X-24272183Y11039444D01*
X-24250650Y11055871D01*
X-24209202Y11085203D01*
X-24158961Y11115934D01*
X-24130659Y11131248D01*
X-24074705Y11161123D01*
X-24002985Y11201728D01*
X-23920927Y11249793D01*
X-23833959Y11302051D01*
X-23747510Y11355233D01*
X-23667009Y11406072D01*
X-23597883Y11451299D01*
X-23588128Y11457873D01*
X-23420367Y11581391D01*
X-23260011Y11718784D01*
X-23110364Y11866476D01*
X-22974732Y12020895D01*
X-22856421Y12178465D01*
X-22758735Y12335612D01*
X-22734601Y12380860D01*
X-22686065Y12481715D01*
X-22651516Y12569838D01*
X-22629045Y12652310D01*
X-22616744Y12736210D01*
X-22612707Y12828620D01*
X-22612688Y12833350D01*
X-22613093Y12897176D01*
X-22615464Y12942793D01*
X-22620997Y12977383D01*
X-22630882Y13008125D01*
X-22646313Y13042201D01*
X-22647924Y13045493D01*
X-22679301Y13098214D01*
X-22719328Y13144310D01*
X-22769587Y13184147D01*
X-22831657Y13218094D01*
X-22907120Y13246520D01*
X-22997554Y13269794D01*
X-23104540Y13288284D01*
X-23229658Y13302359D01*
X-23374489Y13312386D01*
X-23540612Y13318736D01*
X-23729608Y13321775D01*
X-23834150Y13322169D01*
X-24230450Y13322300D01*
X-24236801Y13281025D01*
X-24239501Y13256654D01*
X-24243560Y13211170D01*
X-24248637Y13148804D01*
X-24254395Y13073786D01*
X-24260494Y12990346D01*
X-24263505Y12947650D01*
X-24274769Y12794066D01*
X-24286356Y12651201D01*
X-24298009Y12521712D01*
X-24309466Y12408250D01*
X-24320466Y12313471D01*
X-24330751Y12240029D01*
X-24335748Y12211050D01*
X-24349942Y12156713D01*
X-24371297Y12116759D01*
X-24392771Y12092035D01*
X-24435342Y12049219D01*
X-24546196Y12054550D01*
X-24593706Y12058270D01*
X-24637579Y12065655D01*
X-24680287Y12078280D01*
X-24724305Y12097718D01*
X-24772105Y12125543D01*
X-24826160Y12163329D01*
X-24888943Y12212649D01*
X-24962926Y12275078D01*
X-25050584Y12352189D01*
X-25139650Y12432224D01*
X-25349941Y12617953D01*
X-25548673Y12784209D01*
X-25738248Y12932735D01*
X-25921066Y13065279D01*
X-26099529Y13183585D01*
X-26276039Y13289399D01*
X-26441183Y13378452D01*
X-26616790Y13463606D01*
X-26794659Y13541133D01*
X-26970953Y13609709D01*
X-27141833Y13668012D01*
X-27246708Y13698318D01*
X-26618142Y13698318D01*
X-26605789Y13691170D01*
X-26574371Y13674100D01*
X-26527337Y13648952D01*
X-26468135Y13617565D01*
X-26400212Y13581781D01*
X-26384250Y13573402D01*
X-26235034Y13493032D01*
X-26094874Y13412841D01*
X-25960993Y13330765D01*
X-25830618Y13244743D01*
X-25700971Y13152710D01*
X-25569279Y13052606D01*
X-25432766Y12942366D01*
X-25288656Y12819930D01*
X-25134175Y12683233D01*
X-24966546Y12530213D01*
X-24909847Y12477622D01*
X-24816186Y12391633D01*
X-24738389Y12323180D01*
X-24674824Y12271379D01*
X-24623866Y12235349D01*
X-24583883Y12214206D01*
X-24553249Y12207067D01*
X-24530334Y12213052D01*
X-24513510Y12231275D01*
X-24502419Y12256829D01*
X-24490670Y12305600D01*
X-24479570Y12375761D01*
X-24469334Y12463305D01*
X-24460177Y12564228D01*
X-24452317Y12674521D01*
X-24445968Y12790180D01*
X-24441347Y12907198D01*
X-24438670Y13021569D01*
X-24438152Y13129287D01*
X-24440009Y13226344D01*
X-24444458Y13308736D01*
X-24445224Y13317996D01*
X-24456605Y13424093D01*
X-24471619Y13507254D01*
X-24492331Y13569894D01*
X-24520809Y13614428D01*
X-24559120Y13643273D01*
X-24609331Y13658843D01*
X-24673508Y13663554D01*
X-24738692Y13660959D01*
X-24795965Y13654614D01*
X-24867902Y13643309D01*
X-24944654Y13628737D01*
X-25006300Y13615047D01*
X-25078255Y13598522D01*
X-25152510Y13582798D01*
X-25219693Y13569790D01*
X-25265106Y13562172D01*
X-25341288Y13555119D01*
X-25430691Y13553275D01*
X-25524772Y13556267D01*
X-25614985Y13563718D01*
X-25692785Y13575254D01*
X-25723850Y13582301D01*
X-25758497Y13594223D01*
X-25810915Y13615749D01*
X-25876345Y13644757D01*
X-25950026Y13679125D01*
X-26027200Y13716729D01*
X-26042702Y13724486D01*
X-26125292Y13765692D01*
X-26189093Y13796566D01*
X-26237813Y13818570D01*
X-26275160Y13833163D01*
X-26304843Y13841807D01*
X-26330570Y13845963D01*
X-26353852Y13847078D01*
X-26425517Y13839059D01*
X-26473150Y13820130D01*
X-26505454Y13800016D01*
X-26541345Y13773836D01*
X-26575512Y13746053D01*
X-26602643Y13721129D01*
X-26617428Y13703527D01*
X-26618142Y13698318D01*
X-27246708Y13698318D01*
X-27303461Y13714718D01*
X-27451999Y13748505D01*
X-27565965Y13766176D01*
X-27624545Y13771209D01*
X-27704773Y13775698D01*
X-27802906Y13779599D01*
X-27915196Y13782868D01*
X-28037898Y13785460D01*
X-28167266Y13787331D01*
X-28299554Y13788436D01*
X-28431017Y13788731D01*
X-28557909Y13788172D01*
X-28676484Y13786714D01*
X-28782996Y13784313D01*
X-28860750Y13781520D01*
X-28999829Y13774204D01*
X-29118933Y13765036D01*
X-29223469Y13753180D01*
X-29318841Y13737802D01*
X-29410456Y13718066D01*
X-29503720Y13693137D01*
X-29576740Y13670930D01*
X-29753266Y13610241D01*
X-29907753Y13546430D01*
X-30043530Y13477662D01*
X-30163927Y13402106D01*
X-30272273Y13317928D01*
X-30351093Y13244569D01*
X-30387599Y13205577D01*
X-30419036Y13167790D01*
X-30438824Y13139136D01*
X-30439306Y13138244D01*
X-30451820Y13097120D01*
X-30457588Y13038110D01*
X-30651707Y13038110D01*
X-30645132Y13081824D01*
X-30604196Y13200593D01*
X-30541363Y13315794D01*
X-30457488Y13426011D01*
X-30353425Y13529824D01*
X-30230028Y13625817D01*
X-30088152Y13712571D01*
X-30003146Y13755554D01*
X-29875209Y13810026D01*
X-29735905Y13857736D01*
X-29583324Y13899026D01*
X-29415556Y13934241D01*
X-29230689Y13963724D01*
X-29026813Y13987818D01*
X-28802017Y14006867D01*
X-28554390Y14021212D01*
X-28514587Y14023005D01*
X-28303604Y14029766D01*
X-28112209Y14030284D01*
X-27935214Y14023917D01*
X-27767433Y14010022D01*
X-27603677Y13987958D01*
X-27438761Y13957084D01*
X-27267496Y13916757D01*
X-27084696Y13866336D01*
X-26970614Y13831989D01*
X-26807678Y13781669D01*
X-26703914Y13886475D01*
X-26619746Y13963244D01*
X-26540413Y14017828D01*
X-26462791Y14052163D01*
X-26418733Y14063301D01*
X-26382640Y14066383D01*
X-26340700Y14062154D01*
X-26340700Y14062154D01*
G37*
X-26340700Y14062154D02*
X-26289990Y14049652D01*
X-26227585Y14027920D01*
X-26150561Y13995996D01*
X-26055993Y13952920D01*
X-25996900Y13924828D01*
X-25898422Y13878258D01*
X-25817323Y13842363D01*
X-25748542Y13815927D01*
X-25687012Y13797737D01*
X-25627671Y13786577D01*
X-25565453Y13781232D01*
X-25495294Y13780487D01*
X-25412131Y13783127D01*
X-25407183Y13783342D01*
X-25321279Y13788674D01*
X-25244102Y13797502D01*
X-25165350Y13811382D01*
X-25074720Y13831870D01*
X-25057100Y13836194D01*
X-24921320Y13866503D01*
X-24806000Y13884951D01*
X-24709238Y13891724D01*
X-24629135Y13887010D01*
X-24598721Y13881355D01*
X-24521386Y13858090D01*
X-24449490Y13826629D01*
X-24386964Y13789651D01*
X-24337741Y13749837D01*
X-24305751Y13709867D01*
X-24294906Y13674284D01*
X-24289906Y13642964D01*
X-24273189Y13619411D01*
X-24241436Y13601881D01*
X-24191331Y13588630D01*
X-24119554Y13577916D01*
X-24109160Y13576699D01*
X-24053641Y13571898D01*
X-23981349Y13567886D01*
X-23900903Y13565032D01*
X-23820926Y13563708D01*
X-23806150Y13563660D01*
X-23688699Y13562168D01*
X-23564846Y13558114D01*
X-23440496Y13551866D01*
X-23321549Y13543791D01*
X-23213911Y13534258D01*
X-23123483Y13523633D01*
X-23094420Y13519315D01*
X-22941303Y13487595D01*
X-22810265Y13444424D01*
X-22700172Y13388661D01*
X-22609889Y13319164D01*
X-22538281Y13234789D01*
X-22484213Y13134397D01*
X-22446551Y13016843D01*
X-22424159Y12880987D01*
X-22420596Y12841174D01*
X-22419574Y12720316D01*
X-22435387Y12598948D01*
X-22468878Y12474943D01*
X-22520890Y12346176D01*
X-22592269Y12210518D01*
X-22683856Y12065842D01*
X-22782783Y11928129D01*
X-22822988Y11875648D01*
X-22862413Y11826508D01*
X-22902498Y11779573D01*
X-22944686Y11733704D01*
X-22990417Y11687765D01*
X-23041134Y11640620D01*
X-23098278Y11591131D01*
X-23163290Y11538162D01*
X-23237612Y11480575D01*
X-23322686Y11417234D01*
X-23419953Y11347002D01*
X-23530855Y11268742D01*
X-23656833Y11181318D01*
X-23799330Y11083591D01*
X-23959785Y10974426D01*
X-24139642Y10852685D01*
X-24187150Y10820595D01*
X-24340012Y10716977D01*
X-24473049Y10625826D01*
X-24587823Y10545903D01*
X-24685894Y10475970D01*
X-24768824Y10414789D01*
X-24838173Y10361122D01*
X-24895503Y10313731D01*
X-24942373Y10271376D01*
X-24980346Y10232821D01*
X-25010982Y10196826D01*
X-25035843Y10162153D01*
X-25053131Y10133630D01*
X-25091879Y10075554D01*
X-25133744Y10038022D01*
X-25185005Y10016375D01*
X-25220509Y10009403D01*
X-25279350Y10001036D01*
X-25282386Y9931293D01*
X-25282353Y9899287D01*
X-25280649Y9846337D01*
X-25277490Y9776830D01*
X-25273089Y9695152D01*
X-25267661Y9605690D01*
X-25263153Y9537700D01*
X-25240885Y9213850D01*
X-25376965Y9055100D01*
X-25432253Y8989632D01*
X-25496791Y8911380D01*
X-25571474Y8819222D01*
X-25657197Y8712035D01*
X-25754854Y8588695D01*
X-25865339Y8448079D01*
X-25989549Y8289064D01*
X-26085800Y8165356D01*
X-26168616Y8061217D01*
X-26247889Y7966255D01*
X-26321873Y7882303D01*
X-26388818Y7811195D01*
X-26446978Y7754763D01*
X-26494604Y7714842D01*
X-26529947Y7693265D01*
X-26538598Y7690487D01*
X-26579812Y7671366D01*
X-26628584Y7631354D01*
X-26683020Y7573136D01*
X-26741229Y7499398D01*
X-26801319Y7412827D01*
X-26861399Y7316107D01*
X-26919576Y7211926D01*
X-26973958Y7102968D01*
X-27011218Y7019492D01*
X-27038639Y6956391D01*
X-27066098Y6896219D01*
X-27090348Y6845914D01*
X-27107692Y6813188D01*
X-27150046Y6757923D01*
X-27196359Y6727177D01*
X-27244271Y6720868D01*
X-27291424Y6738912D01*
X-27335456Y6781226D01*
X-27361484Y6822077D01*
X-27382929Y6861040D01*
X-27401044Y6892002D01*
X-27409773Y6905291D01*
X-27430124Y6913168D01*
X-27460641Y6899777D01*
X-27499613Y6866303D01*
X-27545333Y6813932D01*
X-27549918Y6808078D01*
X-27608617Y6741651D01*
X-27662882Y6699540D01*
X-27713472Y6681199D01*
X-27727275Y6680248D01*
X-27762200Y6680200D01*
X-27762277Y6562725D01*
X-27763323Y6493323D01*
X-27766018Y6417437D01*
X-27769816Y6349796D01*
X-27770509Y6340475D01*
X-27774057Y6289008D01*
X-27774364Y6257815D01*
X-27770701Y6241893D01*
X-27762340Y6236243D01*
X-27755242Y6235700D01*
X-27744366Y6232496D01*
X-27748830Y6220404D01*
X-27770294Y6195709D01*
X-27775584Y6190167D01*
X-27819555Y6150516D01*
X-27862631Y6122222D01*
X-27898358Y6109351D01*
X-27904445Y6108990D01*
X-27926117Y6114286D01*
X-27958492Y6126984D01*
X-27965400Y6130141D01*
X-27993832Y6148951D01*
X-28035260Y6183507D01*
X-28086188Y6230238D01*
X-28143118Y6285572D01*
X-28202556Y6345939D01*
X-28261003Y6407768D01*
X-28314962Y6467487D01*
X-28360939Y6521526D01*
X-28395435Y6566313D01*
X-28402332Y6576363D01*
X-28460826Y6677134D01*
X-28500651Y6777333D01*
X-28524436Y6885179D01*
X-28533963Y6988175D01*
X-28537284Y7043554D01*
X-28541231Y7088059D01*
X-28545262Y7116531D01*
X-28548224Y7124297D01*
X-28563256Y7117133D01*
X-28580603Y7105247D01*
X-28612447Y7090196D01*
X-28634285Y7086600D01*
X-28652506Y7088937D01*
X-28668050Y7097428D01*
X-28681430Y7114300D01*
X-28693162Y7141777D01*
X-28703759Y7182083D01*
X-28713736Y7237445D01*
X-28723608Y7310087D01*
X-28733890Y7402233D01*
X-28745095Y7516109D01*
X-28752761Y7598925D01*
X-28766909Y7745479D01*
X-28780927Y7871354D01*
X-28795502Y7981257D01*
X-28811319Y8079896D01*
X-28829062Y8171979D01*
X-28849211Y8261350D01*
X-28863425Y8328423D01*
X-28872989Y8394925D01*
X-28877703Y8462627D01*
X-28714834Y8462627D01*
X-28713500Y8428296D01*
X-28709331Y8404147D01*
X-28701748Y8385115D01*
X-28690172Y8366135D01*
X-28685936Y8359843D01*
X-28656837Y8302026D01*
X-28637577Y8227677D01*
X-28627589Y8133982D01*
X-28625800Y8061335D01*
X-28625089Y8005856D01*
X-28622641Y7972610D01*
X-28617982Y7958463D01*
X-28610639Y7960282D01*
X-28610560Y7960361D01*
X-28585801Y7973084D01*
X-28568650Y7975600D01*
X-28539506Y7968723D01*
X-28526741Y7960361D01*
X-28519021Y7938723D01*
X-28514440Y7893370D01*
X-28513015Y7825793D01*
X-28514762Y7737486D01*
X-28519700Y7629941D01*
X-28522371Y7585062D01*
X-28525278Y7531092D01*
X-28526675Y7488042D01*
X-28526447Y7461204D01*
X-28525201Y7454887D01*
X-28512651Y7462315D01*
X-28499801Y7472961D01*
X-28459618Y7496699D01*
X-28419124Y7499451D01*
X-28385601Y7481401D01*
X-28369854Y7457692D01*
X-28361197Y7422928D01*
X-28359473Y7373623D01*
X-28364527Y7306291D01*
X-28374365Y7229991D01*
X-28382224Y7099582D01*
X-28366672Y6974607D01*
X-28327118Y6852616D01*
X-28262973Y6731158D01*
X-28248714Y6709080D01*
X-28224005Y6675459D01*
X-28189366Y6633124D01*
X-28148175Y6585676D01*
X-28103808Y6536712D01*
X-28059643Y6489831D01*
X-28019057Y6448632D01*
X-27985427Y6416715D01*
X-27962131Y6397677D01*
X-27953183Y6394152D01*
X-27949551Y6408181D01*
X-27945606Y6443157D01*
X-27941708Y6494638D01*
X-27938217Y6558178D01*
X-27936462Y6600394D01*
X-27932095Y6694177D01*
X-27926223Y6766371D01*
X-27918029Y6820776D01*
X-27906695Y6861195D01*
X-27891404Y6891428D01*
X-27871339Y6915276D01*
X-27868098Y6918325D01*
X-27834056Y6941353D01*
X-27801045Y6943336D01*
X-27763675Y6923790D01*
X-27743166Y6907110D01*
X-27715523Y6885075D01*
X-27696168Y6873767D01*
X-27691559Y6873608D01*
X-27688054Y6888001D01*
X-27683165Y6922529D01*
X-27677542Y6972008D01*
X-27671868Y7030873D01*
X-27669533Y7054850D01*
X-27227516Y7054850D01*
X-27226621Y6991350D01*
X-27190236Y7067550D01*
X-27171471Y7108992D01*
X-27158112Y7142569D01*
X-27153226Y7160072D01*
X-27157383Y7169882D01*
X-27175062Y7164467D01*
X-27181175Y7161346D01*
X-27207585Y7144068D01*
X-27221785Y7122477D01*
X-27227167Y7088782D01*
X-27227516Y7054850D01*
X-27669533Y7054850D01*
X-27664277Y7108803D01*
X-27656742Y7164821D01*
X-27648137Y7202389D01*
X-27637337Y7224967D01*
X-27623215Y7236017D01*
X-27604645Y7238999D01*
X-27604170Y7239000D01*
X-27578170Y7233049D01*
X-27559890Y7212512D01*
X-27546860Y7173361D01*
X-27539739Y7134069D01*
X-27532513Y7097413D01*
X-27524410Y7072662D01*
X-27520715Y7067436D01*
X-27506715Y7071800D01*
X-27481436Y7095791D01*
X-27444406Y7139965D01*
X-27395156Y7204878D01*
X-27343511Y7276521D01*
X-27285545Y7355941D01*
X-27238169Y7415242D01*
X-27199444Y7456403D01*
X-27167428Y7481397D01*
X-27140183Y7492203D01*
X-27130952Y7493000D01*
X-27093363Y7483732D01*
X-27063975Y7460451D01*
X-27051072Y7429942D01*
X-27051000Y7427532D01*
X-27048275Y7409104D01*
X-27039046Y7407941D01*
X-27021739Y7425431D01*
X-26994776Y7462963D01*
X-26972859Y7496377D01*
X-26936786Y7549745D01*
X-26892293Y7611689D01*
X-26847270Y7671312D01*
X-26833426Y7688892D01*
X-26793364Y7742139D01*
X-26754792Y7798642D01*
X-26723929Y7849105D01*
X-26714717Y7866351D01*
X-26682992Y7920972D01*
X-26651730Y7953226D01*
X-26616889Y7965744D01*
X-26574425Y7961155D01*
X-26570597Y7960133D01*
X-26544931Y7954263D01*
X-26525950Y7956265D01*
X-26506566Y7969569D01*
X-26479690Y7997607D01*
X-26469351Y8009131D01*
X-26382664Y8107897D01*
X-26293941Y8212280D01*
X-26205484Y8319326D01*
X-26119595Y8426082D01*
X-26038576Y8529595D01*
X-25964730Y8626911D01*
X-25900358Y8715076D01*
X-25847763Y8791138D01*
X-25809246Y8852142D01*
X-25801240Y8866228D01*
X-25761085Y8931152D01*
X-25718408Y8986209D01*
X-25677175Y9026898D01*
X-25641351Y9048719D01*
X-25640124Y9049124D01*
X-25622599Y9058654D01*
X-25617041Y9077280D01*
X-25619424Y9106307D01*
X-25617856Y9156028D01*
X-25599316Y9190466D01*
X-25565729Y9206647D01*
X-25553894Y9207500D01*
X-25514310Y9219538D01*
X-25477993Y9253013D01*
X-25447679Y9303966D01*
X-25426103Y9368442D01*
X-25419885Y9401420D01*
X-25418032Y9434019D01*
X-25418349Y9485615D01*
X-25420477Y9549931D01*
X-25424058Y9620689D01*
X-25428734Y9691611D01*
X-25434145Y9756422D01*
X-25439934Y9808842D01*
X-25444863Y9838877D01*
X-25456306Y9859381D01*
X-25468998Y9860120D01*
X-25490031Y9863283D01*
X-25513319Y9879619D01*
X-25525116Y9894007D01*
X-25532795Y9912457D01*
X-25537213Y9940328D01*
X-25539228Y9982978D01*
X-25539700Y10044298D01*
X-25534288Y10172960D01*
X-25521546Y10263273D01*
X-25360186Y10263273D01*
X-25358764Y10234353D01*
X-25357345Y10229946D01*
X-25340265Y10216440D01*
X-25309258Y10211069D01*
X-25274560Y10214132D01*
X-25246404Y10225927D01*
X-25245445Y10226675D01*
X-25227909Y10245663D01*
X-25203212Y10278112D01*
X-25183998Y10306050D01*
X-25155386Y10347306D01*
X-25126842Y10384891D01*
X-25112086Y10402303D01*
X-25081912Y10435055D01*
X-25113956Y10449656D01*
X-25138964Y10473934D01*
X-25146016Y10515080D01*
X-25136385Y10565545D01*
X-24944112Y10565545D01*
X-24803544Y10668805D01*
X-24750954Y10708435D01*
X-24705396Y10744636D01*
X-24671086Y10773921D01*
X-24652242Y10792801D01*
X-24650488Y10795398D01*
X-24641901Y10826283D01*
X-24638308Y10869717D01*
X-24640092Y10913268D01*
X-24645974Y10940701D01*
X-24653753Y10952580D01*
X-24666610Y10948327D01*
X-24685176Y10932214D01*
X-24706928Y10915655D01*
X-24732376Y10907274D01*
X-24770122Y10905009D01*
X-24796424Y10905529D01*
X-24849259Y10904560D01*
X-24885302Y10895059D01*
X-24907832Y10873161D01*
X-24920125Y10835001D01*
X-24925459Y10776715D01*
X-24926250Y10752415D01*
X-24928419Y10697547D01*
X-24931825Y10647255D01*
X-24935792Y10611159D01*
X-24936451Y10607248D01*
X-24944112Y10565545D01*
X-25136385Y10565545D01*
X-25135147Y10572029D01*
X-25107890Y10640566D01*
X-25088940Y10681961D01*
X-25075299Y10714305D01*
X-25069810Y10730847D01*
X-25069800Y10731096D01*
X-25080597Y10738818D01*
X-25106592Y10749091D01*
X-25138196Y10758931D01*
X-25165821Y10765349D01*
X-25179861Y10765374D01*
X-25185299Y10752967D01*
X-25197276Y10722408D01*
X-25213577Y10679388D01*
X-25220337Y10661247D01*
X-25243326Y10600189D01*
X-25270689Y10528829D01*
X-25297330Y10460434D01*
X-25303124Y10445750D01*
X-25333066Y10366182D01*
X-25351853Y10306286D01*
X-25360186Y10263273D01*
X-25521546Y10263273D01*
X-25516956Y10295803D01*
X-25486060Y10421760D01*
X-25449988Y10532135D01*
X-25430409Y10587434D01*
X-25414428Y10633359D01*
X-25403731Y10665005D01*
X-25400000Y10677406D01*
X-25408655Y10673989D01*
X-25429946Y10658943D01*
X-25434584Y10655340D01*
X-25470880Y10635707D01*
X-25509391Y10635683D01*
X-25550484Y10631543D01*
X-25586172Y10603132D01*
X-25616162Y10551060D01*
X-25640165Y10475937D01*
X-25657889Y10378370D01*
X-25665446Y10308654D01*
X-25673925Y10230795D01*
X-25684861Y10175139D01*
X-25699715Y10138512D01*
X-25719947Y10117736D01*
X-25747019Y10109635D01*
X-25757148Y10109200D01*
X-25797119Y10120803D01*
X-25836746Y10152276D01*
X-25870542Y10198614D01*
X-25882647Y10223612D01*
X-25898273Y10250612D01*
X-25915369Y10255591D01*
X-25919341Y10254217D01*
X-25962296Y10245537D01*
X-25995425Y10260228D01*
X-26018578Y10298175D01*
X-26028687Y10338016D01*
X-26036910Y10386689D01*
X-26119796Y10386211D01*
X-26170965Y10387886D01*
X-26206356Y10395112D01*
X-26235371Y10410115D01*
X-26242665Y10415293D01*
X-26266999Y10430262D01*
X-26295586Y10439964D01*
X-26335295Y10445926D01*
X-26392996Y10449675D01*
X-26398444Y10449919D01*
X-26450593Y10452258D01*
X-26486603Y10451569D01*
X-26512238Y10444445D01*
X-26533261Y10427479D01*
X-26555436Y10397265D01*
X-26584527Y10350397D01*
X-26594600Y10333982D01*
X-26629634Y10287751D01*
X-26672914Y10255205D01*
X-26698704Y10242031D01*
X-26770482Y10217655D01*
X-26843114Y10212858D01*
X-26922651Y10227666D01*
X-26968815Y10243148D01*
X-27030593Y10262945D01*
X-27075861Y10269082D01*
X-27094152Y10267186D01*
X-27137075Y10253115D01*
X-27187123Y10229616D01*
X-27234670Y10201884D01*
X-27270091Y10175115D01*
X-27276146Y10168932D01*
X-27290459Y10151292D01*
X-27285836Y10147296D01*
X-27263164Y10152132D01*
X-27225418Y10158517D01*
X-27165756Y10165105D01*
X-27087657Y10171750D01*
X-26994603Y10178304D01*
X-26890075Y10184623D01*
X-26777553Y10190560D01*
X-26660517Y10195969D01*
X-26542449Y10200704D01*
X-26426830Y10204619D01*
X-26317139Y10207568D01*
X-26216859Y10209404D01*
X-26129469Y10209982D01*
X-26058450Y10209156D01*
X-26007284Y10206779D01*
X-25993594Y10205417D01*
X-25926304Y10189402D01*
X-25877911Y10161444D01*
X-25850355Y10123034D01*
X-25844500Y10090577D01*
X-25848229Y10057794D01*
X-25862377Y10037486D01*
X-25891387Y10027066D01*
X-25939702Y10023947D01*
X-25958800Y10024052D01*
X-26000636Y10023166D01*
X-26038235Y10017857D01*
X-26079146Y10006188D01*
X-26130918Y9986224D01*
X-26168350Y9970318D01*
X-26296223Y9916829D01*
X-26408016Y9874812D01*
X-26509619Y9842994D01*
X-26606924Y9820101D01*
X-26705821Y9804859D01*
X-26812201Y9795995D01*
X-26931955Y9792237D01*
X-26993850Y9791871D01*
X-27123986Y9793725D01*
X-27231140Y9799606D01*
X-27317485Y9810038D01*
X-27385198Y9825542D01*
X-27436453Y9846643D01*
X-27473424Y9873861D01*
X-27498286Y9907720D01*
X-27501296Y9913811D01*
X-27516171Y9944995D01*
X-27526135Y9964588D01*
X-27527776Y9967262D01*
X-27540063Y9964835D01*
X-27565694Y9953514D01*
X-27570397Y9951125D01*
X-27600362Y9939482D01*
X-27647158Y9925583D01*
X-27702630Y9911753D01*
X-27727152Y9906400D01*
X-27775497Y9896095D01*
X-27842858Y9881395D01*
X-27923491Y9863572D01*
X-28011652Y9843898D01*
X-28101596Y9823644D01*
X-28124150Y9818534D01*
X-28212738Y9798894D01*
X-28300240Y9780324D01*
X-28381138Y9763934D01*
X-28449908Y9750835D01*
X-28501031Y9742137D01*
X-28511479Y9740634D01*
X-28560507Y9733782D01*
X-28598599Y9727963D01*
X-28619795Y9724109D01*
X-28622197Y9723337D01*
X-28625069Y9710288D01*
X-28629583Y9679478D01*
X-28633362Y9649273D01*
X-28637265Y9573305D01*
X-28628625Y9518949D01*
X-28607493Y9486434D01*
X-28597440Y9480382D01*
X-28567614Y9460389D01*
X-28549152Y9430280D01*
X-28542113Y9387781D01*
X-28546556Y9330618D01*
X-28562541Y9256518D01*
X-28590128Y9163205D01*
X-28607055Y9112250D01*
X-28642545Y9003595D01*
X-28668896Y8910415D01*
X-28687600Y8825118D01*
X-28700152Y8740111D01*
X-28708042Y8647802D01*
X-28711308Y8582093D01*
X-28713911Y8512204D01*
X-28714834Y8462627D01*
X-28877703Y8462627D01*
X-28877855Y8464798D01*
X-28877971Y8541980D01*
X-28873289Y8630412D01*
X-28863759Y8734033D01*
X-28849332Y8856785D01*
X-28840906Y8921750D01*
X-28828689Y9020766D01*
X-28817290Y9125961D01*
X-28807415Y9229811D01*
X-28799771Y9324790D01*
X-28795068Y9403372D01*
X-28794637Y9413875D01*
X-28792022Y9489663D01*
X-28790947Y9543678D01*
X-28791646Y9579514D01*
X-28794351Y9600765D01*
X-28799294Y9611023D01*
X-28806707Y9613883D01*
X-28807584Y9613900D01*
X-28835640Y9608153D01*
X-28884569Y9591337D01*
X-28952703Y9564090D01*
X-29038375Y9527051D01*
X-29062120Y9516434D01*
X-29122893Y9491454D01*
X-29166734Y9479291D01*
X-29197910Y9478772D01*
X-29198645Y9478914D01*
X-29224481Y9480614D01*
X-29235399Y9474445D01*
X-29235400Y9474325D01*
X-29244979Y9455253D01*
X-29271223Y9424257D01*
X-29310394Y9384542D01*
X-29358756Y9339311D01*
X-29412571Y9291770D01*
X-29468102Y9245124D01*
X-29521611Y9202577D01*
X-29569360Y9167335D01*
X-29607613Y9142601D01*
X-29632632Y9131580D01*
X-29635440Y9131300D01*
X-29670663Y9141872D01*
X-29690091Y9170764D01*
X-29692600Y9190158D01*
X-29684443Y9213386D01*
X-29662489Y9250019D01*
X-29630519Y9295123D01*
X-29592311Y9343767D01*
X-29551646Y9391016D01*
X-29512303Y9431939D01*
X-29495420Y9447516D01*
X-29450496Y9481211D01*
X-29399474Y9510865D01*
X-29349156Y9533347D01*
X-29306347Y9545525D01*
X-29282029Y9545732D01*
X-29258374Y9546520D01*
X-29234285Y9564382D01*
X-29219271Y9581792D01*
X-29196351Y9605346D01*
X-29157768Y9639538D01*
X-29108484Y9680176D01*
X-29053457Y9723071D01*
X-29040519Y9732809D01*
X-28924457Y9824451D01*
X-28851079Y9891189D01*
X-28575000Y9891189D01*
X-28567366Y9892565D01*
X-28548614Y9908214D01*
X-28544873Y9911883D01*
X-28511952Y9935595D01*
X-28470952Y9954045D01*
X-28465498Y9955685D01*
X-28420192Y9965004D01*
X-28375571Y9969444D01*
X-28371800Y9969500D01*
X-28329388Y9973000D01*
X-28324362Y9974000D01*
X-27303099Y9974000D01*
X-27297547Y9970685D01*
X-27280595Y9972302D01*
X-27254930Y9980859D01*
X-27246498Y9989739D01*
X-26873200Y9989739D01*
X-26869381Y9956483D01*
X-26854683Y9938819D01*
X-26824251Y9933748D01*
X-26787030Y9936538D01*
X-26744491Y9943026D01*
X-26710620Y9950822D01*
X-26698178Y9955499D01*
X-26690527Y9964334D01*
X-26703835Y9973250D01*
X-26722081Y9979453D01*
X-26779435Y9994297D01*
X-26826652Y10001432D01*
X-26859324Y10000557D01*
X-26873038Y9991372D01*
X-26873200Y9989739D01*
X-27246498Y9989739D01*
X-27244612Y9991725D01*
X-27246090Y10005873D01*
X-27262665Y10003598D01*
X-27286698Y9988177D01*
X-27303099Y9974000D01*
X-28324362Y9974000D01*
X-28285386Y9981754D01*
X-28248374Y9993518D01*
X-28226936Y10006050D01*
X-28225682Y10007712D01*
X-28226846Y10025525D01*
X-28239761Y10052255D01*
X-28240494Y10053387D01*
X-28257836Y10101968D01*
X-28258705Y10169058D01*
X-28247973Y10227611D01*
X-28084540Y10227611D01*
X-28082079Y10191851D01*
X-28057851Y10164984D01*
X-28030852Y10150989D01*
X-27967434Y10131237D01*
X-27894985Y10119263D01*
X-27821292Y10115388D01*
X-27754138Y10119933D01*
X-27701310Y10133220D01*
X-27692973Y10137044D01*
X-27666791Y10154436D01*
X-27635196Y10180488D01*
X-27628803Y10186384D01*
X-27591797Y10213732D01*
X-27546590Y10237480D01*
X-27534082Y10242381D01*
X-27495603Y10259971D01*
X-27447137Y10287645D01*
X-27398594Y10319702D01*
X-27394429Y10322703D01*
X-27329467Y10368878D01*
X-27278305Y10402287D01*
X-27235035Y10426188D01*
X-27193748Y10443837D01*
X-27148534Y10458489D01*
X-27147497Y10458789D01*
X-27068855Y10473281D01*
X-26993087Y10468509D01*
X-26912040Y10443797D01*
X-26898500Y10438146D01*
X-26839544Y10420081D01*
X-26789606Y10422524D01*
X-26742479Y10445658D01*
X-26728678Y10457116D01*
X-26732368Y10463890D01*
X-26756961Y10469562D01*
X-26766845Y10471239D01*
X-26840900Y10489613D01*
X-26891798Y10516638D01*
X-26920521Y10553050D01*
X-26928234Y10592670D01*
X-26916768Y10636848D01*
X-26884445Y10669664D01*
X-26834379Y10688153D01*
X-26826577Y10689371D01*
X-26792039Y10690537D01*
X-26757397Y10682324D01*
X-26713483Y10662268D01*
X-26700888Y10655603D01*
X-26626205Y10625492D01*
X-26558913Y10619590D01*
X-26498701Y10637902D01*
X-26466813Y10659691D01*
X-26432375Y10684106D01*
X-26401774Y10691527D01*
X-26366185Y10682414D01*
X-26333948Y10666642D01*
X-26296898Y10650451D01*
X-26260120Y10644941D01*
X-26213486Y10647852D01*
X-26153854Y10648770D01*
X-26112956Y10634681D01*
X-26087975Y10604026D01*
X-26078700Y10573216D01*
X-26062499Y10527026D01*
X-26036518Y10500638D01*
X-26003550Y10496324D01*
X-25989884Y10500893D01*
X-25959306Y10508942D01*
X-25928215Y10500305D01*
X-25921624Y10497028D01*
X-25893878Y10478026D01*
X-25878188Y10458920D01*
X-25866614Y10439904D01*
X-25856292Y10445836D01*
X-25847405Y10476284D01*
X-25840137Y10530819D01*
X-25838254Y10552387D01*
X-25828542Y10631107D01*
X-25812757Y10687957D01*
X-25789391Y10726054D01*
X-25756940Y10748515D01*
X-25740850Y10753878D01*
X-25708342Y10768780D01*
X-25691489Y10797176D01*
X-25689221Y10805101D01*
X-25667248Y10850101D01*
X-25630341Y10874716D01*
X-25579210Y10878572D01*
X-25557131Y10874731D01*
X-25499897Y10861635D01*
X-25506759Y10907693D01*
X-25514495Y10961632D01*
X-25146000Y10961632D01*
X-25136219Y10961343D01*
X-25110533Y10972373D01*
X-25074436Y10992349D01*
X-25073229Y10993074D01*
X-25026462Y11018620D01*
X-24979690Y11040005D01*
X-24950099Y11050455D01*
X-24903738Y11061437D01*
X-24853608Y11071007D01*
X-24807360Y11077967D01*
X-24772645Y11081119D01*
X-24759061Y11080352D01*
X-24737691Y11074956D01*
X-24710507Y11068739D01*
X-24675063Y11060956D01*
X-24694378Y11098307D01*
X-24723155Y11138746D01*
X-24760092Y11170550D01*
X-24797293Y11187458D01*
X-24808346Y11188700D01*
X-24844652Y11181214D01*
X-24894048Y11161145D01*
X-24950037Y11132080D01*
X-25006118Y11097605D01*
X-25055795Y11061306D01*
X-25082709Y11037301D01*
X-25114116Y11004252D01*
X-25136764Y10977287D01*
X-25145977Y10961998D01*
X-25146000Y10961632D01*
X-25514495Y10961632D01*
X-25516436Y10975162D01*
X-25521959Y11023099D01*
X-25523404Y11057015D01*
X-25520851Y11082423D01*
X-25514376Y11104835D01*
X-25509705Y11116611D01*
X-25494318Y11146171D01*
X-25480020Y11162296D01*
X-25476849Y11163300D01*
X-25466465Y11173788D01*
X-25464195Y11194773D01*
X-25276992Y11194773D01*
X-25276559Y11191875D01*
X-25268247Y11148514D01*
X-25259489Y11128713D01*
X-25247663Y11130727D01*
X-25230143Y11152811D01*
X-25226374Y11158490D01*
X-25212431Y11182532D01*
X-25213659Y11196432D01*
X-25228508Y11209290D01*
X-25258516Y11225545D01*
X-25274801Y11220661D01*
X-25276992Y11194773D01*
X-25464195Y11194773D01*
X-25463716Y11199200D01*
X-25467927Y11230456D01*
X-25478422Y11258479D01*
X-25484579Y11267142D01*
X-25506915Y11282171D01*
X-25545737Y11299689D01*
X-25592885Y11316043D01*
X-25595704Y11316879D01*
X-25649689Y11334903D01*
X-25702153Y11355975D01*
X-25739000Y11374072D01*
X-25792249Y11404820D01*
X-25837946Y11373809D01*
X-25885864Y11350600D01*
X-25944767Y11335353D01*
X-25955046Y11333877D01*
X-26009048Y11330617D01*
X-26077484Y11331298D01*
X-26149782Y11335396D01*
X-26215371Y11342386D01*
X-26250900Y11348557D01*
X-26282650Y11355529D01*
X-26282650Y11104400D01*
X-26248744Y11117200D01*
X-26211287Y11123206D01*
X-26187541Y11107911D01*
X-26177641Y11071483D01*
X-26179270Y11031345D01*
X-26186089Y10992137D01*
X-26195051Y10963181D01*
X-26199763Y10955358D01*
X-26212317Y10936236D01*
X-26201730Y10927324D01*
X-26168174Y10928753D01*
X-26165175Y10929211D01*
X-26116194Y10930141D01*
X-26073943Y10918873D01*
X-26045596Y10897947D01*
X-26038821Y10884437D01*
X-26024495Y10865424D01*
X-25991279Y10856507D01*
X-25986090Y10856015D01*
X-25939782Y10852150D01*
X-26028666Y10800058D01*
X-26099134Y10761190D01*
X-26155814Y10736139D01*
X-26204653Y10722734D01*
X-26251083Y10718800D01*
X-26297609Y10727240D01*
X-26336283Y10749319D01*
X-26360438Y10780182D01*
X-26365200Y10801955D01*
X-26367738Y10822140D01*
X-26380353Y10827645D01*
X-26406475Y10823258D01*
X-26437086Y10819303D01*
X-26485121Y10816301D01*
X-26542611Y10814665D01*
X-26574750Y10814496D01*
X-26638116Y10815658D01*
X-26684233Y10819523D01*
X-26721217Y10827450D01*
X-26757183Y10840797D01*
X-26772180Y10847530D01*
X-26855812Y10895533D01*
X-26917606Y10952874D01*
X-26960174Y11022010D01*
X-26961930Y11026019D01*
X-26976392Y11064045D01*
X-26984167Y11099640D01*
X-26986434Y11141998D01*
X-26984372Y11200312D01*
X-26984349Y11200737D01*
X-26980594Y11252929D01*
X-26976933Y11286934D01*
X-26791477Y11286934D01*
X-26788994Y11282644D01*
X-26772973Y11286262D01*
X-26724831Y11287782D01*
X-26684855Y11265378D01*
X-26657455Y11227103D01*
X-26636237Y11166629D01*
X-26638686Y11115120D01*
X-26664707Y11072895D01*
X-26712905Y11040870D01*
X-26730893Y11031966D01*
X-26734767Y11026919D01*
X-26721487Y11025064D01*
X-26688013Y11025741D01*
X-26650950Y11027364D01*
X-26577681Y11034290D01*
X-26522026Y11048201D01*
X-26495800Y11059638D01*
X-26460697Y11081343D01*
X-26434870Y11103825D01*
X-26429125Y11111707D01*
X-26415929Y11160767D01*
X-26424520Y11211712D01*
X-26451917Y11260788D01*
X-26495141Y11304243D01*
X-26551212Y11338325D01*
X-26617149Y11359279D01*
X-26627053Y11360960D01*
X-26690141Y11358597D01*
X-26746565Y11331940D01*
X-26775974Y11305184D01*
X-26791477Y11286934D01*
X-26976933Y11286934D01*
X-26975862Y11296871D01*
X-26970999Y11325202D01*
X-26969522Y11329841D01*
X-26968847Y11344001D01*
X-26985255Y11353076D01*
X-27011876Y11358514D01*
X-27061372Y11375355D01*
X-27107376Y11405624D01*
X-27135013Y11428787D01*
X-27152432Y11436871D01*
X-27168374Y11431700D01*
X-27183020Y11421402D01*
X-27204549Y11401951D01*
X-27218114Y11378149D01*
X-27225459Y11343929D01*
X-27228329Y11293227D01*
X-27228627Y11262857D01*
X-27232693Y11203217D01*
X-27242971Y11139678D01*
X-27252321Y11102692D01*
X-27275842Y11027120D01*
X-27228335Y11045781D01*
X-27193168Y11056922D01*
X-27166882Y11055895D01*
X-27144785Y11047167D01*
X-27109485Y11018687D01*
X-27092484Y10980338D01*
X-27092231Y10938095D01*
X-27107176Y10897934D01*
X-27135766Y10865832D01*
X-27176451Y10847766D01*
X-27197050Y10845800D01*
X-27227972Y10842770D01*
X-27240315Y10831411D01*
X-27241500Y10821956D01*
X-27246601Y10799688D01*
X-27264434Y10781587D01*
X-27298794Y10765400D01*
X-27353476Y10748876D01*
X-27373202Y10743819D01*
X-27463035Y10715111D01*
X-27559546Y10673381D01*
X-27658629Y10621404D01*
X-27756175Y10561952D01*
X-27848076Y10497802D01*
X-27930225Y10431726D01*
X-27998513Y10366499D01*
X-28048832Y10304895D01*
X-28066238Y10275796D01*
X-28084540Y10227611D01*
X-28247973Y10227611D01*
X-28243158Y10253881D01*
X-28220080Y10330658D01*
X-28199600Y10391689D01*
X-28187464Y10431677D01*
X-28183324Y10453445D01*
X-28186833Y10459815D01*
X-28197643Y10453611D01*
X-28205815Y10446552D01*
X-28225473Y10424585D01*
X-28255033Y10386254D01*
X-28292115Y10335138D01*
X-28334341Y10274816D01*
X-28379331Y10208867D01*
X-28424706Y10140870D01*
X-28468088Y10074403D01*
X-28507096Y10013045D01*
X-28539353Y9960375D01*
X-28562479Y9919971D01*
X-28574094Y9895413D01*
X-28575000Y9891189D01*
X-28851079Y9891189D01*
X-28826089Y9913917D01*
X-28739232Y10007692D01*
X-28657701Y10112260D01*
X-28602867Y10191750D01*
X-28553582Y10265405D01*
X-28496061Y10350159D01*
X-28436838Y10436446D01*
X-28382451Y10514703D01*
X-28372903Y10528300D01*
X-28306931Y10624958D01*
X-28251279Y10712431D01*
X-28207209Y10788458D01*
X-28184646Y10833494D01*
X-27976386Y10833494D01*
X-27975627Y10772991D01*
X-27974060Y10725796D01*
X-27971653Y10696471D01*
X-27969634Y10689167D01*
X-27962343Y10683296D01*
X-27952897Y10682913D01*
X-27936143Y10690066D01*
X-27906926Y10706805D01*
X-27871812Y10728049D01*
X-27820976Y10755900D01*
X-27758413Y10785857D01*
X-27696505Y10812041D01*
X-27688292Y10815185D01*
X-27582634Y10854972D01*
X-27636953Y10863658D01*
X-27724667Y10888197D01*
X-27757790Y10905706D01*
X-27387525Y10905706D01*
X-27384884Y10899945D01*
X-27362851Y10898133D01*
X-27352597Y10898587D01*
X-27321482Y10902567D01*
X-27308788Y10912740D01*
X-27307534Y10935074D01*
X-27307675Y10936994D01*
X-27310357Y10972196D01*
X-27342604Y10944113D01*
X-27368627Y10921653D01*
X-27387106Y10906048D01*
X-27387525Y10905706D01*
X-27757790Y10905706D01*
X-27804927Y10930622D01*
X-27872328Y10987144D01*
X-27921465Y11053974D01*
X-27928536Y11068050D01*
X-27945929Y11126096D01*
X-27954097Y11203723D01*
X-27954420Y11214100D01*
X-27956697Y11309350D01*
X-27965821Y11220450D01*
X-27969219Y11175923D01*
X-27972005Y11117326D01*
X-27974148Y11049221D01*
X-27975614Y10976172D01*
X-27976371Y10902742D01*
X-27976386Y10833494D01*
X-28184646Y10833494D01*
X-28175986Y10850779D01*
X-28158872Y10897134D01*
X-28155900Y10916648D01*
X-28159285Y10935627D01*
X-28171632Y10950254D01*
X-28196227Y10961564D01*
X-28236360Y10970590D01*
X-28295318Y10978367D01*
X-28376010Y10985898D01*
X-28523943Y11001262D01*
X-28653422Y11021841D01*
X-28771161Y11049404D01*
X-28883871Y11085722D01*
X-28998263Y11132562D01*
X-29081657Y11171929D01*
X-29167685Y11217621D01*
X-29266106Y11275380D01*
X-29372927Y11342407D01*
X-29484156Y11415901D01*
X-29595803Y11493063D01*
X-29703876Y11571094D01*
X-29804384Y11647194D01*
X-29893335Y11718563D01*
X-29966739Y11782402D01*
X-30005792Y11820140D01*
X-30086757Y11907921D01*
X-30170665Y12007156D01*
X-30254968Y12114165D01*
X-30337113Y12225265D01*
X-30414552Y12336776D01*
X-30484734Y12445016D01*
X-30545108Y12546304D01*
X-30593124Y12636960D01*
X-30626232Y12713301D01*
X-30628023Y12718290D01*
X-30657900Y12839255D01*
X-30663318Y12960905D01*
X-30651707Y13038110D01*
X-30457588Y13038110D01*
X-30456694Y12967792D01*
X-30449223Y12892744D01*
X-30435261Y12819544D01*
X-30435198Y12819291D01*
X-30391339Y12686167D01*
X-30324937Y12548165D01*
X-30237938Y12407161D01*
X-30132286Y12265027D01*
X-30009925Y12123638D01*
X-29872801Y11984868D01*
X-29722858Y11850590D01*
X-29562040Y11722679D01*
X-29392292Y11603008D01*
X-29215558Y11493451D01*
X-29033784Y11395883D01*
X-28888424Y11328738D01*
X-28744042Y11271514D01*
X-28602568Y11225640D01*
X-28456351Y11189110D01*
X-28297743Y11159917D01*
X-28182795Y11143726D01*
X-28114440Y11135055D01*
X-28123410Y11184103D01*
X-28136787Y11237067D01*
X-28156667Y11269316D01*
X-28188261Y11285500D01*
X-28236781Y11290272D01*
X-28242408Y11290300D01*
X-28321258Y11299400D01*
X-28365869Y11315914D01*
X-28393208Y11327715D01*
X-27740209Y11327715D01*
X-27736770Y11317208D01*
X-27714597Y11305946D01*
X-27700162Y11300173D01*
X-27651835Y11270213D01*
X-27617841Y11227370D01*
X-27600444Y11177691D01*
X-27601907Y11127225D01*
X-27620438Y11087174D01*
X-27637112Y11062657D01*
X-27638564Y11050924D01*
X-27625610Y11045057D01*
X-27625406Y11045003D01*
X-27559002Y11038634D01*
X-27499575Y11054973D01*
X-27482794Y11064875D01*
X-27441607Y11103265D01*
X-27412033Y11150939D01*
X-27396288Y11201375D01*
X-27396586Y11248051D01*
X-27410179Y11278719D01*
X-27427903Y11289846D01*
X-27463748Y11304933D01*
X-27511169Y11321888D01*
X-27563617Y11338614D01*
X-27614548Y11353019D01*
X-27657415Y11363008D01*
X-27684599Y11366500D01*
X-27710568Y11357598D01*
X-27728648Y11343092D01*
X-27740209Y11327715D01*
X-28393208Y11327715D01*
X-28400254Y11330756D01*
X-28417826Y11330905D01*
X-28421231Y11326160D01*
X-28444471Y11291022D01*
X-28482728Y11264017D01*
X-28525640Y11252268D01*
X-28528844Y11252200D01*
X-28575678Y11263796D01*
X-28612608Y11297499D01*
X-28637247Y11348509D01*
X-27951698Y11348509D01*
X-27949363Y11332037D01*
X-27945028Y11331840D01*
X-27941996Y11348838D01*
X-27944025Y11356182D01*
X-27949664Y11360992D01*
X-27951698Y11348509D01*
X-28637247Y11348509D01*
X-28638780Y11351682D01*
X-28653338Y11424717D01*
X-28656072Y11494187D01*
X-28651207Y11533077D01*
X-28444935Y11533077D01*
X-28442954Y11489631D01*
X-28434164Y11442780D01*
X-28397750Y11469702D01*
X-28383480Y11478868D01*
X-28366206Y11485978D01*
X-28342253Y11491488D01*
X-28307951Y11495854D01*
X-28259625Y11499530D01*
X-28193603Y11502971D01*
X-28106211Y11506632D01*
X-28096693Y11507007D01*
X-27949320Y11513375D01*
X-27812129Y11520455D01*
X-27687143Y11528080D01*
X-27576386Y11536082D01*
X-27481883Y11544293D01*
X-27405656Y11552546D01*
X-27349729Y11560672D01*
X-27316127Y11568505D01*
X-27308175Y11572383D01*
X-27296333Y11594021D01*
X-27292300Y11620781D01*
X-27300717Y11644995D01*
X-27023392Y11644995D01*
X-27021704Y11630019D01*
X-27013950Y11594030D01*
X-27003252Y11568384D01*
X-27000569Y11564988D01*
X-26981221Y11558899D01*
X-26937006Y11554153D01*
X-26868422Y11550782D01*
X-26775968Y11548819D01*
X-26755092Y11548603D01*
X-26678277Y11547253D01*
X-26607884Y11544771D01*
X-26548825Y11541429D01*
X-26506007Y11537494D01*
X-26485850Y11533819D01*
X-26452416Y11523467D01*
X-26432179Y11523115D01*
X-26414150Y11534998D01*
X-26396811Y11551944D01*
X-26378337Y11569020D01*
X-26361633Y11576995D01*
X-26339862Y11575906D01*
X-26306186Y11565790D01*
X-26269888Y11552627D01*
X-26230442Y11543217D01*
X-26170698Y11535726D01*
X-26095719Y11530720D01*
X-26063352Y11529560D01*
X-25997886Y11528107D01*
X-25954073Y11528289D01*
X-25928194Y11530478D01*
X-25916534Y11535046D01*
X-25915376Y11542365D01*
X-25916126Y11544300D01*
X-25924008Y11570414D01*
X-25930099Y11602263D01*
X-25936917Y11629168D01*
X-25951874Y11637487D01*
X-25970513Y11636054D01*
X-25998343Y11637709D01*
X-26025808Y11654443D01*
X-26046992Y11675031D01*
X-26088585Y11719127D01*
X-26243348Y11724279D01*
X-26331389Y11729560D01*
X-26397584Y11739465D01*
X-26445241Y11755084D01*
X-26477665Y11777508D01*
X-26498165Y11807825D01*
X-26498387Y11808320D01*
X-26513847Y11830028D01*
X-26526622Y11836400D01*
X-26546523Y11841640D01*
X-26579649Y11854982D01*
X-26599948Y11864398D01*
X-26637597Y11880811D01*
X-26666555Y11885837D01*
X-26700111Y11880821D01*
X-26717763Y11876313D01*
X-26792409Y11850734D01*
X-26866392Y11815556D01*
X-26931728Y11775146D01*
X-26980436Y11733871D01*
X-26982777Y11731327D01*
X-27009770Y11698791D01*
X-27022012Y11673387D01*
X-27023392Y11644995D01*
X-27300717Y11644995D01*
X-27302693Y11650678D01*
X-27330825Y11688360D01*
X-27372127Y11729469D01*
X-27422029Y11769648D01*
X-27475962Y11804537D01*
X-27496329Y11815385D01*
X-27561623Y11847922D01*
X-27598174Y11820899D01*
X-27618148Y11808013D01*
X-27639839Y11799945D01*
X-27668837Y11796052D01*
X-27710729Y11795693D01*
X-27771102Y11798224D01*
X-27787600Y11799115D01*
X-27825595Y11799593D01*
X-27857934Y11794578D01*
X-27893030Y11781618D01*
X-27939297Y11758260D01*
X-27952700Y11750997D01*
X-28007160Y11723144D01*
X-28052383Y11705967D01*
X-28100164Y11695904D01*
X-28154467Y11690037D01*
X-28222028Y11681813D01*
X-28275930Y11668283D01*
X-28327819Y11646342D01*
X-28338239Y11641056D01*
X-28395453Y11606385D01*
X-28430149Y11571650D01*
X-28444935Y11533077D01*
X-28651207Y11533077D01*
X-28643459Y11595007D01*
X-28609093Y11682856D01*
X-28552810Y11758150D01*
X-28549124Y11761886D01*
X-28504526Y11800123D01*
X-28455080Y11828123D01*
X-28395207Y11847925D01*
X-28319329Y11861564D01*
X-28258121Y11868149D01*
X-28200870Y11875314D01*
X-28161532Y11886083D01*
X-28132658Y11902643D01*
X-28128077Y11906341D01*
X-28082884Y11930981D01*
X-28019507Y11944068D01*
X-27949867Y11952136D01*
X-27900184Y11959693D01*
X-27865096Y11968237D01*
X-27839237Y11979268D01*
X-27817246Y11994284D01*
X-27806108Y12003680D01*
X-27754076Y12039651D01*
X-27697810Y12057034D01*
X-27630662Y12057346D01*
X-27594009Y12052127D01*
X-27522423Y12033097D01*
X-27441937Y12001483D01*
X-27360809Y11961407D01*
X-27287301Y11916995D01*
X-27229670Y11872371D01*
X-27224772Y11867740D01*
X-27191901Y11836733D01*
X-27171686Y11821439D01*
X-27158931Y11819503D01*
X-27148440Y11828571D01*
X-27145801Y11831965D01*
X-27131623Y11853735D01*
X-27127604Y11863894D01*
X-27116336Y11879932D01*
X-27087107Y11903171D01*
X-27045147Y11930448D01*
X-26995683Y11958599D01*
X-26943946Y11984463D01*
X-26895165Y12004877D01*
X-26893481Y12005488D01*
X-26806289Y12030753D01*
X-26716229Y12045952D01*
X-26628011Y12051237D01*
X-26546350Y12046760D01*
X-26475958Y12032675D01*
X-26421548Y12009133D01*
X-26397539Y11989450D01*
X-26360852Y11962173D01*
X-26302444Y11935661D01*
X-26225984Y11911334D01*
X-26149300Y11893385D01*
X-26052418Y11869124D01*
X-25978938Y11839826D01*
X-25927235Y11804780D01*
X-25913509Y11790464D01*
X-25893721Y11770041D01*
X-25876435Y11767002D01*
X-25850009Y11778715D01*
X-25806314Y11795557D01*
X-25771128Y11792299D01*
X-25735952Y11767707D01*
X-25729224Y11761177D01*
X-25701006Y11723365D01*
X-25692128Y11681609D01*
X-25692100Y11678627D01*
X-25688101Y11645268D01*
X-25675320Y11633328D01*
X-25673185Y11633200D01*
X-25655038Y11625122D01*
X-25624787Y11603826D01*
X-25588618Y11573717D01*
X-25584516Y11570032D01*
X-25486010Y11496496D01*
X-25369314Y11436114D01*
X-25238699Y11390182D01*
X-25098436Y11359998D01*
X-24952798Y11346857D01*
X-24853786Y11348265D01*
X-24766684Y11350603D01*
X-24697832Y11344567D01*
X-24643682Y11327444D01*
X-24600690Y11296519D01*
X-24565309Y11249080D01*
X-24533994Y11182412D01*
X-24503198Y11093802D01*
X-24497534Y11075631D01*
X-24479530Y11020261D01*
X-24463047Y10975118D01*
X-24449963Y10945007D01*
X-24442399Y10934700D01*
X-24426073Y10940994D01*
X-24395732Y10957311D01*
X-24366062Y10975113D01*
X-24319420Y11005868D01*
X-24272183Y11039444D01*
X-24250650Y11055871D01*
X-24209202Y11085203D01*
X-24158961Y11115934D01*
X-24130659Y11131248D01*
X-24074705Y11161123D01*
X-24002985Y11201728D01*
X-23920927Y11249793D01*
X-23833959Y11302051D01*
X-23747510Y11355233D01*
X-23667009Y11406072D01*
X-23597883Y11451299D01*
X-23588128Y11457873D01*
X-23420367Y11581391D01*
X-23260011Y11718784D01*
X-23110364Y11866476D01*
X-22974732Y12020895D01*
X-22856421Y12178465D01*
X-22758735Y12335612D01*
X-22734601Y12380860D01*
X-22686065Y12481715D01*
X-22651516Y12569838D01*
X-22629045Y12652310D01*
X-22616744Y12736210D01*
X-22612707Y12828620D01*
X-22612688Y12833350D01*
X-22613093Y12897176D01*
X-22615464Y12942793D01*
X-22620997Y12977383D01*
X-22630882Y13008125D01*
X-22646313Y13042201D01*
X-22647924Y13045493D01*
X-22679301Y13098214D01*
X-22719328Y13144310D01*
X-22769587Y13184147D01*
X-22831657Y13218094D01*
X-22907120Y13246520D01*
X-22997554Y13269794D01*
X-23104540Y13288284D01*
X-23229658Y13302359D01*
X-23374489Y13312386D01*
X-23540612Y13318736D01*
X-23729608Y13321775D01*
X-23834150Y13322169D01*
X-24230450Y13322300D01*
X-24236801Y13281025D01*
X-24239501Y13256654D01*
X-24243560Y13211170D01*
X-24248637Y13148804D01*
X-24254395Y13073786D01*
X-24260494Y12990346D01*
X-24263505Y12947650D01*
X-24274769Y12794066D01*
X-24286356Y12651201D01*
X-24298009Y12521712D01*
X-24309466Y12408250D01*
X-24320466Y12313471D01*
X-24330751Y12240029D01*
X-24335748Y12211050D01*
X-24349942Y12156713D01*
X-24371297Y12116759D01*
X-24392771Y12092035D01*
X-24435342Y12049219D01*
X-24546196Y12054550D01*
X-24593706Y12058270D01*
X-24637579Y12065655D01*
X-24680287Y12078280D01*
X-24724305Y12097718D01*
X-24772105Y12125543D01*
X-24826160Y12163329D01*
X-24888943Y12212649D01*
X-24962926Y12275078D01*
X-25050584Y12352189D01*
X-25139650Y12432224D01*
X-25349941Y12617953D01*
X-25548673Y12784209D01*
X-25738248Y12932735D01*
X-25921066Y13065279D01*
X-26099529Y13183585D01*
X-26276039Y13289399D01*
X-26441183Y13378452D01*
X-26616790Y13463606D01*
X-26794659Y13541133D01*
X-26970953Y13609709D01*
X-27141833Y13668012D01*
X-27246708Y13698318D01*
X-26618142Y13698318D01*
X-26605789Y13691170D01*
X-26574371Y13674100D01*
X-26527337Y13648952D01*
X-26468135Y13617565D01*
X-26400212Y13581781D01*
X-26384250Y13573402D01*
X-26235034Y13493032D01*
X-26094874Y13412841D01*
X-25960993Y13330765D01*
X-25830618Y13244743D01*
X-25700971Y13152710D01*
X-25569279Y13052606D01*
X-25432766Y12942366D01*
X-25288656Y12819930D01*
X-25134175Y12683233D01*
X-24966546Y12530213D01*
X-24909847Y12477622D01*
X-24816186Y12391633D01*
X-24738389Y12323180D01*
X-24674824Y12271379D01*
X-24623866Y12235349D01*
X-24583883Y12214206D01*
X-24553249Y12207067D01*
X-24530334Y12213052D01*
X-24513510Y12231275D01*
X-24502419Y12256829D01*
X-24490670Y12305600D01*
X-24479570Y12375761D01*
X-24469334Y12463305D01*
X-24460177Y12564228D01*
X-24452317Y12674521D01*
X-24445968Y12790180D01*
X-24441347Y12907198D01*
X-24438670Y13021569D01*
X-24438152Y13129287D01*
X-24440009Y13226344D01*
X-24444458Y13308736D01*
X-24445224Y13317996D01*
X-24456605Y13424093D01*
X-24471619Y13507254D01*
X-24492331Y13569894D01*
X-24520809Y13614428D01*
X-24559120Y13643273D01*
X-24609331Y13658843D01*
X-24673508Y13663554D01*
X-24738692Y13660959D01*
X-24795965Y13654614D01*
X-24867902Y13643309D01*
X-24944654Y13628737D01*
X-25006300Y13615047D01*
X-25078255Y13598522D01*
X-25152510Y13582798D01*
X-25219693Y13569790D01*
X-25265106Y13562172D01*
X-25341288Y13555119D01*
X-25430691Y13553275D01*
X-25524772Y13556267D01*
X-25614985Y13563718D01*
X-25692785Y13575254D01*
X-25723850Y13582301D01*
X-25758497Y13594223D01*
X-25810915Y13615749D01*
X-25876345Y13644757D01*
X-25950026Y13679125D01*
X-26027200Y13716729D01*
X-26042702Y13724486D01*
X-26125292Y13765692D01*
X-26189093Y13796566D01*
X-26237813Y13818570D01*
X-26275160Y13833163D01*
X-26304843Y13841807D01*
X-26330570Y13845963D01*
X-26353852Y13847078D01*
X-26425517Y13839059D01*
X-26473150Y13820130D01*
X-26505454Y13800016D01*
X-26541345Y13773836D01*
X-26575512Y13746053D01*
X-26602643Y13721129D01*
X-26617428Y13703527D01*
X-26618142Y13698318D01*
X-27246708Y13698318D01*
X-27303461Y13714718D01*
X-27451999Y13748505D01*
X-27565965Y13766176D01*
X-27624545Y13771209D01*
X-27704773Y13775698D01*
X-27802906Y13779599D01*
X-27915196Y13782868D01*
X-28037898Y13785460D01*
X-28167266Y13787331D01*
X-28299554Y13788436D01*
X-28431017Y13788731D01*
X-28557909Y13788172D01*
X-28676484Y13786714D01*
X-28782996Y13784313D01*
X-28860750Y13781520D01*
X-28999829Y13774204D01*
X-29118933Y13765036D01*
X-29223469Y13753180D01*
X-29318841Y13737802D01*
X-29410456Y13718066D01*
X-29503720Y13693137D01*
X-29576740Y13670930D01*
X-29753266Y13610241D01*
X-29907753Y13546430D01*
X-30043530Y13477662D01*
X-30163927Y13402106D01*
X-30272273Y13317928D01*
X-30351093Y13244569D01*
X-30387599Y13205577D01*
X-30419036Y13167790D01*
X-30438824Y13139136D01*
X-30439306Y13138244D01*
X-30451820Y13097120D01*
X-30457588Y13038110D01*
X-30651707Y13038110D01*
X-30645132Y13081824D01*
X-30604196Y13200593D01*
X-30541363Y13315794D01*
X-30457488Y13426011D01*
X-30353425Y13529824D01*
X-30230028Y13625817D01*
X-30088152Y13712571D01*
X-30003146Y13755554D01*
X-29875209Y13810026D01*
X-29735905Y13857736D01*
X-29583324Y13899026D01*
X-29415556Y13934241D01*
X-29230689Y13963724D01*
X-29026813Y13987818D01*
X-28802017Y14006867D01*
X-28554390Y14021212D01*
X-28514587Y14023005D01*
X-28303604Y14029766D01*
X-28112209Y14030284D01*
X-27935214Y14023917D01*
X-27767433Y14010022D01*
X-27603677Y13987958D01*
X-27438761Y13957084D01*
X-27267496Y13916757D01*
X-27084696Y13866336D01*
X-26970614Y13831989D01*
X-26807678Y13781669D01*
X-26703914Y13886475D01*
X-26619746Y13963244D01*
X-26540413Y14017828D01*
X-26462791Y14052163D01*
X-26418733Y14063301D01*
X-26382640Y14066383D01*
X-26340700Y14062154D01*
G36*
X-27655990Y7581531D02*
G01*
X-27640082Y7562392D01*
X-27626371Y7522010D01*
X-27624610Y7467470D01*
X-27633195Y7406094D01*
X-27650520Y7345202D01*
X-27674980Y7292118D01*
X-27704971Y7254164D01*
X-27708237Y7251463D01*
X-27752293Y7230082D01*
X-27797932Y7229925D01*
X-27837502Y7250891D01*
X-27839885Y7253185D01*
X-27858462Y7288662D01*
X-27860710Y7337370D01*
X-27848056Y7394380D01*
X-27821927Y7454760D01*
X-27783753Y7513582D01*
X-27754789Y7546975D01*
X-27714969Y7581255D01*
X-27682888Y7592659D01*
X-27655990Y7581531D01*
X-27655990Y7581531D01*
G37*
X-27655990Y7581531D02*
X-27640082Y7562392D01*
X-27626371Y7522010D01*
X-27624610Y7467470D01*
X-27633195Y7406094D01*
X-27650520Y7345202D01*
X-27674980Y7292118D01*
X-27704971Y7254164D01*
X-27708237Y7251463D01*
X-27752293Y7230082D01*
X-27797932Y7229925D01*
X-27837502Y7250891D01*
X-27839885Y7253185D01*
X-27858462Y7288662D01*
X-27860710Y7337370D01*
X-27848056Y7394380D01*
X-27821927Y7454760D01*
X-27783753Y7513582D01*
X-27754789Y7546975D01*
X-27714969Y7581255D01*
X-27682888Y7592659D01*
X-27655990Y7581531D01*
G36*
X-28156466Y8515354D02*
G01*
X-28133053Y8492908D01*
X-28120553Y8449456D01*
X-28119159Y8406297D01*
X-28119531Y8362483D01*
X-28114608Y8335498D01*
X-28102069Y8316945D01*
X-28091998Y8308029D01*
X-28061825Y8283596D01*
X-28078221Y8149440D01*
X-28085716Y8080118D01*
X-28093230Y7997016D01*
X-28099776Y7911733D01*
X-28103574Y7851185D01*
X-28109640Y7766825D01*
X-28118069Y7704823D01*
X-28130019Y7662167D01*
X-28146646Y7635843D01*
X-28169106Y7622839D01*
X-28192325Y7620000D01*
X-28226777Y7628179D01*
X-28249567Y7643651D01*
X-28274616Y7684128D01*
X-28288282Y7739440D01*
X-28291183Y7813002D01*
X-28288676Y7859175D01*
X-28285120Y7911813D01*
X-28285134Y7945900D01*
X-28289772Y7968161D01*
X-28300088Y7985320D01*
X-28310248Y7996827D01*
X-28325682Y8016340D01*
X-28334470Y8038564D01*
X-28338211Y8070826D01*
X-28338502Y8120451D01*
X-28338415Y8125952D01*
X-28332775Y8202947D01*
X-28319470Y8281424D01*
X-28300177Y8355728D01*
X-28276571Y8420202D01*
X-28250328Y8469190D01*
X-28229854Y8492421D01*
X-28189248Y8515593D01*
X-28156466Y8515354D01*
X-28156466Y8515354D01*
G37*
X-28156466Y8515354D02*
X-28133053Y8492908D01*
X-28120553Y8449456D01*
X-28119159Y8406297D01*
X-28119531Y8362483D01*
X-28114608Y8335498D01*
X-28102069Y8316945D01*
X-28091998Y8308029D01*
X-28061825Y8283596D01*
X-28078221Y8149440D01*
X-28085716Y8080118D01*
X-28093230Y7997016D01*
X-28099776Y7911733D01*
X-28103574Y7851185D01*
X-28109640Y7766825D01*
X-28118069Y7704823D01*
X-28130019Y7662167D01*
X-28146646Y7635843D01*
X-28169106Y7622839D01*
X-28192325Y7620000D01*
X-28226777Y7628179D01*
X-28249567Y7643651D01*
X-28274616Y7684128D01*
X-28288282Y7739440D01*
X-28291183Y7813002D01*
X-28288676Y7859175D01*
X-28285120Y7911813D01*
X-28285134Y7945900D01*
X-28289772Y7968161D01*
X-28300088Y7985320D01*
X-28310248Y7996827D01*
X-28325682Y8016340D01*
X-28334470Y8038564D01*
X-28338211Y8070826D01*
X-28338502Y8120451D01*
X-28338415Y8125952D01*
X-28332775Y8202947D01*
X-28319470Y8281424D01*
X-28300177Y8355728D01*
X-28276571Y8420202D01*
X-28250328Y8469190D01*
X-28229854Y8492421D01*
X-28189248Y8515593D01*
X-28156466Y8515354D01*
G36*
X-26834190Y8387527D02*
G01*
X-26817039Y8356037D01*
X-26810857Y8304588D01*
X-26815336Y8235984D01*
X-26830172Y8153026D01*
X-26855059Y8058516D01*
X-26877710Y7988671D01*
X-26906760Y7917625D01*
X-26935848Y7871008D01*
X-26964664Y7849054D01*
X-26992899Y7852000D01*
X-27020241Y7880080D01*
X-27020403Y7880327D01*
X-27030088Y7900282D01*
X-27034630Y7925682D01*
X-27033696Y7960440D01*
X-27026953Y8008468D01*
X-27014068Y8073679D01*
X-26997690Y8147050D01*
X-26970983Y8248382D01*
X-26943264Y8324430D01*
X-26914547Y8375174D01*
X-26884846Y8400592D01*
X-26854177Y8400663D01*
X-26834190Y8387527D01*
X-26834190Y8387527D01*
G37*
X-26834190Y8387527D02*
X-26817039Y8356037D01*
X-26810857Y8304588D01*
X-26815336Y8235984D01*
X-26830172Y8153026D01*
X-26855059Y8058516D01*
X-26877710Y7988671D01*
X-26906760Y7917625D01*
X-26935848Y7871008D01*
X-26964664Y7849054D01*
X-26992899Y7852000D01*
X-27020241Y7880080D01*
X-27020403Y7880327D01*
X-27030088Y7900282D01*
X-27034630Y7925682D01*
X-27033696Y7960440D01*
X-27026953Y8008468D01*
X-27014068Y8073679D01*
X-26997690Y8147050D01*
X-26970983Y8248382D01*
X-26943264Y8324430D01*
X-26914547Y8375174D01*
X-26884846Y8400592D01*
X-26854177Y8400663D01*
X-26834190Y8387527D01*
G36*
X-25793700Y9493445D02*
G01*
X-25798131Y9354683D01*
X-25811743Y9236913D01*
X-25835020Y9137266D01*
X-25867341Y9055100D01*
X-25890948Y9012486D01*
X-25913341Y8987343D01*
X-25940877Y8972900D01*
X-25946100Y8971155D01*
X-25966865Y8962440D01*
X-25985337Y8948094D01*
X-26004881Y8923912D01*
X-26028862Y8885686D01*
X-26060643Y8829209D01*
X-26062895Y8825105D01*
X-26103802Y8755839D01*
X-26144569Y8696442D01*
X-26182488Y8650230D01*
X-26214852Y8620520D01*
X-26238014Y8610600D01*
X-26255520Y8618814D01*
X-26277491Y8637191D01*
X-26293246Y8661424D01*
X-26297315Y8693834D01*
X-26289245Y8738322D01*
X-26268585Y8798792D01*
X-26254820Y8832833D01*
X-26196192Y8961173D01*
X-26136937Y9067411D01*
X-26077830Y9150230D01*
X-26049666Y9181351D01*
X-26015765Y9217719D01*
X-25989915Y9252536D01*
X-25970145Y9290863D01*
X-25954484Y9337761D01*
X-25940964Y9398293D01*
X-25927613Y9477518D01*
X-25923307Y9505950D01*
X-25900594Y9658350D01*
X-25847147Y9662256D01*
X-25793700Y9666161D01*
X-25793700Y9493445D01*
X-25793700Y9493445D01*
G37*
X-25793700Y9493445D02*
X-25798131Y9354683D01*
X-25811743Y9236913D01*
X-25835020Y9137266D01*
X-25867341Y9055100D01*
X-25890948Y9012486D01*
X-25913341Y8987343D01*
X-25940877Y8972900D01*
X-25946100Y8971155D01*
X-25966865Y8962440D01*
X-25985337Y8948094D01*
X-26004881Y8923912D01*
X-26028862Y8885686D01*
X-26060643Y8829209D01*
X-26062895Y8825105D01*
X-26103802Y8755839D01*
X-26144569Y8696442D01*
X-26182488Y8650230D01*
X-26214852Y8620520D01*
X-26238014Y8610600D01*
X-26255520Y8618814D01*
X-26277491Y8637191D01*
X-26293246Y8661424D01*
X-26297315Y8693834D01*
X-26289245Y8738322D01*
X-26268585Y8798792D01*
X-26254820Y8832833D01*
X-26196192Y8961173D01*
X-26136937Y9067411D01*
X-26077830Y9150230D01*
X-26049666Y9181351D01*
X-26015765Y9217719D01*
X-25989915Y9252536D01*
X-25970145Y9290863D01*
X-25954484Y9337761D01*
X-25940964Y9398293D01*
X-25927613Y9477518D01*
X-25923307Y9505950D01*
X-25900594Y9658350D01*
X-25847147Y9662256D01*
X-25793700Y9666161D01*
X-25793700Y9493445D01*
G36*
X-28331870Y9616745D02*
G01*
X-28308944Y9588221D01*
X-28302999Y9542597D01*
X-28308300Y9505950D01*
X-28315312Y9465215D01*
X-28312956Y9437748D01*
X-28300973Y9413776D01*
X-28286926Y9378334D01*
X-28288875Y9336394D01*
X-28307691Y9284922D01*
X-28344242Y9220884D01*
X-28365336Y9189155D01*
X-28405266Y9125946D01*
X-28432317Y9072251D01*
X-28443702Y9035743D01*
X-28454915Y8994554D01*
X-28472629Y8960961D01*
X-28492494Y8942384D01*
X-28499362Y8940800D01*
X-28515013Y8948037D01*
X-28537722Y8964312D01*
X-28563056Y9000594D01*
X-28573848Y9054507D01*
X-28570094Y9122855D01*
X-28551792Y9202441D01*
X-28537988Y9243292D01*
X-28520062Y9295699D01*
X-28506444Y9343278D01*
X-28499340Y9378030D01*
X-28498800Y9385542D01*
X-28492459Y9456994D01*
X-28474953Y9521077D01*
X-28448559Y9573496D01*
X-28415556Y9609956D01*
X-28378220Y9626165D01*
X-28370964Y9626600D01*
X-28331870Y9616745D01*
X-28331870Y9616745D01*
G37*
X-28331870Y9616745D02*
X-28308944Y9588221D01*
X-28302999Y9542597D01*
X-28308300Y9505950D01*
X-28315312Y9465215D01*
X-28312956Y9437748D01*
X-28300973Y9413776D01*
X-28286926Y9378334D01*
X-28288875Y9336394D01*
X-28307691Y9284922D01*
X-28344242Y9220884D01*
X-28365336Y9189155D01*
X-28405266Y9125946D01*
X-28432317Y9072251D01*
X-28443702Y9035743D01*
X-28454915Y8994554D01*
X-28472629Y8960961D01*
X-28492494Y8942384D01*
X-28499362Y8940800D01*
X-28515013Y8948037D01*
X-28537722Y8964312D01*
X-28563056Y9000594D01*
X-28573848Y9054507D01*
X-28570094Y9122855D01*
X-28551792Y9202441D01*
X-28537988Y9243292D01*
X-28520062Y9295699D01*
X-28506444Y9343278D01*
X-28499340Y9378030D01*
X-28498800Y9385542D01*
X-28492459Y9456994D01*
X-28474953Y9521077D01*
X-28448559Y9573496D01*
X-28415556Y9609956D01*
X-28378220Y9626165D01*
X-28370964Y9626600D01*
X-28331870Y9616745D01*
G36*
X-25642707Y9760397D02*
G01*
X-25618391Y9740308D01*
X-25601518Y9701479D01*
X-25593809Y9649917D01*
X-25596102Y9597807D01*
X-25611296Y9527851D01*
X-25634835Y9479619D01*
X-25665706Y9453931D01*
X-25702899Y9451606D01*
X-25745400Y9473466D01*
X-25747538Y9475122D01*
X-25769387Y9497474D01*
X-25779121Y9525516D01*
X-25781000Y9560013D01*
X-25774117Y9617198D01*
X-25755617Y9670686D01*
X-25728726Y9715804D01*
X-25696670Y9747876D01*
X-25662674Y9762229D01*
X-25642707Y9760397D01*
X-25642707Y9760397D01*
G37*
X-25642707Y9760397D02*
X-25618391Y9740308D01*
X-25601518Y9701479D01*
X-25593809Y9649917D01*
X-25596102Y9597807D01*
X-25611296Y9527851D01*
X-25634835Y9479619D01*
X-25665706Y9453931D01*
X-25702899Y9451606D01*
X-25745400Y9473466D01*
X-25747538Y9475122D01*
X-25769387Y9497474D01*
X-25779121Y9525516D01*
X-25781000Y9560013D01*
X-25774117Y9617198D01*
X-25755617Y9670686D01*
X-25728726Y9715804D01*
X-25696670Y9747876D01*
X-25662674Y9762229D01*
X-25642707Y9760397D01*
G36*
X-27491656Y9860072D02*
G01*
X-27453939Y9826054D01*
X-27437288Y9804610D01*
X-27414587Y9775366D01*
X-27391319Y9752757D01*
X-27363956Y9735938D01*
X-27328970Y9724066D01*
X-27282830Y9716296D01*
X-27222009Y9711784D01*
X-27142977Y9709685D01*
X-27042205Y9709155D01*
X-27038300Y9709155D01*
X-26790650Y9709150D01*
X-26730121Y9745402D01*
X-26694831Y9765670D01*
X-26672764Y9773817D01*
X-26655578Y9771141D01*
X-26636499Y9759971D01*
X-26616379Y9743970D01*
X-26608398Y9725242D01*
X-26609558Y9694252D01*
X-26611382Y9680094D01*
X-26624216Y9624363D01*
X-26647752Y9582100D01*
X-26685644Y9550247D01*
X-26741549Y9525744D01*
X-26819121Y9505533D01*
X-26820321Y9505279D01*
X-26889166Y9495069D01*
X-26973344Y9489225D01*
X-27065119Y9487661D01*
X-27156754Y9490291D01*
X-27240513Y9497032D01*
X-27308660Y9507798D01*
X-27321089Y9510776D01*
X-27408972Y9542804D01*
X-27482821Y9588166D01*
X-27537708Y9643744D01*
X-27542938Y9651176D01*
X-27559390Y9688017D01*
X-27569525Y9735187D01*
X-27572766Y9784104D01*
X-27568538Y9826188D01*
X-27556460Y9852661D01*
X-27525831Y9868941D01*
X-27491656Y9860072D01*
X-27491656Y9860072D01*
G37*
X-27491656Y9860072D02*
X-27453939Y9826054D01*
X-27437288Y9804610D01*
X-27414587Y9775366D01*
X-27391319Y9752757D01*
X-27363956Y9735938D01*
X-27328970Y9724066D01*
X-27282830Y9716296D01*
X-27222009Y9711784D01*
X-27142977Y9709685D01*
X-27042205Y9709155D01*
X-27038300Y9709155D01*
X-26790650Y9709150D01*
X-26730121Y9745402D01*
X-26694831Y9765670D01*
X-26672764Y9773817D01*
X-26655578Y9771141D01*
X-26636499Y9759971D01*
X-26616379Y9743970D01*
X-26608398Y9725242D01*
X-26609558Y9694252D01*
X-26611382Y9680094D01*
X-26624216Y9624363D01*
X-26647752Y9582100D01*
X-26685644Y9550247D01*
X-26741549Y9525744D01*
X-26819121Y9505533D01*
X-26820321Y9505279D01*
X-26889166Y9495069D01*
X-26973344Y9489225D01*
X-27065119Y9487661D01*
X-27156754Y9490291D01*
X-27240513Y9497032D01*
X-27308660Y9507798D01*
X-27321089Y9510776D01*
X-27408972Y9542804D01*
X-27482821Y9588166D01*
X-27537708Y9643744D01*
X-27542938Y9651176D01*
X-27559390Y9688017D01*
X-27569525Y9735187D01*
X-27572766Y9784104D01*
X-27568538Y9826188D01*
X-27556460Y9852661D01*
X-27525831Y9868941D01*
X-27491656Y9860072D01*
G36*
X-28845563Y12833008D02*
G01*
X-28813794Y12813093D01*
X-28803600Y12781526D01*
X-28805632Y12764296D01*
X-28813604Y12746805D01*
X-28830328Y12726130D01*
X-28858619Y12699349D01*
X-28901290Y12663539D01*
X-28961154Y12615777D01*
X-28969422Y12609266D01*
X-29021636Y12566679D01*
X-29084241Y12513339D01*
X-29149324Y12456098D01*
X-29208245Y12402483D01*
X-29279489Y12337916D01*
X-29336234Y12290969D01*
X-29381000Y12260408D01*
X-29416307Y12244996D01*
X-29444676Y12243499D01*
X-29468626Y12254682D01*
X-29482793Y12267916D01*
X-29498398Y12296007D01*
X-29499769Y12335123D01*
X-29498847Y12342788D01*
X-29492174Y12392546D01*
X-29549642Y12367125D01*
X-29609591Y12350853D01*
X-29660482Y12357859D01*
X-29700556Y12387095D01*
X-29728050Y12437509D01*
X-29738097Y12479526D01*
X-29740951Y12517475D01*
X-29732915Y12542727D01*
X-29719400Y12558901D01*
X-29689238Y12578719D01*
X-29661123Y12585700D01*
X-29639336Y12588229D01*
X-29637254Y12600836D01*
X-29643379Y12615844D01*
X-29650487Y12654703D01*
X-29635682Y12686330D01*
X-29601909Y12708710D01*
X-29552116Y12719824D01*
X-29493791Y12718256D01*
X-29453838Y12714397D01*
X-29428241Y12718008D01*
X-29406226Y12732860D01*
X-29382072Y12757364D01*
X-29352771Y12785710D01*
X-29330191Y12798000D01*
X-29305558Y12798304D01*
X-29297086Y12796793D01*
X-29253345Y12783049D01*
X-29230420Y12760413D01*
X-29223961Y12723420D01*
X-29224792Y12705975D01*
X-29229050Y12653357D01*
X-29140150Y12719709D01*
X-29061711Y12774775D01*
X-28996993Y12812149D01*
X-28943043Y12833299D01*
X-28898522Y12839700D01*
X-28845563Y12833008D01*
X-28845563Y12833008D01*
G37*
X-28845563Y12833008D02*
X-28813794Y12813093D01*
X-28803600Y12781526D01*
X-28805632Y12764296D01*
X-28813604Y12746805D01*
X-28830328Y12726130D01*
X-28858619Y12699349D01*
X-28901290Y12663539D01*
X-28961154Y12615777D01*
X-28969422Y12609266D01*
X-29021636Y12566679D01*
X-29084241Y12513339D01*
X-29149324Y12456098D01*
X-29208245Y12402483D01*
X-29279489Y12337916D01*
X-29336234Y12290969D01*
X-29381000Y12260408D01*
X-29416307Y12244996D01*
X-29444676Y12243499D01*
X-29468626Y12254682D01*
X-29482793Y12267916D01*
X-29498398Y12296007D01*
X-29499769Y12335123D01*
X-29498847Y12342788D01*
X-29492174Y12392546D01*
X-29549642Y12367125D01*
X-29609591Y12350853D01*
X-29660482Y12357859D01*
X-29700556Y12387095D01*
X-29728050Y12437509D01*
X-29738097Y12479526D01*
X-29740951Y12517475D01*
X-29732915Y12542727D01*
X-29719400Y12558901D01*
X-29689238Y12578719D01*
X-29661123Y12585700D01*
X-29639336Y12588229D01*
X-29637254Y12600836D01*
X-29643379Y12615844D01*
X-29650487Y12654703D01*
X-29635682Y12686330D01*
X-29601909Y12708710D01*
X-29552116Y12719824D01*
X-29493791Y12718256D01*
X-29453838Y12714397D01*
X-29428241Y12718008D01*
X-29406226Y12732860D01*
X-29382072Y12757364D01*
X-29352771Y12785710D01*
X-29330191Y12798000D01*
X-29305558Y12798304D01*
X-29297086Y12796793D01*
X-29253345Y12783049D01*
X-29230420Y12760413D01*
X-29223961Y12723420D01*
X-29224792Y12705975D01*
X-29229050Y12653357D01*
X-29140150Y12719709D01*
X-29061711Y12774775D01*
X-28996993Y12812149D01*
X-28943043Y12833299D01*
X-28898522Y12839700D01*
X-28845563Y12833008D01*
D11*
X-5604200Y-21183280D03*
X-5604200Y-23723280D03*
D12*
X-8144200Y-21183280D03*
X-8144200Y-23723280D03*
X-10684200Y-21183280D03*
D13*
X-10684200Y-23723280D03*
D14*
X-6791960Y-5300980D03*
D15*
X5113040Y-5300980D03*
X-18696960Y-5300980D03*
D16*
G36*
X12766304Y13954796D02*
G01*
X12790573Y13951196D01*
X12814371Y13945235D01*
X12837471Y13936970D01*
X12859649Y13926480D01*
X12880693Y13913867D01*
X12900398Y13899253D01*
X12918577Y13882777D01*
X12935053Y13864598D01*
X12949667Y13844893D01*
X12962280Y13823849D01*
X12972770Y13801671D01*
X12981035Y13778571D01*
X12986996Y13754773D01*
X12990596Y13730504D01*
X12991800Y13706000D01*
X12991800Y12456000D01*
X12990596Y12431496D01*
X12986996Y12407227D01*
X12981035Y12383429D01*
X12972770Y12360329D01*
X12962280Y12338151D01*
X12949667Y12317107D01*
X12935053Y12297402D01*
X12918577Y12279223D01*
X12900398Y12262747D01*
X12880693Y12248133D01*
X12859649Y12235520D01*
X12837471Y12225030D01*
X12814371Y12216765D01*
X12790573Y12210804D01*
X12766304Y12207204D01*
X12741800Y12206000D01*
X11991800Y12206000D01*
X11967296Y12207204D01*
X11943027Y12210804D01*
X11919229Y12216765D01*
X11896129Y12225030D01*
X11873951Y12235520D01*
X11852907Y12248133D01*
X11833202Y12262747D01*
X11815023Y12279223D01*
X11798547Y12297402D01*
X11783933Y12317107D01*
X11771320Y12338151D01*
X11760830Y12360329D01*
X11752565Y12383429D01*
X11746604Y12407227D01*
X11743004Y12431496D01*
X11741800Y12456000D01*
X11741800Y13706000D01*
X11743004Y13730504D01*
X11746604Y13754773D01*
X11752565Y13778571D01*
X11760830Y13801671D01*
X11771320Y13823849D01*
X11783933Y13844893D01*
X11798547Y13864598D01*
X11815023Y13882777D01*
X11833202Y13899253D01*
X11852907Y13913867D01*
X11873951Y13926480D01*
X11896129Y13936970D01*
X11919229Y13945235D01*
X11943027Y13951196D01*
X11967296Y13954796D01*
X11991800Y13956000D01*
X12741800Y13956000D01*
X12766304Y13954796D01*
X12766304Y13954796D01*
G37*
D17*
X12366800Y13081000D03*
D16*
G36*
X15566304Y13954796D02*
G01*
X15590573Y13951196D01*
X15614371Y13945235D01*
X15637471Y13936970D01*
X15659649Y13926480D01*
X15680693Y13913867D01*
X15700398Y13899253D01*
X15718577Y13882777D01*
X15735053Y13864598D01*
X15749667Y13844893D01*
X15762280Y13823849D01*
X15772770Y13801671D01*
X15781035Y13778571D01*
X15786996Y13754773D01*
X15790596Y13730504D01*
X15791800Y13706000D01*
X15791800Y12456000D01*
X15790596Y12431496D01*
X15786996Y12407227D01*
X15781035Y12383429D01*
X15772770Y12360329D01*
X15762280Y12338151D01*
X15749667Y12317107D01*
X15735053Y12297402D01*
X15718577Y12279223D01*
X15700398Y12262747D01*
X15680693Y12248133D01*
X15659649Y12235520D01*
X15637471Y12225030D01*
X15614371Y12216765D01*
X15590573Y12210804D01*
X15566304Y12207204D01*
X15541800Y12206000D01*
X14791800Y12206000D01*
X14767296Y12207204D01*
X14743027Y12210804D01*
X14719229Y12216765D01*
X14696129Y12225030D01*
X14673951Y12235520D01*
X14652907Y12248133D01*
X14633202Y12262747D01*
X14615023Y12279223D01*
X14598547Y12297402D01*
X14583933Y12317107D01*
X14571320Y12338151D01*
X14560830Y12360329D01*
X14552565Y12383429D01*
X14546604Y12407227D01*
X14543004Y12431496D01*
X14541800Y12456000D01*
X14541800Y13706000D01*
X14543004Y13730504D01*
X14546604Y13754773D01*
X14552565Y13778571D01*
X14560830Y13801671D01*
X14571320Y13823849D01*
X14583933Y13844893D01*
X14598547Y13864598D01*
X14615023Y13882777D01*
X14633202Y13899253D01*
X14652907Y13913867D01*
X14673951Y13926480D01*
X14696129Y13936970D01*
X14719229Y13945235D01*
X14743027Y13951196D01*
X14767296Y13954796D01*
X14791800Y13956000D01*
X15541800Y13956000D01*
X15566304Y13954796D01*
X15566304Y13954796D01*
G37*
D17*
X15166800Y13081000D03*
D16*
G36*
X12867904Y8915436D02*
G01*
X12892173Y8911836D01*
X12915971Y8905875D01*
X12939071Y8897610D01*
X12961249Y8887120D01*
X12982293Y8874507D01*
X13001998Y8859893D01*
X13020177Y8843417D01*
X13036653Y8825238D01*
X13051267Y8805533D01*
X13063880Y8784489D01*
X13074370Y8762311D01*
X13082635Y8739211D01*
X13088596Y8715413D01*
X13092196Y8691144D01*
X13093400Y8666640D01*
X13093400Y7416640D01*
X13092196Y7392136D01*
X13088596Y7367867D01*
X13082635Y7344069D01*
X13074370Y7320969D01*
X13063880Y7298791D01*
X13051267Y7277747D01*
X13036653Y7258042D01*
X13020177Y7239863D01*
X13001998Y7223387D01*
X12982293Y7208773D01*
X12961249Y7196160D01*
X12939071Y7185670D01*
X12915971Y7177405D01*
X12892173Y7171444D01*
X12867904Y7167844D01*
X12843400Y7166640D01*
X12093400Y7166640D01*
X12068896Y7167844D01*
X12044627Y7171444D01*
X12020829Y7177405D01*
X11997729Y7185670D01*
X11975551Y7196160D01*
X11954507Y7208773D01*
X11934802Y7223387D01*
X11916623Y7239863D01*
X11900147Y7258042D01*
X11885533Y7277747D01*
X11872920Y7298791D01*
X11862430Y7320969D01*
X11854165Y7344069D01*
X11848204Y7367867D01*
X11844604Y7392136D01*
X11843400Y7416640D01*
X11843400Y8666640D01*
X11844604Y8691144D01*
X11848204Y8715413D01*
X11854165Y8739211D01*
X11862430Y8762311D01*
X11872920Y8784489D01*
X11885533Y8805533D01*
X11900147Y8825238D01*
X11916623Y8843417D01*
X11934802Y8859893D01*
X11954507Y8874507D01*
X11975551Y8887120D01*
X11997729Y8897610D01*
X12020829Y8905875D01*
X12044627Y8911836D01*
X12068896Y8915436D01*
X12093400Y8916640D01*
X12843400Y8916640D01*
X12867904Y8915436D01*
X12867904Y8915436D01*
G37*
D17*
X12468400Y8041640D03*
D16*
G36*
X15667904Y8915436D02*
G01*
X15692173Y8911836D01*
X15715971Y8905875D01*
X15739071Y8897610D01*
X15761249Y8887120D01*
X15782293Y8874507D01*
X15801998Y8859893D01*
X15820177Y8843417D01*
X15836653Y8825238D01*
X15851267Y8805533D01*
X15863880Y8784489D01*
X15874370Y8762311D01*
X15882635Y8739211D01*
X15888596Y8715413D01*
X15892196Y8691144D01*
X15893400Y8666640D01*
X15893400Y7416640D01*
X15892196Y7392136D01*
X15888596Y7367867D01*
X15882635Y7344069D01*
X15874370Y7320969D01*
X15863880Y7298791D01*
X15851267Y7277747D01*
X15836653Y7258042D01*
X15820177Y7239863D01*
X15801998Y7223387D01*
X15782293Y7208773D01*
X15761249Y7196160D01*
X15739071Y7185670D01*
X15715971Y7177405D01*
X15692173Y7171444D01*
X15667904Y7167844D01*
X15643400Y7166640D01*
X14893400Y7166640D01*
X14868896Y7167844D01*
X14844627Y7171444D01*
X14820829Y7177405D01*
X14797729Y7185670D01*
X14775551Y7196160D01*
X14754507Y7208773D01*
X14734802Y7223387D01*
X14716623Y7239863D01*
X14700147Y7258042D01*
X14685533Y7277747D01*
X14672920Y7298791D01*
X14662430Y7320969D01*
X14654165Y7344069D01*
X14648204Y7367867D01*
X14644604Y7392136D01*
X14643400Y7416640D01*
X14643400Y8666640D01*
X14644604Y8691144D01*
X14648204Y8715413D01*
X14654165Y8739211D01*
X14662430Y8762311D01*
X14672920Y8784489D01*
X14685533Y8805533D01*
X14700147Y8825238D01*
X14716623Y8843417D01*
X14734802Y8859893D01*
X14754507Y8874507D01*
X14775551Y8887120D01*
X14797729Y8897610D01*
X14820829Y8905875D01*
X14844627Y8911836D01*
X14868896Y8915436D01*
X14893400Y8916640D01*
X15643400Y8916640D01*
X15667904Y8915436D01*
X15667904Y8915436D01*
G37*
D17*
X15268400Y8041640D03*
D18*
X-6791960Y-2270980D02*
X-6791960Y-5300980D01*
X8560020Y13081000D02*
X-6791960Y-2270980D01*
X12366800Y13081000D02*
X8560020Y13081000D01*
X-6791960Y-8330980D02*
X-6791960Y-5300980D01*
X-9332801Y-10871821D02*
X-6791960Y-8330980D01*
X-9332801Y-23485481D02*
X-9332801Y-10871821D01*
X-9570600Y-23723280D02*
X-9332801Y-23485481D01*
X-10684200Y-23723280D02*
X-9570600Y-23723280D01*
X5113040Y686280D02*
X12468400Y8041640D01*
X5113040Y-5300980D02*
X5113040Y686280D01*
X-18696960Y-13170520D02*
X-10684200Y-21183280D01*
X-18696960Y-5300980D02*
X-18696960Y-13170520D01*
X-11547799Y-22046879D02*
X-10684200Y-21183280D01*
X-11872801Y-24846881D02*
X-11872801Y-22371881D01*
X-7573671Y-24911881D02*
X-11807801Y-24911881D01*
X-6955599Y-20399619D02*
X-6955599Y-24293809D01*
X-6955599Y-24293809D02*
X-7573671Y-24911881D01*
X5113040Y-8330980D02*
X-6955599Y-20399619D01*
X-11872801Y-22371881D02*
X-11547799Y-22046879D01*
X-11807801Y-24911881D02*
X-11872801Y-24846881D01*
X5113040Y-5300980D02*
X5113040Y-8330980D01*
X15268400Y12979400D02*
X15166800Y13081000D01*
X15268400Y8041640D02*
X15268400Y12979400D01*
M02*
