G04 #@! TF.GenerationSoftware,KiCad,Pcbnew,(5.1.2)-1*
G04 #@! TF.CreationDate,2019-07-16T22:45:59-05:00*
G04 #@! TF.ProjectId,1ktwitter,316b7477-6974-4746-9572-2e6b69636164,rev?*
G04 #@! TF.SameCoordinates,Original*
G04 #@! TF.FileFunction,Legend,Bot*
G04 #@! TF.FilePolarity,Positive*
%FSLAX46Y46*%
G04 Gerber Fmt 4.6, Leading zero omitted, Abs format (unit mm)*
G04 Created by KiCad (PCBNEW (5.1.2)-1) date 2019-07-16 22:45:59*
%MOMM*%
%LPD*%
G04 APERTURE LIST*
%ADD10C,0.700000*%
%ADD11C,0.120000*%
%ADD12C,0.150000*%
G04 APERTURE END LIST*
D10*
X-10744200Y-18369280D02*
X-15570200Y-18369280D01*
X-924560Y-18318480D02*
X-5664200Y-18318480D01*
X-15570200Y-18369280D02*
X-15570200Y-26751280D01*
X-15570200Y-26751280D02*
X-838200Y-26751280D01*
X-838200Y-26751280D02*
X-838200Y-18369280D01*
D11*
X-17261960Y-10185980D02*
X-15654870Y-10185980D01*
X-17261960Y-8300980D02*
X-17261960Y-10185980D01*
X3678040Y-8300980D02*
X3678040Y-10185980D01*
X-17261960Y-2300980D02*
X-17261960Y-415980D01*
X3678040Y-2300980D02*
X3678040Y-415980D01*
X3678040Y-10185980D02*
X2070950Y-10185980D01*
X-17261960Y-415980D02*
X-15654870Y-415980D01*
X3678040Y-415980D02*
X2070950Y-415980D01*
X-15654870Y-10185980D02*
G75*
G03X2070950Y-10185980I8862910J4885000D01*
G01*
X2073061Y-419812D02*
G75*
G03X-15654870Y-415980I-8865021J-4881168D01*
G01*
X15366800Y11946000D02*
X11481800Y11946000D01*
X11481800Y11946000D02*
X11481800Y14216000D01*
X11481800Y14216000D02*
X15366800Y14216000D01*
X14470464Y7131640D02*
X13266336Y7131640D01*
X14470464Y8951640D02*
X13266336Y8951640D01*
D12*
X-7394676Y-16043660D02*
X-8061342Y-17043660D01*
X-8061342Y-16043660D02*
X-7394676Y-17043660D01*
X-8966104Y-17043660D02*
X-8394676Y-17043660D01*
X-8680390Y-17043660D02*
X-8680390Y-16043660D01*
X-8585152Y-16186518D01*
X-8489914Y-16281756D01*
X-8394676Y-16329375D01*
X-9744200Y-19228565D02*
X-9994200Y-19978565D01*
X-10244200Y-19228565D01*
X-10922771Y-19907137D02*
X-10887057Y-19942851D01*
X-10779914Y-19978565D01*
X-10708485Y-19978565D01*
X-10601342Y-19942851D01*
X-10529914Y-19871422D01*
X-10494200Y-19799994D01*
X-10458485Y-19657137D01*
X-10458485Y-19549994D01*
X-10494200Y-19407137D01*
X-10529914Y-19335708D01*
X-10601342Y-19264280D01*
X-10708485Y-19228565D01*
X-10779914Y-19228565D01*
X-10887057Y-19264280D01*
X-10922771Y-19299994D01*
X-11672771Y-19907137D02*
X-11637057Y-19942851D01*
X-11529914Y-19978565D01*
X-11458485Y-19978565D01*
X-11351342Y-19942851D01*
X-11279914Y-19871422D01*
X-11244200Y-19799994D01*
X-11208485Y-19657137D01*
X-11208485Y-19549994D01*
X-11244200Y-19407137D01*
X-11279914Y-19335708D01*
X-11351342Y-19264280D01*
X-11458485Y-19228565D01*
X-11529914Y-19228565D01*
X-11637057Y-19264280D01*
X-11672771Y-19299994D01*
X-7293485Y-19942851D02*
X-7400628Y-19978565D01*
X-7579200Y-19978565D01*
X-7650628Y-19942851D01*
X-7686342Y-19907137D01*
X-7722057Y-19835708D01*
X-7722057Y-19764280D01*
X-7686342Y-19692851D01*
X-7650628Y-19657137D01*
X-7579200Y-19621422D01*
X-7436342Y-19585708D01*
X-7364914Y-19549994D01*
X-7329200Y-19514280D01*
X-7293485Y-19442851D01*
X-7293485Y-19371422D01*
X-7329200Y-19299994D01*
X-7364914Y-19264280D01*
X-7436342Y-19228565D01*
X-7614914Y-19228565D01*
X-7722057Y-19264280D01*
X-8043485Y-19978565D02*
X-8043485Y-19228565D01*
X-8222057Y-19228565D01*
X-8329200Y-19264280D01*
X-8400628Y-19335708D01*
X-8436342Y-19407137D01*
X-8472057Y-19549994D01*
X-8472057Y-19657137D01*
X-8436342Y-19799994D01*
X-8400628Y-19871422D01*
X-8329200Y-19942851D01*
X-8222057Y-19978565D01*
X-8043485Y-19978565D01*
X-8757771Y-19764280D02*
X-9114914Y-19764280D01*
X-8686342Y-19978565D02*
X-8936342Y-19228565D01*
X-9186342Y-19978565D01*
X-3160057Y-19264280D02*
X-3088628Y-19228565D01*
X-2981485Y-19228565D01*
X-2874342Y-19264280D01*
X-2802914Y-19335708D01*
X-2767200Y-19407137D01*
X-2731485Y-19549994D01*
X-2731485Y-19657137D01*
X-2767200Y-19799994D01*
X-2802914Y-19871422D01*
X-2874342Y-19942851D01*
X-2981485Y-19978565D01*
X-3052914Y-19978565D01*
X-3160057Y-19942851D01*
X-3195771Y-19907137D01*
X-3195771Y-19657137D01*
X-3052914Y-19657137D01*
X-3517200Y-19978565D02*
X-3517200Y-19228565D01*
X-3802914Y-19228565D01*
X-3874342Y-19264280D01*
X-3910057Y-19299994D01*
X-3945771Y-19371422D01*
X-3945771Y-19478565D01*
X-3910057Y-19549994D01*
X-3874342Y-19585708D01*
X-3802914Y-19621422D01*
X-3517200Y-19621422D01*
X-4267200Y-19978565D02*
X-4267200Y-19228565D01*
X-4767200Y-19228565D02*
X-4910057Y-19228565D01*
X-4981485Y-19264280D01*
X-5052914Y-19335708D01*
X-5088628Y-19478565D01*
X-5088628Y-19728565D01*
X-5052914Y-19871422D01*
X-4981485Y-19942851D01*
X-4910057Y-19978565D01*
X-4767200Y-19978565D01*
X-4695771Y-19942851D01*
X-4624342Y-19871422D01*
X-4588628Y-19728565D01*
X-4588628Y-19478565D01*
X-4624342Y-19335708D01*
X-4695771Y-19264280D01*
X-4767200Y-19228565D01*
X-5802914Y-19978565D02*
X-5374342Y-19978565D01*
X-5588628Y-19978565D02*
X-5588628Y-19228565D01*
X-5517200Y-19335708D01*
X-5445771Y-19407137D01*
X-5374342Y-19442851D01*
X-10172771Y-25106280D02*
X-10101342Y-25070565D01*
X-9994200Y-25070565D01*
X-9887057Y-25106280D01*
X-9815628Y-25177708D01*
X-9779914Y-25249137D01*
X-9744200Y-25391994D01*
X-9744200Y-25499137D01*
X-9779914Y-25641994D01*
X-9815628Y-25713422D01*
X-9887057Y-25784851D01*
X-9994200Y-25820565D01*
X-10065628Y-25820565D01*
X-10172771Y-25784851D01*
X-10208485Y-25749137D01*
X-10208485Y-25499137D01*
X-10065628Y-25499137D01*
X-10529914Y-25820565D02*
X-10529914Y-25070565D01*
X-10958485Y-25820565D01*
X-10958485Y-25070565D01*
X-11315628Y-25820565D02*
X-11315628Y-25070565D01*
X-11494199Y-25070565D01*
X-11601342Y-25106280D01*
X-11672771Y-25177708D01*
X-11708485Y-25249137D01*
X-11744199Y-25391994D01*
X-11744199Y-25499137D01*
X-11708485Y-25641994D01*
X-11672771Y-25713422D01*
X-11601342Y-25784851D01*
X-11494199Y-25820565D01*
X-11315628Y-25820565D01*
X-7311342Y-25784851D02*
X-7418485Y-25820565D01*
X-7597057Y-25820565D01*
X-7668485Y-25784851D01*
X-7704200Y-25749137D01*
X-7739914Y-25677708D01*
X-7739914Y-25606280D01*
X-7704200Y-25534851D01*
X-7668485Y-25499137D01*
X-7597057Y-25463422D01*
X-7454200Y-25427708D01*
X-7382771Y-25391994D01*
X-7347057Y-25356280D01*
X-7311342Y-25284851D01*
X-7311342Y-25213422D01*
X-7347057Y-25141994D01*
X-7382771Y-25106280D01*
X-7454200Y-25070565D01*
X-7632771Y-25070565D01*
X-7739914Y-25106280D01*
X-8489914Y-25749137D02*
X-8454200Y-25784851D01*
X-8347057Y-25820565D01*
X-8275628Y-25820565D01*
X-8168485Y-25784851D01*
X-8097057Y-25713422D01*
X-8061342Y-25641994D01*
X-8025628Y-25499137D01*
X-8025628Y-25391994D01*
X-8061342Y-25249137D01*
X-8097057Y-25177708D01*
X-8168485Y-25106280D01*
X-8275628Y-25070565D01*
X-8347057Y-25070565D01*
X-8454200Y-25106280D01*
X-8489914Y-25141994D01*
X-9168485Y-25820565D02*
X-8811342Y-25820565D01*
X-8811342Y-25070565D01*
X-3160057Y-25106280D02*
X-3088628Y-25070565D01*
X-2981485Y-25070565D01*
X-2874342Y-25106280D01*
X-2802914Y-25177708D01*
X-2767200Y-25249137D01*
X-2731485Y-25391994D01*
X-2731485Y-25499137D01*
X-2767200Y-25641994D01*
X-2802914Y-25713422D01*
X-2874342Y-25784851D01*
X-2981485Y-25820565D01*
X-3052914Y-25820565D01*
X-3160057Y-25784851D01*
X-3195771Y-25749137D01*
X-3195771Y-25499137D01*
X-3052914Y-25499137D01*
X-3517200Y-25820565D02*
X-3517200Y-25070565D01*
X-3802914Y-25070565D01*
X-3874342Y-25106280D01*
X-3910057Y-25141994D01*
X-3945771Y-25213422D01*
X-3945771Y-25320565D01*
X-3910057Y-25391994D01*
X-3874342Y-25427708D01*
X-3802914Y-25463422D01*
X-3517200Y-25463422D01*
X-4267200Y-25820565D02*
X-4267200Y-25070565D01*
X-4767200Y-25070565D02*
X-4910057Y-25070565D01*
X-4981485Y-25106280D01*
X-5052914Y-25177708D01*
X-5088628Y-25320565D01*
X-5088628Y-25570565D01*
X-5052914Y-25713422D01*
X-4981485Y-25784851D01*
X-4910057Y-25820565D01*
X-4767200Y-25820565D01*
X-4695771Y-25784851D01*
X-4624342Y-25713422D01*
X-4588628Y-25570565D01*
X-4588628Y-25320565D01*
X-4624342Y-25177708D01*
X-4695771Y-25106280D01*
X-4767200Y-25070565D01*
X-5374342Y-25141994D02*
X-5410057Y-25106280D01*
X-5481485Y-25070565D01*
X-5660057Y-25070565D01*
X-5731485Y-25106280D01*
X-5767200Y-25141994D01*
X-5802914Y-25213422D01*
X-5802914Y-25284851D01*
X-5767200Y-25391994D01*
X-5338628Y-25820565D01*
X-5802914Y-25820565D01*
X-6006245Y-16429551D02*
X-6149102Y-16477170D01*
X-6196721Y-16524789D01*
X-6244340Y-16620027D01*
X-6244340Y-16762884D01*
X-6196721Y-16858122D01*
X-6149102Y-16905741D01*
X-6053864Y-16953360D01*
X-5672912Y-16953360D01*
X-5672912Y-15953360D01*
X-6006245Y-15953360D01*
X-6101483Y-16000980D01*
X-6149102Y-16048599D01*
X-6196721Y-16143837D01*
X-6196721Y-16239075D01*
X-6149102Y-16334313D01*
X-6101483Y-16381932D01*
X-6006245Y-16429551D01*
X-5672912Y-16429551D01*
X-6530055Y-15953360D02*
X-7101483Y-15953360D01*
X-6815769Y-16953360D02*
X-6815769Y-15953360D01*
X-7958626Y-16953360D02*
X-7387198Y-16953360D01*
X-7672912Y-16953360D02*
X-7672912Y-15953360D01*
X-7577674Y-16096218D01*
X-7482436Y-16191456D01*
X-7387198Y-16239075D01*
X14504895Y10808619D02*
X14504895Y11808619D01*
X14266800Y11808619D01*
X14123942Y11761000D01*
X14028704Y11665761D01*
X13981085Y11570523D01*
X13933466Y11380047D01*
X13933466Y11237190D01*
X13981085Y11046714D01*
X14028704Y10951476D01*
X14123942Y10856238D01*
X14266800Y10808619D01*
X14504895Y10808619D01*
X13552514Y11713380D02*
X13504895Y11761000D01*
X13409657Y11808619D01*
X13171561Y11808619D01*
X13076323Y11761000D01*
X13028704Y11713380D01*
X12981085Y11618142D01*
X12981085Y11522904D01*
X13028704Y11380047D01*
X13600133Y10808619D01*
X12981085Y10808619D01*
X14035066Y9409259D02*
X14368400Y9885449D01*
X14606495Y9409259D02*
X14606495Y10409259D01*
X14225542Y10409259D01*
X14130304Y10361640D01*
X14082685Y10314020D01*
X14035066Y10218782D01*
X14035066Y10075925D01*
X14082685Y9980687D01*
X14130304Y9933068D01*
X14225542Y9885449D01*
X14606495Y9885449D01*
X13654114Y10314020D02*
X13606495Y10361640D01*
X13511257Y10409259D01*
X13273161Y10409259D01*
X13177923Y10361640D01*
X13130304Y10314020D01*
X13082685Y10218782D01*
X13082685Y10123544D01*
X13130304Y9980687D01*
X13701733Y9409259D01*
X13082685Y9409259D01*
M02*
