G04 #@! TF.GenerationSoftware,KiCad,Pcbnew,(5.1.2)-1*
G04 #@! TF.CreationDate,2019-07-16T22:45:59-05:00*
G04 #@! TF.ProjectId,1ktwitter,316b7477-6974-4746-9572-2e6b69636164,rev?*
G04 #@! TF.SameCoordinates,Original*
G04 #@! TF.FileFunction,Profile,NP*
%FSLAX46Y46*%
G04 Gerber Fmt 4.6, Leading zero omitted, Abs format (unit mm)*
G04 Created by KiCad (PCBNEW (5.1.2)-1) date 2019-07-16 22:45:59*
%MOMM*%
%LPD*%
G04 APERTURE LIST*
%ADD10C,0.100000*%
G04 APERTURE END LIST*
D10*
X32920418Y18101104D02*
X32882296Y18183863D01*
X32882296Y18183863D02*
X32832733Y18253436D01*
X32832733Y18253436D02*
X32770706Y18309661D01*
X32770706Y18309661D02*
X32695191Y18352375D01*
X32695191Y18352375D02*
X32605166Y18381416D01*
X32605166Y18381416D02*
X32499606Y18396621D01*
X32499606Y18396621D02*
X32237793Y18384870D01*
X32237793Y18384870D02*
X31901565Y18315820D01*
X31901565Y18315820D02*
X31482738Y18188168D01*
X31482738Y18188168D02*
X30973126Y18000614D01*
X30973126Y18000614D02*
X30364543Y17751854D01*
X30364543Y17751854D02*
X29837251Y17527433D01*
X29837251Y17527433D02*
X29304098Y17317613D01*
X29304098Y17317613D02*
X28765386Y17122506D01*
X28765386Y17122506D02*
X28221418Y16942229D01*
X28221418Y16942229D02*
X28049552Y16909921D01*
X28049552Y16909921D02*
X27933932Y16904030D01*
X27933932Y16904030D02*
X27898666Y16914595D01*
X27898666Y16914595D02*
X27879206Y16936090D01*
X27879206Y16936090D02*
X27876133Y16969956D01*
X27876133Y16969956D02*
X27890027Y17017635D01*
X27890027Y17017635D02*
X27971046Y17160200D01*
X27971046Y17160200D02*
X28126912Y17375319D01*
X28126912Y17375319D02*
X28681793Y18069354D01*
X28681793Y18069354D02*
X28991553Y18464459D01*
X28991553Y18464459D02*
X29283152Y18862339D01*
X29283152Y18862339D02*
X29555542Y19260560D01*
X29555542Y19260560D02*
X29807678Y19656689D01*
X29807678Y19656689D02*
X30038513Y20048290D01*
X30038513Y20048290D02*
X30247000Y20432931D01*
X30247000Y20432931D02*
X30432093Y20808177D01*
X30432093Y20808177D02*
X30592746Y21171594D01*
X30592746Y21171594D02*
X30727912Y21520748D01*
X30727912Y21520748D02*
X30836545Y21853206D01*
X30836545Y21853206D02*
X30917598Y22166533D01*
X30917598Y22166533D02*
X30970025Y22458296D01*
X30970025Y22458296D02*
X30992780Y22726060D01*
X30992780Y22726060D02*
X30984815Y22967391D01*
X30984815Y22967391D02*
X30945085Y23179856D01*
X30945085Y23179856D02*
X30872543Y23361021D01*
X30872543Y23361021D02*
X30740541Y23559396D01*
X30740541Y23559396D02*
X30665625Y23632609D01*
X30665625Y23632609D02*
X30581501Y23687947D01*
X30581501Y23687947D02*
X30485719Y23724991D01*
X30485719Y23724991D02*
X30375829Y23743323D01*
X30375829Y23743323D02*
X30249382Y23742525D01*
X30249382Y23742525D02*
X30103928Y23722177D01*
X30103928Y23722177D02*
X29746203Y23621160D01*
X29746203Y23621160D02*
X29283058Y23436923D01*
X29283058Y23436923D02*
X28694898Y23166118D01*
X28694898Y23166118D02*
X27962126Y22805396D01*
X27962126Y22805396D02*
X27180809Y22437139D01*
X27180809Y22437139D02*
X26310382Y22059023D01*
X26310382Y22059023D02*
X25400143Y21689464D01*
X25400143Y21689464D02*
X24499392Y21346880D01*
X24499392Y21346880D02*
X23657428Y21049689D01*
X23657428Y21049689D02*
X22923550Y20816308D01*
X22923550Y20816308D02*
X22347058Y20665155D01*
X22347058Y20665155D02*
X22133238Y20626169D01*
X22133238Y20626169D02*
X21977251Y20614646D01*
X21977251Y20614646D02*
X21881629Y20634800D01*
X21881629Y20634800D02*
X21742103Y20692533D01*
X21742103Y20692533D02*
X21358126Y20904365D01*
X21358126Y20904365D02*
X20878899Y21217400D01*
X20878899Y21217400D02*
X20358001Y21598896D01*
X20358001Y21598896D02*
X19830611Y21983725D01*
X19830611Y21983725D02*
X19296267Y22344401D01*
X19296267Y22344401D02*
X18755087Y22680830D01*
X18755087Y22680830D02*
X18207187Y22992919D01*
X18207187Y22992919D02*
X17652682Y23280576D01*
X17652682Y23280576D02*
X17091689Y23543707D01*
X17091689Y23543707D02*
X16524324Y23782220D01*
X16524324Y23782220D02*
X15950704Y23996021D01*
X15950704Y23996021D02*
X15370945Y24185017D01*
X15370945Y24185017D02*
X14785163Y24349116D01*
X14785163Y24349116D02*
X14193474Y24488223D01*
X14193474Y24488223D02*
X13595995Y24602247D01*
X13595995Y24602247D02*
X12992842Y24691095D01*
X12992842Y24691095D02*
X12384131Y24754672D01*
X12384131Y24754672D02*
X11769979Y24792887D01*
X11769979Y24792887D02*
X11150501Y24805646D01*
X11150501Y24805646D02*
X10348038Y24795817D01*
X10348038Y24795817D02*
X9636175Y24762734D01*
X9636175Y24762734D02*
X8986447Y24701001D01*
X8986447Y24701001D02*
X8370392Y24605224D01*
X8370392Y24605224D02*
X7759545Y24470008D01*
X7759545Y24470008D02*
X7125444Y24289957D01*
X7125444Y24289957D02*
X6439626Y24059676D01*
X6439626Y24059676D02*
X5673626Y23773771D01*
X5673626Y23773771D02*
X5133101Y23555574D01*
X5133101Y23555574D02*
X4608855Y23323125D01*
X4608855Y23323125D02*
X4100843Y23076371D01*
X4100843Y23076371D02*
X3609018Y22815261D01*
X3609018Y22815261D02*
X3133336Y22539743D01*
X3133336Y22539743D02*
X2673751Y22249765D01*
X2673751Y22249765D02*
X2230217Y21945276D01*
X2230217Y21945276D02*
X1802689Y21626223D01*
X1802689Y21626223D02*
X1391122Y21292554D01*
X1391122Y21292554D02*
X995469Y20944218D01*
X995469Y20944218D02*
X615685Y20581163D01*
X615685Y20581163D02*
X251725Y20203338D01*
X251725Y20203338D02*
X-96458Y19810689D01*
X-96458Y19810689D02*
X-428907Y19403166D01*
X-428907Y19403166D02*
X-745669Y18980717D01*
X-745669Y18980717D02*
X-1046791Y18543289D01*
X-1046791Y18543289D02*
X-1332316Y18090831D01*
X-1332316Y18090831D02*
X-1602290Y17623292D01*
X-1602290Y17623292D02*
X-1856760Y17140618D01*
X-1856760Y17140618D02*
X-2095770Y16642759D01*
X-2095770Y16642759D02*
X-2319367Y16129663D01*
X-2319367Y16129663D02*
X-2527596Y15601277D01*
X-2527596Y15601277D02*
X-2720501Y15057550D01*
X-2720501Y15057550D02*
X-2898130Y14498430D01*
X-2898130Y14498430D02*
X-3060527Y13923865D01*
X-3060527Y13923865D02*
X-3207738Y13333804D01*
X-3207738Y13333804D02*
X-3339808Y12728194D01*
X-3339808Y12728194D02*
X-3456783Y12106984D01*
X-3456783Y12106984D02*
X-3558709Y11470122D01*
X-3558709Y11470122D02*
X-3645631Y10817556D01*
X-3645631Y10817556D02*
X-3717594Y10149234D01*
X-3717594Y10149234D02*
X-3774645Y9465104D01*
X-3774645Y9465104D02*
X-3901645Y7750604D01*
X-3901645Y7750604D02*
X-4727145Y7845854D01*
X-4727145Y7845854D02*
X-6223333Y8028484D01*
X-6223333Y8028484D02*
X-7494604Y8211516D01*
X-7494604Y8211516D02*
X-8635278Y8419168D01*
X-8635278Y8419168D02*
X-9739676Y8675654D01*
X-9739676Y8675654D02*
X-10902117Y9005189D01*
X-10902117Y9005189D02*
X-12216920Y9431990D01*
X-12216920Y9431990D02*
X-13778406Y9980272D01*
X-13778406Y9980272D02*
X-15680895Y10674250D01*
X-15680895Y10674250D02*
X-16723551Y11079444D01*
X-16723551Y11079444D02*
X-17730806Y11502427D01*
X-17730806Y11502427D02*
X-18705024Y11944928D01*
X-18705024Y11944928D02*
X-19648570Y12408677D01*
X-19648570Y12408677D02*
X-20563807Y12895400D01*
X-20563807Y12895400D02*
X-21453100Y13406827D01*
X-21453100Y13406827D02*
X-22318814Y13944687D01*
X-22318814Y13944687D02*
X-23163311Y14510708D01*
X-23163311Y14510708D02*
X-23988957Y15106619D01*
X-23988957Y15106619D02*
X-24798116Y15734148D01*
X-24798116Y15734148D02*
X-25593151Y16395023D01*
X-25593151Y16395023D02*
X-26376428Y17090975D01*
X-26376428Y17090975D02*
X-27150309Y17823730D01*
X-27150309Y17823730D02*
X-27917161Y18595017D01*
X-27917161Y18595017D02*
X-28679345Y19406566D01*
X-28679345Y19406566D02*
X-29439228Y20260104D01*
X-29439228Y20260104D02*
X-30241329Y21155615D01*
X-30241329Y21155615D02*
X-30580972Y21500424D01*
X-30580972Y21500424D02*
X-30885672Y21774678D01*
X-30885672Y21774678D02*
X-31159924Y21976937D01*
X-31159924Y21976937D02*
X-31408224Y22105759D01*
X-31408224Y22105759D02*
X-31524047Y22142180D01*
X-31524047Y22142180D02*
X-31635068Y22159701D01*
X-31635068Y22159701D02*
X-31741849Y22158142D01*
X-31741849Y22158142D02*
X-31844952Y22137323D01*
X-31844952Y22137323D02*
X-31944939Y22097063D01*
X-31944939Y22097063D02*
X-32042371Y22037182D01*
X-32042371Y22037182D02*
X-32137812Y21957499D01*
X-32137812Y21957499D02*
X-32231822Y21857836D01*
X-32231822Y21857836D02*
X-32417801Y21597844D01*
X-32417801Y21597844D02*
X-32604802Y21255764D01*
X-32604802Y21255764D02*
X-32797323Y20830154D01*
X-32797323Y20830154D02*
X-32999858Y20319573D01*
X-32999858Y20319573D02*
X-33452957Y19037729D01*
X-33452957Y19037729D02*
X-33659363Y18424154D01*
X-33659363Y18424154D02*
X-33818330Y17909364D01*
X-33818330Y17909364D02*
X-33935997Y17446291D01*
X-33935997Y17446291D02*
X-34018504Y16987870D01*
X-34018504Y16987870D02*
X-34071989Y16487032D01*
X-34071989Y16487032D02*
X-34102592Y15896711D01*
X-34102592Y15896711D02*
X-34119707Y14259354D01*
X-34119707Y14259354D02*
X-34113673Y12648703D01*
X-34113673Y12648703D02*
X-34090409Y12064139D01*
X-34090409Y12064139D02*
X-34047610Y11573833D01*
X-34047610Y11573833D02*
X-33980750Y11138098D01*
X-33980750Y11138098D02*
X-33885303Y10717245D01*
X-33885303Y10717245D02*
X-33756742Y10271588D01*
X-33756742Y10271588D02*
X-33590540Y9761438D01*
X-33590540Y9761438D02*
X-33346850Y9098475D01*
X-33346850Y9098475D02*
X-33073214Y8448530D01*
X-33073214Y8448530D02*
X-32770186Y7812583D01*
X-32770186Y7812583D02*
X-32438321Y7191618D01*
X-32438321Y7191618D02*
X-32078173Y6586617D01*
X-32078173Y6586617D02*
X-31690298Y5998564D01*
X-31690298Y5998564D02*
X-31275249Y5428440D01*
X-31275249Y5428440D02*
X-30833582Y4877229D01*
X-30833582Y4877229D02*
X-30529322Y4494555D01*
X-30529322Y4494555D02*
X-30346170Y4214944D01*
X-30346170Y4214944D02*
X-30301580Y4113438D01*
X-30301580Y4113438D02*
X-30289150Y4037280D01*
X-30289150Y4037280D02*
X-30309509Y3986330D01*
X-30309509Y3986330D02*
X-30363285Y3960448D01*
X-30363285Y3960448D02*
X-30451105Y3959494D01*
X-30451105Y3959494D02*
X-30573598Y3983330D01*
X-30573598Y3983330D02*
X-30925111Y4104811D01*
X-30925111Y4104811D02*
X-31422848Y4323774D01*
X-31422848Y4323774D02*
X-32071832Y4639104D01*
X-32071832Y4639104D02*
X-32459200Y4826953D01*
X-32459200Y4826953D02*
X-32806640Y4978804D01*
X-32806640Y4978804D02*
X-33115524Y5093262D01*
X-33115524Y5093262D02*
X-33387225Y5168932D01*
X-33387225Y5168932D02*
X-33623113Y5204418D01*
X-33623113Y5204418D02*
X-33824562Y5198326D01*
X-33824562Y5198326D02*
X-33992943Y5149259D01*
X-33992943Y5149259D02*
X-34129629Y5055823D01*
X-34129629Y5055823D02*
X-34235991Y4916622D01*
X-34235991Y4916622D02*
X-34313401Y4730261D01*
X-34313401Y4730261D02*
X-34363231Y4495345D01*
X-34363231Y4495345D02*
X-34386853Y4210479D01*
X-34386853Y4210479D02*
X-34385640Y3874267D01*
X-34385640Y3874267D02*
X-34360964Y3485314D01*
X-34360964Y3485314D02*
X-34246707Y2543604D01*
X-34246707Y2543604D02*
X-34088390Y1607553D01*
X-34088390Y1607553D02*
X-33892486Y709173D01*
X-33892486Y709173D02*
X-33657871Y-153301D01*
X-33657871Y-153301D02*
X-33383421Y-981638D01*
X-33383421Y-981638D02*
X-33068013Y-1777605D01*
X-33068013Y-1777605D02*
X-32710522Y-2542969D01*
X-32710522Y-2542969D02*
X-32309824Y-3279498D01*
X-32309824Y-3279498D02*
X-31864795Y-3988959D01*
X-31864795Y-3988959D02*
X-31374313Y-4673118D01*
X-31374313Y-4673118D02*
X-30837251Y-5333745D01*
X-30837251Y-5333745D02*
X-30252487Y-5972605D01*
X-30252487Y-5972605D02*
X-29618896Y-6591466D01*
X-29618896Y-6591466D02*
X-28935355Y-7192096D01*
X-28935355Y-7192096D02*
X-28200740Y-7776262D01*
X-28200740Y-7776262D02*
X-27413926Y-8345731D01*
X-27413926Y-8345731D02*
X-26573790Y-8902271D01*
X-26573790Y-8902271D02*
X-26481672Y-8971807D01*
X-26481672Y-8971807D02*
X-26435132Y-9026956D01*
X-26435132Y-9026956D02*
X-26439566Y-9069703D01*
X-26439566Y-9069703D02*
X-26500368Y-9102031D01*
X-26500368Y-9102031D02*
X-26622934Y-9125927D01*
X-26622934Y-9125927D02*
X-26812659Y-9143372D01*
X-26812659Y-9143372D02*
X-27415165Y-9166854D01*
X-27415165Y-9166854D02*
X-28015438Y-9186450D01*
X-28015438Y-9186450D02*
X-28247858Y-9212898D01*
X-28247858Y-9212898D02*
X-28443071Y-9252182D01*
X-28443071Y-9252182D02*
X-28607030Y-9305605D01*
X-28607030Y-9305605D02*
X-28745688Y-9374469D01*
X-28745688Y-9374469D02*
X-28864999Y-9460076D01*
X-28864999Y-9460076D02*
X-28970915Y-9563729D01*
X-28970915Y-9563729D02*
X-29080149Y-9690047D01*
X-29080149Y-9690047D02*
X-29157198Y-9806319D01*
X-29157198Y-9806319D02*
X-29201134Y-9929288D01*
X-29201134Y-9929288D02*
X-29211025Y-10075698D01*
X-29211025Y-10075698D02*
X-29185942Y-10262291D01*
X-29185942Y-10262291D02*
X-29124954Y-10505811D01*
X-29124954Y-10505811D02*
X-28891545Y-11230604D01*
X-28891545Y-11230604D02*
X-28623259Y-11952453D01*
X-28623259Y-11952453D02*
X-28307209Y-12652915D01*
X-28307209Y-12652915D02*
X-27944370Y-13331069D01*
X-27944370Y-13331069D02*
X-27535721Y-13985991D01*
X-27535721Y-13985991D02*
X-27082237Y-14616760D01*
X-27082237Y-14616760D02*
X-26584895Y-15222453D01*
X-26584895Y-15222453D02*
X-26044672Y-15802148D01*
X-26044672Y-15802148D02*
X-25462545Y-16354922D01*
X-25462545Y-16354922D02*
X-24839490Y-16879852D01*
X-24839490Y-16879852D02*
X-24176484Y-17376017D01*
X-24176484Y-17376017D02*
X-23474504Y-17842494D01*
X-23474504Y-17842494D02*
X-22734525Y-18278360D01*
X-22734525Y-18278360D02*
X-21957526Y-18682693D01*
X-21957526Y-18682693D02*
X-21144483Y-19054571D01*
X-21144483Y-19054571D02*
X-20296372Y-19393071D01*
X-20296372Y-19393071D02*
X-19414170Y-19697271D01*
X-19414170Y-19697271D02*
X-18394201Y-20058427D01*
X-18394201Y-20058427D02*
X-18083647Y-20189892D01*
X-18083647Y-20189892D02*
X-17999063Y-20236835D01*
X-17999063Y-20236835D02*
X-17969545Y-20268771D01*
X-17969545Y-20268771D02*
X-17992063Y-20315215D01*
X-17992063Y-20315215D02*
X-18057416Y-20381860D01*
X-18057416Y-20381860D02*
X-18303416Y-20568246D01*
X-18303416Y-20568246D02*
X-18681129Y-20812924D01*
X-18681129Y-20812924D02*
X-19164139Y-21100885D01*
X-19164139Y-21100885D02*
X-20340377Y-21746634D01*
X-20340377Y-21746634D02*
X-20980772Y-22074407D01*
X-20980772Y-22074407D02*
X-21620795Y-22385437D01*
X-21620795Y-22385437D02*
X-22201819Y-22635441D01*
X-22201819Y-22635441D02*
X-22839243Y-22878585D01*
X-22839243Y-22878585D02*
X-23526586Y-23113590D01*
X-23526586Y-23113590D02*
X-24257368Y-23339177D01*
X-24257368Y-23339177D02*
X-25025109Y-23554067D01*
X-25025109Y-23554067D02*
X-25823329Y-23756981D01*
X-25823329Y-23756981D02*
X-26645548Y-23946640D01*
X-26645548Y-23946640D02*
X-27485285Y-24121765D01*
X-27485285Y-24121765D02*
X-28336060Y-24281077D01*
X-28336060Y-24281077D02*
X-29191392Y-24423297D01*
X-29191392Y-24423297D02*
X-30044803Y-24547146D01*
X-30044803Y-24547146D02*
X-30889811Y-24651345D01*
X-30889811Y-24651345D02*
X-31719936Y-24734615D01*
X-31719936Y-24734615D02*
X-32528698Y-24795677D01*
X-32528698Y-24795677D02*
X-33309617Y-24833253D01*
X-33309617Y-24833253D02*
X-34056212Y-24846062D01*
X-34056212Y-24846062D02*
X-34986884Y-24861193D01*
X-34986884Y-24861193D02*
X-35321995Y-24883734D01*
X-35321995Y-24883734D02*
X-35588149Y-24919484D01*
X-35588149Y-24919484D02*
X-35798741Y-24970861D01*
X-35798741Y-24970861D02*
X-35967165Y-25040283D01*
X-35967165Y-25040283D02*
X-36106815Y-25130169D01*
X-36106815Y-25130169D02*
X-36231087Y-25242937D01*
X-36231087Y-25242937D02*
X-36357675Y-25369995D01*
X-36357675Y-25369995D02*
X-36466817Y-25511427D01*
X-36466817Y-25511427D02*
X-36557313Y-25665458D01*
X-36557313Y-25665458D02*
X-36627962Y-25830312D01*
X-36627962Y-25830312D02*
X-36616339Y-25918931D01*
X-36616339Y-25918931D02*
X-36581112Y-26012409D01*
X-36581112Y-26012409D02*
X-36521748Y-26111144D01*
X-36521748Y-26111144D02*
X-36437710Y-26215529D01*
X-36437710Y-26215529D02*
X-36193477Y-26442833D01*
X-36193477Y-26442833D02*
X-35844134Y-26697484D01*
X-35844134Y-26697484D02*
X-35385402Y-26982644D01*
X-35385402Y-26982644D02*
X-34813003Y-27301477D01*
X-34813003Y-27301477D02*
X-34122658Y-27657145D01*
X-34122658Y-27657145D02*
X-33310087Y-28052810D01*
X-33310087Y-28052810D02*
X-32526477Y-28414182D01*
X-32526477Y-28414182D02*
X-31736635Y-28760358D01*
X-31736635Y-28760358D02*
X-30940785Y-29091271D01*
X-30940785Y-29091271D02*
X-30139149Y-29406856D01*
X-30139149Y-29406856D02*
X-29331952Y-29707044D01*
X-29331952Y-29707044D02*
X-28519418Y-29991771D01*
X-28519418Y-29991771D02*
X-27701769Y-30260968D01*
X-27701769Y-30260968D02*
X-26879230Y-30514570D01*
X-26879230Y-30514570D02*
X-26052025Y-30752509D01*
X-26052025Y-30752509D02*
X-25220377Y-30974719D01*
X-25220377Y-30974719D02*
X-24384509Y-31181134D01*
X-24384509Y-31181134D02*
X-23544646Y-31371686D01*
X-23544646Y-31371686D02*
X-22701011Y-31546310D01*
X-22701011Y-31546310D02*
X-21853828Y-31704937D01*
X-21853828Y-31704937D02*
X-21003321Y-31847503D01*
X-21003321Y-31847503D02*
X-20149712Y-31973940D01*
X-20149712Y-31973940D02*
X-19680055Y-32023627D01*
X-19680055Y-32023627D02*
X-19118984Y-32065593D01*
X-19118984Y-32065593D02*
X-17773671Y-32126736D01*
X-17773671Y-32126736D02*
X-16215906Y-32158112D01*
X-16215906Y-32158112D02*
X-14547821Y-32160466D01*
X-14547821Y-32160466D02*
X-12871552Y-32134542D01*
X-12871552Y-32134542D02*
X-11289230Y-32081084D01*
X-11289230Y-32081084D02*
X-9902989Y-32000835D01*
X-9902989Y-32000835D02*
X-9315315Y-31950897D01*
X-9315315Y-31950897D02*
X-8814962Y-31894540D01*
X-8814962Y-31894540D02*
X-7382042Y-31687846D01*
X-7382042Y-31687846D02*
X-5961330Y-31428477D01*
X-5961330Y-31428477D02*
X-4554185Y-31117042D01*
X-4554185Y-31117042D02*
X-3161965Y-30754150D01*
X-3161965Y-30754150D02*
X-1786029Y-30340411D01*
X-1786029Y-30340411D02*
X-427734Y-29876434D01*
X-427734Y-29876434D02*
X911560Y-29362829D01*
X911560Y-29362829D02*
X2230495Y-28800205D01*
X2230495Y-28800205D02*
X3527713Y-28189172D01*
X3527713Y-28189172D02*
X4801855Y-27530338D01*
X4801855Y-27530338D02*
X6051562Y-26824314D01*
X6051562Y-26824314D02*
X7275477Y-26071709D01*
X7275477Y-26071709D02*
X8472240Y-25273133D01*
X8472240Y-25273133D02*
X9640494Y-24429194D01*
X9640494Y-24429194D02*
X10778879Y-23540502D01*
X10778879Y-23540502D02*
X11886038Y-22607667D01*
X11886038Y-22607667D02*
X12722578Y-21872898D01*
X12722578Y-21872898D02*
X13536312Y-21117691D01*
X13536312Y-21117691D02*
X14326989Y-20342594D01*
X14326989Y-20342594D02*
X15094356Y-19548156D01*
X15094356Y-19548156D02*
X15838161Y-18734926D01*
X15838161Y-18734926D02*
X16558153Y-17903451D01*
X16558153Y-17903451D02*
X17254079Y-17054280D01*
X17254079Y-17054280D02*
X17925689Y-16187962D01*
X17925689Y-16187962D02*
X18572729Y-15305044D01*
X18572729Y-15305044D02*
X19194948Y-14406076D01*
X19194948Y-14406076D02*
X19792094Y-13491606D01*
X19792094Y-13491606D02*
X20363915Y-12562181D01*
X20363915Y-12562181D02*
X20910160Y-11618351D01*
X20910160Y-11618351D02*
X21430575Y-10660664D01*
X21430575Y-10660664D02*
X21924910Y-9689668D01*
X21924910Y-9689668D02*
X22392913Y-8705911D01*
X22392913Y-8705911D02*
X22834331Y-7709942D01*
X22834331Y-7709942D02*
X23248912Y-6702310D01*
X23248912Y-6702310D02*
X23636406Y-5683563D01*
X23636406Y-5683563D02*
X23996559Y-4654248D01*
X23996559Y-4654248D02*
X24329120Y-3614916D01*
X24329120Y-3614916D02*
X24633837Y-2566113D01*
X24633837Y-2566113D02*
X24910458Y-1508388D01*
X24910458Y-1508388D02*
X25158731Y-442290D01*
X25158731Y-442290D02*
X25378404Y631632D01*
X25378404Y631632D02*
X25569226Y1712832D01*
X25569226Y1712832D02*
X25730944Y2800759D01*
X25730944Y2800759D02*
X25863306Y3894866D01*
X25863306Y3894866D02*
X25966061Y4994605D01*
X25966061Y4994605D02*
X26038957Y6099426D01*
X26038957Y6099426D02*
X26081742Y7208782D01*
X26081742Y7208782D02*
X26094163Y8322124D01*
X26094163Y8322124D02*
X26094163Y9830249D01*
X26094163Y9830249D02*
X27459413Y10846249D01*
X27459413Y10846249D02*
X28115711Y11371856D01*
X28115711Y11371856D02*
X28750238Y11922082D01*
X28750238Y11922082D02*
X29362332Y12496227D01*
X29362332Y12496227D02*
X29951332Y13093596D01*
X29951332Y13093596D02*
X30516576Y13713491D01*
X30516576Y13713491D02*
X31057403Y14355213D01*
X31057403Y14355213D02*
X31573153Y15018066D01*
X31573153Y15018066D02*
X32063163Y15701353D01*
X32063163Y15701353D02*
X32383236Y16171159D01*
X32383236Y16171159D02*
X32632431Y16564101D01*
X32632431Y16564101D02*
X32815768Y16894350D01*
X32815768Y16894350D02*
X32938272Y17176074D01*
X32938272Y17176074D02*
X33004966Y17423444D01*
X33004966Y17423444D02*
X33020872Y17650630D01*
X33020872Y17650630D02*
X32991013Y17871799D01*
X32991013Y17871799D02*
X32920413Y18101124D01*
X32920413Y18101124D02*
X32920418Y18101104D01*
X32920418Y18101104D02*
X32920418Y18101104D01*
M02*
