G04 #@! TF.GenerationSoftware,KiCad,Pcbnew,(5.1.2)-1*
G04 #@! TF.CreationDate,2019-07-16T22:45:59-05:00*
G04 #@! TF.ProjectId,1ktwitter,316b7477-6974-4746-9572-2e6b69636164,rev?*
G04 #@! TF.SameCoordinates,Original*
G04 #@! TF.FileFunction,Legend,Top*
G04 #@! TF.FilePolarity,Positive*
%FSLAX46Y46*%
G04 Gerber Fmt 4.6, Leading zero omitted, Abs format (unit mm)*
G04 Created by KiCad (PCBNEW (5.1.2)-1) date 2019-07-16 22:45:59*
%MOMM*%
%LPD*%
G04 APERTURE LIST*
%ADD10C,0.010000*%
G04 APERTURE END LIST*
D10*
G36*
X11179050Y24796327D02*
G01*
X11344043Y24795899D01*
X11490018Y24794980D01*
X11620168Y24793454D01*
X11737683Y24791200D01*
X11845754Y24788101D01*
X11947571Y24784039D01*
X12046327Y24778895D01*
X12145211Y24772550D01*
X12247414Y24764887D01*
X12356129Y24755787D01*
X12474545Y24745132D01*
X12541250Y24738915D01*
X13143323Y24669631D01*
X13740266Y24575498D01*
X14331907Y24456576D01*
X14918077Y24312926D01*
X15498605Y24144610D01*
X16073321Y23951688D01*
X16642056Y23734222D01*
X17204640Y23492273D01*
X17760901Y23225901D01*
X18310671Y22935168D01*
X18853779Y22620134D01*
X19390055Y22280862D01*
X19392900Y22278985D01*
X19525828Y22190819D01*
X19646196Y22109864D01*
X19758885Y22032685D01*
X19868776Y21955843D01*
X19980750Y21875902D01*
X20099688Y21789424D01*
X20230472Y21692972D01*
X20326350Y21621658D01*
X20528525Y21472060D01*
X20713315Y21337883D01*
X20882538Y21217925D01*
X21038014Y21110983D01*
X21181560Y21015855D01*
X21314997Y20931338D01*
X21440143Y20856229D01*
X21558817Y20789327D01*
X21672838Y20729429D01*
X21686238Y20722683D01*
X21764743Y20684216D01*
X21831130Y20654859D01*
X21890105Y20634184D01*
X21946378Y20621767D01*
X22004654Y20617181D01*
X22069642Y20619999D01*
X22146049Y20629798D01*
X22238583Y20646149D01*
X22330843Y20664360D01*
X22483983Y20698370D01*
X22658258Y20742669D01*
X22851893Y20796584D01*
X23063110Y20859438D01*
X23290134Y20930557D01*
X23531188Y21009267D01*
X23784497Y21094891D01*
X24048284Y21186756D01*
X24320773Y21284186D01*
X24600188Y21386507D01*
X24884752Y21493043D01*
X25172689Y21603120D01*
X25462224Y21716062D01*
X25751580Y21831195D01*
X26038980Y21947845D01*
X26322649Y22065335D01*
X26600811Y22182992D01*
X26871688Y22300139D01*
X27133506Y22416103D01*
X27384487Y22530209D01*
X27622856Y22641781D01*
X27846836Y22750144D01*
X27933650Y22793266D01*
X28215942Y22933656D01*
X28477267Y23061508D01*
X28718542Y23177172D01*
X28940687Y23280997D01*
X29144621Y23373333D01*
X29331262Y23454530D01*
X29501530Y23524939D01*
X29656343Y23584909D01*
X29796621Y23634789D01*
X29923282Y23674931D01*
X30037245Y23705684D01*
X30139429Y23727398D01*
X30230753Y23740422D01*
X30312137Y23745108D01*
X30384498Y23741804D01*
X30414084Y23737849D01*
X30526158Y23707033D01*
X30628462Y23652848D01*
X30720849Y23575428D01*
X30803175Y23474910D01*
X30875293Y23351430D01*
X30910142Y23274768D01*
X30948265Y23157322D01*
X30973649Y23020644D01*
X30986360Y22867440D01*
X30986465Y22700412D01*
X30974032Y22522265D01*
X30949126Y22335704D01*
X30911814Y22143433D01*
X30878937Y22009100D01*
X30796152Y21728383D01*
X30693786Y21434793D01*
X30572793Y21130409D01*
X30434125Y20817309D01*
X30278736Y20497573D01*
X30107579Y20173277D01*
X29921606Y19846502D01*
X29780071Y19612474D01*
X29668171Y19434455D01*
X29556783Y19262619D01*
X29443760Y19093987D01*
X29326957Y18925580D01*
X29204226Y18754419D01*
X29073421Y18577526D01*
X28932395Y18391922D01*
X28779003Y18194628D01*
X28611097Y17982666D01*
X28555632Y17913350D01*
X28433928Y17761238D01*
X28327439Y17627333D01*
X28235182Y17510278D01*
X28156176Y17408715D01*
X28089436Y17321288D01*
X28033981Y17246639D01*
X27988827Y17183411D01*
X27952992Y17130246D01*
X27925492Y17085786D01*
X27905346Y17048675D01*
X27891570Y17017556D01*
X27883182Y16991070D01*
X27881183Y16981835D01*
X27880364Y16947980D01*
X27893045Y16923302D01*
X27920323Y16907926D01*
X27963294Y16901980D01*
X28023056Y16905589D01*
X28100703Y16918880D01*
X28197334Y16941980D01*
X28314045Y16975016D01*
X28451932Y17018113D01*
X28588777Y17063486D01*
X28802568Y17136777D01*
X29005038Y17208276D01*
X29201109Y17279874D01*
X29395701Y17353462D01*
X29593736Y17430931D01*
X29800133Y17514171D01*
X30019815Y17605074D01*
X30238700Y17697444D01*
X30506409Y17810115D01*
X30753018Y17911369D01*
X30979883Y18001663D01*
X31188357Y18081453D01*
X31379794Y18151196D01*
X31555549Y18211348D01*
X31716977Y18262365D01*
X31865432Y18304704D01*
X32002269Y18338822D01*
X32128841Y18365175D01*
X32246504Y18384220D01*
X32294232Y18390223D01*
X32434967Y18398216D01*
X32559585Y18388282D01*
X32667507Y18360616D01*
X32758153Y18315415D01*
X32830942Y18252877D01*
X32874297Y18193303D01*
X32919932Y18099320D01*
X32958718Y17987804D01*
X32988996Y17866082D01*
X33009110Y17741484D01*
X33017404Y17621341D01*
X33016546Y17564100D01*
X33008191Y17469574D01*
X32991732Y17372358D01*
X32966444Y17270997D01*
X32931600Y17164036D01*
X32886475Y17050020D01*
X32830344Y16927494D01*
X32762481Y16795002D01*
X32682160Y16651089D01*
X32588657Y16494301D01*
X32481245Y16323181D01*
X32359198Y16136276D01*
X32221792Y15932128D01*
X32152209Y15830550D01*
X31763725Y15281379D01*
X31369769Y14755048D01*
X30968293Y14249232D01*
X30557248Y13761603D01*
X30134587Y13289834D01*
X29698262Y12831599D01*
X29246225Y12384570D01*
X28776426Y11946421D01*
X28573271Y11764441D01*
X28466731Y11670726D01*
X28361223Y11579248D01*
X28255237Y11488825D01*
X28147263Y11398276D01*
X28035791Y11306416D01*
X27919311Y11212065D01*
X27796314Y11114040D01*
X27665290Y11011158D01*
X27524729Y10902236D01*
X27373122Y10786094D01*
X27208958Y10661547D01*
X27030728Y10527414D01*
X26836922Y10382513D01*
X26626031Y10225660D01*
X26396544Y10055674D01*
X26305325Y9988258D01*
X26099400Y9836150D01*
X26098755Y8947150D01*
X26097785Y8554094D01*
X26095410Y8183762D01*
X26091551Y7833516D01*
X26086130Y7500714D01*
X26079066Y7182718D01*
X26070280Y6876886D01*
X26059693Y6580579D01*
X26047226Y6291156D01*
X26032799Y6005978D01*
X26016333Y5722404D01*
X25997748Y5437794D01*
X25990031Y5327650D01*
X25905565Y4321587D01*
X25796030Y3318698D01*
X25661587Y2319503D01*
X25502396Y1324520D01*
X25318618Y334268D01*
X25110413Y-650734D01*
X24877942Y-1629968D01*
X24621365Y-2602915D01*
X24340843Y-3569055D01*
X24036536Y-4527871D01*
X23708605Y-5478844D01*
X23357211Y-6421454D01*
X22982514Y-7355184D01*
X22584674Y-8279513D01*
X22163852Y-9193924D01*
X21720209Y-10097899D01*
X21253905Y-10990917D01*
X20765100Y-11872460D01*
X20554718Y-12236450D01*
X20029095Y-13110022D01*
X19483501Y-13967900D01*
X18917944Y-14810076D01*
X18332431Y-15636538D01*
X17726971Y-16447278D01*
X17101572Y-17242287D01*
X16456241Y-18021553D01*
X15790987Y-18785069D01*
X15105817Y-19532825D01*
X14400739Y-20264810D01*
X13675762Y-20981016D01*
X12930893Y-21681433D01*
X12166140Y-22366051D01*
X11976100Y-22531065D01*
X11852325Y-22637851D01*
X11744989Y-22730329D01*
X11651347Y-22810838D01*
X11568649Y-22881713D01*
X11494149Y-22945292D01*
X11425099Y-23003911D01*
X11358752Y-23059907D01*
X11292360Y-23115617D01*
X11223177Y-23173377D01*
X11148454Y-23235524D01*
X11123689Y-23256085D01*
X10350305Y-23881527D01*
X9562690Y-24485958D01*
X8761109Y-25069226D01*
X7945829Y-25631174D01*
X7117116Y-26171649D01*
X6275237Y-26690496D01*
X5420458Y-27187562D01*
X4553045Y-27662692D01*
X3673264Y-28115731D01*
X2781382Y-28546526D01*
X1877665Y-28954921D01*
X962379Y-29340763D01*
X35791Y-29703898D01*
X-75418Y-29745668D01*
X-999336Y-30077646D01*
X-1932491Y-30386251D01*
X-2873888Y-30671238D01*
X-3822529Y-30932364D01*
X-4777420Y-31169382D01*
X-5737564Y-31382049D01*
X-6701965Y-31570121D01*
X-7669626Y-31733351D01*
X-8639552Y-31871496D01*
X-8826500Y-31895197D01*
X-9062040Y-31922891D01*
X-9309571Y-31948883D01*
X-9570174Y-31973234D01*
X-9844930Y-31996002D01*
X-10134919Y-32017248D01*
X-10441223Y-32037031D01*
X-10764921Y-32055411D01*
X-11107094Y-32072449D01*
X-11468824Y-32088204D01*
X-11851190Y-32102735D01*
X-12255274Y-32116102D01*
X-12682155Y-32128367D01*
X-13132915Y-32139587D01*
X-13315950Y-32143704D01*
X-13418654Y-32145587D01*
X-13544197Y-32147277D01*
X-13690230Y-32148776D01*
X-13854399Y-32150084D01*
X-14034352Y-32151202D01*
X-14227739Y-32152131D01*
X-14432206Y-32152870D01*
X-14645402Y-32153422D01*
X-14864975Y-32153785D01*
X-15088573Y-32153962D01*
X-15313843Y-32153952D01*
X-15538435Y-32153756D01*
X-15759996Y-32153375D01*
X-15976173Y-32152809D01*
X-16184616Y-32152059D01*
X-16382972Y-32151125D01*
X-16568889Y-32150009D01*
X-16740015Y-32148710D01*
X-16893999Y-32147230D01*
X-17028487Y-32145568D01*
X-17141129Y-32143726D01*
X-17189450Y-32142716D01*
X-17542122Y-32133646D01*
X-17884070Y-32122890D01*
X-18213516Y-32110540D01*
X-18528679Y-32096687D01*
X-18827778Y-32081426D01*
X-19109034Y-32064847D01*
X-19370666Y-32047043D01*
X-19610895Y-32028108D01*
X-19827940Y-32008132D01*
X-19875500Y-32003285D01*
X-20006004Y-31988582D01*
X-20158458Y-31969431D01*
X-20329891Y-31946291D01*
X-20517330Y-31919620D01*
X-20717805Y-31889878D01*
X-20928344Y-31857523D01*
X-21145975Y-31823015D01*
X-21367727Y-31786812D01*
X-21590629Y-31749373D01*
X-21811709Y-31711157D01*
X-22027995Y-31672622D01*
X-22091650Y-31661042D01*
X-23117325Y-31461056D01*
X-24139575Y-31236926D01*
X-25157326Y-30989009D01*
X-26169507Y-30717662D01*
X-27175047Y-30423246D01*
X-28172872Y-30106116D01*
X-29161911Y-29766633D01*
X-30141091Y-29405153D01*
X-31109341Y-29022036D01*
X-32065588Y-28617640D01*
X-33008760Y-28192322D01*
X-33937786Y-27746441D01*
X-34201100Y-27615004D01*
X-34515893Y-27454429D01*
X-34806994Y-27301579D01*
X-35074811Y-27156160D01*
X-35319755Y-27017878D01*
X-35542234Y-26886441D01*
X-35742659Y-26761556D01*
X-35833625Y-26701195D01*
X-31985040Y-26701195D01*
X-31970846Y-26720763D01*
X-31936568Y-26748105D01*
X-31883914Y-26782289D01*
X-31814593Y-26822382D01*
X-31730312Y-26867453D01*
X-31632781Y-26916568D01*
X-31523706Y-26968796D01*
X-31404796Y-27023205D01*
X-31277759Y-27078861D01*
X-31222950Y-27102149D01*
X-30977871Y-27203647D01*
X-30714269Y-27309682D01*
X-30434490Y-27419441D01*
X-30140882Y-27532114D01*
X-29835791Y-27646887D01*
X-29521566Y-27762949D01*
X-29200551Y-27879489D01*
X-28875095Y-27995692D01*
X-28547545Y-28110749D01*
X-28220246Y-28223847D01*
X-27895547Y-28334174D01*
X-27575794Y-28440917D01*
X-27263333Y-28543266D01*
X-26960513Y-28640407D01*
X-26669679Y-28731530D01*
X-26393180Y-28815821D01*
X-26133360Y-28892469D01*
X-25892569Y-28960663D01*
X-25704800Y-29011323D01*
X-24886965Y-29218349D01*
X-24056750Y-29413407D01*
X-23218748Y-29595600D01*
X-22377556Y-29764033D01*
X-21537769Y-29917810D01*
X-20703981Y-30056034D01*
X-19880788Y-30177811D01*
X-19380200Y-30244348D01*
X-19191870Y-30265958D01*
X-18984296Y-30285350D01*
X-18756480Y-30302584D01*
X-18507425Y-30317718D01*
X-18236132Y-30330815D01*
X-17941602Y-30341932D01*
X-17622839Y-30351132D01*
X-17589500Y-30351950D01*
X-17471534Y-30354365D01*
X-17330915Y-30356493D01*
X-17170390Y-30358334D01*
X-16992705Y-30359885D01*
X-16800606Y-30361148D01*
X-16596840Y-30362119D01*
X-16384151Y-30362799D01*
X-16165287Y-30363187D01*
X-15942994Y-30363281D01*
X-15720018Y-30363081D01*
X-15499104Y-30362585D01*
X-15282999Y-30361792D01*
X-15074450Y-30360703D01*
X-14876201Y-30359314D01*
X-14691000Y-30357626D01*
X-14521593Y-30355638D01*
X-14370725Y-30353348D01*
X-14357350Y-30353113D01*
X-13900341Y-30344113D01*
X-13453853Y-30333606D01*
X-13018951Y-30321646D01*
X-12596701Y-30308288D01*
X-12188167Y-30293586D01*
X-11794415Y-30277594D01*
X-11416509Y-30260367D01*
X-11055514Y-30241957D01*
X-10712496Y-30222421D01*
X-10388519Y-30201811D01*
X-10084649Y-30180182D01*
X-9801950Y-30157588D01*
X-9541488Y-30134084D01*
X-9304327Y-30109723D01*
X-9099550Y-30085580D01*
X-8866841Y-30054709D01*
X-8613467Y-30018587D01*
X-8343459Y-29977891D01*
X-8060853Y-29933293D01*
X-7769682Y-29885471D01*
X-7473979Y-29835098D01*
X-7177777Y-29782849D01*
X-6885110Y-29729400D01*
X-6600011Y-29675424D01*
X-6326514Y-29621598D01*
X-6325619Y-29621418D01*
X-5370507Y-29417528D01*
X-4429469Y-29192559D01*
X-3502160Y-28946343D01*
X-2588234Y-28678712D01*
X-1687348Y-28389498D01*
X-799156Y-28078532D01*
X76688Y-27745647D01*
X940527Y-27390675D01*
X1792707Y-27013446D01*
X2633574Y-26613794D01*
X3463471Y-26191549D01*
X4282745Y-25746545D01*
X5091739Y-25278612D01*
X5890799Y-24787582D01*
X6680271Y-24273288D01*
X7460498Y-23735561D01*
X8231826Y-23174234D01*
X8994600Y-22589137D01*
X9749164Y-21980103D01*
X10293350Y-21521721D01*
X10993395Y-20907931D01*
X11686514Y-20273093D01*
X12369644Y-19620256D01*
X13039722Y-18952474D01*
X13693685Y-18272796D01*
X14328470Y-17584273D01*
X14929673Y-16903104D01*
X15520039Y-16202561D01*
X16094636Y-15487347D01*
X16652226Y-14759236D01*
X17191570Y-14020000D01*
X17711429Y-13271413D01*
X18210565Y-12515248D01*
X18687740Y-11753277D01*
X19141714Y-10987273D01*
X19471669Y-10401300D01*
X19621920Y-10128250D01*
X-1085884Y-10125071D01*
X-21793689Y-10121892D01*
X-21961720Y-10203943D01*
X-22154415Y-10290431D01*
X-22367959Y-10371783D01*
X-22603063Y-10448199D01*
X-22860438Y-10519877D01*
X-23140798Y-10587018D01*
X-23444855Y-10649818D01*
X-23759082Y-10706106D01*
X-23884469Y-10726454D01*
X-24009444Y-10745400D01*
X-24136893Y-10763273D01*
X-24269703Y-10780402D01*
X-24410758Y-10797115D01*
X-24562944Y-10813743D01*
X-24729148Y-10830614D01*
X-24912253Y-10848058D01*
X-25115147Y-10866402D01*
X-25323800Y-10884532D01*
X-25546937Y-10904565D01*
X-25760370Y-10925607D01*
X-25962359Y-10947418D01*
X-26151161Y-10969761D01*
X-26325031Y-10992397D01*
X-26482229Y-11015087D01*
X-26621010Y-11037592D01*
X-26739633Y-11059675D01*
X-26836355Y-11081097D01*
X-26909003Y-11101478D01*
X-26962026Y-11122212D01*
X-26994488Y-11145862D01*
X-27009581Y-11178063D01*
X-27010495Y-11224452D01*
X-27004205Y-11269583D01*
X-26982322Y-11358248D01*
X-26944372Y-11464655D01*
X-26891117Y-11587523D01*
X-26823321Y-11725572D01*
X-26741745Y-11877519D01*
X-26647153Y-12042085D01*
X-26540308Y-12217987D01*
X-26421973Y-12403944D01*
X-26292910Y-12598675D01*
X-26153882Y-12800899D01*
X-26005651Y-13009335D01*
X-25848982Y-13222702D01*
X-25811669Y-13272559D01*
X-25577246Y-13578717D01*
X-25349969Y-13863108D01*
X-25127993Y-14127722D01*
X-24909470Y-14374549D01*
X-24692553Y-14605576D01*
X-24475396Y-14822792D01*
X-24256153Y-15028187D01*
X-24032975Y-15223749D01*
X-23888700Y-15343467D01*
X-23557394Y-15601749D01*
X-23203529Y-15856998D01*
X-22829899Y-16107742D01*
X-22439299Y-16352511D01*
X-22034521Y-16589834D01*
X-21618358Y-16818241D01*
X-21193606Y-17036261D01*
X-20763057Y-17242422D01*
X-20329504Y-17435255D01*
X-19895742Y-17613288D01*
X-19464564Y-17775052D01*
X-19038764Y-17919074D01*
X-18933817Y-17952032D01*
X-18861792Y-17974133D01*
X-18791588Y-17995288D01*
X-18721744Y-18015852D01*
X-18650799Y-18036180D01*
X-18577291Y-18056627D01*
X-18499758Y-18077550D01*
X-18416741Y-18099304D01*
X-18326776Y-18122243D01*
X-18228403Y-18146723D01*
X-18120162Y-18173100D01*
X-18000589Y-18201729D01*
X-17868224Y-18232966D01*
X-17721606Y-18267165D01*
X-17559274Y-18304682D01*
X-17379765Y-18345873D01*
X-17181620Y-18391093D01*
X-16963375Y-18440697D01*
X-16723571Y-18495041D01*
X-16460746Y-18554480D01*
X-16402050Y-18567742D01*
X-16245663Y-18603338D01*
X-16112254Y-18634306D01*
X-15999918Y-18661128D01*
X-15906753Y-18684283D01*
X-15830855Y-18704254D01*
X-15770320Y-18721520D01*
X-15723245Y-18736562D01*
X-15699326Y-18745235D01*
X-15548661Y-18812732D01*
X-15406230Y-18895143D01*
X-15274898Y-18989920D01*
X-15157530Y-19094512D01*
X-15056987Y-19206368D01*
X-14976136Y-19322939D01*
X-14918186Y-19440782D01*
X-14900502Y-19515187D01*
X-14898822Y-19599122D01*
X-14912844Y-19682643D01*
X-14926796Y-19723966D01*
X-14952228Y-19777462D01*
X-14987791Y-19838076D01*
X-15034599Y-19907220D01*
X-15093765Y-19986309D01*
X-15166402Y-20076756D01*
X-15253624Y-20179975D01*
X-15356544Y-20297379D01*
X-15476277Y-20430382D01*
X-15527143Y-20486103D01*
X-15818059Y-20788337D01*
X-16133443Y-21086816D01*
X-16472595Y-21381205D01*
X-16834815Y-21671171D01*
X-17219403Y-21956378D01*
X-17625659Y-22236493D01*
X-18052882Y-22511180D01*
X-18500373Y-22780106D01*
X-18967430Y-23042936D01*
X-19453355Y-23299335D01*
X-19957446Y-23548970D01*
X-20479004Y-23791505D01*
X-21017328Y-24026606D01*
X-21571718Y-24253940D01*
X-22141474Y-24473171D01*
X-22725896Y-24683964D01*
X-23324283Y-24885987D01*
X-23935936Y-25078903D01*
X-24560154Y-25262380D01*
X-25196237Y-25436081D01*
X-25843485Y-25599674D01*
X-26501197Y-25752823D01*
X-26600150Y-25774750D01*
X-26956021Y-25850931D01*
X-27321226Y-25924985D01*
X-27691703Y-25996216D01*
X-28063386Y-26063929D01*
X-28432211Y-26127430D01*
X-28794114Y-26186023D01*
X-29145030Y-26239015D01*
X-29480896Y-26285709D01*
X-29797646Y-26325412D01*
X-29870400Y-26333827D01*
X-30303377Y-26387586D01*
X-30724439Y-26449429D01*
X-31146317Y-26521292D01*
X-31337250Y-26556924D01*
X-31429365Y-26574779D01*
X-31525036Y-26593727D01*
X-31620527Y-26612989D01*
X-31712103Y-26631787D01*
X-31796029Y-26649342D01*
X-31868569Y-26664876D01*
X-31925988Y-26677610D01*
X-31964550Y-26686766D01*
X-31977442Y-26690334D01*
X-31985040Y-26701195D01*
X-35833625Y-26701195D01*
X-35921437Y-26642928D01*
X-36078978Y-26530265D01*
X-36215692Y-26423273D01*
X-36331987Y-26321659D01*
X-36428274Y-26225130D01*
X-36504960Y-26133393D01*
X-36562456Y-26046153D01*
X-36601171Y-25963119D01*
X-36621513Y-25883996D01*
X-36622082Y-25879935D01*
X-36624592Y-25851766D01*
X-36622598Y-25825727D01*
X-36614377Y-25795971D01*
X-36598206Y-25756652D01*
X-36572362Y-25701923D01*
X-36565401Y-25687631D01*
X-36479558Y-25535280D01*
X-36375419Y-25393880D01*
X-36249528Y-25258763D01*
X-36243498Y-25252949D01*
X-36147217Y-25166177D01*
X-36054051Y-25095329D01*
X-35959164Y-25038181D01*
X-35857722Y-24992509D01*
X-35744891Y-24956090D01*
X-35615835Y-24926701D01*
X-35487569Y-24905261D01*
X-35421855Y-24896399D01*
X-35350727Y-24888429D01*
X-35272337Y-24881273D01*
X-35184837Y-24874851D01*
X-35086380Y-24869086D01*
X-34975117Y-24863899D01*
X-34849200Y-24859211D01*
X-34706782Y-24854944D01*
X-34546015Y-24851019D01*
X-34365051Y-24847358D01*
X-34162043Y-24843882D01*
X-33978850Y-24841130D01*
X-33743696Y-24837507D01*
X-33530266Y-24833576D01*
X-33334883Y-24829160D01*
X-33153871Y-24824083D01*
X-32983554Y-24818168D01*
X-32820257Y-24811240D01*
X-32660302Y-24803123D01*
X-32500014Y-24793639D01*
X-32335716Y-24782613D01*
X-32163733Y-24769868D01*
X-31980389Y-24755229D01*
X-31782006Y-24738519D01*
X-31711900Y-24732458D01*
X-31160854Y-24679865D01*
X-30601039Y-24617298D01*
X-30034597Y-24545211D01*
X-29463663Y-24464057D01*
X-28890377Y-24374292D01*
X-28316878Y-24276370D01*
X-27745302Y-24170746D01*
X-27177788Y-24057873D01*
X-26616476Y-23938207D01*
X-26063502Y-23812201D01*
X-25521005Y-23680311D01*
X-24991123Y-23542990D01*
X-24475995Y-23400694D01*
X-23977759Y-23253876D01*
X-23498553Y-23102991D01*
X-23040515Y-22948494D01*
X-22644100Y-22805221D01*
X-22463792Y-22737081D01*
X-22298066Y-22672818D01*
X-22142630Y-22610553D01*
X-21993195Y-22548409D01*
X-21845471Y-22484510D01*
X-21695166Y-22416977D01*
X-21537991Y-22343935D01*
X-21369654Y-22263505D01*
X-21185866Y-22173811D01*
X-21069300Y-22116210D01*
X-20748939Y-21955514D01*
X-20435527Y-21794747D01*
X-20130944Y-21634953D01*
X-19837066Y-21477177D01*
X-19555772Y-21322462D01*
X-19288938Y-21171855D01*
X-19038443Y-21026399D01*
X-18806163Y-20887138D01*
X-18593977Y-20755118D01*
X-18421350Y-20643094D01*
X-18298101Y-20559967D01*
X-18196228Y-20488410D01*
X-18114861Y-20427744D01*
X-18053127Y-20377287D01*
X-18010155Y-20336358D01*
X-17985071Y-20304277D01*
X-17983230Y-20301005D01*
X-17972568Y-20276980D01*
X-17975990Y-20260442D01*
X-17996479Y-20241040D01*
X-18001732Y-20236825D01*
X-18039435Y-20212832D01*
X-18100912Y-20181858D01*
X-18185580Y-20144127D01*
X-18292856Y-20099859D01*
X-18422157Y-20049278D01*
X-18572899Y-19992603D01*
X-18744499Y-19930059D01*
X-18936374Y-19861866D01*
X-19147941Y-19788246D01*
X-19378616Y-19709422D01*
X-19462750Y-19680984D01*
X-19648569Y-19618139D01*
X-19813494Y-19561870D01*
X-19960817Y-19510990D01*
X-20093829Y-19464311D01*
X-20215822Y-19420646D01*
X-20330086Y-19378807D01*
X-20439913Y-19337606D01*
X-20548594Y-19295855D01*
X-20659419Y-19252368D01*
X-20745450Y-19218088D01*
X-21335107Y-18969933D01*
X-21908452Y-18704589D01*
X-22464891Y-18422409D01*
X-23003829Y-18123748D01*
X-23524670Y-17808960D01*
X-24026822Y-17478400D01*
X-24509688Y-17132423D01*
X-24972674Y-16771381D01*
X-25273000Y-16519903D01*
X-25529935Y-16291748D01*
X-25789731Y-16048203D01*
X-26047085Y-15794608D01*
X-26296692Y-15536304D01*
X-26533248Y-15278631D01*
X-26727080Y-15055850D01*
X-27071593Y-14629241D01*
X-27394866Y-14189135D01*
X-27696550Y-13736124D01*
X-27976292Y-13270800D01*
X-28233742Y-12793755D01*
X-28468547Y-12305582D01*
X-28680358Y-11806873D01*
X-28731647Y-11675483D01*
X-28762888Y-11591866D01*
X-28799673Y-11489897D01*
X-28840462Y-11374139D01*
X-28883716Y-11249154D01*
X-28927893Y-11119505D01*
X-28971454Y-10989755D01*
X-29012858Y-10864465D01*
X-29050565Y-10748198D01*
X-29083035Y-10645516D01*
X-29108727Y-10560983D01*
X-29113955Y-10543064D01*
X-29155094Y-10392558D01*
X-29184954Y-10261883D01*
X-29203011Y-10147859D01*
X-29208735Y-10047304D01*
X-29201599Y-9957038D01*
X-29181077Y-9873878D01*
X-29146640Y-9794644D01*
X-29097762Y-9716154D01*
X-29033915Y-9635228D01*
X-28954571Y-9548684D01*
X-28947993Y-9541890D01*
X-28853628Y-9455223D01*
X-28751422Y-9382711D01*
X-28638239Y-9323010D01*
X-28510940Y-9274775D01*
X-28366390Y-9236662D01*
X-28201452Y-9207327D01*
X-28151431Y-9200534D01*
X-28105661Y-9196003D01*
X-28038441Y-9191166D01*
X-27953718Y-9186218D01*
X-27855437Y-9181356D01*
X-27747545Y-9176776D01*
X-27633988Y-9172675D01*
X-27527250Y-9169476D01*
X-27327518Y-9163703D01*
X-27151864Y-9157681D01*
X-26998968Y-9151263D01*
X-26867508Y-9144301D01*
X-26756165Y-9136646D01*
X-26663616Y-9128152D01*
X-26588541Y-9118669D01*
X-26529619Y-9108051D01*
X-26485529Y-9096149D01*
X-26454949Y-9082815D01*
X-26436560Y-9067901D01*
X-26429039Y-9051259D01*
X-26428700Y-9046457D01*
X-26435625Y-9026479D01*
X-26457321Y-9000106D01*
X-26495176Y-8966231D01*
X-26550576Y-8923749D01*
X-26624905Y-8871554D01*
X-26719551Y-8808542D01*
X-26759442Y-8782622D01*
X-27138547Y-8532420D01*
X-27513172Y-8274980D01*
X-27879786Y-8012907D01*
X-28234858Y-7748806D01*
X-28574860Y-7485284D01*
X-28896260Y-7224945D01*
X-29083000Y-7067678D01*
X-29412928Y-6777630D01*
X-29738810Y-6475914D01*
X-30056913Y-6166290D01*
X-30363501Y-5852515D01*
X-30654840Y-5538350D01*
X-30927196Y-5227551D01*
X-31013865Y-5124450D01*
X-31372146Y-4675175D01*
X-31709631Y-4214144D01*
X-32026573Y-3740811D01*
X-32323223Y-3254632D01*
X-32599834Y-2755061D01*
X-32856657Y-2241553D01*
X-33093944Y-1713563D01*
X-33311947Y-1170546D01*
X-33510919Y-611956D01*
X-33691111Y-37248D01*
X-33852774Y554122D01*
X-33996161Y1162700D01*
X-34059726Y1466850D01*
X-34121121Y1787501D01*
X-34178752Y2117264D01*
X-34231737Y2450149D01*
X-34248190Y2564573D01*
X-32435178Y2564573D01*
X-32435011Y2520134D01*
X-32433123Y2457003D01*
X-32431757Y2419350D01*
X-32425995Y2324660D01*
X-32415273Y2209754D01*
X-32400219Y2079194D01*
X-32381464Y1937544D01*
X-32359636Y1789364D01*
X-32335365Y1639218D01*
X-32309281Y1491666D01*
X-32289549Y1388680D01*
X-32176659Y884681D01*
X-32039152Y383799D01*
X-31877721Y-112988D01*
X-31693060Y-604698D01*
X-31485860Y-1090353D01*
X-31256815Y-1568973D01*
X-31006618Y-2039579D01*
X-30735962Y-2501190D01*
X-30445540Y-2952827D01*
X-30136044Y-3393511D01*
X-29808169Y-3822262D01*
X-29462606Y-4238100D01*
X-29100049Y-4640045D01*
X-28721191Y-5027118D01*
X-28326725Y-5398340D01*
X-27917344Y-5752730D01*
X-27493740Y-6089309D01*
X-27056607Y-6407098D01*
X-26606638Y-6705116D01*
X-26530300Y-6752884D01*
X-26172884Y-6965071D01*
X-25792833Y-7172401D01*
X-25392624Y-7373823D01*
X-24974737Y-7568287D01*
X-24541650Y-7754741D01*
X-24095839Y-7932135D01*
X-23639785Y-8099418D01*
X-23175964Y-8255540D01*
X-22706855Y-8399448D01*
X-22523450Y-8451911D01*
X-22320468Y-8515465D01*
X-22133213Y-8587667D01*
X-21963817Y-8667474D01*
X-21814410Y-8753843D01*
X-21687121Y-8845730D01*
X-21644305Y-8882499D01*
X-21577697Y-8952891D01*
X-21515594Y-9037037D01*
X-21463500Y-9126431D01*
X-21426917Y-9212563D01*
X-21423213Y-9224322D01*
X-21409364Y-9269603D01*
X-21397922Y-9305118D01*
X-21391097Y-9324039D01*
X-21390636Y-9324975D01*
X-21377806Y-9325356D01*
X-21340089Y-9325729D01*
X-21278000Y-9326094D01*
X-21192051Y-9326451D01*
X-21082758Y-9326799D01*
X-20950632Y-9327139D01*
X-20796189Y-9327471D01*
X-20619941Y-9327795D01*
X-20422402Y-9328110D01*
X-20204086Y-9328418D01*
X-19965507Y-9328717D01*
X-19707177Y-9329008D01*
X-19429612Y-9329291D01*
X-19133324Y-9329566D01*
X-18818828Y-9329832D01*
X-18486636Y-9330091D01*
X-18137263Y-9330341D01*
X-17771222Y-9330583D01*
X-17389026Y-9330817D01*
X-16991190Y-9331043D01*
X-16578227Y-9331261D01*
X-16150651Y-9331471D01*
X-15708976Y-9331673D01*
X-15253714Y-9331867D01*
X-14785380Y-9332053D01*
X-14304487Y-9332230D01*
X-13811550Y-9332400D01*
X-13307081Y-9332562D01*
X-12791594Y-9332715D01*
X-12265603Y-9332861D01*
X-11729622Y-9332999D01*
X-11184165Y-9333128D01*
X-10629744Y-9333250D01*
X-10066874Y-9333364D01*
X-9496068Y-9333470D01*
X-8917840Y-9333568D01*
X-8332703Y-9333658D01*
X-7741172Y-9333740D01*
X-7143760Y-9333814D01*
X-6540980Y-9333880D01*
X-5933346Y-9333938D01*
X-5321372Y-9333989D01*
X-4705572Y-9334032D01*
X-4086459Y-9334066D01*
X-3464546Y-9334093D01*
X-2840348Y-9334112D01*
X-2214378Y-9334124D01*
X-1587150Y-9334127D01*
X-959177Y-9334123D01*
X-330974Y-9334110D01*
X296947Y-9334090D01*
X924072Y-9334063D01*
X1549886Y-9334027D01*
X2173877Y-9333984D01*
X2795531Y-9333933D01*
X3414333Y-9333874D01*
X4029771Y-9333807D01*
X4641331Y-9333733D01*
X5248498Y-9333651D01*
X5850760Y-9333561D01*
X6447603Y-9333464D01*
X7038513Y-9333359D01*
X7622976Y-9333246D01*
X8200479Y-9333126D01*
X8770509Y-9332997D01*
X9332550Y-9332862D01*
X9886091Y-9332718D01*
X10430616Y-9332567D01*
X10965613Y-9332409D01*
X11490568Y-9332243D01*
X12004968Y-9332069D01*
X12508297Y-9331887D01*
X13000044Y-9331698D01*
X13479694Y-9331502D01*
X13946733Y-9331298D01*
X14400648Y-9331086D01*
X14840926Y-9330867D01*
X15267052Y-9330640D01*
X15678513Y-9330406D01*
X16074796Y-9330164D01*
X16455386Y-9329914D01*
X16819770Y-9329658D01*
X17167434Y-9329393D01*
X17497866Y-9329122D01*
X17810550Y-9328842D01*
X18104973Y-9328556D01*
X18380623Y-9328262D01*
X18636984Y-9327960D01*
X18873544Y-9327651D01*
X19089788Y-9327335D01*
X19285204Y-9327011D01*
X19459277Y-9326680D01*
X19611494Y-9326341D01*
X19741341Y-9325995D01*
X19848304Y-9325642D01*
X19931871Y-9325281D01*
X19991526Y-9324913D01*
X20026757Y-9324537D01*
X20037151Y-9324199D01*
X20048027Y-9309355D01*
X20068564Y-9273420D01*
X20097808Y-9218380D01*
X20134804Y-9146219D01*
X20178598Y-9058922D01*
X20228235Y-8958473D01*
X20282760Y-8846858D01*
X20341218Y-8726061D01*
X20402656Y-8598067D01*
X20466117Y-8464860D01*
X20530648Y-8328425D01*
X20595293Y-8190748D01*
X20659099Y-8053812D01*
X20721110Y-7919602D01*
X20780371Y-7790104D01*
X20835929Y-7667301D01*
X20859960Y-7613650D01*
X21228614Y-6758586D01*
X21578593Y-5887593D01*
X21909289Y-5002595D01*
X22220094Y-4105517D01*
X22510401Y-3198282D01*
X22779601Y-2282814D01*
X23027087Y-1361037D01*
X23252251Y-434875D01*
X23454486Y493748D01*
X23513247Y785975D01*
X23529902Y871965D01*
X23548446Y970270D01*
X23568378Y1078020D01*
X23589199Y1192347D01*
X23610409Y1310381D01*
X23631508Y1429254D01*
X23651996Y1546095D01*
X23671372Y1658035D01*
X23689138Y1762206D01*
X23704792Y1855737D01*
X23717835Y1935760D01*
X23727768Y1999406D01*
X23734089Y2043804D01*
X23736300Y2066061D01*
X23732897Y2066718D01*
X23722489Y2067358D01*
X23704776Y2067982D01*
X23679459Y2068589D01*
X23646238Y2069181D01*
X23604814Y2069757D01*
X23554888Y2070317D01*
X23496161Y2070861D01*
X23428332Y2071390D01*
X23351102Y2071904D01*
X23264172Y2072404D01*
X23167243Y2072888D01*
X23060014Y2073358D01*
X22942188Y2073814D01*
X22813463Y2074256D01*
X22673542Y2074684D01*
X22522123Y2075098D01*
X22358909Y2075499D01*
X22183599Y2075886D01*
X21995894Y2076261D01*
X21795495Y2076622D01*
X21582103Y2076971D01*
X21355417Y2077307D01*
X21115138Y2077631D01*
X20860968Y2077943D01*
X20592606Y2078243D01*
X20309753Y2078532D01*
X20012110Y2078808D01*
X19699377Y2079074D01*
X19371256Y2079328D01*
X19027445Y2079572D01*
X18667647Y2079805D01*
X18291561Y2080027D01*
X17898889Y2080239D01*
X17489330Y2080441D01*
X17062586Y2080633D01*
X16618356Y2080815D01*
X16156342Y2080988D01*
X15676245Y2081152D01*
X15177764Y2081306D01*
X14660600Y2081452D01*
X14124454Y2081588D01*
X13569026Y2081717D01*
X12994018Y2081837D01*
X12399129Y2081948D01*
X11784060Y2082052D01*
X11148511Y2082148D01*
X10492185Y2082237D01*
X9814780Y2082318D01*
X9115997Y2082393D01*
X8395538Y2082460D01*
X7653102Y2082521D01*
X6888390Y2082575D01*
X6101103Y2082622D01*
X5290942Y2082664D01*
X4457606Y2082700D01*
X3600797Y2082729D01*
X2720215Y2082754D01*
X1815560Y2082773D01*
X886534Y2082787D01*
X-67163Y2082796D01*
X-1045831Y2082800D01*
X-26693326Y2082800D01*
X-26761038Y2024149D01*
X-26860163Y1953618D01*
X-26981812Y1894017D01*
X-27125563Y1845385D01*
X-27290995Y1807764D01*
X-27477686Y1781191D01*
X-27685212Y1765708D01*
X-27913152Y1761353D01*
X-28161085Y1768166D01*
X-28428587Y1786188D01*
X-28715236Y1815458D01*
X-28829000Y1829526D01*
X-29169601Y1876995D01*
X-29517515Y1932051D01*
X-29868070Y1993749D01*
X-30216592Y2061144D01*
X-30558407Y2133291D01*
X-30888842Y2209247D01*
X-31203225Y2288066D01*
X-31495745Y2368477D01*
X-31649180Y2414391D01*
X-31784097Y2458505D01*
X-31907033Y2503192D01*
X-32024524Y2550829D01*
X-32141894Y2603225D01*
X-32201798Y2629780D01*
X-32258050Y2652433D01*
X-32304175Y2668715D01*
X-32332834Y2676048D01*
X-32367771Y2677518D01*
X-32391255Y2666557D01*
X-32409877Y2646176D01*
X-32420973Y2631121D01*
X-32428597Y2615527D01*
X-32433186Y2594858D01*
X-32435178Y2564573D01*
X-34248190Y2564573D01*
X-34279191Y2780167D01*
X-34320229Y3101327D01*
X-34353968Y3407639D01*
X-34368061Y3556000D01*
X-34373890Y3637800D01*
X-34378368Y3734524D01*
X-34381496Y3841470D01*
X-34383271Y3953935D01*
X-34383691Y4067215D01*
X-34382756Y4176608D01*
X-34380463Y4277411D01*
X-34376812Y4364922D01*
X-34371800Y4434436D01*
X-34368356Y4464050D01*
X-34339372Y4625236D01*
X-34301286Y4763737D01*
X-34253410Y4880836D01*
X-34195053Y4977813D01*
X-34125527Y5055951D01*
X-34044141Y5116532D01*
X-34006430Y5136964D01*
X-33912374Y5174746D01*
X-33812127Y5197972D01*
X-33703013Y5206605D01*
X-33582354Y5200606D01*
X-33447472Y5179938D01*
X-33295690Y5144561D01*
X-33228269Y5125888D01*
X-33138739Y5099059D01*
X-33050127Y5070169D01*
X-32959819Y5038115D01*
X-32865197Y5001793D01*
X-32763647Y4960100D01*
X-32652552Y4911932D01*
X-32529296Y4856188D01*
X-32391264Y4791762D01*
X-32235839Y4717552D01*
X-32073850Y4639013D01*
X-31854562Y4532514D01*
X-31656425Y4437234D01*
X-31478087Y4352611D01*
X-31318195Y4278086D01*
X-31175397Y4213100D01*
X-31048340Y4157092D01*
X-30935671Y4109504D01*
X-30836038Y4069775D01*
X-30748088Y4037345D01*
X-30670469Y4011655D01*
X-30601827Y3992145D01*
X-30540809Y3978255D01*
X-30486064Y3969425D01*
X-30446761Y3965685D01*
X-30394421Y3962983D01*
X-30360725Y3963816D01*
X-30339040Y3969227D01*
X-30322732Y3980255D01*
X-30316586Y3986115D01*
X-30296656Y4017620D01*
X-30289802Y4048125D01*
X-30299173Y4099312D01*
X-30326010Y4166826D01*
X-30369504Y4249354D01*
X-30428844Y4345583D01*
X-30503221Y4454202D01*
X-30591824Y4573898D01*
X-30693844Y4703359D01*
X-30695457Y4705350D01*
X-30803695Y4838964D01*
X-30897629Y4955135D01*
X-30979022Y5056093D01*
X-31049638Y5144068D01*
X-31111239Y5221289D01*
X-31165589Y5289986D01*
X-31214452Y5352388D01*
X-31259591Y5410726D01*
X-31302769Y5467228D01*
X-31345750Y5524125D01*
X-31390297Y5583645D01*
X-31393753Y5588281D01*
X-31752556Y6090884D01*
X-32090309Y6607609D01*
X-32406814Y7138076D01*
X-32701873Y7681904D01*
X-32975291Y8238714D01*
X-33226869Y8808126D01*
X-33456410Y9389759D01*
X-33644281Y9924234D01*
X-33723607Y10168503D01*
X-33792917Y10393541D01*
X-33853004Y10603103D01*
X-33904665Y10800941D01*
X-33948692Y10990810D01*
X-33985882Y11176464D01*
X-34017028Y11361656D01*
X-34042926Y11550140D01*
X-34064370Y11745671D01*
X-34082155Y11952000D01*
X-34086728Y12014200D01*
X-34094153Y12136738D01*
X-34100786Y12282875D01*
X-34106613Y12450826D01*
X-34111619Y12638803D01*
X-34115792Y12845017D01*
X-34119116Y13067683D01*
X-34121579Y13305012D01*
X-34123166Y13555216D01*
X-34123863Y13816509D01*
X-34123657Y14087102D01*
X-34122987Y14253015D01*
X-32562211Y14253015D01*
X-32560295Y13950898D01*
X-32549326Y13642825D01*
X-32529506Y13324639D01*
X-32517686Y13176250D01*
X-32460718Y12650355D01*
X-32378987Y12122923D01*
X-32272972Y11595272D01*
X-32143149Y11068719D01*
X-31989996Y10544582D01*
X-31813989Y10024177D01*
X-31615606Y9508822D01*
X-31395324Y8999835D01*
X-31153620Y8498531D01*
X-30890971Y8006229D01*
X-30607855Y7524245D01*
X-30304749Y7053897D01*
X-30294004Y7037987D01*
X-29988862Y6604183D01*
X-29673541Y6190623D01*
X-29344478Y5793030D01*
X-28998115Y5407126D01*
X-28630892Y5028633D01*
X-28579827Y4978168D01*
X-28459386Y4860634D01*
X-28345886Y4751986D01*
X-28236020Y4649307D01*
X-28126478Y4549686D01*
X-28013953Y4450205D01*
X-27895136Y4347952D01*
X-27766718Y4240012D01*
X-27625392Y4123471D01*
X-27467849Y3995413D01*
X-27424669Y3960554D01*
X-27246629Y3813195D01*
X-27090489Y3675692D01*
X-26955242Y3546924D01*
X-26839882Y3425769D01*
X-26743402Y3311107D01*
X-26664796Y3201816D01*
X-26603059Y3096778D01*
X-26557183Y2994869D01*
X-26556863Y2994025D01*
X-26543629Y2959100D01*
X23847102Y2959100D01*
X23854888Y3025775D01*
X23860414Y3078016D01*
X23867361Y3151414D01*
X23875390Y3241785D01*
X23884163Y3344947D01*
X23893340Y3456718D01*
X23902583Y3572916D01*
X23911552Y3689357D01*
X23919908Y3801859D01*
X23927312Y3906240D01*
X23932347Y3981450D01*
X23942623Y4144591D01*
X23952070Y4303923D01*
X23960803Y4462235D01*
X23968938Y4622316D01*
X23976590Y4786955D01*
X23983875Y4958940D01*
X23990908Y5141062D01*
X23997805Y5336108D01*
X24004681Y5546868D01*
X24011653Y5776131D01*
X24018835Y6026686D01*
X24022331Y6153150D01*
X24030632Y6449738D01*
X24039352Y6748578D01*
X24048425Y7047835D01*
X24057783Y7345672D01*
X24067359Y7640253D01*
X24077087Y7929741D01*
X24086898Y8212301D01*
X24096727Y8486095D01*
X24106505Y8749286D01*
X24116166Y9000040D01*
X24125643Y9236519D01*
X24134868Y9456887D01*
X24143774Y9659308D01*
X24152295Y9841944D01*
X24160363Y10002961D01*
X24167911Y10140520D01*
X24168305Y10147300D01*
X24176126Y10272400D01*
X24183811Y10375030D01*
X24191756Y10458119D01*
X24200357Y10524592D01*
X24210009Y10577375D01*
X24221106Y10619395D01*
X24234046Y10653577D01*
X24237814Y10661650D01*
X24286144Y10743349D01*
X24354842Y10833337D01*
X24441280Y10929114D01*
X24542829Y11028182D01*
X24656863Y11128042D01*
X24780753Y11226194D01*
X24911872Y11320140D01*
X24972594Y11360417D01*
X25091914Y11437820D01*
X25192852Y11503896D01*
X25278549Y11560803D01*
X25352146Y11610703D01*
X25416785Y11655755D01*
X25475605Y11698119D01*
X25531749Y11739955D01*
X25588357Y11783424D01*
X25593344Y11787304D01*
X25774319Y11930554D01*
X25970530Y12090066D01*
X26179646Y12263754D01*
X26399338Y12449530D01*
X26627277Y12645308D01*
X26861132Y12849001D01*
X27098576Y13058524D01*
X27337277Y13271790D01*
X27574908Y13486712D01*
X27809137Y13701204D01*
X28037637Y13913179D01*
X28258077Y14120551D01*
X28468129Y14321233D01*
X28665462Y14513139D01*
X28847747Y14694182D01*
X28918221Y14765423D01*
X29045174Y14896074D01*
X29153008Y15010459D01*
X29241915Y15108810D01*
X29312089Y15191357D01*
X29363724Y15258331D01*
X29397014Y15309963D01*
X29412153Y15346484D01*
X29413200Y15355544D01*
X29401383Y15362868D01*
X29368529Y15365779D01*
X29318534Y15364720D01*
X29255292Y15360132D01*
X29182699Y15352457D01*
X29104650Y15342137D01*
X29025040Y15329614D01*
X28947764Y15315328D01*
X28876717Y15299723D01*
X28841700Y15290735D01*
X28803972Y15280369D01*
X28746991Y15264648D01*
X28675976Y15245016D01*
X28596147Y15222915D01*
X28512723Y15199789D01*
X28498800Y15195926D01*
X28235630Y15124705D01*
X27966196Y15055225D01*
X27692196Y14987781D01*
X27415326Y14922668D01*
X27137286Y14860180D01*
X26859772Y14800613D01*
X26584482Y14744260D01*
X26313114Y14691417D01*
X26047366Y14642377D01*
X25788934Y14597437D01*
X25539518Y14556889D01*
X25300814Y14521030D01*
X25074520Y14490153D01*
X24862334Y14464554D01*
X24665954Y14444527D01*
X24487077Y14430366D01*
X24327401Y14422366D01*
X24188623Y14420822D01*
X24072442Y14426029D01*
X24066083Y14426576D01*
X23993875Y14433804D01*
X23939526Y14442309D01*
X23895522Y14454559D01*
X23854351Y14473020D01*
X23808499Y14500163D01*
X23774555Y14522347D01*
X23688796Y14587745D01*
X23613419Y14661600D01*
X23553612Y14738339D01*
X23523087Y14792292D01*
X23497605Y14872525D01*
X23487497Y14966744D01*
X23492833Y15068668D01*
X23513680Y15172012D01*
X23518750Y15189200D01*
X23552974Y15284570D01*
X23598708Y15385830D01*
X23656556Y15493708D01*
X23727125Y15608928D01*
X23811020Y15732218D01*
X23908846Y15864304D01*
X24021210Y16005911D01*
X24148716Y16157766D01*
X24291972Y16320594D01*
X24451581Y16495123D01*
X24628150Y16682077D01*
X24822285Y16882184D01*
X25034590Y17096169D01*
X25265673Y17324758D01*
X25449792Y17504397D01*
X25652166Y17702088D01*
X25853402Y17901145D01*
X26052334Y18100321D01*
X26247800Y18298366D01*
X26438638Y18494034D01*
X26623684Y18686077D01*
X26801775Y18873248D01*
X26971747Y19054298D01*
X27132439Y19227981D01*
X27282686Y19393049D01*
X27421326Y19548253D01*
X27547196Y19692348D01*
X27659132Y19824084D01*
X27755971Y19942214D01*
X27836551Y20045491D01*
X27898930Y20131534D01*
X27930386Y20179000D01*
X27968321Y20238962D01*
X28010198Y20307116D01*
X28053481Y20379154D01*
X28095630Y20450769D01*
X28134109Y20517657D01*
X28166381Y20575509D01*
X28189907Y20620021D01*
X28201447Y20644956D01*
X28215118Y20692462D01*
X28211148Y20723316D01*
X28187365Y20741015D01*
X28141595Y20749055D01*
X28136525Y20749411D01*
X28113525Y20750171D01*
X28088244Y20749337D01*
X28059592Y20746550D01*
X28026482Y20741451D01*
X27987827Y20733682D01*
X27942537Y20722883D01*
X27889526Y20708696D01*
X27827706Y20690762D01*
X27755988Y20668723D01*
X27673284Y20642219D01*
X27578508Y20610892D01*
X27470570Y20574382D01*
X27348384Y20532332D01*
X27210860Y20484383D01*
X27056911Y20430174D01*
X26885450Y20369349D01*
X26695389Y20301547D01*
X26485638Y20226411D01*
X26255112Y20143581D01*
X26002721Y20052699D01*
X25774650Y19970460D01*
X25554232Y19891134D01*
X25354100Y19819546D01*
X25170760Y19754495D01*
X25000724Y19694781D01*
X24840499Y19639203D01*
X24686594Y19586560D01*
X24535520Y19535653D01*
X24383784Y19485280D01*
X24227896Y19434240D01*
X24064366Y19381335D01*
X24022050Y19367730D01*
X23801672Y19297165D01*
X23602290Y19233831D01*
X23420826Y19176862D01*
X23254199Y19125390D01*
X23099333Y19078550D01*
X22953148Y19035474D01*
X22812565Y18995295D01*
X22674505Y18957147D01*
X22535891Y18920162D01*
X22393643Y18883475D01*
X22244683Y18846217D01*
X22085933Y18807523D01*
X21914312Y18766525D01*
X21745618Y18726780D01*
X21120187Y18580153D01*
X20532768Y19052554D01*
X20417551Y19145281D01*
X20301027Y19239187D01*
X20186001Y19332005D01*
X20075278Y19421466D01*
X19971661Y19505303D01*
X19877955Y19581247D01*
X19796963Y19647030D01*
X19731490Y19700384D01*
X19704050Y19722840D01*
X19493955Y19894178D01*
X19301458Y20049077D01*
X19125459Y20188291D01*
X18964862Y20312575D01*
X18818568Y20422683D01*
X18685477Y20519371D01*
X18564493Y20603392D01*
X18454517Y20675501D01*
X18354451Y20736454D01*
X18263196Y20787004D01*
X18179655Y20827906D01*
X18102728Y20859914D01*
X18031318Y20883785D01*
X18003393Y20891391D01*
X17913354Y20910050D01*
X17835653Y20915710D01*
X17760924Y20908566D01*
X17710814Y20897490D01*
X17621731Y20866403D01*
X17526732Y20817602D01*
X17424441Y20750121D01*
X17313483Y20662991D01*
X17192483Y20555247D01*
X17107275Y20473186D01*
X17029780Y20394128D01*
X16960141Y20317059D01*
X16897773Y20240102D01*
X16842090Y20161384D01*
X16792508Y20079029D01*
X16748441Y19991163D01*
X16709305Y19895910D01*
X16674515Y19791397D01*
X16643487Y19675747D01*
X16615634Y19547087D01*
X16590372Y19403542D01*
X16567116Y19243236D01*
X16545282Y19064296D01*
X16524284Y18864845D01*
X16503538Y18643010D01*
X16490896Y18497550D01*
X16473406Y18297549D01*
X16456646Y18119110D01*
X16440136Y17958424D01*
X16423395Y17811681D01*
X16405942Y17675072D01*
X16387296Y17544789D01*
X16366977Y17417022D01*
X16344505Y17287962D01*
X16325010Y17183100D01*
X16253964Y16850328D01*
X16171710Y16539821D01*
X16077978Y16250925D01*
X15972498Y15982982D01*
X15855002Y15735334D01*
X15725220Y15507325D01*
X15582881Y15298297D01*
X15516949Y15213094D01*
X15356095Y15033233D01*
X15177459Y14870954D01*
X14982421Y14727172D01*
X14772362Y14602798D01*
X14548666Y14498745D01*
X14312712Y14415927D01*
X14308776Y14414759D01*
X14154999Y14373047D01*
X14002742Y14339921D01*
X13846496Y14314608D01*
X13680750Y14296331D01*
X13499997Y14284318D01*
X13340711Y14278693D01*
X13085061Y14277426D01*
X12851499Y14287055D01*
X12638741Y14308523D01*
X12445507Y14342770D01*
X12270515Y14390738D01*
X12112485Y14453368D01*
X11970135Y14531600D01*
X11842183Y14626377D01*
X11727349Y14738640D01*
X11624352Y14869328D01*
X11531909Y15019385D01*
X11448741Y15189751D01*
X11373564Y15381367D01*
X11305100Y15595174D01*
X11245581Y15817778D01*
X11229930Y15883867D01*
X11212418Y15962166D01*
X11193834Y16048689D01*
X11174966Y16139446D01*
X11156605Y16230449D01*
X11139539Y16317710D01*
X11124558Y16397239D01*
X11112450Y16465049D01*
X11108794Y16487607D01*
X11380405Y16487607D01*
X11382483Y16475291D01*
X11390214Y16465309D01*
X11405818Y16457379D01*
X11431513Y16451221D01*
X11469519Y16446552D01*
X11522055Y16443090D01*
X11591339Y16440554D01*
X11679591Y16438662D01*
X11789031Y16437133D01*
X11907221Y16435836D01*
X12394138Y16430775D01*
X12401550Y15394419D01*
X12432338Y15361660D01*
X12461461Y15339230D01*
X12490654Y15328967D01*
X12492602Y15328900D01*
X12511640Y15334240D01*
X12550142Y15349285D01*
X12604760Y15372572D01*
X12672144Y15402638D01*
X12748946Y15438022D01*
X12826628Y15474773D01*
X12895476Y15508006D01*
X12983778Y15551040D01*
X13088290Y15602273D01*
X13205770Y15660105D01*
X13332973Y15722933D01*
X13466656Y15789157D01*
X13603576Y15857176D01*
X13740490Y15925389D01*
X13829009Y15969605D01*
X14526839Y16318565D01*
X14530994Y15862745D01*
X14532138Y15742937D01*
X14533272Y15645883D01*
X14534561Y15568936D01*
X14536172Y15509448D01*
X14538271Y15464774D01*
X14541024Y15432268D01*
X14544596Y15409282D01*
X14549153Y15393170D01*
X14554862Y15381287D01*
X14561811Y15371087D01*
X14596826Y15342298D01*
X14640865Y15330508D01*
X14684382Y15337424D01*
X14700250Y15346348D01*
X14707122Y15352420D01*
X14712711Y15361298D01*
X14717212Y15375611D01*
X14720822Y15397988D01*
X14723738Y15431058D01*
X14726156Y15477449D01*
X14728273Y15539789D01*
X14730284Y15620709D01*
X14732388Y15722835D01*
X14733761Y15794589D01*
X14735772Y15902001D01*
X14737689Y16005978D01*
X14739441Y16102580D01*
X14740958Y16187868D01*
X14742168Y16257904D01*
X14743003Y16308750D01*
X14743286Y16327774D01*
X14744700Y16431298D01*
X15233202Y16435724D01*
X15358261Y16436935D01*
X15460374Y16438165D01*
X15541994Y16439543D01*
X15605576Y16441197D01*
X15653572Y16443258D01*
X15688437Y16445854D01*
X15712624Y16449115D01*
X15728586Y16453169D01*
X15738777Y16458146D01*
X15744162Y16462614D01*
X15758081Y16488610D01*
X15748644Y16512159D01*
X15717891Y16530452D01*
X15689467Y16537844D01*
X15665324Y16539932D01*
X15619091Y16541885D01*
X15554077Y16543639D01*
X15473594Y16545130D01*
X15380951Y16546296D01*
X15279459Y16547072D01*
X15194369Y16547369D01*
X14748688Y16548100D01*
X14740344Y16759679D01*
X14737697Y16839296D01*
X14735240Y16936397D01*
X14733129Y17043064D01*
X14731517Y17151380D01*
X14730559Y17253428D01*
X14730497Y17264504D01*
X14729719Y17350534D01*
X14728368Y17429963D01*
X14726564Y17498617D01*
X14724430Y17552319D01*
X14722086Y17586893D01*
X14720868Y17595729D01*
X14702038Y17631860D01*
X14668918Y17653791D01*
X14629089Y17660240D01*
X14590132Y17649925D01*
X14560462Y17622866D01*
X14555487Y17610063D01*
X14551194Y17586571D01*
X14547465Y17550208D01*
X14544180Y17498794D01*
X14541220Y17430148D01*
X14538466Y17342087D01*
X14535798Y17232432D01*
X14533796Y17135475D01*
X14531541Y17030189D01*
X14529082Y16933371D01*
X14526521Y16847843D01*
X14523957Y16776431D01*
X14521494Y16721956D01*
X14519232Y16687242D01*
X14517280Y16675113D01*
X14504940Y16680629D01*
X14471710Y16696565D01*
X14419435Y16722014D01*
X14349960Y16756066D01*
X14265128Y16797814D01*
X14166784Y16846348D01*
X14056771Y16900760D01*
X13936934Y16960142D01*
X13809117Y17023585D01*
X13716000Y17069868D01*
X13521637Y17166468D01*
X13348698Y17252275D01*
X13195908Y17327888D01*
X13061989Y17393911D01*
X12945666Y17450943D01*
X12845663Y17499587D01*
X12760703Y17540444D01*
X12689511Y17574116D01*
X12630809Y17601203D01*
X12583323Y17622308D01*
X12545775Y17638031D01*
X12516891Y17648974D01*
X12495392Y17655739D01*
X12480005Y17658926D01*
X12469451Y17659138D01*
X12466698Y17658630D01*
X12451535Y17653939D01*
X12438934Y17646676D01*
X12428636Y17634606D01*
X12420382Y17615493D01*
X12413910Y17587103D01*
X12408961Y17547201D01*
X12405275Y17493552D01*
X12402591Y17423920D01*
X12400650Y17336071D01*
X12399192Y17227770D01*
X12397956Y17096782D01*
X12397696Y17065625D01*
X12393425Y16548100D01*
X11946637Y16547159D01*
X11812162Y16546731D01*
X11700890Y16545950D01*
X11610624Y16544641D01*
X11539168Y16542633D01*
X11484326Y16539750D01*
X11443902Y16535821D01*
X11415699Y16530670D01*
X11397520Y16524125D01*
X11387170Y16516013D01*
X11382451Y16506159D01*
X11381762Y16502539D01*
X11380405Y16487607D01*
X11108794Y16487607D01*
X11104005Y16517151D01*
X11100012Y16549557D01*
X11099800Y16554572D01*
X11093061Y16590083D01*
X11075458Y16637857D01*
X11050909Y16689506D01*
X11023331Y16736637D01*
X11000903Y16766365D01*
X10934926Y16825269D01*
X10854885Y16869647D01*
X10769600Y16898795D01*
X10717647Y16908352D01*
X10643188Y16915447D01*
X10548997Y16920059D01*
X10437852Y16922167D01*
X10312526Y16921753D01*
X10175796Y16918795D01*
X10030438Y16913273D01*
X9880600Y16905252D01*
X9830600Y16902509D01*
X9774774Y16900101D01*
X9711655Y16898018D01*
X9639779Y16896254D01*
X9557678Y16894799D01*
X9463888Y16893645D01*
X9356942Y16892784D01*
X9235374Y16892207D01*
X9097719Y16891906D01*
X8942510Y16891873D01*
X8768283Y16892099D01*
X8573570Y16892575D01*
X8356906Y16893294D01*
X8116826Y16894247D01*
X8026400Y16894637D01*
X7822196Y16895634D01*
X7620686Y16896815D01*
X7423820Y16898157D01*
X7233553Y16899639D01*
X7051835Y16901240D01*
X6880620Y16902939D01*
X6721859Y16904713D01*
X6577506Y16906543D01*
X6449512Y16908406D01*
X6339831Y16910281D01*
X6250414Y16912147D01*
X6183213Y16913982D01*
X6153150Y16915114D01*
X5950581Y16924616D01*
X5748661Y16935068D01*
X5545935Y16946603D01*
X5340948Y16959353D01*
X5132243Y16973450D01*
X4918365Y16989029D01*
X4697859Y17006220D01*
X4469269Y17025158D01*
X4231139Y17045973D01*
X3982015Y17068800D01*
X3720440Y17093770D01*
X3444960Y17121017D01*
X3154118Y17150672D01*
X2846459Y17182869D01*
X2520527Y17217740D01*
X2174868Y17255418D01*
X1808025Y17296035D01*
X1418544Y17339725D01*
X1111250Y17374525D01*
X977514Y17389764D01*
X866127Y17402638D01*
X774195Y17413621D01*
X698825Y17423189D01*
X637125Y17431814D01*
X586203Y17439973D01*
X543164Y17448138D01*
X505117Y17456785D01*
X469169Y17466388D01*
X432427Y17477422D01*
X391998Y17490360D01*
X378839Y17494645D01*
X260620Y17530952D01*
X158216Y17556199D01*
X68080Y17569405D01*
X-13334Y17569592D01*
X-89574Y17555780D01*
X-164185Y17526989D01*
X-240715Y17482239D01*
X-322711Y17420552D01*
X-413719Y17340948D01*
X-510531Y17249026D01*
X-553508Y17206571D01*
X-590429Y17167969D01*
X-623336Y17130119D01*
X-654267Y17089915D01*
X-685265Y17044255D01*
X-718369Y16990035D01*
X-755620Y16924152D01*
X-799060Y16843500D01*
X-850727Y16744978D01*
X-883701Y16681450D01*
X-1087469Y16264608D01*
X-1277545Y15828018D01*
X-1453516Y15373585D01*
X-1614972Y14903213D01*
X-1761501Y14418806D01*
X-1892690Y13922270D01*
X-2008127Y13415507D01*
X-2107401Y12900423D01*
X-2190100Y12378922D01*
X-2255812Y11852907D01*
X-2304126Y11324284D01*
X-2334629Y10794956D01*
X-2346909Y10266828D01*
X-2344924Y9925050D01*
X-2342622Y9809894D01*
X-2339782Y9694275D01*
X-2336555Y9582770D01*
X-2333089Y9479954D01*
X-2329536Y9390401D01*
X-2326045Y9318687D01*
X-2323873Y9283700D01*
X-2319830Y9207150D01*
X-2317682Y9116543D01*
X-2317434Y9009388D01*
X-2319093Y8883192D01*
X-2322663Y8735465D01*
X-2325296Y8648700D01*
X-2329134Y8500200D01*
X-2331914Y8326868D01*
X-2333634Y8129250D01*
X-2334293Y7907892D01*
X-2333889Y7663340D01*
X-2332418Y7396140D01*
X-2331090Y7232650D01*
X-2329426Y7040693D01*
X-2328156Y6872384D01*
X-2327345Y6725976D01*
X-2327059Y6599718D01*
X-2327364Y6491862D01*
X-2328323Y6400660D01*
X-2330004Y6324361D01*
X-2332471Y6261218D01*
X-2335789Y6209480D01*
X-2340024Y6167400D01*
X-2345241Y6133228D01*
X-2351506Y6105216D01*
X-2358884Y6081613D01*
X-2367440Y6060672D01*
X-2375498Y6044030D01*
X-2396641Y6010681D01*
X-2423916Y5986003D01*
X-2461662Y5968231D01*
X-2514220Y5955603D01*
X-2585932Y5946353D01*
X-2624284Y5942931D01*
X-2724666Y5937811D01*
X-2848637Y5936696D01*
X-2994731Y5939415D01*
X-3161481Y5945795D01*
X-3347422Y5955664D01*
X-3551088Y5968849D01*
X-3771014Y5985177D01*
X-4005734Y6004477D01*
X-4253782Y6026575D01*
X-4513692Y6051299D01*
X-4783999Y6078478D01*
X-5063236Y6107938D01*
X-5349939Y6139506D01*
X-5642641Y6173011D01*
X-5939876Y6208280D01*
X-6240180Y6245141D01*
X-6542085Y6283421D01*
X-6844127Y6322948D01*
X-7144840Y6363548D01*
X-7442757Y6405051D01*
X-7736414Y6447283D01*
X-8024344Y6490071D01*
X-8305082Y6533244D01*
X-8577162Y6576630D01*
X-8839118Y6620054D01*
X-9089484Y6663346D01*
X-9326795Y6706332D01*
X-9549586Y6748840D01*
X-9658350Y6770524D01*
X-9853169Y6811461D01*
X-10036237Y6853231D01*
X-10217206Y6898199D01*
X-10405728Y6948728D01*
X-10538730Y6986202D01*
X-10691622Y7030367D01*
X-10843062Y7074931D01*
X-10995031Y7120539D01*
X-11149506Y7167835D01*
X-11308468Y7217463D01*
X-11473896Y7270068D01*
X-11647769Y7326292D01*
X-11832067Y7386780D01*
X-12028770Y7452177D01*
X-12239856Y7523125D01*
X-12467304Y7600270D01*
X-12713095Y7684255D01*
X-12979208Y7775725D01*
X-13208000Y7854701D01*
X-13457750Y7941977D01*
X-13728144Y8038188D01*
X-14016459Y8142308D01*
X-14319975Y8253308D01*
X-14635970Y8370164D01*
X-14961721Y8491847D01*
X-15294509Y8617333D01*
X-15631611Y8745592D01*
X-15970305Y8875600D01*
X-16307870Y9006329D01*
X-16641585Y9136753D01*
X-16968727Y9265845D01*
X-17286575Y9392578D01*
X-17316450Y9404563D01*
X-17715903Y9565781D01*
X-18093068Y9719909D01*
X-18449777Y9867815D01*
X-18787865Y10010369D01*
X-19109165Y10148437D01*
X-19415510Y10282888D01*
X-19708732Y10414590D01*
X-19990666Y10544412D01*
X-20263144Y10673222D01*
X-20527999Y10801887D01*
X-20787066Y10931276D01*
X-21042176Y11062257D01*
X-21295163Y11195699D01*
X-21547861Y11332469D01*
X-21802103Y11473436D01*
X-22059721Y11619468D01*
X-22322549Y11771433D01*
X-22358350Y11792345D01*
X-22881421Y12106161D01*
X-23393906Y12429891D01*
X-23898330Y12765372D01*
X-24397217Y13114442D01*
X-24893093Y13478940D01*
X-25388480Y13860703D01*
X-25885906Y14261571D01*
X-26387893Y14683380D01*
X-26695400Y14949978D01*
X-26862971Y15097536D01*
X-27027187Y15243496D01*
X-27189803Y15389502D01*
X-27352574Y15537195D01*
X-27517255Y15688218D01*
X-27685601Y15844214D01*
X-27859367Y16006826D01*
X-28040308Y16177696D01*
X-28230180Y16358466D01*
X-28430736Y16550780D01*
X-28643734Y16756280D01*
X-28870926Y16976608D01*
X-29114069Y17213407D01*
X-29121454Y17220613D01*
X-29359947Y17452833D01*
X-29588548Y17674424D01*
X-29806753Y17884920D01*
X-30014057Y18083855D01*
X-30209953Y18270760D01*
X-30393937Y18445169D01*
X-30565505Y18606615D01*
X-30724150Y18754631D01*
X-30869367Y18888750D01*
X-31000652Y19008505D01*
X-31117499Y19113429D01*
X-31219403Y19203056D01*
X-31305859Y19276918D01*
X-31376362Y19334548D01*
X-31430406Y19375479D01*
X-31467486Y19399245D01*
X-31485193Y19405600D01*
X-31513543Y19393282D01*
X-31545735Y19357161D01*
X-31581425Y19298486D01*
X-31620270Y19218508D01*
X-31661929Y19118476D01*
X-31706057Y18999640D01*
X-31752311Y18863250D01*
X-31800349Y18710555D01*
X-31849827Y18542806D01*
X-31900403Y18361251D01*
X-31951733Y18167142D01*
X-32003474Y17961727D01*
X-32055284Y17746257D01*
X-32106820Y17521981D01*
X-32157737Y17290149D01*
X-32207694Y17052011D01*
X-32256347Y16808816D01*
X-32303353Y16561815D01*
X-32348370Y16312257D01*
X-32372311Y16173450D01*
X-32428946Y15819767D01*
X-32475317Y15485071D01*
X-32511628Y15165204D01*
X-32538079Y14856011D01*
X-32554873Y14553334D01*
X-32562211Y14253015D01*
X-34122987Y14253015D01*
X-34122533Y14365209D01*
X-34120478Y14649042D01*
X-34117478Y14936814D01*
X-34113518Y15226736D01*
X-34112309Y15303500D01*
X-34107363Y15574161D01*
X-34101395Y15822074D01*
X-34093971Y16049885D01*
X-34084658Y16260242D01*
X-34073024Y16455788D01*
X-34058634Y16639171D01*
X-34041055Y16813037D01*
X-34019855Y16980030D01*
X-33994599Y17142798D01*
X-33964854Y17303986D01*
X-33930188Y17466240D01*
X-33890166Y17632205D01*
X-33844356Y17804529D01*
X-33792325Y17985856D01*
X-33733638Y18178833D01*
X-33667862Y18386105D01*
X-33594565Y18610319D01*
X-33547641Y18751550D01*
X-33448196Y19047922D01*
X-33355297Y19321424D01*
X-33268371Y19573570D01*
X-33186846Y19805874D01*
X-33110150Y20019848D01*
X-33037711Y20217007D01*
X-32968956Y20398862D01*
X-32903314Y20566929D01*
X-32840212Y20722720D01*
X-32779079Y20867747D01*
X-32719341Y21003526D01*
X-32660427Y21131568D01*
X-32601766Y21253387D01*
X-32601734Y21253450D01*
X-32500831Y21447630D01*
X-32401404Y21617073D01*
X-32302838Y21762356D01*
X-32204517Y21884054D01*
X-32105824Y21982746D01*
X-32006143Y22059006D01*
X-31904857Y22113412D01*
X-31801351Y22146540D01*
X-31695008Y22158967D01*
X-31635700Y22157236D01*
X-31530610Y22140815D01*
X-31419981Y22107237D01*
X-31303040Y22055944D01*
X-31179013Y21986383D01*
X-31047124Y21897996D01*
X-30906600Y21790228D01*
X-30756666Y21662525D01*
X-30596549Y21514329D01*
X-30425474Y21345086D01*
X-30252329Y21164550D01*
X-30183440Y21091033D01*
X-30121430Y21024606D01*
X-30064160Y20962886D01*
X-30009486Y20903492D01*
X-29955268Y20844042D01*
X-29899362Y20782156D01*
X-29839629Y20715450D01*
X-29773926Y20641543D01*
X-29700111Y20558055D01*
X-29616042Y20462601D01*
X-29519579Y20352802D01*
X-29408579Y20226276D01*
X-29407242Y20224750D01*
X-29204298Y19994097D01*
X-29014659Y19780302D01*
X-28835639Y19580490D01*
X-28664552Y19391785D01*
X-28498713Y19211310D01*
X-28335436Y19036190D01*
X-28172035Y18863549D01*
X-28005824Y18690511D01*
X-27834117Y18514199D01*
X-27654229Y18331738D01*
X-27463473Y18140253D01*
X-27420626Y18097471D01*
X-27171080Y17850246D01*
X-26934252Y17619274D01*
X-26706653Y17401252D01*
X-26484794Y17192876D01*
X-26265185Y16990842D01*
X-26044336Y16791848D01*
X-25996900Y16749627D01*
X-25425378Y16253426D01*
X-24853417Y15779946D01*
X-24277760Y15326665D01*
X-23695149Y14891061D01*
X-23102326Y14470613D01*
X-22701425Y14198553D01*
X-22120678Y13820621D01*
X-21532540Y13456605D01*
X-20934995Y13105461D01*
X-20326023Y12766143D01*
X-19703606Y12437605D01*
X-19065727Y12118803D01*
X-18410368Y11808690D01*
X-17735509Y11506223D01*
X-17039133Y11210355D01*
X-16541750Y11008197D01*
X-16377772Y10943450D01*
X-16192065Y10871415D01*
X-15986965Y10792937D01*
X-15764807Y10708862D01*
X-15527925Y10620034D01*
X-15278654Y10527299D01*
X-15019328Y10431503D01*
X-14752283Y10333492D01*
X-14479852Y10234110D01*
X-14204371Y10134202D01*
X-13928173Y10034616D01*
X-13653594Y9936195D01*
X-13382969Y9839786D01*
X-13118631Y9746233D01*
X-12862916Y9656383D01*
X-12618159Y9571081D01*
X-12386693Y9491172D01*
X-12170853Y9417501D01*
X-11972975Y9350915D01*
X-11880850Y9320328D01*
X-11551670Y9212600D01*
X-11235660Y9111372D01*
X-10930975Y9016260D01*
X-10635767Y8926880D01*
X-10348189Y8842846D01*
X-10066393Y8763774D01*
X-9788531Y8689280D01*
X-9512757Y8618978D01*
X-9237223Y8552483D01*
X-8960082Y8489413D01*
X-8679486Y8429380D01*
X-8393589Y8372002D01*
X-8100541Y8316893D01*
X-7798497Y8263669D01*
X-7485609Y8211944D01*
X-7160030Y8161335D01*
X-6819911Y8111456D01*
X-6463407Y8061924D01*
X-6088668Y8012352D01*
X-5693849Y7962357D01*
X-5277101Y7911555D01*
X-4902200Y7867211D01*
X-4779423Y7852858D01*
X-4653716Y7838147D01*
X-4529839Y7823637D01*
X-4412556Y7809885D01*
X-4306628Y7797450D01*
X-4216817Y7786890D01*
X-4152900Y7779357D01*
X-4076831Y7770463D01*
X-4010034Y7762822D01*
X-3956358Y7756863D01*
X-3919649Y7753009D01*
X-3903756Y7751687D01*
X-3903408Y7751731D01*
X-3902032Y7764296D01*
X-3899049Y7799001D01*
X-3894714Y7852656D01*
X-3889277Y7922070D01*
X-3882993Y8004051D01*
X-3876113Y8095409D01*
X-3874630Y8115300D01*
X-3855766Y8368594D01*
X-3838640Y8598072D01*
X-3823135Y8805251D01*
X-3809131Y8991648D01*
X-3796512Y9158779D01*
X-3785157Y9308160D01*
X-3774949Y9441308D01*
X-3765770Y9559740D01*
X-3757500Y9664971D01*
X-3750022Y9758520D01*
X-3743218Y9841901D01*
X-3736968Y9916632D01*
X-3731154Y9984229D01*
X-3725658Y10046208D01*
X-3720361Y10104087D01*
X-3715146Y10159381D01*
X-3714478Y10166350D01*
X-3637947Y10869854D01*
X-3545207Y11554138D01*
X-3436144Y12219630D01*
X-3310647Y12866760D01*
X-3168601Y13495956D01*
X-3009893Y14107648D01*
X-2834411Y14702264D01*
X-2642041Y15280234D01*
X-2432670Y15841986D01*
X-2206184Y16387949D01*
X-1962471Y16918552D01*
X-1898394Y17049750D01*
X-1626033Y17573584D01*
X-1335562Y18079803D01*
X-1033780Y18557597D01*
X190500Y18557597D01*
X198630Y18521772D01*
X220014Y18475425D01*
X250138Y18426186D01*
X284490Y18381688D01*
X309095Y18357050D01*
X396895Y18293631D01*
X508165Y18233857D01*
X643049Y18177703D01*
X801691Y18125141D01*
X984236Y18076145D01*
X1190827Y18030689D01*
X1421609Y17988745D01*
X1676726Y17950288D01*
X1956322Y17915290D01*
X2260541Y17883726D01*
X2589527Y17855569D01*
X2943426Y17830792D01*
X3270250Y17812040D01*
X3394167Y17805771D01*
X3518241Y17799879D01*
X3643676Y17794343D01*
X3771675Y17789140D01*
X3903442Y17784248D01*
X4040181Y17779645D01*
X4183096Y17775309D01*
X4333391Y17771218D01*
X4492270Y17767349D01*
X4660937Y17763681D01*
X4840596Y17760191D01*
X5032450Y17756858D01*
X5237703Y17753658D01*
X5457560Y17750570D01*
X5693224Y17747571D01*
X5945899Y17744641D01*
X6216790Y17741755D01*
X6507099Y17738893D01*
X6818032Y17736032D01*
X7150791Y17733149D01*
X7506581Y17730224D01*
X7874000Y17727330D01*
X8089540Y17725609D01*
X8300082Y17723820D01*
X8504022Y17721982D01*
X8699759Y17720114D01*
X8885688Y17718235D01*
X9060208Y17716363D01*
X9221715Y17714518D01*
X9368607Y17712718D01*
X9499282Y17710982D01*
X9612136Y17709328D01*
X9705566Y17707775D01*
X9777971Y17706343D01*
X9827747Y17705050D01*
X9848850Y17704205D01*
X9961017Y17700112D01*
X10091582Y17698895D01*
X10233717Y17700437D01*
X10380596Y17704620D01*
X10525394Y17711326D01*
X10623550Y17717579D01*
X10822201Y17736241D01*
X11001521Y17762839D01*
X11166700Y17798695D01*
X11322930Y17845133D01*
X11475403Y17903477D01*
X11624816Y17972794D01*
X11667685Y17994960D01*
X11728693Y18027486D01*
X11803877Y18068209D01*
X11889277Y18114968D01*
X11980932Y18165601D01*
X12074880Y18217945D01*
X12107416Y18236183D01*
X12321606Y18355444D01*
X12517826Y18462529D01*
X12699361Y18559168D01*
X12869497Y18647089D01*
X13031519Y18728021D01*
X13162417Y18791233D01*
X13628227Y19023226D01*
X14096720Y19277256D01*
X14563949Y19550842D01*
X15025968Y19841500D01*
X15478830Y20146750D01*
X15918588Y20464110D01*
X16336924Y20787594D01*
X16408151Y20846032D01*
X16486405Y20912580D01*
X16567097Y20983128D01*
X16645635Y21053568D01*
X16717429Y21119789D01*
X16777889Y21177685D01*
X16816737Y21217066D01*
X16876169Y21287268D01*
X16913136Y21349328D01*
X16928349Y21405499D01*
X16922518Y21458035D01*
X16904806Y21496335D01*
X16868581Y21540260D01*
X16809902Y21591262D01*
X16730430Y21648445D01*
X16631824Y21710909D01*
X16515746Y21777758D01*
X16383856Y21848093D01*
X16237815Y21921015D01*
X16079285Y21995629D01*
X15909925Y22071034D01*
X15731397Y22146334D01*
X15617917Y22192142D01*
X15437376Y22261146D01*
X15240148Y22331753D01*
X15030395Y22402741D01*
X14812279Y22472883D01*
X14589961Y22540956D01*
X14367604Y22605734D01*
X14149370Y22665992D01*
X13939421Y22720507D01*
X13741918Y22768053D01*
X13561023Y22807405D01*
X13461690Y22826665D01*
X13328207Y22850295D01*
X13199521Y22871185D01*
X13073003Y22889530D01*
X12946025Y22905527D01*
X12815956Y22919371D01*
X12680168Y22931259D01*
X12536030Y22941386D01*
X12380914Y22949949D01*
X12212190Y22957143D01*
X12027228Y22963165D01*
X11823400Y22968210D01*
X11598075Y22972475D01*
X11480800Y22974312D01*
X11329799Y22976713D01*
X11174696Y22979488D01*
X11019451Y22982547D01*
X10868027Y22985800D01*
X10724387Y22989157D01*
X10592493Y22992527D01*
X10476306Y22995819D01*
X10379789Y22998943D01*
X10344150Y23000258D01*
X10250447Y23003179D01*
X10137504Y23005512D01*
X10008383Y23007275D01*
X9866146Y23008487D01*
X9713858Y23009164D01*
X9554580Y23009325D01*
X9391376Y23008988D01*
X9227309Y23008170D01*
X9065442Y23006889D01*
X8908837Y23005163D01*
X8760558Y23003010D01*
X8623668Y23000447D01*
X8501230Y22997493D01*
X8396307Y22994165D01*
X8311961Y22990481D01*
X8274050Y22988214D01*
X8096751Y22975585D01*
X7937709Y22963203D01*
X7789794Y22950454D01*
X7645877Y22936725D01*
X7505700Y22922146D01*
X6994462Y22856387D01*
X6498750Y22770798D01*
X6017810Y22665051D01*
X5550889Y22538813D01*
X5097233Y22391753D01*
X4656089Y22223542D01*
X4226704Y22033848D01*
X3808325Y21822340D01*
X3400197Y21588687D01*
X3001568Y21332558D01*
X2611685Y21053624D01*
X2229793Y20751551D01*
X1885950Y20453905D01*
X1813558Y20387053D01*
X1727569Y20305091D01*
X1631555Y20211625D01*
X1529091Y20110258D01*
X1423751Y20004599D01*
X1319107Y19898251D01*
X1218734Y19794820D01*
X1126205Y19697913D01*
X1045095Y19611134D01*
X985369Y19545300D01*
X901394Y19449905D01*
X815357Y19350415D01*
X728862Y19248824D01*
X643512Y19147122D01*
X560909Y19047301D01*
X482657Y18951353D01*
X410359Y18861271D01*
X345617Y18779045D01*
X290035Y18706668D01*
X245215Y18646131D01*
X212760Y18599427D01*
X194274Y18568546D01*
X190500Y18557597D01*
X-1033780Y18557597D01*
X-1026915Y18568465D01*
X-700029Y19039628D01*
X-354840Y19493350D01*
X8717Y19929688D01*
X390705Y20348701D01*
X791190Y20750444D01*
X1210234Y21134977D01*
X1647904Y21502357D01*
X2104261Y21852641D01*
X2579372Y22185887D01*
X3073299Y22502152D01*
X3586108Y22801495D01*
X4117862Y23083973D01*
X4668626Y23349644D01*
X5238463Y23598565D01*
X5528537Y23715966D01*
X5895998Y23858519D01*
X6243709Y23988370D01*
X6573593Y24106066D01*
X6887569Y24212152D01*
X7187561Y24307175D01*
X7475489Y24391682D01*
X7753275Y24466218D01*
X8022842Y24531329D01*
X8286109Y24587562D01*
X8545000Y24635463D01*
X8801436Y24675578D01*
X8993873Y24700952D01*
X9152975Y24719533D01*
X9305846Y24735693D01*
X9455542Y24749578D01*
X9605120Y24761335D01*
X9757636Y24771109D01*
X9916144Y24779046D01*
X10083702Y24785292D01*
X10263366Y24789993D01*
X10458192Y24793296D01*
X10671234Y24795346D01*
X10905551Y24796288D01*
X10991850Y24796383D01*
X11179050Y24796327D01*
X11179050Y24796327D01*
G37*
X11179050Y24796327D02*
X11344043Y24795899D01*
X11490018Y24794980D01*
X11620168Y24793454D01*
X11737683Y24791200D01*
X11845754Y24788101D01*
X11947571Y24784039D01*
X12046327Y24778895D01*
X12145211Y24772550D01*
X12247414Y24764887D01*
X12356129Y24755787D01*
X12474545Y24745132D01*
X12541250Y24738915D01*
X13143323Y24669631D01*
X13740266Y24575498D01*
X14331907Y24456576D01*
X14918077Y24312926D01*
X15498605Y24144610D01*
X16073321Y23951688D01*
X16642056Y23734222D01*
X17204640Y23492273D01*
X17760901Y23225901D01*
X18310671Y22935168D01*
X18853779Y22620134D01*
X19390055Y22280862D01*
X19392900Y22278985D01*
X19525828Y22190819D01*
X19646196Y22109864D01*
X19758885Y22032685D01*
X19868776Y21955843D01*
X19980750Y21875902D01*
X20099688Y21789424D01*
X20230472Y21692972D01*
X20326350Y21621658D01*
X20528525Y21472060D01*
X20713315Y21337883D01*
X20882538Y21217925D01*
X21038014Y21110983D01*
X21181560Y21015855D01*
X21314997Y20931338D01*
X21440143Y20856229D01*
X21558817Y20789327D01*
X21672838Y20729429D01*
X21686238Y20722683D01*
X21764743Y20684216D01*
X21831130Y20654859D01*
X21890105Y20634184D01*
X21946378Y20621767D01*
X22004654Y20617181D01*
X22069642Y20619999D01*
X22146049Y20629798D01*
X22238583Y20646149D01*
X22330843Y20664360D01*
X22483983Y20698370D01*
X22658258Y20742669D01*
X22851893Y20796584D01*
X23063110Y20859438D01*
X23290134Y20930557D01*
X23531188Y21009267D01*
X23784497Y21094891D01*
X24048284Y21186756D01*
X24320773Y21284186D01*
X24600188Y21386507D01*
X24884752Y21493043D01*
X25172689Y21603120D01*
X25462224Y21716062D01*
X25751580Y21831195D01*
X26038980Y21947845D01*
X26322649Y22065335D01*
X26600811Y22182992D01*
X26871688Y22300139D01*
X27133506Y22416103D01*
X27384487Y22530209D01*
X27622856Y22641781D01*
X27846836Y22750144D01*
X27933650Y22793266D01*
X28215942Y22933656D01*
X28477267Y23061508D01*
X28718542Y23177172D01*
X28940687Y23280997D01*
X29144621Y23373333D01*
X29331262Y23454530D01*
X29501530Y23524939D01*
X29656343Y23584909D01*
X29796621Y23634789D01*
X29923282Y23674931D01*
X30037245Y23705684D01*
X30139429Y23727398D01*
X30230753Y23740422D01*
X30312137Y23745108D01*
X30384498Y23741804D01*
X30414084Y23737849D01*
X30526158Y23707033D01*
X30628462Y23652848D01*
X30720849Y23575428D01*
X30803175Y23474910D01*
X30875293Y23351430D01*
X30910142Y23274768D01*
X30948265Y23157322D01*
X30973649Y23020644D01*
X30986360Y22867440D01*
X30986465Y22700412D01*
X30974032Y22522265D01*
X30949126Y22335704D01*
X30911814Y22143433D01*
X30878937Y22009100D01*
X30796152Y21728383D01*
X30693786Y21434793D01*
X30572793Y21130409D01*
X30434125Y20817309D01*
X30278736Y20497573D01*
X30107579Y20173277D01*
X29921606Y19846502D01*
X29780071Y19612474D01*
X29668171Y19434455D01*
X29556783Y19262619D01*
X29443760Y19093987D01*
X29326957Y18925580D01*
X29204226Y18754419D01*
X29073421Y18577526D01*
X28932395Y18391922D01*
X28779003Y18194628D01*
X28611097Y17982666D01*
X28555632Y17913350D01*
X28433928Y17761238D01*
X28327439Y17627333D01*
X28235182Y17510278D01*
X28156176Y17408715D01*
X28089436Y17321288D01*
X28033981Y17246639D01*
X27988827Y17183411D01*
X27952992Y17130246D01*
X27925492Y17085786D01*
X27905346Y17048675D01*
X27891570Y17017556D01*
X27883182Y16991070D01*
X27881183Y16981835D01*
X27880364Y16947980D01*
X27893045Y16923302D01*
X27920323Y16907926D01*
X27963294Y16901980D01*
X28023056Y16905589D01*
X28100703Y16918880D01*
X28197334Y16941980D01*
X28314045Y16975016D01*
X28451932Y17018113D01*
X28588777Y17063486D01*
X28802568Y17136777D01*
X29005038Y17208276D01*
X29201109Y17279874D01*
X29395701Y17353462D01*
X29593736Y17430931D01*
X29800133Y17514171D01*
X30019815Y17605074D01*
X30238700Y17697444D01*
X30506409Y17810115D01*
X30753018Y17911369D01*
X30979883Y18001663D01*
X31188357Y18081453D01*
X31379794Y18151196D01*
X31555549Y18211348D01*
X31716977Y18262365D01*
X31865432Y18304704D01*
X32002269Y18338822D01*
X32128841Y18365175D01*
X32246504Y18384220D01*
X32294232Y18390223D01*
X32434967Y18398216D01*
X32559585Y18388282D01*
X32667507Y18360616D01*
X32758153Y18315415D01*
X32830942Y18252877D01*
X32874297Y18193303D01*
X32919932Y18099320D01*
X32958718Y17987804D01*
X32988996Y17866082D01*
X33009110Y17741484D01*
X33017404Y17621341D01*
X33016546Y17564100D01*
X33008191Y17469574D01*
X32991732Y17372358D01*
X32966444Y17270997D01*
X32931600Y17164036D01*
X32886475Y17050020D01*
X32830344Y16927494D01*
X32762481Y16795002D01*
X32682160Y16651089D01*
X32588657Y16494301D01*
X32481245Y16323181D01*
X32359198Y16136276D01*
X32221792Y15932128D01*
X32152209Y15830550D01*
X31763725Y15281379D01*
X31369769Y14755048D01*
X30968293Y14249232D01*
X30557248Y13761603D01*
X30134587Y13289834D01*
X29698262Y12831599D01*
X29246225Y12384570D01*
X28776426Y11946421D01*
X28573271Y11764441D01*
X28466731Y11670726D01*
X28361223Y11579248D01*
X28255237Y11488825D01*
X28147263Y11398276D01*
X28035791Y11306416D01*
X27919311Y11212065D01*
X27796314Y11114040D01*
X27665290Y11011158D01*
X27524729Y10902236D01*
X27373122Y10786094D01*
X27208958Y10661547D01*
X27030728Y10527414D01*
X26836922Y10382513D01*
X26626031Y10225660D01*
X26396544Y10055674D01*
X26305325Y9988258D01*
X26099400Y9836150D01*
X26098755Y8947150D01*
X26097785Y8554094D01*
X26095410Y8183762D01*
X26091551Y7833516D01*
X26086130Y7500714D01*
X26079066Y7182718D01*
X26070280Y6876886D01*
X26059693Y6580579D01*
X26047226Y6291156D01*
X26032799Y6005978D01*
X26016333Y5722404D01*
X25997748Y5437794D01*
X25990031Y5327650D01*
X25905565Y4321587D01*
X25796030Y3318698D01*
X25661587Y2319503D01*
X25502396Y1324520D01*
X25318618Y334268D01*
X25110413Y-650734D01*
X24877942Y-1629968D01*
X24621365Y-2602915D01*
X24340843Y-3569055D01*
X24036536Y-4527871D01*
X23708605Y-5478844D01*
X23357211Y-6421454D01*
X22982514Y-7355184D01*
X22584674Y-8279513D01*
X22163852Y-9193924D01*
X21720209Y-10097899D01*
X21253905Y-10990917D01*
X20765100Y-11872460D01*
X20554718Y-12236450D01*
X20029095Y-13110022D01*
X19483501Y-13967900D01*
X18917944Y-14810076D01*
X18332431Y-15636538D01*
X17726971Y-16447278D01*
X17101572Y-17242287D01*
X16456241Y-18021553D01*
X15790987Y-18785069D01*
X15105817Y-19532825D01*
X14400739Y-20264810D01*
X13675762Y-20981016D01*
X12930893Y-21681433D01*
X12166140Y-22366051D01*
X11976100Y-22531065D01*
X11852325Y-22637851D01*
X11744989Y-22730329D01*
X11651347Y-22810838D01*
X11568649Y-22881713D01*
X11494149Y-22945292D01*
X11425099Y-23003911D01*
X11358752Y-23059907D01*
X11292360Y-23115617D01*
X11223177Y-23173377D01*
X11148454Y-23235524D01*
X11123689Y-23256085D01*
X10350305Y-23881527D01*
X9562690Y-24485958D01*
X8761109Y-25069226D01*
X7945829Y-25631174D01*
X7117116Y-26171649D01*
X6275237Y-26690496D01*
X5420458Y-27187562D01*
X4553045Y-27662692D01*
X3673264Y-28115731D01*
X2781382Y-28546526D01*
X1877665Y-28954921D01*
X962379Y-29340763D01*
X35791Y-29703898D01*
X-75418Y-29745668D01*
X-999336Y-30077646D01*
X-1932491Y-30386251D01*
X-2873888Y-30671238D01*
X-3822529Y-30932364D01*
X-4777420Y-31169382D01*
X-5737564Y-31382049D01*
X-6701965Y-31570121D01*
X-7669626Y-31733351D01*
X-8639552Y-31871496D01*
X-8826500Y-31895197D01*
X-9062040Y-31922891D01*
X-9309571Y-31948883D01*
X-9570174Y-31973234D01*
X-9844930Y-31996002D01*
X-10134919Y-32017248D01*
X-10441223Y-32037031D01*
X-10764921Y-32055411D01*
X-11107094Y-32072449D01*
X-11468824Y-32088204D01*
X-11851190Y-32102735D01*
X-12255274Y-32116102D01*
X-12682155Y-32128367D01*
X-13132915Y-32139587D01*
X-13315950Y-32143704D01*
X-13418654Y-32145587D01*
X-13544197Y-32147277D01*
X-13690230Y-32148776D01*
X-13854399Y-32150084D01*
X-14034352Y-32151202D01*
X-14227739Y-32152131D01*
X-14432206Y-32152870D01*
X-14645402Y-32153422D01*
X-14864975Y-32153785D01*
X-15088573Y-32153962D01*
X-15313843Y-32153952D01*
X-15538435Y-32153756D01*
X-15759996Y-32153375D01*
X-15976173Y-32152809D01*
X-16184616Y-32152059D01*
X-16382972Y-32151125D01*
X-16568889Y-32150009D01*
X-16740015Y-32148710D01*
X-16893999Y-32147230D01*
X-17028487Y-32145568D01*
X-17141129Y-32143726D01*
X-17189450Y-32142716D01*
X-17542122Y-32133646D01*
X-17884070Y-32122890D01*
X-18213516Y-32110540D01*
X-18528679Y-32096687D01*
X-18827778Y-32081426D01*
X-19109034Y-32064847D01*
X-19370666Y-32047043D01*
X-19610895Y-32028108D01*
X-19827940Y-32008132D01*
X-19875500Y-32003285D01*
X-20006004Y-31988582D01*
X-20158458Y-31969431D01*
X-20329891Y-31946291D01*
X-20517330Y-31919620D01*
X-20717805Y-31889878D01*
X-20928344Y-31857523D01*
X-21145975Y-31823015D01*
X-21367727Y-31786812D01*
X-21590629Y-31749373D01*
X-21811709Y-31711157D01*
X-22027995Y-31672622D01*
X-22091650Y-31661042D01*
X-23117325Y-31461056D01*
X-24139575Y-31236926D01*
X-25157326Y-30989009D01*
X-26169507Y-30717662D01*
X-27175047Y-30423246D01*
X-28172872Y-30106116D01*
X-29161911Y-29766633D01*
X-30141091Y-29405153D01*
X-31109341Y-29022036D01*
X-32065588Y-28617640D01*
X-33008760Y-28192322D01*
X-33937786Y-27746441D01*
X-34201100Y-27615004D01*
X-34515893Y-27454429D01*
X-34806994Y-27301579D01*
X-35074811Y-27156160D01*
X-35319755Y-27017878D01*
X-35542234Y-26886441D01*
X-35742659Y-26761556D01*
X-35833625Y-26701195D01*
X-31985040Y-26701195D01*
X-31970846Y-26720763D01*
X-31936568Y-26748105D01*
X-31883914Y-26782289D01*
X-31814593Y-26822382D01*
X-31730312Y-26867453D01*
X-31632781Y-26916568D01*
X-31523706Y-26968796D01*
X-31404796Y-27023205D01*
X-31277759Y-27078861D01*
X-31222950Y-27102149D01*
X-30977871Y-27203647D01*
X-30714269Y-27309682D01*
X-30434490Y-27419441D01*
X-30140882Y-27532114D01*
X-29835791Y-27646887D01*
X-29521566Y-27762949D01*
X-29200551Y-27879489D01*
X-28875095Y-27995692D01*
X-28547545Y-28110749D01*
X-28220246Y-28223847D01*
X-27895547Y-28334174D01*
X-27575794Y-28440917D01*
X-27263333Y-28543266D01*
X-26960513Y-28640407D01*
X-26669679Y-28731530D01*
X-26393180Y-28815821D01*
X-26133360Y-28892469D01*
X-25892569Y-28960663D01*
X-25704800Y-29011323D01*
X-24886965Y-29218349D01*
X-24056750Y-29413407D01*
X-23218748Y-29595600D01*
X-22377556Y-29764033D01*
X-21537769Y-29917810D01*
X-20703981Y-30056034D01*
X-19880788Y-30177811D01*
X-19380200Y-30244348D01*
X-19191870Y-30265958D01*
X-18984296Y-30285350D01*
X-18756480Y-30302584D01*
X-18507425Y-30317718D01*
X-18236132Y-30330815D01*
X-17941602Y-30341932D01*
X-17622839Y-30351132D01*
X-17589500Y-30351950D01*
X-17471534Y-30354365D01*
X-17330915Y-30356493D01*
X-17170390Y-30358334D01*
X-16992705Y-30359885D01*
X-16800606Y-30361148D01*
X-16596840Y-30362119D01*
X-16384151Y-30362799D01*
X-16165287Y-30363187D01*
X-15942994Y-30363281D01*
X-15720018Y-30363081D01*
X-15499104Y-30362585D01*
X-15282999Y-30361792D01*
X-15074450Y-30360703D01*
X-14876201Y-30359314D01*
X-14691000Y-30357626D01*
X-14521593Y-30355638D01*
X-14370725Y-30353348D01*
X-14357350Y-30353113D01*
X-13900341Y-30344113D01*
X-13453853Y-30333606D01*
X-13018951Y-30321646D01*
X-12596701Y-30308288D01*
X-12188167Y-30293586D01*
X-11794415Y-30277594D01*
X-11416509Y-30260367D01*
X-11055514Y-30241957D01*
X-10712496Y-30222421D01*
X-10388519Y-30201811D01*
X-10084649Y-30180182D01*
X-9801950Y-30157588D01*
X-9541488Y-30134084D01*
X-9304327Y-30109723D01*
X-9099550Y-30085580D01*
X-8866841Y-30054709D01*
X-8613467Y-30018587D01*
X-8343459Y-29977891D01*
X-8060853Y-29933293D01*
X-7769682Y-29885471D01*
X-7473979Y-29835098D01*
X-7177777Y-29782849D01*
X-6885110Y-29729400D01*
X-6600011Y-29675424D01*
X-6326514Y-29621598D01*
X-6325619Y-29621418D01*
X-5370507Y-29417528D01*
X-4429469Y-29192559D01*
X-3502160Y-28946343D01*
X-2588234Y-28678712D01*
X-1687348Y-28389498D01*
X-799156Y-28078532D01*
X76688Y-27745647D01*
X940527Y-27390675D01*
X1792707Y-27013446D01*
X2633574Y-26613794D01*
X3463471Y-26191549D01*
X4282745Y-25746545D01*
X5091739Y-25278612D01*
X5890799Y-24787582D01*
X6680271Y-24273288D01*
X7460498Y-23735561D01*
X8231826Y-23174234D01*
X8994600Y-22589137D01*
X9749164Y-21980103D01*
X10293350Y-21521721D01*
X10993395Y-20907931D01*
X11686514Y-20273093D01*
X12369644Y-19620256D01*
X13039722Y-18952474D01*
X13693685Y-18272796D01*
X14328470Y-17584273D01*
X14929673Y-16903104D01*
X15520039Y-16202561D01*
X16094636Y-15487347D01*
X16652226Y-14759236D01*
X17191570Y-14020000D01*
X17711429Y-13271413D01*
X18210565Y-12515248D01*
X18687740Y-11753277D01*
X19141714Y-10987273D01*
X19471669Y-10401300D01*
X19621920Y-10128250D01*
X-1085884Y-10125071D01*
X-21793689Y-10121892D01*
X-21961720Y-10203943D01*
X-22154415Y-10290431D01*
X-22367959Y-10371783D01*
X-22603063Y-10448199D01*
X-22860438Y-10519877D01*
X-23140798Y-10587018D01*
X-23444855Y-10649818D01*
X-23759082Y-10706106D01*
X-23884469Y-10726454D01*
X-24009444Y-10745400D01*
X-24136893Y-10763273D01*
X-24269703Y-10780402D01*
X-24410758Y-10797115D01*
X-24562944Y-10813743D01*
X-24729148Y-10830614D01*
X-24912253Y-10848058D01*
X-25115147Y-10866402D01*
X-25323800Y-10884532D01*
X-25546937Y-10904565D01*
X-25760370Y-10925607D01*
X-25962359Y-10947418D01*
X-26151161Y-10969761D01*
X-26325031Y-10992397D01*
X-26482229Y-11015087D01*
X-26621010Y-11037592D01*
X-26739633Y-11059675D01*
X-26836355Y-11081097D01*
X-26909003Y-11101478D01*
X-26962026Y-11122212D01*
X-26994488Y-11145862D01*
X-27009581Y-11178063D01*
X-27010495Y-11224452D01*
X-27004205Y-11269583D01*
X-26982322Y-11358248D01*
X-26944372Y-11464655D01*
X-26891117Y-11587523D01*
X-26823321Y-11725572D01*
X-26741745Y-11877519D01*
X-26647153Y-12042085D01*
X-26540308Y-12217987D01*
X-26421973Y-12403944D01*
X-26292910Y-12598675D01*
X-26153882Y-12800899D01*
X-26005651Y-13009335D01*
X-25848982Y-13222702D01*
X-25811669Y-13272559D01*
X-25577246Y-13578717D01*
X-25349969Y-13863108D01*
X-25127993Y-14127722D01*
X-24909470Y-14374549D01*
X-24692553Y-14605576D01*
X-24475396Y-14822792D01*
X-24256153Y-15028187D01*
X-24032975Y-15223749D01*
X-23888700Y-15343467D01*
X-23557394Y-15601749D01*
X-23203529Y-15856998D01*
X-22829899Y-16107742D01*
X-22439299Y-16352511D01*
X-22034521Y-16589834D01*
X-21618358Y-16818241D01*
X-21193606Y-17036261D01*
X-20763057Y-17242422D01*
X-20329504Y-17435255D01*
X-19895742Y-17613288D01*
X-19464564Y-17775052D01*
X-19038764Y-17919074D01*
X-18933817Y-17952032D01*
X-18861792Y-17974133D01*
X-18791588Y-17995288D01*
X-18721744Y-18015852D01*
X-18650799Y-18036180D01*
X-18577291Y-18056627D01*
X-18499758Y-18077550D01*
X-18416741Y-18099304D01*
X-18326776Y-18122243D01*
X-18228403Y-18146723D01*
X-18120162Y-18173100D01*
X-18000589Y-18201729D01*
X-17868224Y-18232966D01*
X-17721606Y-18267165D01*
X-17559274Y-18304682D01*
X-17379765Y-18345873D01*
X-17181620Y-18391093D01*
X-16963375Y-18440697D01*
X-16723571Y-18495041D01*
X-16460746Y-18554480D01*
X-16402050Y-18567742D01*
X-16245663Y-18603338D01*
X-16112254Y-18634306D01*
X-15999918Y-18661128D01*
X-15906753Y-18684283D01*
X-15830855Y-18704254D01*
X-15770320Y-18721520D01*
X-15723245Y-18736562D01*
X-15699326Y-18745235D01*
X-15548661Y-18812732D01*
X-15406230Y-18895143D01*
X-15274898Y-18989920D01*
X-15157530Y-19094512D01*
X-15056987Y-19206368D01*
X-14976136Y-19322939D01*
X-14918186Y-19440782D01*
X-14900502Y-19515187D01*
X-14898822Y-19599122D01*
X-14912844Y-19682643D01*
X-14926796Y-19723966D01*
X-14952228Y-19777462D01*
X-14987791Y-19838076D01*
X-15034599Y-19907220D01*
X-15093765Y-19986309D01*
X-15166402Y-20076756D01*
X-15253624Y-20179975D01*
X-15356544Y-20297379D01*
X-15476277Y-20430382D01*
X-15527143Y-20486103D01*
X-15818059Y-20788337D01*
X-16133443Y-21086816D01*
X-16472595Y-21381205D01*
X-16834815Y-21671171D01*
X-17219403Y-21956378D01*
X-17625659Y-22236493D01*
X-18052882Y-22511180D01*
X-18500373Y-22780106D01*
X-18967430Y-23042936D01*
X-19453355Y-23299335D01*
X-19957446Y-23548970D01*
X-20479004Y-23791505D01*
X-21017328Y-24026606D01*
X-21571718Y-24253940D01*
X-22141474Y-24473171D01*
X-22725896Y-24683964D01*
X-23324283Y-24885987D01*
X-23935936Y-25078903D01*
X-24560154Y-25262380D01*
X-25196237Y-25436081D01*
X-25843485Y-25599674D01*
X-26501197Y-25752823D01*
X-26600150Y-25774750D01*
X-26956021Y-25850931D01*
X-27321226Y-25924985D01*
X-27691703Y-25996216D01*
X-28063386Y-26063929D01*
X-28432211Y-26127430D01*
X-28794114Y-26186023D01*
X-29145030Y-26239015D01*
X-29480896Y-26285709D01*
X-29797646Y-26325412D01*
X-29870400Y-26333827D01*
X-30303377Y-26387586D01*
X-30724439Y-26449429D01*
X-31146317Y-26521292D01*
X-31337250Y-26556924D01*
X-31429365Y-26574779D01*
X-31525036Y-26593727D01*
X-31620527Y-26612989D01*
X-31712103Y-26631787D01*
X-31796029Y-26649342D01*
X-31868569Y-26664876D01*
X-31925988Y-26677610D01*
X-31964550Y-26686766D01*
X-31977442Y-26690334D01*
X-31985040Y-26701195D01*
X-35833625Y-26701195D01*
X-35921437Y-26642928D01*
X-36078978Y-26530265D01*
X-36215692Y-26423273D01*
X-36331987Y-26321659D01*
X-36428274Y-26225130D01*
X-36504960Y-26133393D01*
X-36562456Y-26046153D01*
X-36601171Y-25963119D01*
X-36621513Y-25883996D01*
X-36622082Y-25879935D01*
X-36624592Y-25851766D01*
X-36622598Y-25825727D01*
X-36614377Y-25795971D01*
X-36598206Y-25756652D01*
X-36572362Y-25701923D01*
X-36565401Y-25687631D01*
X-36479558Y-25535280D01*
X-36375419Y-25393880D01*
X-36249528Y-25258763D01*
X-36243498Y-25252949D01*
X-36147217Y-25166177D01*
X-36054051Y-25095329D01*
X-35959164Y-25038181D01*
X-35857722Y-24992509D01*
X-35744891Y-24956090D01*
X-35615835Y-24926701D01*
X-35487569Y-24905261D01*
X-35421855Y-24896399D01*
X-35350727Y-24888429D01*
X-35272337Y-24881273D01*
X-35184837Y-24874851D01*
X-35086380Y-24869086D01*
X-34975117Y-24863899D01*
X-34849200Y-24859211D01*
X-34706782Y-24854944D01*
X-34546015Y-24851019D01*
X-34365051Y-24847358D01*
X-34162043Y-24843882D01*
X-33978850Y-24841130D01*
X-33743696Y-24837507D01*
X-33530266Y-24833576D01*
X-33334883Y-24829160D01*
X-33153871Y-24824083D01*
X-32983554Y-24818168D01*
X-32820257Y-24811240D01*
X-32660302Y-24803123D01*
X-32500014Y-24793639D01*
X-32335716Y-24782613D01*
X-32163733Y-24769868D01*
X-31980389Y-24755229D01*
X-31782006Y-24738519D01*
X-31711900Y-24732458D01*
X-31160854Y-24679865D01*
X-30601039Y-24617298D01*
X-30034597Y-24545211D01*
X-29463663Y-24464057D01*
X-28890377Y-24374292D01*
X-28316878Y-24276370D01*
X-27745302Y-24170746D01*
X-27177788Y-24057873D01*
X-26616476Y-23938207D01*
X-26063502Y-23812201D01*
X-25521005Y-23680311D01*
X-24991123Y-23542990D01*
X-24475995Y-23400694D01*
X-23977759Y-23253876D01*
X-23498553Y-23102991D01*
X-23040515Y-22948494D01*
X-22644100Y-22805221D01*
X-22463792Y-22737081D01*
X-22298066Y-22672818D01*
X-22142630Y-22610553D01*
X-21993195Y-22548409D01*
X-21845471Y-22484510D01*
X-21695166Y-22416977D01*
X-21537991Y-22343935D01*
X-21369654Y-22263505D01*
X-21185866Y-22173811D01*
X-21069300Y-22116210D01*
X-20748939Y-21955514D01*
X-20435527Y-21794747D01*
X-20130944Y-21634953D01*
X-19837066Y-21477177D01*
X-19555772Y-21322462D01*
X-19288938Y-21171855D01*
X-19038443Y-21026399D01*
X-18806163Y-20887138D01*
X-18593977Y-20755118D01*
X-18421350Y-20643094D01*
X-18298101Y-20559967D01*
X-18196228Y-20488410D01*
X-18114861Y-20427744D01*
X-18053127Y-20377287D01*
X-18010155Y-20336358D01*
X-17985071Y-20304277D01*
X-17983230Y-20301005D01*
X-17972568Y-20276980D01*
X-17975990Y-20260442D01*
X-17996479Y-20241040D01*
X-18001732Y-20236825D01*
X-18039435Y-20212832D01*
X-18100912Y-20181858D01*
X-18185580Y-20144127D01*
X-18292856Y-20099859D01*
X-18422157Y-20049278D01*
X-18572899Y-19992603D01*
X-18744499Y-19930059D01*
X-18936374Y-19861866D01*
X-19147941Y-19788246D01*
X-19378616Y-19709422D01*
X-19462750Y-19680984D01*
X-19648569Y-19618139D01*
X-19813494Y-19561870D01*
X-19960817Y-19510990D01*
X-20093829Y-19464311D01*
X-20215822Y-19420646D01*
X-20330086Y-19378807D01*
X-20439913Y-19337606D01*
X-20548594Y-19295855D01*
X-20659419Y-19252368D01*
X-20745450Y-19218088D01*
X-21335107Y-18969933D01*
X-21908452Y-18704589D01*
X-22464891Y-18422409D01*
X-23003829Y-18123748D01*
X-23524670Y-17808960D01*
X-24026822Y-17478400D01*
X-24509688Y-17132423D01*
X-24972674Y-16771381D01*
X-25273000Y-16519903D01*
X-25529935Y-16291748D01*
X-25789731Y-16048203D01*
X-26047085Y-15794608D01*
X-26296692Y-15536304D01*
X-26533248Y-15278631D01*
X-26727080Y-15055850D01*
X-27071593Y-14629241D01*
X-27394866Y-14189135D01*
X-27696550Y-13736124D01*
X-27976292Y-13270800D01*
X-28233742Y-12793755D01*
X-28468547Y-12305582D01*
X-28680358Y-11806873D01*
X-28731647Y-11675483D01*
X-28762888Y-11591866D01*
X-28799673Y-11489897D01*
X-28840462Y-11374139D01*
X-28883716Y-11249154D01*
X-28927893Y-11119505D01*
X-28971454Y-10989755D01*
X-29012858Y-10864465D01*
X-29050565Y-10748198D01*
X-29083035Y-10645516D01*
X-29108727Y-10560983D01*
X-29113955Y-10543064D01*
X-29155094Y-10392558D01*
X-29184954Y-10261883D01*
X-29203011Y-10147859D01*
X-29208735Y-10047304D01*
X-29201599Y-9957038D01*
X-29181077Y-9873878D01*
X-29146640Y-9794644D01*
X-29097762Y-9716154D01*
X-29033915Y-9635228D01*
X-28954571Y-9548684D01*
X-28947993Y-9541890D01*
X-28853628Y-9455223D01*
X-28751422Y-9382711D01*
X-28638239Y-9323010D01*
X-28510940Y-9274775D01*
X-28366390Y-9236662D01*
X-28201452Y-9207327D01*
X-28151431Y-9200534D01*
X-28105661Y-9196003D01*
X-28038441Y-9191166D01*
X-27953718Y-9186218D01*
X-27855437Y-9181356D01*
X-27747545Y-9176776D01*
X-27633988Y-9172675D01*
X-27527250Y-9169476D01*
X-27327518Y-9163703D01*
X-27151864Y-9157681D01*
X-26998968Y-9151263D01*
X-26867508Y-9144301D01*
X-26756165Y-9136646D01*
X-26663616Y-9128152D01*
X-26588541Y-9118669D01*
X-26529619Y-9108051D01*
X-26485529Y-9096149D01*
X-26454949Y-9082815D01*
X-26436560Y-9067901D01*
X-26429039Y-9051259D01*
X-26428700Y-9046457D01*
X-26435625Y-9026479D01*
X-26457321Y-9000106D01*
X-26495176Y-8966231D01*
X-26550576Y-8923749D01*
X-26624905Y-8871554D01*
X-26719551Y-8808542D01*
X-26759442Y-8782622D01*
X-27138547Y-8532420D01*
X-27513172Y-8274980D01*
X-27879786Y-8012907D01*
X-28234858Y-7748806D01*
X-28574860Y-7485284D01*
X-28896260Y-7224945D01*
X-29083000Y-7067678D01*
X-29412928Y-6777630D01*
X-29738810Y-6475914D01*
X-30056913Y-6166290D01*
X-30363501Y-5852515D01*
X-30654840Y-5538350D01*
X-30927196Y-5227551D01*
X-31013865Y-5124450D01*
X-31372146Y-4675175D01*
X-31709631Y-4214144D01*
X-32026573Y-3740811D01*
X-32323223Y-3254632D01*
X-32599834Y-2755061D01*
X-32856657Y-2241553D01*
X-33093944Y-1713563D01*
X-33311947Y-1170546D01*
X-33510919Y-611956D01*
X-33691111Y-37248D01*
X-33852774Y554122D01*
X-33996161Y1162700D01*
X-34059726Y1466850D01*
X-34121121Y1787501D01*
X-34178752Y2117264D01*
X-34231737Y2450149D01*
X-34248190Y2564573D01*
X-32435178Y2564573D01*
X-32435011Y2520134D01*
X-32433123Y2457003D01*
X-32431757Y2419350D01*
X-32425995Y2324660D01*
X-32415273Y2209754D01*
X-32400219Y2079194D01*
X-32381464Y1937544D01*
X-32359636Y1789364D01*
X-32335365Y1639218D01*
X-32309281Y1491666D01*
X-32289549Y1388680D01*
X-32176659Y884681D01*
X-32039152Y383799D01*
X-31877721Y-112988D01*
X-31693060Y-604698D01*
X-31485860Y-1090353D01*
X-31256815Y-1568973D01*
X-31006618Y-2039579D01*
X-30735962Y-2501190D01*
X-30445540Y-2952827D01*
X-30136044Y-3393511D01*
X-29808169Y-3822262D01*
X-29462606Y-4238100D01*
X-29100049Y-4640045D01*
X-28721191Y-5027118D01*
X-28326725Y-5398340D01*
X-27917344Y-5752730D01*
X-27493740Y-6089309D01*
X-27056607Y-6407098D01*
X-26606638Y-6705116D01*
X-26530300Y-6752884D01*
X-26172884Y-6965071D01*
X-25792833Y-7172401D01*
X-25392624Y-7373823D01*
X-24974737Y-7568287D01*
X-24541650Y-7754741D01*
X-24095839Y-7932135D01*
X-23639785Y-8099418D01*
X-23175964Y-8255540D01*
X-22706855Y-8399448D01*
X-22523450Y-8451911D01*
X-22320468Y-8515465D01*
X-22133213Y-8587667D01*
X-21963817Y-8667474D01*
X-21814410Y-8753843D01*
X-21687121Y-8845730D01*
X-21644305Y-8882499D01*
X-21577697Y-8952891D01*
X-21515594Y-9037037D01*
X-21463500Y-9126431D01*
X-21426917Y-9212563D01*
X-21423213Y-9224322D01*
X-21409364Y-9269603D01*
X-21397922Y-9305118D01*
X-21391097Y-9324039D01*
X-21390636Y-9324975D01*
X-21377806Y-9325356D01*
X-21340089Y-9325729D01*
X-21278000Y-9326094D01*
X-21192051Y-9326451D01*
X-21082758Y-9326799D01*
X-20950632Y-9327139D01*
X-20796189Y-9327471D01*
X-20619941Y-9327795D01*
X-20422402Y-9328110D01*
X-20204086Y-9328418D01*
X-19965507Y-9328717D01*
X-19707177Y-9329008D01*
X-19429612Y-9329291D01*
X-19133324Y-9329566D01*
X-18818828Y-9329832D01*
X-18486636Y-9330091D01*
X-18137263Y-9330341D01*
X-17771222Y-9330583D01*
X-17389026Y-9330817D01*
X-16991190Y-9331043D01*
X-16578227Y-9331261D01*
X-16150651Y-9331471D01*
X-15708976Y-9331673D01*
X-15253714Y-9331867D01*
X-14785380Y-9332053D01*
X-14304487Y-9332230D01*
X-13811550Y-9332400D01*
X-13307081Y-9332562D01*
X-12791594Y-9332715D01*
X-12265603Y-9332861D01*
X-11729622Y-9332999D01*
X-11184165Y-9333128D01*
X-10629744Y-9333250D01*
X-10066874Y-9333364D01*
X-9496068Y-9333470D01*
X-8917840Y-9333568D01*
X-8332703Y-9333658D01*
X-7741172Y-9333740D01*
X-7143760Y-9333814D01*
X-6540980Y-9333880D01*
X-5933346Y-9333938D01*
X-5321372Y-9333989D01*
X-4705572Y-9334032D01*
X-4086459Y-9334066D01*
X-3464546Y-9334093D01*
X-2840348Y-9334112D01*
X-2214378Y-9334124D01*
X-1587150Y-9334127D01*
X-959177Y-9334123D01*
X-330974Y-9334110D01*
X296947Y-9334090D01*
X924072Y-9334063D01*
X1549886Y-9334027D01*
X2173877Y-9333984D01*
X2795531Y-9333933D01*
X3414333Y-9333874D01*
X4029771Y-9333807D01*
X4641331Y-9333733D01*
X5248498Y-9333651D01*
X5850760Y-9333561D01*
X6447603Y-9333464D01*
X7038513Y-9333359D01*
X7622976Y-9333246D01*
X8200479Y-9333126D01*
X8770509Y-9332997D01*
X9332550Y-9332862D01*
X9886091Y-9332718D01*
X10430616Y-9332567D01*
X10965613Y-9332409D01*
X11490568Y-9332243D01*
X12004968Y-9332069D01*
X12508297Y-9331887D01*
X13000044Y-9331698D01*
X13479694Y-9331502D01*
X13946733Y-9331298D01*
X14400648Y-9331086D01*
X14840926Y-9330867D01*
X15267052Y-9330640D01*
X15678513Y-9330406D01*
X16074796Y-9330164D01*
X16455386Y-9329914D01*
X16819770Y-9329658D01*
X17167434Y-9329393D01*
X17497866Y-9329122D01*
X17810550Y-9328842D01*
X18104973Y-9328556D01*
X18380623Y-9328262D01*
X18636984Y-9327960D01*
X18873544Y-9327651D01*
X19089788Y-9327335D01*
X19285204Y-9327011D01*
X19459277Y-9326680D01*
X19611494Y-9326341D01*
X19741341Y-9325995D01*
X19848304Y-9325642D01*
X19931871Y-9325281D01*
X19991526Y-9324913D01*
X20026757Y-9324537D01*
X20037151Y-9324199D01*
X20048027Y-9309355D01*
X20068564Y-9273420D01*
X20097808Y-9218380D01*
X20134804Y-9146219D01*
X20178598Y-9058922D01*
X20228235Y-8958473D01*
X20282760Y-8846858D01*
X20341218Y-8726061D01*
X20402656Y-8598067D01*
X20466117Y-8464860D01*
X20530648Y-8328425D01*
X20595293Y-8190748D01*
X20659099Y-8053812D01*
X20721110Y-7919602D01*
X20780371Y-7790104D01*
X20835929Y-7667301D01*
X20859960Y-7613650D01*
X21228614Y-6758586D01*
X21578593Y-5887593D01*
X21909289Y-5002595D01*
X22220094Y-4105517D01*
X22510401Y-3198282D01*
X22779601Y-2282814D01*
X23027087Y-1361037D01*
X23252251Y-434875D01*
X23454486Y493748D01*
X23513247Y785975D01*
X23529902Y871965D01*
X23548446Y970270D01*
X23568378Y1078020D01*
X23589199Y1192347D01*
X23610409Y1310381D01*
X23631508Y1429254D01*
X23651996Y1546095D01*
X23671372Y1658035D01*
X23689138Y1762206D01*
X23704792Y1855737D01*
X23717835Y1935760D01*
X23727768Y1999406D01*
X23734089Y2043804D01*
X23736300Y2066061D01*
X23732897Y2066718D01*
X23722489Y2067358D01*
X23704776Y2067982D01*
X23679459Y2068589D01*
X23646238Y2069181D01*
X23604814Y2069757D01*
X23554888Y2070317D01*
X23496161Y2070861D01*
X23428332Y2071390D01*
X23351102Y2071904D01*
X23264172Y2072404D01*
X23167243Y2072888D01*
X23060014Y2073358D01*
X22942188Y2073814D01*
X22813463Y2074256D01*
X22673542Y2074684D01*
X22522123Y2075098D01*
X22358909Y2075499D01*
X22183599Y2075886D01*
X21995894Y2076261D01*
X21795495Y2076622D01*
X21582103Y2076971D01*
X21355417Y2077307D01*
X21115138Y2077631D01*
X20860968Y2077943D01*
X20592606Y2078243D01*
X20309753Y2078532D01*
X20012110Y2078808D01*
X19699377Y2079074D01*
X19371256Y2079328D01*
X19027445Y2079572D01*
X18667647Y2079805D01*
X18291561Y2080027D01*
X17898889Y2080239D01*
X17489330Y2080441D01*
X17062586Y2080633D01*
X16618356Y2080815D01*
X16156342Y2080988D01*
X15676245Y2081152D01*
X15177764Y2081306D01*
X14660600Y2081452D01*
X14124454Y2081588D01*
X13569026Y2081717D01*
X12994018Y2081837D01*
X12399129Y2081948D01*
X11784060Y2082052D01*
X11148511Y2082148D01*
X10492185Y2082237D01*
X9814780Y2082318D01*
X9115997Y2082393D01*
X8395538Y2082460D01*
X7653102Y2082521D01*
X6888390Y2082575D01*
X6101103Y2082622D01*
X5290942Y2082664D01*
X4457606Y2082700D01*
X3600797Y2082729D01*
X2720215Y2082754D01*
X1815560Y2082773D01*
X886534Y2082787D01*
X-67163Y2082796D01*
X-1045831Y2082800D01*
X-26693326Y2082800D01*
X-26761038Y2024149D01*
X-26860163Y1953618D01*
X-26981812Y1894017D01*
X-27125563Y1845385D01*
X-27290995Y1807764D01*
X-27477686Y1781191D01*
X-27685212Y1765708D01*
X-27913152Y1761353D01*
X-28161085Y1768166D01*
X-28428587Y1786188D01*
X-28715236Y1815458D01*
X-28829000Y1829526D01*
X-29169601Y1876995D01*
X-29517515Y1932051D01*
X-29868070Y1993749D01*
X-30216592Y2061144D01*
X-30558407Y2133291D01*
X-30888842Y2209247D01*
X-31203225Y2288066D01*
X-31495745Y2368477D01*
X-31649180Y2414391D01*
X-31784097Y2458505D01*
X-31907033Y2503192D01*
X-32024524Y2550829D01*
X-32141894Y2603225D01*
X-32201798Y2629780D01*
X-32258050Y2652433D01*
X-32304175Y2668715D01*
X-32332834Y2676048D01*
X-32367771Y2677518D01*
X-32391255Y2666557D01*
X-32409877Y2646176D01*
X-32420973Y2631121D01*
X-32428597Y2615527D01*
X-32433186Y2594858D01*
X-32435178Y2564573D01*
X-34248190Y2564573D01*
X-34279191Y2780167D01*
X-34320229Y3101327D01*
X-34353968Y3407639D01*
X-34368061Y3556000D01*
X-34373890Y3637800D01*
X-34378368Y3734524D01*
X-34381496Y3841470D01*
X-34383271Y3953935D01*
X-34383691Y4067215D01*
X-34382756Y4176608D01*
X-34380463Y4277411D01*
X-34376812Y4364922D01*
X-34371800Y4434436D01*
X-34368356Y4464050D01*
X-34339372Y4625236D01*
X-34301286Y4763737D01*
X-34253410Y4880836D01*
X-34195053Y4977813D01*
X-34125527Y5055951D01*
X-34044141Y5116532D01*
X-34006430Y5136964D01*
X-33912374Y5174746D01*
X-33812127Y5197972D01*
X-33703013Y5206605D01*
X-33582354Y5200606D01*
X-33447472Y5179938D01*
X-33295690Y5144561D01*
X-33228269Y5125888D01*
X-33138739Y5099059D01*
X-33050127Y5070169D01*
X-32959819Y5038115D01*
X-32865197Y5001793D01*
X-32763647Y4960100D01*
X-32652552Y4911932D01*
X-32529296Y4856188D01*
X-32391264Y4791762D01*
X-32235839Y4717552D01*
X-32073850Y4639013D01*
X-31854562Y4532514D01*
X-31656425Y4437234D01*
X-31478087Y4352611D01*
X-31318195Y4278086D01*
X-31175397Y4213100D01*
X-31048340Y4157092D01*
X-30935671Y4109504D01*
X-30836038Y4069775D01*
X-30748088Y4037345D01*
X-30670469Y4011655D01*
X-30601827Y3992145D01*
X-30540809Y3978255D01*
X-30486064Y3969425D01*
X-30446761Y3965685D01*
X-30394421Y3962983D01*
X-30360725Y3963816D01*
X-30339040Y3969227D01*
X-30322732Y3980255D01*
X-30316586Y3986115D01*
X-30296656Y4017620D01*
X-30289802Y4048125D01*
X-30299173Y4099312D01*
X-30326010Y4166826D01*
X-30369504Y4249354D01*
X-30428844Y4345583D01*
X-30503221Y4454202D01*
X-30591824Y4573898D01*
X-30693844Y4703359D01*
X-30695457Y4705350D01*
X-30803695Y4838964D01*
X-30897629Y4955135D01*
X-30979022Y5056093D01*
X-31049638Y5144068D01*
X-31111239Y5221289D01*
X-31165589Y5289986D01*
X-31214452Y5352388D01*
X-31259591Y5410726D01*
X-31302769Y5467228D01*
X-31345750Y5524125D01*
X-31390297Y5583645D01*
X-31393753Y5588281D01*
X-31752556Y6090884D01*
X-32090309Y6607609D01*
X-32406814Y7138076D01*
X-32701873Y7681904D01*
X-32975291Y8238714D01*
X-33226869Y8808126D01*
X-33456410Y9389759D01*
X-33644281Y9924234D01*
X-33723607Y10168503D01*
X-33792917Y10393541D01*
X-33853004Y10603103D01*
X-33904665Y10800941D01*
X-33948692Y10990810D01*
X-33985882Y11176464D01*
X-34017028Y11361656D01*
X-34042926Y11550140D01*
X-34064370Y11745671D01*
X-34082155Y11952000D01*
X-34086728Y12014200D01*
X-34094153Y12136738D01*
X-34100786Y12282875D01*
X-34106613Y12450826D01*
X-34111619Y12638803D01*
X-34115792Y12845017D01*
X-34119116Y13067683D01*
X-34121579Y13305012D01*
X-34123166Y13555216D01*
X-34123863Y13816509D01*
X-34123657Y14087102D01*
X-34122987Y14253015D01*
X-32562211Y14253015D01*
X-32560295Y13950898D01*
X-32549326Y13642825D01*
X-32529506Y13324639D01*
X-32517686Y13176250D01*
X-32460718Y12650355D01*
X-32378987Y12122923D01*
X-32272972Y11595272D01*
X-32143149Y11068719D01*
X-31989996Y10544582D01*
X-31813989Y10024177D01*
X-31615606Y9508822D01*
X-31395324Y8999835D01*
X-31153620Y8498531D01*
X-30890971Y8006229D01*
X-30607855Y7524245D01*
X-30304749Y7053897D01*
X-30294004Y7037987D01*
X-29988862Y6604183D01*
X-29673541Y6190623D01*
X-29344478Y5793030D01*
X-28998115Y5407126D01*
X-28630892Y5028633D01*
X-28579827Y4978168D01*
X-28459386Y4860634D01*
X-28345886Y4751986D01*
X-28236020Y4649307D01*
X-28126478Y4549686D01*
X-28013953Y4450205D01*
X-27895136Y4347952D01*
X-27766718Y4240012D01*
X-27625392Y4123471D01*
X-27467849Y3995413D01*
X-27424669Y3960554D01*
X-27246629Y3813195D01*
X-27090489Y3675692D01*
X-26955242Y3546924D01*
X-26839882Y3425769D01*
X-26743402Y3311107D01*
X-26664796Y3201816D01*
X-26603059Y3096778D01*
X-26557183Y2994869D01*
X-26556863Y2994025D01*
X-26543629Y2959100D01*
X23847102Y2959100D01*
X23854888Y3025775D01*
X23860414Y3078016D01*
X23867361Y3151414D01*
X23875390Y3241785D01*
X23884163Y3344947D01*
X23893340Y3456718D01*
X23902583Y3572916D01*
X23911552Y3689357D01*
X23919908Y3801859D01*
X23927312Y3906240D01*
X23932347Y3981450D01*
X23942623Y4144591D01*
X23952070Y4303923D01*
X23960803Y4462235D01*
X23968938Y4622316D01*
X23976590Y4786955D01*
X23983875Y4958940D01*
X23990908Y5141062D01*
X23997805Y5336108D01*
X24004681Y5546868D01*
X24011653Y5776131D01*
X24018835Y6026686D01*
X24022331Y6153150D01*
X24030632Y6449738D01*
X24039352Y6748578D01*
X24048425Y7047835D01*
X24057783Y7345672D01*
X24067359Y7640253D01*
X24077087Y7929741D01*
X24086898Y8212301D01*
X24096727Y8486095D01*
X24106505Y8749286D01*
X24116166Y9000040D01*
X24125643Y9236519D01*
X24134868Y9456887D01*
X24143774Y9659308D01*
X24152295Y9841944D01*
X24160363Y10002961D01*
X24167911Y10140520D01*
X24168305Y10147300D01*
X24176126Y10272400D01*
X24183811Y10375030D01*
X24191756Y10458119D01*
X24200357Y10524592D01*
X24210009Y10577375D01*
X24221106Y10619395D01*
X24234046Y10653577D01*
X24237814Y10661650D01*
X24286144Y10743349D01*
X24354842Y10833337D01*
X24441280Y10929114D01*
X24542829Y11028182D01*
X24656863Y11128042D01*
X24780753Y11226194D01*
X24911872Y11320140D01*
X24972594Y11360417D01*
X25091914Y11437820D01*
X25192852Y11503896D01*
X25278549Y11560803D01*
X25352146Y11610703D01*
X25416785Y11655755D01*
X25475605Y11698119D01*
X25531749Y11739955D01*
X25588357Y11783424D01*
X25593344Y11787304D01*
X25774319Y11930554D01*
X25970530Y12090066D01*
X26179646Y12263754D01*
X26399338Y12449530D01*
X26627277Y12645308D01*
X26861132Y12849001D01*
X27098576Y13058524D01*
X27337277Y13271790D01*
X27574908Y13486712D01*
X27809137Y13701204D01*
X28037637Y13913179D01*
X28258077Y14120551D01*
X28468129Y14321233D01*
X28665462Y14513139D01*
X28847747Y14694182D01*
X28918221Y14765423D01*
X29045174Y14896074D01*
X29153008Y15010459D01*
X29241915Y15108810D01*
X29312089Y15191357D01*
X29363724Y15258331D01*
X29397014Y15309963D01*
X29412153Y15346484D01*
X29413200Y15355544D01*
X29401383Y15362868D01*
X29368529Y15365779D01*
X29318534Y15364720D01*
X29255292Y15360132D01*
X29182699Y15352457D01*
X29104650Y15342137D01*
X29025040Y15329614D01*
X28947764Y15315328D01*
X28876717Y15299723D01*
X28841700Y15290735D01*
X28803972Y15280369D01*
X28746991Y15264648D01*
X28675976Y15245016D01*
X28596147Y15222915D01*
X28512723Y15199789D01*
X28498800Y15195926D01*
X28235630Y15124705D01*
X27966196Y15055225D01*
X27692196Y14987781D01*
X27415326Y14922668D01*
X27137286Y14860180D01*
X26859772Y14800613D01*
X26584482Y14744260D01*
X26313114Y14691417D01*
X26047366Y14642377D01*
X25788934Y14597437D01*
X25539518Y14556889D01*
X25300814Y14521030D01*
X25074520Y14490153D01*
X24862334Y14464554D01*
X24665954Y14444527D01*
X24487077Y14430366D01*
X24327401Y14422366D01*
X24188623Y14420822D01*
X24072442Y14426029D01*
X24066083Y14426576D01*
X23993875Y14433804D01*
X23939526Y14442309D01*
X23895522Y14454559D01*
X23854351Y14473020D01*
X23808499Y14500163D01*
X23774555Y14522347D01*
X23688796Y14587745D01*
X23613419Y14661600D01*
X23553612Y14738339D01*
X23523087Y14792292D01*
X23497605Y14872525D01*
X23487497Y14966744D01*
X23492833Y15068668D01*
X23513680Y15172012D01*
X23518750Y15189200D01*
X23552974Y15284570D01*
X23598708Y15385830D01*
X23656556Y15493708D01*
X23727125Y15608928D01*
X23811020Y15732218D01*
X23908846Y15864304D01*
X24021210Y16005911D01*
X24148716Y16157766D01*
X24291972Y16320594D01*
X24451581Y16495123D01*
X24628150Y16682077D01*
X24822285Y16882184D01*
X25034590Y17096169D01*
X25265673Y17324758D01*
X25449792Y17504397D01*
X25652166Y17702088D01*
X25853402Y17901145D01*
X26052334Y18100321D01*
X26247800Y18298366D01*
X26438638Y18494034D01*
X26623684Y18686077D01*
X26801775Y18873248D01*
X26971747Y19054298D01*
X27132439Y19227981D01*
X27282686Y19393049D01*
X27421326Y19548253D01*
X27547196Y19692348D01*
X27659132Y19824084D01*
X27755971Y19942214D01*
X27836551Y20045491D01*
X27898930Y20131534D01*
X27930386Y20179000D01*
X27968321Y20238962D01*
X28010198Y20307116D01*
X28053481Y20379154D01*
X28095630Y20450769D01*
X28134109Y20517657D01*
X28166381Y20575509D01*
X28189907Y20620021D01*
X28201447Y20644956D01*
X28215118Y20692462D01*
X28211148Y20723316D01*
X28187365Y20741015D01*
X28141595Y20749055D01*
X28136525Y20749411D01*
X28113525Y20750171D01*
X28088244Y20749337D01*
X28059592Y20746550D01*
X28026482Y20741451D01*
X27987827Y20733682D01*
X27942537Y20722883D01*
X27889526Y20708696D01*
X27827706Y20690762D01*
X27755988Y20668723D01*
X27673284Y20642219D01*
X27578508Y20610892D01*
X27470570Y20574382D01*
X27348384Y20532332D01*
X27210860Y20484383D01*
X27056911Y20430174D01*
X26885450Y20369349D01*
X26695389Y20301547D01*
X26485638Y20226411D01*
X26255112Y20143581D01*
X26002721Y20052699D01*
X25774650Y19970460D01*
X25554232Y19891134D01*
X25354100Y19819546D01*
X25170760Y19754495D01*
X25000724Y19694781D01*
X24840499Y19639203D01*
X24686594Y19586560D01*
X24535520Y19535653D01*
X24383784Y19485280D01*
X24227896Y19434240D01*
X24064366Y19381335D01*
X24022050Y19367730D01*
X23801672Y19297165D01*
X23602290Y19233831D01*
X23420826Y19176862D01*
X23254199Y19125390D01*
X23099333Y19078550D01*
X22953148Y19035474D01*
X22812565Y18995295D01*
X22674505Y18957147D01*
X22535891Y18920162D01*
X22393643Y18883475D01*
X22244683Y18846217D01*
X22085933Y18807523D01*
X21914312Y18766525D01*
X21745618Y18726780D01*
X21120187Y18580153D01*
X20532768Y19052554D01*
X20417551Y19145281D01*
X20301027Y19239187D01*
X20186001Y19332005D01*
X20075278Y19421466D01*
X19971661Y19505303D01*
X19877955Y19581247D01*
X19796963Y19647030D01*
X19731490Y19700384D01*
X19704050Y19722840D01*
X19493955Y19894178D01*
X19301458Y20049077D01*
X19125459Y20188291D01*
X18964862Y20312575D01*
X18818568Y20422683D01*
X18685477Y20519371D01*
X18564493Y20603392D01*
X18454517Y20675501D01*
X18354451Y20736454D01*
X18263196Y20787004D01*
X18179655Y20827906D01*
X18102728Y20859914D01*
X18031318Y20883785D01*
X18003393Y20891391D01*
X17913354Y20910050D01*
X17835653Y20915710D01*
X17760924Y20908566D01*
X17710814Y20897490D01*
X17621731Y20866403D01*
X17526732Y20817602D01*
X17424441Y20750121D01*
X17313483Y20662991D01*
X17192483Y20555247D01*
X17107275Y20473186D01*
X17029780Y20394128D01*
X16960141Y20317059D01*
X16897773Y20240102D01*
X16842090Y20161384D01*
X16792508Y20079029D01*
X16748441Y19991163D01*
X16709305Y19895910D01*
X16674515Y19791397D01*
X16643487Y19675747D01*
X16615634Y19547087D01*
X16590372Y19403542D01*
X16567116Y19243236D01*
X16545282Y19064296D01*
X16524284Y18864845D01*
X16503538Y18643010D01*
X16490896Y18497550D01*
X16473406Y18297549D01*
X16456646Y18119110D01*
X16440136Y17958424D01*
X16423395Y17811681D01*
X16405942Y17675072D01*
X16387296Y17544789D01*
X16366977Y17417022D01*
X16344505Y17287962D01*
X16325010Y17183100D01*
X16253964Y16850328D01*
X16171710Y16539821D01*
X16077978Y16250925D01*
X15972498Y15982982D01*
X15855002Y15735334D01*
X15725220Y15507325D01*
X15582881Y15298297D01*
X15516949Y15213094D01*
X15356095Y15033233D01*
X15177459Y14870954D01*
X14982421Y14727172D01*
X14772362Y14602798D01*
X14548666Y14498745D01*
X14312712Y14415927D01*
X14308776Y14414759D01*
X14154999Y14373047D01*
X14002742Y14339921D01*
X13846496Y14314608D01*
X13680750Y14296331D01*
X13499997Y14284318D01*
X13340711Y14278693D01*
X13085061Y14277426D01*
X12851499Y14287055D01*
X12638741Y14308523D01*
X12445507Y14342770D01*
X12270515Y14390738D01*
X12112485Y14453368D01*
X11970135Y14531600D01*
X11842183Y14626377D01*
X11727349Y14738640D01*
X11624352Y14869328D01*
X11531909Y15019385D01*
X11448741Y15189751D01*
X11373564Y15381367D01*
X11305100Y15595174D01*
X11245581Y15817778D01*
X11229930Y15883867D01*
X11212418Y15962166D01*
X11193834Y16048689D01*
X11174966Y16139446D01*
X11156605Y16230449D01*
X11139539Y16317710D01*
X11124558Y16397239D01*
X11112450Y16465049D01*
X11108794Y16487607D01*
X11380405Y16487607D01*
X11382483Y16475291D01*
X11390214Y16465309D01*
X11405818Y16457379D01*
X11431513Y16451221D01*
X11469519Y16446552D01*
X11522055Y16443090D01*
X11591339Y16440554D01*
X11679591Y16438662D01*
X11789031Y16437133D01*
X11907221Y16435836D01*
X12394138Y16430775D01*
X12401550Y15394419D01*
X12432338Y15361660D01*
X12461461Y15339230D01*
X12490654Y15328967D01*
X12492602Y15328900D01*
X12511640Y15334240D01*
X12550142Y15349285D01*
X12604760Y15372572D01*
X12672144Y15402638D01*
X12748946Y15438022D01*
X12826628Y15474773D01*
X12895476Y15508006D01*
X12983778Y15551040D01*
X13088290Y15602273D01*
X13205770Y15660105D01*
X13332973Y15722933D01*
X13466656Y15789157D01*
X13603576Y15857176D01*
X13740490Y15925389D01*
X13829009Y15969605D01*
X14526839Y16318565D01*
X14530994Y15862745D01*
X14532138Y15742937D01*
X14533272Y15645883D01*
X14534561Y15568936D01*
X14536172Y15509448D01*
X14538271Y15464774D01*
X14541024Y15432268D01*
X14544596Y15409282D01*
X14549153Y15393170D01*
X14554862Y15381287D01*
X14561811Y15371087D01*
X14596826Y15342298D01*
X14640865Y15330508D01*
X14684382Y15337424D01*
X14700250Y15346348D01*
X14707122Y15352420D01*
X14712711Y15361298D01*
X14717212Y15375611D01*
X14720822Y15397988D01*
X14723738Y15431058D01*
X14726156Y15477449D01*
X14728273Y15539789D01*
X14730284Y15620709D01*
X14732388Y15722835D01*
X14733761Y15794589D01*
X14735772Y15902001D01*
X14737689Y16005978D01*
X14739441Y16102580D01*
X14740958Y16187868D01*
X14742168Y16257904D01*
X14743003Y16308750D01*
X14743286Y16327774D01*
X14744700Y16431298D01*
X15233202Y16435724D01*
X15358261Y16436935D01*
X15460374Y16438165D01*
X15541994Y16439543D01*
X15605576Y16441197D01*
X15653572Y16443258D01*
X15688437Y16445854D01*
X15712624Y16449115D01*
X15728586Y16453169D01*
X15738777Y16458146D01*
X15744162Y16462614D01*
X15758081Y16488610D01*
X15748644Y16512159D01*
X15717891Y16530452D01*
X15689467Y16537844D01*
X15665324Y16539932D01*
X15619091Y16541885D01*
X15554077Y16543639D01*
X15473594Y16545130D01*
X15380951Y16546296D01*
X15279459Y16547072D01*
X15194369Y16547369D01*
X14748688Y16548100D01*
X14740344Y16759679D01*
X14737697Y16839296D01*
X14735240Y16936397D01*
X14733129Y17043064D01*
X14731517Y17151380D01*
X14730559Y17253428D01*
X14730497Y17264504D01*
X14729719Y17350534D01*
X14728368Y17429963D01*
X14726564Y17498617D01*
X14724430Y17552319D01*
X14722086Y17586893D01*
X14720868Y17595729D01*
X14702038Y17631860D01*
X14668918Y17653791D01*
X14629089Y17660240D01*
X14590132Y17649925D01*
X14560462Y17622866D01*
X14555487Y17610063D01*
X14551194Y17586571D01*
X14547465Y17550208D01*
X14544180Y17498794D01*
X14541220Y17430148D01*
X14538466Y17342087D01*
X14535798Y17232432D01*
X14533796Y17135475D01*
X14531541Y17030189D01*
X14529082Y16933371D01*
X14526521Y16847843D01*
X14523957Y16776431D01*
X14521494Y16721956D01*
X14519232Y16687242D01*
X14517280Y16675113D01*
X14504940Y16680629D01*
X14471710Y16696565D01*
X14419435Y16722014D01*
X14349960Y16756066D01*
X14265128Y16797814D01*
X14166784Y16846348D01*
X14056771Y16900760D01*
X13936934Y16960142D01*
X13809117Y17023585D01*
X13716000Y17069868D01*
X13521637Y17166468D01*
X13348698Y17252275D01*
X13195908Y17327888D01*
X13061989Y17393911D01*
X12945666Y17450943D01*
X12845663Y17499587D01*
X12760703Y17540444D01*
X12689511Y17574116D01*
X12630809Y17601203D01*
X12583323Y17622308D01*
X12545775Y17638031D01*
X12516891Y17648974D01*
X12495392Y17655739D01*
X12480005Y17658926D01*
X12469451Y17659138D01*
X12466698Y17658630D01*
X12451535Y17653939D01*
X12438934Y17646676D01*
X12428636Y17634606D01*
X12420382Y17615493D01*
X12413910Y17587103D01*
X12408961Y17547201D01*
X12405275Y17493552D01*
X12402591Y17423920D01*
X12400650Y17336071D01*
X12399192Y17227770D01*
X12397956Y17096782D01*
X12397696Y17065625D01*
X12393425Y16548100D01*
X11946637Y16547159D01*
X11812162Y16546731D01*
X11700890Y16545950D01*
X11610624Y16544641D01*
X11539168Y16542633D01*
X11484326Y16539750D01*
X11443902Y16535821D01*
X11415699Y16530670D01*
X11397520Y16524125D01*
X11387170Y16516013D01*
X11382451Y16506159D01*
X11381762Y16502539D01*
X11380405Y16487607D01*
X11108794Y16487607D01*
X11104005Y16517151D01*
X11100012Y16549557D01*
X11099800Y16554572D01*
X11093061Y16590083D01*
X11075458Y16637857D01*
X11050909Y16689506D01*
X11023331Y16736637D01*
X11000903Y16766365D01*
X10934926Y16825269D01*
X10854885Y16869647D01*
X10769600Y16898795D01*
X10717647Y16908352D01*
X10643188Y16915447D01*
X10548997Y16920059D01*
X10437852Y16922167D01*
X10312526Y16921753D01*
X10175796Y16918795D01*
X10030438Y16913273D01*
X9880600Y16905252D01*
X9830600Y16902509D01*
X9774774Y16900101D01*
X9711655Y16898018D01*
X9639779Y16896254D01*
X9557678Y16894799D01*
X9463888Y16893645D01*
X9356942Y16892784D01*
X9235374Y16892207D01*
X9097719Y16891906D01*
X8942510Y16891873D01*
X8768283Y16892099D01*
X8573570Y16892575D01*
X8356906Y16893294D01*
X8116826Y16894247D01*
X8026400Y16894637D01*
X7822196Y16895634D01*
X7620686Y16896815D01*
X7423820Y16898157D01*
X7233553Y16899639D01*
X7051835Y16901240D01*
X6880620Y16902939D01*
X6721859Y16904713D01*
X6577506Y16906543D01*
X6449512Y16908406D01*
X6339831Y16910281D01*
X6250414Y16912147D01*
X6183213Y16913982D01*
X6153150Y16915114D01*
X5950581Y16924616D01*
X5748661Y16935068D01*
X5545935Y16946603D01*
X5340948Y16959353D01*
X5132243Y16973450D01*
X4918365Y16989029D01*
X4697859Y17006220D01*
X4469269Y17025158D01*
X4231139Y17045973D01*
X3982015Y17068800D01*
X3720440Y17093770D01*
X3444960Y17121017D01*
X3154118Y17150672D01*
X2846459Y17182869D01*
X2520527Y17217740D01*
X2174868Y17255418D01*
X1808025Y17296035D01*
X1418544Y17339725D01*
X1111250Y17374525D01*
X977514Y17389764D01*
X866127Y17402638D01*
X774195Y17413621D01*
X698825Y17423189D01*
X637125Y17431814D01*
X586203Y17439973D01*
X543164Y17448138D01*
X505117Y17456785D01*
X469169Y17466388D01*
X432427Y17477422D01*
X391998Y17490360D01*
X378839Y17494645D01*
X260620Y17530952D01*
X158216Y17556199D01*
X68080Y17569405D01*
X-13334Y17569592D01*
X-89574Y17555780D01*
X-164185Y17526989D01*
X-240715Y17482239D01*
X-322711Y17420552D01*
X-413719Y17340948D01*
X-510531Y17249026D01*
X-553508Y17206571D01*
X-590429Y17167969D01*
X-623336Y17130119D01*
X-654267Y17089915D01*
X-685265Y17044255D01*
X-718369Y16990035D01*
X-755620Y16924152D01*
X-799060Y16843500D01*
X-850727Y16744978D01*
X-883701Y16681450D01*
X-1087469Y16264608D01*
X-1277545Y15828018D01*
X-1453516Y15373585D01*
X-1614972Y14903213D01*
X-1761501Y14418806D01*
X-1892690Y13922270D01*
X-2008127Y13415507D01*
X-2107401Y12900423D01*
X-2190100Y12378922D01*
X-2255812Y11852907D01*
X-2304126Y11324284D01*
X-2334629Y10794956D01*
X-2346909Y10266828D01*
X-2344924Y9925050D01*
X-2342622Y9809894D01*
X-2339782Y9694275D01*
X-2336555Y9582770D01*
X-2333089Y9479954D01*
X-2329536Y9390401D01*
X-2326045Y9318687D01*
X-2323873Y9283700D01*
X-2319830Y9207150D01*
X-2317682Y9116543D01*
X-2317434Y9009388D01*
X-2319093Y8883192D01*
X-2322663Y8735465D01*
X-2325296Y8648700D01*
X-2329134Y8500200D01*
X-2331914Y8326868D01*
X-2333634Y8129250D01*
X-2334293Y7907892D01*
X-2333889Y7663340D01*
X-2332418Y7396140D01*
X-2331090Y7232650D01*
X-2329426Y7040693D01*
X-2328156Y6872384D01*
X-2327345Y6725976D01*
X-2327059Y6599718D01*
X-2327364Y6491862D01*
X-2328323Y6400660D01*
X-2330004Y6324361D01*
X-2332471Y6261218D01*
X-2335789Y6209480D01*
X-2340024Y6167400D01*
X-2345241Y6133228D01*
X-2351506Y6105216D01*
X-2358884Y6081613D01*
X-2367440Y6060672D01*
X-2375498Y6044030D01*
X-2396641Y6010681D01*
X-2423916Y5986003D01*
X-2461662Y5968231D01*
X-2514220Y5955603D01*
X-2585932Y5946353D01*
X-2624284Y5942931D01*
X-2724666Y5937811D01*
X-2848637Y5936696D01*
X-2994731Y5939415D01*
X-3161481Y5945795D01*
X-3347422Y5955664D01*
X-3551088Y5968849D01*
X-3771014Y5985177D01*
X-4005734Y6004477D01*
X-4253782Y6026575D01*
X-4513692Y6051299D01*
X-4783999Y6078478D01*
X-5063236Y6107938D01*
X-5349939Y6139506D01*
X-5642641Y6173011D01*
X-5939876Y6208280D01*
X-6240180Y6245141D01*
X-6542085Y6283421D01*
X-6844127Y6322948D01*
X-7144840Y6363548D01*
X-7442757Y6405051D01*
X-7736414Y6447283D01*
X-8024344Y6490071D01*
X-8305082Y6533244D01*
X-8577162Y6576630D01*
X-8839118Y6620054D01*
X-9089484Y6663346D01*
X-9326795Y6706332D01*
X-9549586Y6748840D01*
X-9658350Y6770524D01*
X-9853169Y6811461D01*
X-10036237Y6853231D01*
X-10217206Y6898199D01*
X-10405728Y6948728D01*
X-10538730Y6986202D01*
X-10691622Y7030367D01*
X-10843062Y7074931D01*
X-10995031Y7120539D01*
X-11149506Y7167835D01*
X-11308468Y7217463D01*
X-11473896Y7270068D01*
X-11647769Y7326292D01*
X-11832067Y7386780D01*
X-12028770Y7452177D01*
X-12239856Y7523125D01*
X-12467304Y7600270D01*
X-12713095Y7684255D01*
X-12979208Y7775725D01*
X-13208000Y7854701D01*
X-13457750Y7941977D01*
X-13728144Y8038188D01*
X-14016459Y8142308D01*
X-14319975Y8253308D01*
X-14635970Y8370164D01*
X-14961721Y8491847D01*
X-15294509Y8617333D01*
X-15631611Y8745592D01*
X-15970305Y8875600D01*
X-16307870Y9006329D01*
X-16641585Y9136753D01*
X-16968727Y9265845D01*
X-17286575Y9392578D01*
X-17316450Y9404563D01*
X-17715903Y9565781D01*
X-18093068Y9719909D01*
X-18449777Y9867815D01*
X-18787865Y10010369D01*
X-19109165Y10148437D01*
X-19415510Y10282888D01*
X-19708732Y10414590D01*
X-19990666Y10544412D01*
X-20263144Y10673222D01*
X-20527999Y10801887D01*
X-20787066Y10931276D01*
X-21042176Y11062257D01*
X-21295163Y11195699D01*
X-21547861Y11332469D01*
X-21802103Y11473436D01*
X-22059721Y11619468D01*
X-22322549Y11771433D01*
X-22358350Y11792345D01*
X-22881421Y12106161D01*
X-23393906Y12429891D01*
X-23898330Y12765372D01*
X-24397217Y13114442D01*
X-24893093Y13478940D01*
X-25388480Y13860703D01*
X-25885906Y14261571D01*
X-26387893Y14683380D01*
X-26695400Y14949978D01*
X-26862971Y15097536D01*
X-27027187Y15243496D01*
X-27189803Y15389502D01*
X-27352574Y15537195D01*
X-27517255Y15688218D01*
X-27685601Y15844214D01*
X-27859367Y16006826D01*
X-28040308Y16177696D01*
X-28230180Y16358466D01*
X-28430736Y16550780D01*
X-28643734Y16756280D01*
X-28870926Y16976608D01*
X-29114069Y17213407D01*
X-29121454Y17220613D01*
X-29359947Y17452833D01*
X-29588548Y17674424D01*
X-29806753Y17884920D01*
X-30014057Y18083855D01*
X-30209953Y18270760D01*
X-30393937Y18445169D01*
X-30565505Y18606615D01*
X-30724150Y18754631D01*
X-30869367Y18888750D01*
X-31000652Y19008505D01*
X-31117499Y19113429D01*
X-31219403Y19203056D01*
X-31305859Y19276918D01*
X-31376362Y19334548D01*
X-31430406Y19375479D01*
X-31467486Y19399245D01*
X-31485193Y19405600D01*
X-31513543Y19393282D01*
X-31545735Y19357161D01*
X-31581425Y19298486D01*
X-31620270Y19218508D01*
X-31661929Y19118476D01*
X-31706057Y18999640D01*
X-31752311Y18863250D01*
X-31800349Y18710555D01*
X-31849827Y18542806D01*
X-31900403Y18361251D01*
X-31951733Y18167142D01*
X-32003474Y17961727D01*
X-32055284Y17746257D01*
X-32106820Y17521981D01*
X-32157737Y17290149D01*
X-32207694Y17052011D01*
X-32256347Y16808816D01*
X-32303353Y16561815D01*
X-32348370Y16312257D01*
X-32372311Y16173450D01*
X-32428946Y15819767D01*
X-32475317Y15485071D01*
X-32511628Y15165204D01*
X-32538079Y14856011D01*
X-32554873Y14553334D01*
X-32562211Y14253015D01*
X-34122987Y14253015D01*
X-34122533Y14365209D01*
X-34120478Y14649042D01*
X-34117478Y14936814D01*
X-34113518Y15226736D01*
X-34112309Y15303500D01*
X-34107363Y15574161D01*
X-34101395Y15822074D01*
X-34093971Y16049885D01*
X-34084658Y16260242D01*
X-34073024Y16455788D01*
X-34058634Y16639171D01*
X-34041055Y16813037D01*
X-34019855Y16980030D01*
X-33994599Y17142798D01*
X-33964854Y17303986D01*
X-33930188Y17466240D01*
X-33890166Y17632205D01*
X-33844356Y17804529D01*
X-33792325Y17985856D01*
X-33733638Y18178833D01*
X-33667862Y18386105D01*
X-33594565Y18610319D01*
X-33547641Y18751550D01*
X-33448196Y19047922D01*
X-33355297Y19321424D01*
X-33268371Y19573570D01*
X-33186846Y19805874D01*
X-33110150Y20019848D01*
X-33037711Y20217007D01*
X-32968956Y20398862D01*
X-32903314Y20566929D01*
X-32840212Y20722720D01*
X-32779079Y20867747D01*
X-32719341Y21003526D01*
X-32660427Y21131568D01*
X-32601766Y21253387D01*
X-32601734Y21253450D01*
X-32500831Y21447630D01*
X-32401404Y21617073D01*
X-32302838Y21762356D01*
X-32204517Y21884054D01*
X-32105824Y21982746D01*
X-32006143Y22059006D01*
X-31904857Y22113412D01*
X-31801351Y22146540D01*
X-31695008Y22158967D01*
X-31635700Y22157236D01*
X-31530610Y22140815D01*
X-31419981Y22107237D01*
X-31303040Y22055944D01*
X-31179013Y21986383D01*
X-31047124Y21897996D01*
X-30906600Y21790228D01*
X-30756666Y21662525D01*
X-30596549Y21514329D01*
X-30425474Y21345086D01*
X-30252329Y21164550D01*
X-30183440Y21091033D01*
X-30121430Y21024606D01*
X-30064160Y20962886D01*
X-30009486Y20903492D01*
X-29955268Y20844042D01*
X-29899362Y20782156D01*
X-29839629Y20715450D01*
X-29773926Y20641543D01*
X-29700111Y20558055D01*
X-29616042Y20462601D01*
X-29519579Y20352802D01*
X-29408579Y20226276D01*
X-29407242Y20224750D01*
X-29204298Y19994097D01*
X-29014659Y19780302D01*
X-28835639Y19580490D01*
X-28664552Y19391785D01*
X-28498713Y19211310D01*
X-28335436Y19036190D01*
X-28172035Y18863549D01*
X-28005824Y18690511D01*
X-27834117Y18514199D01*
X-27654229Y18331738D01*
X-27463473Y18140253D01*
X-27420626Y18097471D01*
X-27171080Y17850246D01*
X-26934252Y17619274D01*
X-26706653Y17401252D01*
X-26484794Y17192876D01*
X-26265185Y16990842D01*
X-26044336Y16791848D01*
X-25996900Y16749627D01*
X-25425378Y16253426D01*
X-24853417Y15779946D01*
X-24277760Y15326665D01*
X-23695149Y14891061D01*
X-23102326Y14470613D01*
X-22701425Y14198553D01*
X-22120678Y13820621D01*
X-21532540Y13456605D01*
X-20934995Y13105461D01*
X-20326023Y12766143D01*
X-19703606Y12437605D01*
X-19065727Y12118803D01*
X-18410368Y11808690D01*
X-17735509Y11506223D01*
X-17039133Y11210355D01*
X-16541750Y11008197D01*
X-16377772Y10943450D01*
X-16192065Y10871415D01*
X-15986965Y10792937D01*
X-15764807Y10708862D01*
X-15527925Y10620034D01*
X-15278654Y10527299D01*
X-15019328Y10431503D01*
X-14752283Y10333492D01*
X-14479852Y10234110D01*
X-14204371Y10134202D01*
X-13928173Y10034616D01*
X-13653594Y9936195D01*
X-13382969Y9839786D01*
X-13118631Y9746233D01*
X-12862916Y9656383D01*
X-12618159Y9571081D01*
X-12386693Y9491172D01*
X-12170853Y9417501D01*
X-11972975Y9350915D01*
X-11880850Y9320328D01*
X-11551670Y9212600D01*
X-11235660Y9111372D01*
X-10930975Y9016260D01*
X-10635767Y8926880D01*
X-10348189Y8842846D01*
X-10066393Y8763774D01*
X-9788531Y8689280D01*
X-9512757Y8618978D01*
X-9237223Y8552483D01*
X-8960082Y8489413D01*
X-8679486Y8429380D01*
X-8393589Y8372002D01*
X-8100541Y8316893D01*
X-7798497Y8263669D01*
X-7485609Y8211944D01*
X-7160030Y8161335D01*
X-6819911Y8111456D01*
X-6463407Y8061924D01*
X-6088668Y8012352D01*
X-5693849Y7962357D01*
X-5277101Y7911555D01*
X-4902200Y7867211D01*
X-4779423Y7852858D01*
X-4653716Y7838147D01*
X-4529839Y7823637D01*
X-4412556Y7809885D01*
X-4306628Y7797450D01*
X-4216817Y7786890D01*
X-4152900Y7779357D01*
X-4076831Y7770463D01*
X-4010034Y7762822D01*
X-3956358Y7756863D01*
X-3919649Y7753009D01*
X-3903756Y7751687D01*
X-3903408Y7751731D01*
X-3902032Y7764296D01*
X-3899049Y7799001D01*
X-3894714Y7852656D01*
X-3889277Y7922070D01*
X-3882993Y8004051D01*
X-3876113Y8095409D01*
X-3874630Y8115300D01*
X-3855766Y8368594D01*
X-3838640Y8598072D01*
X-3823135Y8805251D01*
X-3809131Y8991648D01*
X-3796512Y9158779D01*
X-3785157Y9308160D01*
X-3774949Y9441308D01*
X-3765770Y9559740D01*
X-3757500Y9664971D01*
X-3750022Y9758520D01*
X-3743218Y9841901D01*
X-3736968Y9916632D01*
X-3731154Y9984229D01*
X-3725658Y10046208D01*
X-3720361Y10104087D01*
X-3715146Y10159381D01*
X-3714478Y10166350D01*
X-3637947Y10869854D01*
X-3545207Y11554138D01*
X-3436144Y12219630D01*
X-3310647Y12866760D01*
X-3168601Y13495956D01*
X-3009893Y14107648D01*
X-2834411Y14702264D01*
X-2642041Y15280234D01*
X-2432670Y15841986D01*
X-2206184Y16387949D01*
X-1962471Y16918552D01*
X-1898394Y17049750D01*
X-1626033Y17573584D01*
X-1335562Y18079803D01*
X-1033780Y18557597D01*
X190500Y18557597D01*
X198630Y18521772D01*
X220014Y18475425D01*
X250138Y18426186D01*
X284490Y18381688D01*
X309095Y18357050D01*
X396895Y18293631D01*
X508165Y18233857D01*
X643049Y18177703D01*
X801691Y18125141D01*
X984236Y18076145D01*
X1190827Y18030689D01*
X1421609Y17988745D01*
X1676726Y17950288D01*
X1956322Y17915290D01*
X2260541Y17883726D01*
X2589527Y17855569D01*
X2943426Y17830792D01*
X3270250Y17812040D01*
X3394167Y17805771D01*
X3518241Y17799879D01*
X3643676Y17794343D01*
X3771675Y17789140D01*
X3903442Y17784248D01*
X4040181Y17779645D01*
X4183096Y17775309D01*
X4333391Y17771218D01*
X4492270Y17767349D01*
X4660937Y17763681D01*
X4840596Y17760191D01*
X5032450Y17756858D01*
X5237703Y17753658D01*
X5457560Y17750570D01*
X5693224Y17747571D01*
X5945899Y17744641D01*
X6216790Y17741755D01*
X6507099Y17738893D01*
X6818032Y17736032D01*
X7150791Y17733149D01*
X7506581Y17730224D01*
X7874000Y17727330D01*
X8089540Y17725609D01*
X8300082Y17723820D01*
X8504022Y17721982D01*
X8699759Y17720114D01*
X8885688Y17718235D01*
X9060208Y17716363D01*
X9221715Y17714518D01*
X9368607Y17712718D01*
X9499282Y17710982D01*
X9612136Y17709328D01*
X9705566Y17707775D01*
X9777971Y17706343D01*
X9827747Y17705050D01*
X9848850Y17704205D01*
X9961017Y17700112D01*
X10091582Y17698895D01*
X10233717Y17700437D01*
X10380596Y17704620D01*
X10525394Y17711326D01*
X10623550Y17717579D01*
X10822201Y17736241D01*
X11001521Y17762839D01*
X11166700Y17798695D01*
X11322930Y17845133D01*
X11475403Y17903477D01*
X11624816Y17972794D01*
X11667685Y17994960D01*
X11728693Y18027486D01*
X11803877Y18068209D01*
X11889277Y18114968D01*
X11980932Y18165601D01*
X12074880Y18217945D01*
X12107416Y18236183D01*
X12321606Y18355444D01*
X12517826Y18462529D01*
X12699361Y18559168D01*
X12869497Y18647089D01*
X13031519Y18728021D01*
X13162417Y18791233D01*
X13628227Y19023226D01*
X14096720Y19277256D01*
X14563949Y19550842D01*
X15025968Y19841500D01*
X15478830Y20146750D01*
X15918588Y20464110D01*
X16336924Y20787594D01*
X16408151Y20846032D01*
X16486405Y20912580D01*
X16567097Y20983128D01*
X16645635Y21053568D01*
X16717429Y21119789D01*
X16777889Y21177685D01*
X16816737Y21217066D01*
X16876169Y21287268D01*
X16913136Y21349328D01*
X16928349Y21405499D01*
X16922518Y21458035D01*
X16904806Y21496335D01*
X16868581Y21540260D01*
X16809902Y21591262D01*
X16730430Y21648445D01*
X16631824Y21710909D01*
X16515746Y21777758D01*
X16383856Y21848093D01*
X16237815Y21921015D01*
X16079285Y21995629D01*
X15909925Y22071034D01*
X15731397Y22146334D01*
X15617917Y22192142D01*
X15437376Y22261146D01*
X15240148Y22331753D01*
X15030395Y22402741D01*
X14812279Y22472883D01*
X14589961Y22540956D01*
X14367604Y22605734D01*
X14149370Y22665992D01*
X13939421Y22720507D01*
X13741918Y22768053D01*
X13561023Y22807405D01*
X13461690Y22826665D01*
X13328207Y22850295D01*
X13199521Y22871185D01*
X13073003Y22889530D01*
X12946025Y22905527D01*
X12815956Y22919371D01*
X12680168Y22931259D01*
X12536030Y22941386D01*
X12380914Y22949949D01*
X12212190Y22957143D01*
X12027228Y22963165D01*
X11823400Y22968210D01*
X11598075Y22972475D01*
X11480800Y22974312D01*
X11329799Y22976713D01*
X11174696Y22979488D01*
X11019451Y22982547D01*
X10868027Y22985800D01*
X10724387Y22989157D01*
X10592493Y22992527D01*
X10476306Y22995819D01*
X10379789Y22998943D01*
X10344150Y23000258D01*
X10250447Y23003179D01*
X10137504Y23005512D01*
X10008383Y23007275D01*
X9866146Y23008487D01*
X9713858Y23009164D01*
X9554580Y23009325D01*
X9391376Y23008988D01*
X9227309Y23008170D01*
X9065442Y23006889D01*
X8908837Y23005163D01*
X8760558Y23003010D01*
X8623668Y23000447D01*
X8501230Y22997493D01*
X8396307Y22994165D01*
X8311961Y22990481D01*
X8274050Y22988214D01*
X8096751Y22975585D01*
X7937709Y22963203D01*
X7789794Y22950454D01*
X7645877Y22936725D01*
X7505700Y22922146D01*
X6994462Y22856387D01*
X6498750Y22770798D01*
X6017810Y22665051D01*
X5550889Y22538813D01*
X5097233Y22391753D01*
X4656089Y22223542D01*
X4226704Y22033848D01*
X3808325Y21822340D01*
X3400197Y21588687D01*
X3001568Y21332558D01*
X2611685Y21053624D01*
X2229793Y20751551D01*
X1885950Y20453905D01*
X1813558Y20387053D01*
X1727569Y20305091D01*
X1631555Y20211625D01*
X1529091Y20110258D01*
X1423751Y20004599D01*
X1319107Y19898251D01*
X1218734Y19794820D01*
X1126205Y19697913D01*
X1045095Y19611134D01*
X985369Y19545300D01*
X901394Y19449905D01*
X815357Y19350415D01*
X728862Y19248824D01*
X643512Y19147122D01*
X560909Y19047301D01*
X482657Y18951353D01*
X410359Y18861271D01*
X345617Y18779045D01*
X290035Y18706668D01*
X245215Y18646131D01*
X212760Y18599427D01*
X194274Y18568546D01*
X190500Y18557597D01*
X-1033780Y18557597D01*
X-1026915Y18568465D01*
X-700029Y19039628D01*
X-354840Y19493350D01*
X8717Y19929688D01*
X390705Y20348701D01*
X791190Y20750444D01*
X1210234Y21134977D01*
X1647904Y21502357D01*
X2104261Y21852641D01*
X2579372Y22185887D01*
X3073299Y22502152D01*
X3586108Y22801495D01*
X4117862Y23083973D01*
X4668626Y23349644D01*
X5238463Y23598565D01*
X5528537Y23715966D01*
X5895998Y23858519D01*
X6243709Y23988370D01*
X6573593Y24106066D01*
X6887569Y24212152D01*
X7187561Y24307175D01*
X7475489Y24391682D01*
X7753275Y24466218D01*
X8022842Y24531329D01*
X8286109Y24587562D01*
X8545000Y24635463D01*
X8801436Y24675578D01*
X8993873Y24700952D01*
X9152975Y24719533D01*
X9305846Y24735693D01*
X9455542Y24749578D01*
X9605120Y24761335D01*
X9757636Y24771109D01*
X9916144Y24779046D01*
X10083702Y24785292D01*
X10263366Y24789993D01*
X10458192Y24793296D01*
X10671234Y24795346D01*
X10905551Y24796288D01*
X10991850Y24796383D01*
X11179050Y24796327D01*
G36*
X12630639Y17380747D02*
G01*
X12663695Y17364848D01*
X12714852Y17339750D01*
X12781832Y17306596D01*
X12862360Y17266532D01*
X12954159Y17220700D01*
X13054952Y17170247D01*
X13162463Y17116317D01*
X13274417Y17060054D01*
X13388536Y17002603D01*
X13502543Y16945108D01*
X13614164Y16888714D01*
X13721120Y16834566D01*
X13821136Y16783807D01*
X13911936Y16737583D01*
X13991243Y16697038D01*
X14056780Y16663317D01*
X14084300Y16649047D01*
X14157663Y16610537D01*
X14223989Y16575097D01*
X14279741Y16544668D01*
X14321382Y16521190D01*
X14345372Y16506603D01*
X14349223Y16503705D01*
X14353028Y16495019D01*
X14345624Y16483690D01*
X14324172Y16467618D01*
X14285830Y16444706D01*
X14227758Y16412854D01*
X14222223Y16409883D01*
X14188184Y16391982D01*
X14136068Y16365042D01*
X14068094Y16330184D01*
X13986481Y16288526D01*
X13893450Y16241189D01*
X13791218Y16189292D01*
X13682007Y16133953D01*
X13568034Y16076293D01*
X13451520Y16017432D01*
X13334685Y15958488D01*
X13219747Y15900580D01*
X13108926Y15844830D01*
X13004442Y15792355D01*
X12908514Y15744275D01*
X12823361Y15701711D01*
X12751203Y15665781D01*
X12694260Y15637605D01*
X12654751Y15618301D01*
X12634895Y15608991D01*
X12633001Y15608300D01*
X12626662Y15619258D01*
X12619474Y15645848D01*
X12619037Y15647988D01*
X12617648Y15667175D01*
X12616391Y15708528D01*
X12615267Y15769541D01*
X12614277Y15847707D01*
X12613423Y15940521D01*
X12612706Y16045476D01*
X12612129Y16160067D01*
X12611692Y16281787D01*
X12611398Y16408130D01*
X12611247Y16536590D01*
X12611242Y16664662D01*
X12611383Y16789838D01*
X12611673Y16909613D01*
X12612113Y17021481D01*
X12612704Y17122935D01*
X12613449Y17211470D01*
X12614348Y17284580D01*
X12615403Y17339758D01*
X12616616Y17374499D01*
X12617960Y17386300D01*
X12630639Y17380747D01*
X12630639Y17380747D01*
G37*
X12630639Y17380747D02*
X12663695Y17364848D01*
X12714852Y17339750D01*
X12781832Y17306596D01*
X12862360Y17266532D01*
X12954159Y17220700D01*
X13054952Y17170247D01*
X13162463Y17116317D01*
X13274417Y17060054D01*
X13388536Y17002603D01*
X13502543Y16945108D01*
X13614164Y16888714D01*
X13721120Y16834566D01*
X13821136Y16783807D01*
X13911936Y16737583D01*
X13991243Y16697038D01*
X14056780Y16663317D01*
X14084300Y16649047D01*
X14157663Y16610537D01*
X14223989Y16575097D01*
X14279741Y16544668D01*
X14321382Y16521190D01*
X14345372Y16506603D01*
X14349223Y16503705D01*
X14353028Y16495019D01*
X14345624Y16483690D01*
X14324172Y16467618D01*
X14285830Y16444706D01*
X14227758Y16412854D01*
X14222223Y16409883D01*
X14188184Y16391982D01*
X14136068Y16365042D01*
X14068094Y16330184D01*
X13986481Y16288526D01*
X13893450Y16241189D01*
X13791218Y16189292D01*
X13682007Y16133953D01*
X13568034Y16076293D01*
X13451520Y16017432D01*
X13334685Y15958488D01*
X13219747Y15900580D01*
X13108926Y15844830D01*
X13004442Y15792355D01*
X12908514Y15744275D01*
X12823361Y15701711D01*
X12751203Y15665781D01*
X12694260Y15637605D01*
X12654751Y15618301D01*
X12634895Y15608991D01*
X12633001Y15608300D01*
X12626662Y15619258D01*
X12619474Y15645848D01*
X12619037Y15647988D01*
X12617648Y15667175D01*
X12616391Y15708528D01*
X12615267Y15769541D01*
X12614277Y15847707D01*
X12613423Y15940521D01*
X12612706Y16045476D01*
X12612129Y16160067D01*
X12611692Y16281787D01*
X12611398Y16408130D01*
X12611247Y16536590D01*
X12611242Y16664662D01*
X12611383Y16789838D01*
X12611673Y16909613D01*
X12612113Y17021481D01*
X12612704Y17122935D01*
X12613449Y17211470D01*
X12614348Y17284580D01*
X12615403Y17339758D01*
X12616616Y17374499D01*
X12617960Y17386300D01*
X12630639Y17380747D01*
M02*
